%FSLAX34Y34*%
%MOMM*%
%LNOUTLINE*%
G71*
G01*
%ADD10C,0.400*%
%ADD11C,0.150*%
%ADD12C,0.250*%
%ADD13C,0.200*%
%LPD*%
G54D10*
G75*
G01X1322294Y918172D02*
G03X1322294Y918172I-18250J0D01*
G01*
G36*
G75*
G01X1322294Y918172D02*
G03X1322294Y918172I-18250J0D01*
G01*
G37*
X1322294Y918172D01*
G54D10*
G75*
G01X1711231Y918172D02*
G03X1711231Y918172I-18250J0D01*
G01*
G36*
G75*
G01X1711231Y918172D02*
G03X1711231Y918172I-18250J0D01*
G01*
G37*
X1711231Y918172D01*
G54D11*
G75*
G01X388700Y941387D02*
G03X398700Y941387I5000J0D01*
G01*
G54D11*
G75*
G01X398700Y954088D02*
G03X388700Y954088I-5000J0D01*
G01*
G54D11*
X388700Y941387D02*
X388701Y954088D01*
G54D11*
X398701Y954088D02*
X398700Y941387D01*
G54D11*
G75*
G01X255350Y941387D02*
G03X265350Y941387I5000J0D01*
G01*
G54D11*
G75*
G01X265350Y954088D02*
G03X255350Y954088I-5000J0D01*
G01*
G54D11*
X255350Y941387D02*
X255351Y954088D01*
G54D11*
X265351Y954088D02*
X265350Y941387D01*
G54D11*
G75*
G01X320676Y962262D02*
G03X320676Y952262I0J-5000D01*
G01*
G54D11*
G75*
G01X333376Y952262D02*
G03X333376Y962262I0J5000D01*
G01*
G54D11*
X320676Y962262D02*
X333376Y962262D01*
G54D11*
X333376Y952262D02*
X320676Y952262D01*
G54D11*
G75*
G01X388700Y941387D02*
G03X398700Y941387I5000J0D01*
G01*
G54D11*
G75*
G01X398700Y954088D02*
G03X388700Y954088I-5000J0D01*
G01*
G54D11*
X388700Y941387D02*
X388701Y954088D01*
G54D11*
X398701Y954088D02*
X398700Y941387D01*
G54D11*
G75*
G01X579438Y942181D02*
G03X589438Y942181I5000J0D01*
G01*
G54D11*
G75*
G01X589438Y954882D02*
G03X579438Y954882I-5000J0D01*
G01*
G54D11*
X579438Y942181D02*
X579438Y954881D01*
G54D11*
X589438Y954881D02*
X589438Y942181D01*
G54D11*
G75*
G01X446088Y942181D02*
G03X456088Y942181I5000J0D01*
G01*
G54D11*
G75*
G01X456088Y954882D02*
G03X446088Y954882I-5000J0D01*
G01*
G54D11*
X446088Y942181D02*
X446088Y954881D01*
G54D11*
X456088Y954881D02*
X456088Y942181D01*
G54D11*
G75*
G01X511413Y963056D02*
G03X511413Y953056I0J-5000D01*
G01*
G54D11*
G75*
G01X524114Y953056D02*
G03X524114Y963056I0J5000D01*
G01*
G54D11*
X511413Y963056D02*
X524113Y963055D01*
G54D11*
X524113Y953055D02*
X511413Y953056D01*
G54D11*
G75*
G01X579438Y942181D02*
G03X589438Y942181I5000J0D01*
G01*
G54D11*
G75*
G01X589438Y954882D02*
G03X579438Y954882I-5000J0D01*
G01*
G54D11*
X579438Y942181D02*
X579438Y954881D01*
G54D11*
X589438Y954881D02*
X589438Y942181D01*
G54D10*
G75*
G01X706431Y918347D02*
G03X706431Y918347I-18250J0D01*
G01*
G36*
G75*
G01X706431Y918347D02*
G03X706431Y918347I-18250J0D01*
G01*
G37*
X706431Y918347D01*
G54D10*
G75*
G01X1179506Y918347D02*
G03X1179506Y918347I-18250J0D01*
G01*
G36*
G75*
G01X1179506Y918347D02*
G03X1179506Y918347I-18250J0D01*
G01*
G37*
X1179506Y918347D01*
G54D10*
G75*
G01X76200Y941388D02*
G03X76200Y941388I-19050J0D01*
G01*
G54D10*
G75*
G01X76200Y-238125D02*
G03X76200Y-238125I-19050J0D01*
G01*
G54D10*
G75*
G01X2203450Y941388D02*
G03X2203450Y941388I-19050J0D01*
G01*
G54D10*
G75*
G01X2203450Y-238125D02*
G03X2203450Y-238125I-19050J0D01*
G01*
G54D11*
G75*
G01X1790700Y941387D02*
G03X1800700Y941387I5000J0D01*
G01*
G54D11*
G75*
G01X1800700Y954088D02*
G03X1790700Y954088I-5000J0D01*
G01*
G54D11*
X1790700Y941387D02*
X1790700Y954088D01*
G54D11*
X1800700Y954088D02*
X1800700Y941387D01*
G54D11*
G75*
G01X1856025Y962262D02*
G03X1856025Y952262I0J-5000D01*
G01*
G54D11*
G75*
G01X1868726Y952262D02*
G03X1868726Y962262I0J5000D01*
G01*
G54D11*
X1856025Y962262D02*
X1868726Y962262D01*
G54D11*
X1868726Y952262D02*
X1856025Y952262D01*
G54D11*
G75*
G01X1924051Y941387D02*
G03X1934051Y941387I5000J0D01*
G01*
G54D11*
G75*
G01X1934051Y954088D02*
G03X1924051Y954088I-5000J0D01*
G01*
G54D11*
X1924051Y941387D02*
X1924052Y954088D01*
G54D11*
X1934052Y954088D02*
X1934051Y941387D01*
G54D12*
G75*
G01X136525Y504782D02*
G03X136525Y504782I-12700J0D01*
G01*
G54D12*
G75*
G01X136525Y604838D02*
G03X136525Y604838I-12700J0D01*
G01*
G54D12*
G75*
G01X136525Y676275D02*
G03X136525Y676275I-12700J0D01*
G01*
G54D12*
G75*
G01X136525Y776330D02*
G03X136525Y776330I-12700J0D01*
G01*
G54D12*
G75*
G01X102394Y-26988D02*
G03X102394Y-26988I-15082J0D01*
G01*
G54D13*
X11112Y996950D02*
X2231231Y996950D01*
X2239169Y989012D01*
X2239169Y-283369D01*
X2231231Y-291306D01*
X9525Y-291306D01*
X1588Y-283369D01*
X1588Y987425D01*
X11112Y996950D01*
G54D10*
G75*
G01X112712Y969169D02*
G03X112712Y969169I-9524J0D01*
G01*
G54D10*
G75*
G01X112712Y870744D02*
G03X112712Y870744I-9524J0D01*
G01*
G54D10*
G75*
G01X212725Y969169D02*
G03X212725Y969169I-9525J0D01*
G01*
G54D10*
G75*
G01X212725Y870744D02*
G03X212725Y870744I-9525J0D01*
G01*
G54D10*
G75*
G01X163512Y919956D02*
G03X163512Y919956I-9524J0D01*
G01*
M02*
