%FSLAX34Y34*%
%MOMM*%
%LNSILK_BOTTOM*%
G71*
G01*
%ADD10C,0.150*%
%ADD11C,0.144*%
%ADD12C,0.206*%
%ADD13C,0.189*%
%ADD14C,0.200*%
%ADD15C,0.318*%
%ADD16C,0.476*%
%ADD17C,0.238*%
%LPD*%
G54D10*
X2239169Y989012D02*
X2231231Y996950D01*
X11112Y996950D01*
X1588Y987425D01*
X1588Y-283369D01*
X9525Y-291306D01*
X2231231Y-291306D01*
X2239169Y-283369D01*
X2239169Y989012D01*
G54D10*
X145262Y775356D02*
X193925Y775356D01*
X193925Y754994D01*
X145262Y754994D01*
X145262Y775356D01*
G54D10*
X145262Y813456D02*
X193925Y813456D01*
X193925Y793094D01*
X145262Y793094D01*
X145262Y813456D01*
G54D10*
X145262Y743606D02*
X193925Y743606D01*
X193925Y723244D01*
X145262Y723244D01*
X145262Y743606D01*
G54D10*
X145262Y712650D02*
X193925Y712650D01*
X193925Y692288D01*
X145262Y692288D01*
X145262Y712650D01*
G54D10*
X222256Y699156D02*
X270919Y699156D01*
X270919Y678794D01*
X222256Y678794D01*
X222256Y699156D01*
G54D10*
X222256Y661056D02*
X270919Y661056D01*
X270919Y640694D01*
X222256Y640694D01*
X222256Y661056D01*
G54D10*
X296869Y851556D02*
X345531Y851556D01*
X345531Y831194D01*
X296869Y831194D01*
X296869Y851556D01*
G54D10*
X388150Y572950D02*
X436812Y572950D01*
X436812Y552588D01*
X388150Y552588D01*
X388150Y572950D01*
G54D10*
X223050Y457856D02*
X271712Y457856D01*
X271712Y437494D01*
X223050Y437494D01*
X223050Y457856D01*
G54D10*
X81762Y457856D02*
X130425Y457856D01*
X130425Y437494D01*
X81762Y437494D01*
X81762Y457856D01*
G54D10*
X145262Y457856D02*
X193925Y457856D01*
X193925Y437494D01*
X145262Y437494D01*
X145262Y457856D01*
G54D10*
X477844Y572950D02*
X526506Y572950D01*
X526506Y552588D01*
X477844Y552588D01*
X477844Y572950D01*
G54D10*
X445200Y535875D02*
X445200Y511875D01*
X381200Y511875D01*
X381200Y535875D01*
X445200Y535875D01*
G54D10*
X536481Y535875D02*
X536481Y511875D01*
X472481Y511875D01*
X472481Y535875D01*
X536481Y535875D01*
G54D10*
X579444Y598350D02*
X628106Y598350D01*
X628106Y577988D01*
X579444Y577988D01*
X579444Y598350D01*
G54D10*
X579444Y560250D02*
X628106Y560250D01*
X628106Y539888D01*
X579444Y539888D01*
X579444Y560250D01*
G54D10*
X636494Y649381D02*
X636494Y625381D01*
X572494Y625381D01*
X572494Y649381D01*
X636494Y649381D01*
G54D10*
X668344Y647562D02*
X717006Y647562D01*
X717006Y627200D01*
X668344Y627200D01*
X668344Y647562D01*
G54D10*
X668344Y610256D02*
X717006Y610256D01*
X717006Y589894D01*
X668344Y589894D01*
X668344Y610256D01*
G54D10*
X668344Y572950D02*
X717006Y572950D01*
X717006Y552588D01*
X668344Y552588D01*
X668344Y572950D01*
G54D10*
X724706Y535875D02*
X724706Y511875D01*
X660706Y511875D01*
X660706Y535875D01*
X724706Y535875D01*
G54D10*
X712694Y751775D02*
X712694Y727775D01*
X648694Y727775D01*
X648694Y751775D01*
X712694Y751775D01*
G54D10*
X861225Y629306D02*
X909888Y629306D01*
X909888Y608944D01*
X861225Y608944D01*
X861225Y629306D01*
G54D10*
X861225Y547550D02*
X909888Y547550D01*
X909888Y527188D01*
X861225Y527188D01*
X861225Y547550D01*
G54D10*
X554838Y407850D02*
X603500Y407850D01*
X603500Y387488D01*
X554838Y387488D01*
X554838Y407850D01*
G54D10*
X682631Y382450D02*
X731294Y382450D01*
X731294Y362088D01*
X682631Y362088D01*
X682631Y382450D01*
G54D10*
X886625Y407850D02*
X935288Y407850D01*
X935288Y387488D01*
X886625Y387488D01*
X886625Y407850D01*
G54D10*
X400850Y369750D02*
X449512Y369750D01*
X449512Y349388D01*
X400850Y349388D01*
X400850Y369750D01*
G54D10*
X81762Y407850D02*
X130425Y407850D01*
X130425Y387488D01*
X81762Y387488D01*
X81762Y407850D01*
G54D10*
X81762Y369750D02*
X130425Y369750D01*
X130425Y349388D01*
X81762Y349388D01*
X81762Y369750D01*
G54D10*
X88112Y280850D02*
X136775Y280850D01*
X136775Y260488D01*
X88112Y260488D01*
X88112Y280850D01*
G54D10*
X223050Y350700D02*
X271712Y350700D01*
X271712Y330338D01*
X223050Y330338D01*
X223050Y350700D01*
G54D10*
X171456Y218144D02*
X220119Y218144D01*
X220119Y197781D01*
X171456Y197781D01*
X171456Y218144D01*
G54D10*
X171456Y178456D02*
X220119Y178456D01*
X220119Y158094D01*
X171456Y158094D01*
X171456Y178456D01*
G54D10*
X171456Y127656D02*
X220119Y127656D01*
X220119Y107294D01*
X171456Y107294D01*
X171456Y127656D01*
G54D10*
X171456Y91144D02*
X220119Y91144D01*
X220119Y70781D01*
X171456Y70781D01*
X171456Y91144D01*
G54D10*
X1000925Y407850D02*
X1049588Y407850D01*
X1049588Y387488D01*
X1000925Y387488D01*
X1000925Y407850D01*
G54D10*
X1154869Y407950D02*
X1203531Y407950D01*
X1203531Y387588D01*
X1154869Y387588D01*
X1154869Y407950D01*
G54D10*
X1256425Y408050D02*
X1305088Y408050D01*
X1305088Y387688D01*
X1256425Y387688D01*
X1256425Y408050D01*
G54D10*
X210350Y-37444D02*
X259012Y-37444D01*
X259012Y-57806D01*
X210350Y-57806D01*
X210350Y-37444D01*
G54D10*
X210350Y-75544D02*
X259012Y-75544D01*
X259012Y-95906D01*
X210350Y-95906D01*
X210350Y-75544D01*
G54D10*
X210350Y-112056D02*
X259012Y-112056D01*
X259012Y-132419D01*
X210350Y-132419D01*
X210350Y-112056D01*
G54D10*
X298412Y-37344D02*
X347075Y-37344D01*
X347075Y-57706D01*
X298412Y-57706D01*
X298412Y-37344D01*
G54D10*
X298412Y1550D02*
X347075Y1550D01*
X347075Y-18812D01*
X298412Y-18812D01*
X298412Y1550D01*
G54D10*
X298412Y-74650D02*
X347075Y-74650D01*
X347075Y-95012D01*
X298412Y-95012D01*
X298412Y-74650D01*
G54D10*
X298412Y-125450D02*
X347075Y-125450D01*
X347075Y-145812D01*
X298412Y-145812D01*
X298412Y-125450D01*
G54D10*
X374612Y39650D02*
X423275Y39650D01*
X423275Y19288D01*
X374612Y19288D01*
X374612Y39650D01*
G54D10*
X439700Y39650D02*
X488362Y39650D01*
X488362Y19288D01*
X439700Y19288D01*
X439700Y39650D01*
G54D10*
X541256Y39750D02*
X589919Y39750D01*
X589919Y19388D01*
X541256Y19388D01*
X541256Y39750D01*
G54D10*
X541256Y-24544D02*
X589919Y-24544D01*
X589919Y-44906D01*
X541256Y-44906D01*
X541256Y-24544D01*
G54D10*
X605506Y39850D02*
X654169Y39850D01*
X654169Y19488D01*
X605506Y19488D01*
X605506Y39850D01*
G54D10*
X605506Y6512D02*
X654169Y6512D01*
X654169Y-13850D01*
X605506Y-13850D01*
X605506Y6512D01*
G54D10*
X606300Y-24444D02*
X654962Y-24444D01*
X654962Y-44806D01*
X606300Y-44806D01*
X606300Y-24444D01*
G54D10*
X605506Y71600D02*
X654169Y71600D01*
X654169Y51238D01*
X605506Y51238D01*
X605506Y71600D01*
G54D10*
X605506Y102556D02*
X654169Y102556D01*
X654169Y82194D01*
X605506Y82194D01*
X605506Y102556D01*
G54D10*
X515812Y141450D02*
X564475Y141450D01*
X564475Y121088D01*
X515812Y121088D01*
X515812Y141450D01*
G54D10*
X573756Y204950D02*
X622419Y204950D01*
X622419Y184588D01*
X573756Y184588D01*
X573756Y204950D01*
G54D10*
X656306Y192250D02*
X704969Y192250D01*
X704969Y171888D01*
X656306Y171888D01*
X656306Y192250D01*
G54D10*
X758700Y179550D02*
X807362Y179550D01*
X807362Y159188D01*
X758700Y159188D01*
X758700Y179550D01*
G54D10*
X848394Y154547D02*
X897056Y154547D01*
X897056Y134184D01*
X848394Y134184D01*
X848394Y154547D01*
G54D10*
X975350Y155044D02*
X1024012Y155044D01*
X1024012Y134681D01*
X975350Y134681D01*
X975350Y155044D01*
G54D10*
X848394Y239875D02*
X897056Y239875D01*
X897056Y219512D01*
X848394Y219512D01*
X848394Y239875D01*
G54D10*
X915025Y239975D02*
X963688Y239975D01*
X963688Y219612D01*
X915025Y219612D01*
X915025Y239975D01*
G54D10*
X988800Y240075D02*
X1037462Y240075D01*
X1037462Y219712D01*
X988800Y219712D01*
X988800Y240075D01*
G54D10*
X1078450Y240175D02*
X1127112Y240175D01*
X1127112Y219812D01*
X1078450Y219812D01*
X1078450Y240175D01*
G54D10*
X1206200Y240275D02*
X1254862Y240275D01*
X1254862Y219912D01*
X1206200Y219912D01*
X1206200Y240275D01*
G54D10*
X1206200Y191062D02*
X1254862Y191062D01*
X1254862Y170700D01*
X1206200Y170700D01*
X1206200Y191062D01*
G54D10*
X1262763Y155669D02*
X1262763Y131669D01*
X1198762Y131669D01*
X1198762Y155669D01*
X1262763Y155669D01*
G54D10*
X1206200Y52156D02*
X1254862Y52156D01*
X1254862Y31794D01*
X1206200Y31794D01*
X1206200Y52156D01*
G54D10*
X1287778Y322722D02*
X1336441Y322722D01*
X1336441Y302359D01*
X1287778Y302359D01*
X1287778Y322722D01*
G54D10*
X1347706Y178656D02*
X1396369Y178656D01*
X1396369Y158294D01*
X1347706Y158294D01*
X1347706Y178656D01*
G54D10*
X1449306Y248506D02*
X1497969Y248506D01*
X1497969Y228144D01*
X1449306Y228144D01*
X1449306Y248506D01*
G54D10*
X1449306Y306450D02*
X1497969Y306450D01*
X1497969Y286088D01*
X1449306Y286088D01*
X1449306Y306450D01*
G54D10*
X1449306Y192150D02*
X1497969Y192150D01*
X1497969Y171788D01*
X1449306Y171788D01*
X1449306Y192150D01*
G54D10*
X1435812Y65150D02*
X1484475Y65150D01*
X1484475Y44788D01*
X1435812Y44788D01*
X1435812Y65150D01*
G54D10*
X1435812Y-22956D02*
X1484475Y-22956D01*
X1484475Y-43319D01*
X1435812Y-43319D01*
X1435812Y-22956D01*
G54D10*
X1309606Y-76931D02*
X1358269Y-76931D01*
X1358269Y-97294D01*
X1309606Y-97294D01*
X1309606Y-76931D01*
G54D10*
X1090531Y-76931D02*
X1139194Y-76931D01*
X1139194Y-97294D01*
X1090531Y-97294D01*
X1090531Y-76931D01*
G54D10*
X1398506Y-99156D02*
X1447169Y-99156D01*
X1447169Y-119519D01*
X1398506Y-119519D01*
X1398506Y-99156D01*
G54D10*
X1398506Y-150750D02*
X1447169Y-150750D01*
X1447169Y-171112D01*
X1398506Y-171112D01*
X1398506Y-150750D01*
G54D10*
X1014419Y718206D02*
X1063081Y718206D01*
X1063081Y697844D01*
X1014419Y697844D01*
X1014419Y718206D01*
G54D10*
X1110419Y718306D02*
X1159081Y718306D01*
X1159081Y697944D01*
X1110419Y697944D01*
X1110419Y718306D01*
G54D10*
X1116769Y636550D02*
X1165431Y636550D01*
X1165431Y616188D01*
X1116769Y616188D01*
X1116769Y636550D01*
G54D10*
X1181019Y636650D02*
X1229681Y636650D01*
X1229681Y616288D01*
X1181019Y616288D01*
X1181019Y636650D01*
G54D10*
X1116769Y522250D02*
X1165431Y522250D01*
X1165431Y501888D01*
X1116769Y501888D01*
X1116769Y522250D01*
G54D10*
X1249269Y523969D02*
X1249269Y499969D01*
X1185269Y499969D01*
X1185269Y523969D01*
X1249269Y523969D01*
G54D10*
X1339812Y540506D02*
X1388475Y540506D01*
X1388475Y520144D01*
X1339812Y520144D01*
X1339812Y540506D01*
G54D10*
X1461256Y533362D02*
X1509919Y533362D01*
X1509919Y513000D01*
X1461256Y513000D01*
X1461256Y533362D01*
G54D10*
X1523919Y533462D02*
X1572581Y533462D01*
X1572581Y513100D01*
X1523919Y513100D01*
X1523919Y533462D01*
G54D10*
X1666044Y496850D02*
X1714706Y496850D01*
X1714706Y476488D01*
X1666044Y476488D01*
X1666044Y496850D01*
G54D10*
X1830306Y496950D02*
X1878969Y496950D01*
X1878969Y476588D01*
X1830306Y476588D01*
X1830306Y496950D01*
G54D10*
X1537456Y419856D02*
X1586119Y419856D01*
X1586119Y399494D01*
X1537456Y399494D01*
X1537456Y419856D01*
G54D10*
X1537456Y382550D02*
X1586119Y382550D01*
X1586119Y362188D01*
X1537456Y362188D01*
X1537456Y382550D01*
G54D10*
X1537456Y347625D02*
X1586119Y347625D01*
X1586119Y327262D01*
X1537456Y327262D01*
X1537456Y347625D01*
G54D10*
X1608850Y347725D02*
X1657512Y347725D01*
X1657512Y327362D01*
X1608850Y327362D01*
X1608850Y347725D01*
G54D10*
X1727956Y636550D02*
X1776619Y636550D01*
X1776619Y616188D01*
X1727956Y616188D01*
X1727956Y636550D01*
G54D10*
X1727956Y674650D02*
X1776619Y674650D01*
X1776619Y654288D01*
X1727956Y654288D01*
X1727956Y674650D01*
G54D10*
X1677950Y344450D02*
X1726612Y344450D01*
X1726612Y324088D01*
X1677950Y324088D01*
X1677950Y344450D01*
G54D10*
X1677950Y306350D02*
X1726612Y306350D01*
X1726612Y285988D01*
X1677950Y285988D01*
X1677950Y306350D01*
G54D10*
X1742994Y344550D02*
X1791656Y344550D01*
X1791656Y324188D01*
X1742994Y324188D01*
X1742994Y344550D01*
G54D10*
X1742994Y306450D02*
X1791656Y306450D01*
X1791656Y286088D01*
X1742994Y286088D01*
X1742994Y306450D01*
G54D10*
X1907256Y344650D02*
X1955919Y344650D01*
X1955919Y324288D01*
X1907256Y324288D01*
X1907256Y344650D01*
G54D10*
X1907256Y306550D02*
X1955919Y306550D01*
X1955919Y286188D01*
X1907256Y286188D01*
X1907256Y306550D01*
G54D10*
X1907256Y231144D02*
X1955919Y231144D01*
X1955919Y210781D01*
X1907256Y210781D01*
X1907256Y231144D01*
G54D10*
X1831894Y384238D02*
X1880556Y384238D01*
X1880556Y363875D01*
X1831894Y363875D01*
X1831894Y384238D01*
G54D10*
X1831100Y269144D02*
X1879762Y269144D01*
X1879762Y248781D01*
X1831100Y248781D01*
X1831100Y269144D01*
G54D10*
X1831100Y155638D02*
X1879762Y155638D01*
X1879762Y135275D01*
X1831100Y135275D01*
X1831100Y155638D01*
G54D10*
X1907256Y130338D02*
X1955919Y130338D01*
X1955919Y109975D01*
X1907256Y109975D01*
X1907256Y130338D01*
G54D10*
X1831100Y34988D02*
X1879762Y34988D01*
X1879762Y14625D01*
X1831100Y14625D01*
X1831100Y34988D01*
G54D10*
X1587419Y204056D02*
X1636081Y204056D01*
X1636081Y183694D01*
X1587419Y183694D01*
X1587419Y204056D01*
G54D10*
X1624725Y-61056D02*
X1673388Y-61056D01*
X1673388Y-81419D01*
X1624725Y-81419D01*
X1624725Y-61056D01*
G54D10*
X1831100Y-72962D02*
X1879762Y-72962D01*
X1879762Y-93325D01*
X1831100Y-93325D01*
X1831100Y-72962D01*
G54D10*
X1677950Y180144D02*
X1726612Y180144D01*
X1726612Y159781D01*
X1677950Y159781D01*
X1677950Y180144D01*
G54D10*
X1741406Y180244D02*
X1790069Y180244D01*
X1790069Y159881D01*
X1741406Y159881D01*
X1741406Y180244D01*
G54D10*
X1677950Y142044D02*
X1726612Y142044D01*
X1726612Y121681D01*
X1677950Y121681D01*
X1677950Y142044D01*
G54D10*
X1741406Y142144D02*
X1790069Y142144D01*
X1790069Y121781D01*
X1741406Y121781D01*
X1741406Y142144D01*
G54D10*
X1677950Y104738D02*
X1726612Y104738D01*
X1726612Y84375D01*
X1677950Y84375D01*
X1677950Y104738D01*
G54D10*
X1741406Y104838D02*
X1790069Y104838D01*
X1790069Y84475D01*
X1741406Y84475D01*
X1741406Y104838D01*
G54D10*
X1677950Y66638D02*
X1726612Y66638D01*
X1726612Y46275D01*
X1677950Y46275D01*
X1677950Y66638D01*
G54D10*
X1741406Y66738D02*
X1790069Y66738D01*
X1790069Y46375D01*
X1741406Y46375D01*
X1741406Y66738D01*
G54D10*
X1677950Y27744D02*
X1726612Y27744D01*
X1726612Y7381D01*
X1677950Y7381D01*
X1677950Y27744D01*
G54D10*
X1741406Y27844D02*
X1790069Y27844D01*
X1790069Y7481D01*
X1741406Y7481D01*
X1741406Y27844D01*
G54D10*
X1655725Y-177044D02*
X1704388Y-177044D01*
X1704388Y-197406D01*
X1655725Y-197406D01*
X1655725Y-177044D01*
G54D10*
X1655725Y-208000D02*
X1704388Y-208000D01*
X1704388Y-228362D01*
X1655725Y-228362D01*
X1655725Y-208000D01*
G54D10*
X1728750Y-177044D02*
X1777412Y-177044D01*
X1777412Y-197406D01*
X1728750Y-197406D01*
X1728750Y-177044D01*
G54D10*
X1728750Y-208000D02*
X1777412Y-208000D01*
X1777412Y-228362D01*
X1728750Y-228362D01*
X1728750Y-208000D01*
G54D10*
X1808919Y-174662D02*
X1857581Y-174662D01*
X1857581Y-195025D01*
X1808919Y-195025D01*
X1808919Y-174662D01*
G54D10*
X1808919Y-205619D02*
X1857581Y-205619D01*
X1857581Y-225981D01*
X1808919Y-225981D01*
X1808919Y-205619D01*
G54D10*
X1891469Y-176250D02*
X1940131Y-176250D01*
X1940131Y-196612D01*
X1891469Y-196612D01*
X1891469Y-176250D01*
G54D10*
X1891469Y-207206D02*
X1940131Y-207206D01*
X1940131Y-227569D01*
X1891469Y-227569D01*
X1891469Y-207206D01*
G54D10*
X1575556Y-172281D02*
X1624219Y-172281D01*
X1624219Y-192644D01*
X1575556Y-192644D01*
X1575556Y-172281D01*
G54D10*
X1575556Y-203238D02*
X1624219Y-203238D01*
X1624219Y-223600D01*
X1575556Y-223600D01*
X1575556Y-203238D01*
G54D10*
X1491419Y-162756D02*
X1540081Y-162756D01*
X1540081Y-183119D01*
X1491419Y-183119D01*
X1491419Y-162756D01*
G54D10*
X1491419Y-193712D02*
X1540081Y-193712D01*
X1540081Y-214075D01*
X1491419Y-214075D01*
X1491419Y-193712D01*
G54D10*
X1624725Y-103919D02*
X1673388Y-103919D01*
X1673388Y-124281D01*
X1624725Y-124281D01*
X1624725Y-103919D01*
G54D10*
X1704894Y-103919D02*
X1753556Y-103919D01*
X1753556Y-124281D01*
X1704894Y-124281D01*
X1704894Y-103919D01*
G54D10*
X1548525Y-106300D02*
X1597188Y-106300D01*
X1597188Y-126663D01*
X1548525Y-126663D01*
X1548525Y-106300D01*
G54D10*
X1996994Y-47562D02*
X2045656Y-47562D01*
X2045656Y-67925D01*
X1996994Y-67925D01*
X1996994Y-47562D01*
G54D10*
X1996994Y-102331D02*
X2045656Y-102331D01*
X2045656Y-122694D01*
X1996994Y-122694D01*
X1996994Y-102331D01*
G54D10*
X1996994Y-135669D02*
X2045656Y-135669D01*
X2045656Y-156031D01*
X1996994Y-156031D01*
X1996994Y-135669D01*
G54D10*
X2074781Y-101538D02*
X2123444Y-101538D01*
X2123444Y-121900D01*
X2074781Y-121900D01*
X2074781Y-101538D01*
G54D10*
X2037475Y-1525D02*
X2086138Y-1525D01*
X2086138Y-21888D01*
X2037475Y-21888D01*
X2037475Y-1525D01*
G54D10*
X2109706Y-1525D02*
X2158369Y-1525D01*
X2158369Y-21888D01*
X2109706Y-21888D01*
X2109706Y-1525D01*
G54D10*
X1827175Y611944D02*
X1875838Y611944D01*
X1875838Y591581D01*
X1827175Y591581D01*
X1827175Y611944D01*
G54D10*
X1830350Y725450D02*
X1879012Y725450D01*
X1879012Y705088D01*
X1830350Y705088D01*
X1830350Y725450D01*
G54D10*
X1908094Y586644D02*
X1956756Y586644D01*
X1956756Y566281D01*
X1908094Y566281D01*
X1908094Y586644D01*
G54D10*
X1997788Y586644D02*
X2046450Y586644D01*
X2046450Y566281D01*
X1997788Y566281D01*
X1997788Y586644D01*
G54D10*
X1997788Y623950D02*
X2046450Y623950D01*
X2046450Y603588D01*
X1997788Y603588D01*
X1997788Y623950D01*
G54D10*
X1997788Y662050D02*
X2046450Y662050D01*
X2046450Y641688D01*
X1997788Y641688D01*
X1997788Y662050D01*
G54D10*
X1997788Y700150D02*
X2046450Y700150D01*
X2046450Y679788D01*
X1997788Y679788D01*
X1997788Y700150D01*
G54D10*
X2009694Y827150D02*
X2058356Y827150D01*
X2058356Y806788D01*
X2009694Y806788D01*
X2009694Y827150D01*
G54D10*
X2009694Y789050D02*
X2058356Y789050D01*
X2058356Y768688D01*
X2009694Y768688D01*
X2009694Y789050D01*
G54D10*
X2086644Y827250D02*
X2135306Y827250D01*
X2135306Y806888D01*
X2086644Y806888D01*
X2086644Y827250D01*
G54D10*
X2086644Y789150D02*
X2135306Y789150D01*
X2135306Y768788D01*
X2086644Y768788D01*
X2086644Y789150D01*
G54D11*
X125327Y806296D02*
X122727Y804852D01*
X121860Y803407D01*
X121860Y800518D01*
G54D11*
X128794Y800518D02*
X128794Y812074D01*
X124460Y812074D01*
X122727Y811352D01*
X121860Y809907D01*
X121860Y808463D01*
X122727Y807018D01*
X124460Y806296D01*
X128794Y806296D01*
G54D11*
X118683Y802685D02*
X117816Y801241D01*
X116083Y800518D01*
X114350Y800518D01*
X112616Y801241D01*
X111750Y802685D01*
X111750Y806296D01*
X111750Y807018D01*
X114350Y805574D01*
X116083Y805574D01*
X117816Y806296D01*
X118683Y807741D01*
X118683Y809907D01*
X117816Y811352D01*
X116083Y812074D01*
X114350Y812074D01*
X112616Y811352D01*
X111750Y809907D01*
X111750Y806296D01*
G54D11*
X108572Y802685D02*
X107705Y801241D01*
X105972Y800518D01*
X104238Y800518D01*
X102505Y801241D01*
X101638Y802685D01*
X101638Y806296D01*
X101638Y807018D01*
X104238Y805574D01*
X105972Y805574D01*
X107705Y806296D01*
X108572Y807741D01*
X108572Y809907D01*
X107705Y811352D01*
X105972Y812074D01*
X104238Y812074D01*
X102505Y811352D01*
X101638Y809907D01*
X101638Y806296D01*
G54D11*
X330616Y863804D02*
X331483Y862359D01*
X333216Y861637D01*
X334950Y861637D01*
X336683Y862359D01*
X337550Y863804D01*
X337550Y871026D01*
X336683Y872471D01*
X334950Y873193D01*
X333216Y873193D01*
X331483Y872471D01*
X330616Y871026D01*
G54D11*
X320505Y871026D02*
X321372Y872471D01*
X323105Y873193D01*
X324839Y873193D01*
X326572Y872471D01*
X327439Y871026D01*
X327439Y867415D01*
X327439Y866693D01*
X324839Y868137D01*
X323105Y868137D01*
X321372Y867415D01*
X320505Y865971D01*
X320505Y863804D01*
X321372Y862359D01*
X323105Y861637D01*
X324839Y861637D01*
X326572Y862359D01*
X327439Y863804D01*
X327439Y867415D01*
G54D11*
X310394Y871026D02*
X311261Y872471D01*
X312994Y873193D01*
X314728Y873193D01*
X316461Y872471D01*
X317328Y871026D01*
X317328Y867415D01*
X317328Y866693D01*
X314728Y868137D01*
X312994Y868137D01*
X311261Y867415D01*
X310394Y865971D01*
X310394Y863804D01*
X311261Y862359D01*
X312994Y861637D01*
X314728Y861637D01*
X316461Y862359D01*
X317328Y863804D01*
X317328Y867415D01*
G54D11*
X211026Y756730D02*
X209582Y759330D01*
X208137Y760197D01*
X205248Y760197D01*
G54D11*
X205248Y753264D02*
X216804Y753264D01*
X216804Y757597D01*
X216082Y759330D01*
X214637Y760197D01*
X213193Y760197D01*
X211748Y759330D01*
X211026Y757597D01*
X211026Y753264D01*
G54D11*
X207415Y763375D02*
X205971Y764242D01*
X205248Y765975D01*
X205248Y767708D01*
X205971Y769442D01*
X207415Y770308D01*
X211026Y770308D01*
X211748Y770308D01*
X210304Y767708D01*
X210304Y765975D01*
X211026Y764242D01*
X212471Y763375D01*
X214637Y763375D01*
X216082Y764242D01*
X216804Y765975D01*
X216804Y767708D01*
X216082Y769442D01*
X214637Y770308D01*
X211026Y770308D01*
G54D11*
X211026Y777819D02*
X211026Y776086D01*
X211748Y774352D01*
X213193Y773486D01*
X214637Y773486D01*
X216082Y774352D01*
X216804Y776086D01*
X216804Y777819D01*
X216082Y779552D01*
X214637Y780419D01*
X213193Y780419D01*
X211748Y779552D01*
X211026Y777819D01*
X210304Y779552D01*
X208860Y780419D01*
X207415Y780419D01*
X205971Y779552D01*
X205248Y777819D01*
X205248Y776086D01*
X205971Y774352D01*
X207415Y773486D01*
X208860Y773486D01*
X210304Y774352D01*
X211026Y776086D01*
G54D11*
X125327Y715015D02*
X122727Y713571D01*
X121860Y712126D01*
X121860Y709237D01*
G54D11*
X128794Y709237D02*
X128794Y720793D01*
X124460Y720793D01*
X122727Y720071D01*
X121860Y718626D01*
X121860Y717182D01*
X122727Y715737D01*
X124460Y715015D01*
X128794Y715015D01*
G54D11*
X118683Y711404D02*
X117816Y709960D01*
X116083Y709237D01*
X114350Y709237D01*
X112616Y709960D01*
X111750Y711404D01*
X111750Y715015D01*
X111750Y715737D01*
X114350Y714293D01*
X116083Y714293D01*
X117816Y715015D01*
X118683Y716460D01*
X118683Y718626D01*
X117816Y720071D01*
X116083Y720793D01*
X114350Y720793D01*
X112616Y720071D01*
X111750Y718626D01*
X111750Y715015D01*
G54D11*
X108572Y720793D02*
X101638Y720793D01*
X102505Y719348D01*
X104238Y717182D01*
X105972Y714293D01*
X106838Y712126D01*
X106838Y709237D01*
G54D11*
X172660Y660604D02*
X173527Y659160D01*
X175260Y658438D01*
X176994Y658438D01*
X178727Y659160D01*
X179594Y660604D01*
X179594Y667826D01*
X178727Y669271D01*
X176994Y669993D01*
X175260Y669993D01*
X173527Y669271D01*
X172660Y667826D01*
G54D11*
X169483Y669993D02*
X162549Y669993D01*
X163416Y668549D01*
X165149Y666382D01*
X166883Y663493D01*
X167749Y661326D01*
X167749Y658438D01*
G54D11*
X154172Y658438D02*
X154172Y669993D01*
X159372Y662771D01*
X159372Y661326D01*
X152438Y661326D01*
G54D11*
X254417Y709023D02*
X255284Y707578D01*
X257017Y706856D01*
X258750Y706856D01*
X260484Y707578D01*
X261350Y709023D01*
X261350Y716245D01*
X260484Y717689D01*
X258750Y718412D01*
X257017Y718412D01*
X255284Y717689D01*
X254417Y716245D01*
G54D11*
X251239Y718412D02*
X244306Y718412D01*
X245173Y716967D01*
X246906Y714800D01*
X248639Y711912D01*
X249506Y709745D01*
X249506Y706856D01*
G54D11*
X241128Y716245D02*
X240262Y717689D01*
X238528Y718412D01*
X236795Y718412D01*
X235062Y717689D01*
X234195Y716245D01*
X234195Y714800D01*
X235062Y713356D01*
X236795Y712634D01*
X235062Y711912D01*
X234195Y710467D01*
X234195Y709023D01*
X235062Y707578D01*
X236795Y706856D01*
X238528Y706856D01*
X240262Y707578D01*
X241128Y709023D01*
G54D11*
X253623Y625679D02*
X254490Y624234D01*
X256223Y623512D01*
X257956Y623512D01*
X259690Y624234D01*
X260556Y625679D01*
X260556Y632901D01*
X259690Y634346D01*
X257956Y635068D01*
X256223Y635068D01*
X254490Y634346D01*
X253623Y632901D01*
G54D11*
X250446Y635068D02*
X243512Y635068D01*
X244379Y633623D01*
X246112Y631457D01*
X247846Y628568D01*
X248712Y626401D01*
X248712Y623512D01*
G54D11*
X233401Y623512D02*
X240334Y623512D01*
X240334Y624234D01*
X239468Y625679D01*
X234268Y630012D01*
X233401Y631457D01*
X233401Y632901D01*
X234268Y634346D01*
X236001Y635068D01*
X237734Y635068D01*
X239468Y634346D01*
X240334Y632901D01*
G54D12*
X749163Y740868D02*
X749163Y729312D01*
X743096Y729312D01*
G54D12*
X732118Y738701D02*
X732985Y740146D01*
X734718Y740868D01*
X736452Y740868D01*
X738185Y740146D01*
X739052Y738701D01*
X739052Y735090D01*
X739052Y734368D01*
X736452Y735812D01*
X734718Y735812D01*
X732985Y735090D01*
X732118Y733646D01*
X732118Y731479D01*
X732985Y730035D01*
X734718Y729312D01*
X736452Y729312D01*
X738185Y730035D01*
X739052Y731479D01*
X739052Y735090D01*
G54D11*
X242802Y476890D02*
X240202Y475446D01*
X239335Y474001D01*
X239335Y471112D01*
G54D11*
X246268Y471112D02*
X246268Y482668D01*
X241935Y482668D01*
X240202Y481946D01*
X239335Y480501D01*
X239335Y479057D01*
X240202Y477612D01*
X241935Y476890D01*
X246268Y476890D01*
G54D11*
X236157Y473279D02*
X235291Y471834D01*
X233557Y471112D01*
X231824Y471112D01*
X230091Y471834D01*
X229224Y473279D01*
X229224Y476890D01*
X229224Y477612D01*
X231824Y476168D01*
X233557Y476168D01*
X235291Y476890D01*
X236157Y478334D01*
X236157Y480501D01*
X235291Y481946D01*
X233557Y482668D01*
X231824Y482668D01*
X230091Y481946D01*
X229224Y480501D01*
X229224Y476890D01*
G54D11*
X226046Y480501D02*
X225180Y481946D01*
X223446Y482668D01*
X221713Y482668D01*
X219980Y481946D01*
X219113Y480501D01*
X219113Y479057D01*
X219980Y477612D01*
X221713Y476890D01*
X219980Y476168D01*
X219113Y474723D01*
X219113Y473279D01*
X219980Y471834D01*
X221713Y471112D01*
X223446Y471112D01*
X225180Y471834D01*
X226046Y473279D01*
G54D11*
X177423Y473279D02*
X178290Y471834D01*
X180023Y471112D01*
X181756Y471112D01*
X183490Y471834D01*
X184356Y473279D01*
X184356Y480501D01*
X183490Y481946D01*
X181756Y482668D01*
X180023Y482668D01*
X178290Y481946D01*
X177423Y480501D01*
G54D11*
X174245Y482668D02*
X167312Y482668D01*
X168179Y481223D01*
X169912Y479057D01*
X171645Y476168D01*
X172512Y474001D01*
X172512Y471112D01*
G54D11*
X164134Y478334D02*
X159801Y482668D01*
X159801Y471112D01*
G54D11*
X115008Y476890D02*
X112408Y475446D01*
X111542Y474001D01*
X111542Y471112D01*
G54D11*
X118475Y471112D02*
X118475Y482668D01*
X114142Y482668D01*
X112408Y481946D01*
X111542Y480501D01*
X111542Y479057D01*
X112408Y477612D01*
X114142Y476890D01*
X118475Y476890D01*
G54D11*
X108364Y473279D02*
X107497Y471834D01*
X105764Y471112D01*
X104031Y471112D01*
X102297Y471834D01*
X101431Y473279D01*
X101431Y476890D01*
X101431Y477612D01*
X104031Y476168D01*
X105764Y476168D01*
X107497Y476890D01*
X108364Y478334D01*
X108364Y480501D01*
X107497Y481946D01*
X105764Y482668D01*
X104031Y482668D01*
X102297Y481946D01*
X101431Y480501D01*
X101431Y476890D01*
G54D11*
X91320Y480501D02*
X92186Y481946D01*
X93920Y482668D01*
X95653Y482668D01*
X97386Y481946D01*
X98253Y480501D01*
X98253Y476890D01*
X98253Y476168D01*
X95653Y477612D01*
X93920Y477612D01*
X92186Y476890D01*
X91320Y475446D01*
X91320Y473279D01*
X92186Y471834D01*
X93920Y471112D01*
X95653Y471112D01*
X97386Y471834D01*
X98253Y473279D01*
X98253Y476890D01*
G54D11*
X58652Y400690D02*
X56052Y399246D01*
X55186Y397801D01*
X55186Y394912D01*
G54D11*
X62119Y394912D02*
X62119Y406468D01*
X57786Y406468D01*
X56052Y405746D01*
X55186Y404301D01*
X55186Y402857D01*
X56052Y401412D01*
X57786Y400690D01*
X62119Y400690D01*
G54D11*
X52008Y397079D02*
X51141Y395635D01*
X49408Y394912D01*
X47674Y394912D01*
X45941Y395635D01*
X45074Y397079D01*
X45074Y400690D01*
X45074Y401412D01*
X47674Y399968D01*
X49408Y399968D01*
X51141Y400690D01*
X52008Y402135D01*
X52008Y404301D01*
X51141Y405746D01*
X49408Y406468D01*
X47674Y406468D01*
X45941Y405746D01*
X45074Y404301D01*
X45074Y400690D01*
G54D11*
X34964Y406468D02*
X41897Y406468D01*
X41897Y401412D01*
X41030Y401412D01*
X39297Y402135D01*
X37564Y402135D01*
X35830Y401412D01*
X34964Y399968D01*
X34964Y397079D01*
X35830Y395635D01*
X37564Y394912D01*
X39297Y394912D01*
X41030Y395635D01*
X41897Y397079D01*
G54D11*
X58652Y360209D02*
X56052Y358765D01*
X55186Y357320D01*
X55186Y354431D01*
G54D11*
X62119Y354431D02*
X62119Y365987D01*
X57786Y365987D01*
X56052Y365265D01*
X55186Y363820D01*
X55186Y362376D01*
X56052Y360931D01*
X57786Y360209D01*
X62119Y360209D01*
G54D11*
X52008Y356598D02*
X51141Y355154D01*
X49408Y354431D01*
X47674Y354431D01*
X45941Y355154D01*
X45074Y356598D01*
X45074Y360209D01*
X45074Y360931D01*
X47674Y359487D01*
X49408Y359487D01*
X51141Y360209D01*
X52008Y361654D01*
X52008Y363820D01*
X51141Y365265D01*
X49408Y365987D01*
X47674Y365987D01*
X45941Y365265D01*
X45074Y363820D01*
X45074Y360209D01*
G54D11*
X36697Y354431D02*
X36697Y365987D01*
X41897Y358765D01*
X41897Y357320D01*
X34964Y357320D01*
G54D11*
X268995Y365765D02*
X266395Y364321D01*
X265529Y362876D01*
X265529Y359988D01*
G54D11*
X272462Y359988D02*
X272462Y371543D01*
X268129Y371543D01*
X266395Y370821D01*
X265529Y369376D01*
X265529Y367932D01*
X266395Y366488D01*
X268129Y365765D01*
X272462Y365765D01*
G54D11*
X262351Y362154D02*
X261484Y360710D01*
X259751Y359988D01*
X258018Y359988D01*
X256284Y360710D01*
X255418Y362154D01*
X255418Y365765D01*
X255418Y366488D01*
X258018Y365043D01*
X259751Y365043D01*
X261484Y365765D01*
X262351Y367210D01*
X262351Y369376D01*
X261484Y370821D01*
X259751Y371543D01*
X258018Y371543D01*
X256284Y370821D01*
X255418Y369376D01*
X255418Y365765D01*
G54D11*
X245307Y359988D02*
X252240Y359988D01*
X252240Y360710D01*
X251373Y362154D01*
X246173Y366488D01*
X245307Y367932D01*
X245307Y369376D01*
X246173Y370821D01*
X247907Y371543D01*
X249640Y371543D01*
X251373Y370821D01*
X252240Y369376D01*
G54D11*
X121067Y289923D02*
X121933Y288478D01*
X123667Y287756D01*
X125400Y287756D01*
X127133Y288478D01*
X128000Y289923D01*
X128000Y297145D01*
X127133Y298590D01*
X125400Y299312D01*
X123667Y299312D01*
X121933Y298590D01*
X121067Y297145D01*
G54D11*
X117889Y299312D02*
X110956Y299312D01*
X111822Y297867D01*
X113556Y295701D01*
X115289Y292812D01*
X116156Y290645D01*
X116156Y287756D01*
G54D11*
X100845Y297145D02*
X100845Y289923D01*
X101711Y288478D01*
X103445Y287756D01*
X105178Y287756D01*
X106911Y288478D01*
X107778Y289923D01*
X107778Y297145D01*
X106911Y298590D01*
X105178Y299312D01*
X103445Y299312D01*
X101711Y298590D01*
X100845Y297145D01*
G54D11*
X259179Y194673D02*
X260046Y193229D01*
X261779Y192506D01*
X263513Y192506D01*
X265246Y193229D01*
X266113Y194673D01*
X266113Y201895D01*
X265246Y203340D01*
X263513Y204062D01*
X261779Y204062D01*
X260046Y203340D01*
X259179Y201895D01*
G54D11*
X249068Y201895D02*
X249935Y203340D01*
X251668Y204062D01*
X253402Y204062D01*
X255135Y203340D01*
X256002Y201895D01*
X256002Y198284D01*
X256002Y197562D01*
X253402Y199006D01*
X251668Y199006D01*
X249935Y198284D01*
X249068Y196840D01*
X249068Y194673D01*
X249935Y193229D01*
X251668Y192506D01*
X253402Y192506D01*
X255135Y193229D01*
X256002Y194673D01*
X256002Y198284D01*
G54D11*
X245891Y194673D02*
X245024Y193229D01*
X243291Y192506D01*
X241557Y192506D01*
X239824Y193229D01*
X238957Y194673D01*
X238957Y198284D01*
X238957Y199006D01*
X241557Y197562D01*
X243291Y197562D01*
X245024Y198284D01*
X245891Y199729D01*
X245891Y201895D01*
X245024Y203340D01*
X243291Y204062D01*
X241557Y204062D01*
X239824Y203340D01*
X238957Y201895D01*
X238957Y198284D01*
G54D11*
X259179Y168479D02*
X260046Y167034D01*
X261779Y166312D01*
X263513Y166312D01*
X265246Y167034D01*
X266113Y168479D01*
X266113Y175701D01*
X265246Y177146D01*
X263513Y177868D01*
X261779Y177868D01*
X260046Y177146D01*
X259179Y175701D01*
G54D11*
X249068Y175701D02*
X249935Y177146D01*
X251668Y177868D01*
X253402Y177868D01*
X255135Y177146D01*
X256002Y175701D01*
X256002Y172090D01*
X256002Y171368D01*
X253402Y172812D01*
X251668Y172812D01*
X249935Y172090D01*
X249068Y170646D01*
X249068Y168479D01*
X249935Y167034D01*
X251668Y166312D01*
X253402Y166312D01*
X255135Y167034D01*
X256002Y168479D01*
X256002Y172090D01*
G54D11*
X241557Y172090D02*
X243291Y172090D01*
X245024Y172812D01*
X245891Y174257D01*
X245891Y175701D01*
X245024Y177146D01*
X243291Y177868D01*
X241557Y177868D01*
X239824Y177146D01*
X238957Y175701D01*
X238957Y174257D01*
X239824Y172812D01*
X241557Y172090D01*
X239824Y171368D01*
X238957Y169923D01*
X238957Y168479D01*
X239824Y167034D01*
X241557Y166312D01*
X243291Y166312D01*
X245024Y167034D01*
X245891Y168479D01*
X245891Y169923D01*
X245024Y171368D01*
X243291Y172090D01*
G54D11*
X259973Y97835D02*
X260840Y96391D01*
X262573Y95668D01*
X264306Y95668D01*
X266040Y96391D01*
X266906Y97835D01*
X266906Y105057D01*
X266040Y106502D01*
X264306Y107224D01*
X262573Y107224D01*
X260840Y106502D01*
X259973Y105057D01*
G54D11*
X249862Y105057D02*
X250729Y106502D01*
X252462Y107224D01*
X254196Y107224D01*
X255929Y106502D01*
X256796Y105057D01*
X256796Y101446D01*
X256796Y100724D01*
X254196Y102168D01*
X252462Y102168D01*
X250729Y101446D01*
X249862Y100002D01*
X249862Y97835D01*
X250729Y96391D01*
X252462Y95668D01*
X254196Y95668D01*
X255929Y96391D01*
X256796Y97835D01*
X256796Y101446D01*
G54D11*
X246684Y107224D02*
X239751Y107224D01*
X240618Y105780D01*
X242351Y103613D01*
X244084Y100724D01*
X244951Y98557D01*
X244951Y95668D01*
G54D11*
X207084Y50647D02*
X204484Y49202D01*
X203617Y47758D01*
X203617Y44869D01*
G54D11*
X210550Y44869D02*
X210550Y56424D01*
X206217Y56424D01*
X204484Y55702D01*
X203617Y54258D01*
X203617Y52814D01*
X204484Y51369D01*
X206217Y50647D01*
X210550Y50647D01*
G54D11*
X200439Y47036D02*
X199573Y45591D01*
X197839Y44869D01*
X196106Y44869D01*
X194373Y45591D01*
X193506Y47036D01*
X193506Y50647D01*
X193506Y51369D01*
X196106Y49924D01*
X197839Y49924D01*
X199573Y50647D01*
X200439Y52091D01*
X200439Y54258D01*
X199573Y55702D01*
X197839Y56424D01*
X196106Y56424D01*
X194373Y55702D01*
X193506Y54258D01*
X193506Y50647D01*
G54D11*
X190328Y52091D02*
X185995Y56424D01*
X185995Y44869D01*
G54D11*
X242802Y-14441D02*
X240202Y-15886D01*
X239335Y-17330D01*
X239335Y-20219D01*
G54D11*
X246268Y-20219D02*
X246268Y-8664D01*
X241935Y-8664D01*
X240202Y-9386D01*
X239335Y-10830D01*
X239335Y-12274D01*
X240202Y-13719D01*
X241935Y-14441D01*
X246268Y-14441D01*
G54D11*
X236157Y-18052D02*
X235291Y-19497D01*
X233557Y-20219D01*
X231824Y-20219D01*
X230091Y-19497D01*
X229224Y-18052D01*
X229224Y-14441D01*
X229224Y-13719D01*
X231824Y-15164D01*
X233557Y-15164D01*
X235291Y-14441D01*
X236157Y-12997D01*
X236157Y-10830D01*
X235291Y-9386D01*
X233557Y-8664D01*
X231824Y-8664D01*
X230091Y-9386D01*
X229224Y-10830D01*
X229224Y-14441D01*
G54D11*
X219113Y-10830D02*
X219113Y-18052D01*
X219980Y-19497D01*
X221713Y-20219D01*
X223446Y-20219D01*
X225180Y-19497D01*
X226046Y-18052D01*
X226046Y-10830D01*
X225180Y-9386D01*
X223446Y-8664D01*
X221713Y-8664D01*
X219980Y-9386D01*
X219113Y-10830D01*
G54D11*
X186445Y-65241D02*
X183845Y-66686D01*
X182979Y-68130D01*
X182979Y-71019D01*
G54D11*
X189912Y-71019D02*
X189912Y-59464D01*
X185579Y-59464D01*
X183845Y-60186D01*
X182979Y-61630D01*
X182979Y-63074D01*
X183845Y-64519D01*
X185579Y-65241D01*
X189912Y-65241D01*
G54D11*
X175468Y-65241D02*
X177201Y-65241D01*
X178934Y-64519D01*
X179801Y-63074D01*
X179801Y-61630D01*
X178934Y-60186D01*
X177201Y-59464D01*
X175468Y-59464D01*
X173734Y-60186D01*
X172868Y-61630D01*
X172868Y-63074D01*
X173734Y-64519D01*
X175468Y-65241D01*
X173734Y-65964D01*
X172868Y-67408D01*
X172868Y-68852D01*
X173734Y-70297D01*
X175468Y-71019D01*
X177201Y-71019D01*
X178934Y-70297D01*
X179801Y-68852D01*
X179801Y-67408D01*
X178934Y-65964D01*
X177201Y-65241D01*
G54D11*
X169690Y-68852D02*
X168823Y-70297D01*
X167090Y-71019D01*
X165357Y-71019D01*
X163623Y-70297D01*
X162757Y-68852D01*
X162757Y-65241D01*
X162757Y-64519D01*
X165357Y-65964D01*
X167090Y-65964D01*
X168823Y-65241D01*
X169690Y-63797D01*
X169690Y-61630D01*
X168823Y-60186D01*
X167090Y-59464D01*
X165357Y-59464D01*
X163623Y-60186D01*
X162757Y-61630D01*
X162757Y-65241D01*
G54D11*
X242802Y-151760D02*
X240202Y-153204D01*
X239335Y-154648D01*
X239335Y-157537D01*
G54D11*
X246268Y-157537D02*
X246268Y-145982D01*
X241935Y-145982D01*
X240202Y-146704D01*
X239335Y-148148D01*
X239335Y-149593D01*
X240202Y-151037D01*
X241935Y-151760D01*
X246268Y-151760D01*
G54D11*
X231824Y-151760D02*
X233557Y-151760D01*
X235291Y-151037D01*
X236157Y-149593D01*
X236157Y-148148D01*
X235291Y-146704D01*
X233557Y-145982D01*
X231824Y-145982D01*
X230091Y-146704D01*
X229224Y-148148D01*
X229224Y-149593D01*
X230091Y-151037D01*
X231824Y-151760D01*
X230091Y-152482D01*
X229224Y-153926D01*
X229224Y-155371D01*
X230091Y-156815D01*
X231824Y-157537D01*
X233557Y-157537D01*
X235291Y-156815D01*
X236157Y-155371D01*
X236157Y-153926D01*
X235291Y-152482D01*
X233557Y-151760D01*
G54D11*
X221713Y-151760D02*
X223446Y-151760D01*
X225180Y-151037D01*
X226046Y-149593D01*
X226046Y-148148D01*
X225180Y-146704D01*
X223446Y-145982D01*
X221713Y-145982D01*
X219980Y-146704D01*
X219113Y-148148D01*
X219113Y-149593D01*
X219980Y-151037D01*
X221713Y-151760D01*
X219980Y-152482D01*
X219113Y-153926D01*
X219113Y-155371D01*
X219980Y-156815D01*
X221713Y-157537D01*
X223446Y-157537D01*
X225180Y-156815D01*
X226046Y-155371D01*
X226046Y-153926D01*
X225180Y-152482D01*
X223446Y-151760D01*
G54D11*
X390396Y-131816D02*
X387796Y-133260D01*
X386929Y-134705D01*
X386929Y-137594D01*
G54D11*
X393862Y-137594D02*
X393862Y-126038D01*
X389529Y-126038D01*
X387796Y-126760D01*
X386929Y-128205D01*
X386929Y-129649D01*
X387796Y-131094D01*
X389529Y-131816D01*
X393862Y-131816D01*
G54D11*
X379418Y-131816D02*
X381152Y-131816D01*
X382885Y-131094D01*
X383752Y-129649D01*
X383752Y-128205D01*
X382885Y-126760D01*
X381152Y-126038D01*
X379418Y-126038D01*
X377685Y-126760D01*
X376818Y-128205D01*
X376818Y-129649D01*
X377685Y-131094D01*
X379418Y-131816D01*
X377685Y-132538D01*
X376818Y-133983D01*
X376818Y-135427D01*
X377685Y-136872D01*
X379418Y-137594D01*
X381152Y-137594D01*
X382885Y-136872D01*
X383752Y-135427D01*
X383752Y-133983D01*
X382885Y-132538D01*
X381152Y-131816D01*
G54D11*
X368440Y-137594D02*
X368440Y-126038D01*
X373640Y-133260D01*
X373640Y-134705D01*
X366707Y-134705D01*
G54D11*
X390396Y-73078D02*
X387796Y-74523D01*
X386929Y-75967D01*
X386929Y-78856D01*
G54D11*
X393862Y-78856D02*
X393862Y-67301D01*
X389529Y-67301D01*
X387796Y-68023D01*
X386929Y-69467D01*
X386929Y-70912D01*
X387796Y-72356D01*
X389529Y-73078D01*
X393862Y-73078D01*
G54D11*
X379418Y-73078D02*
X381152Y-73078D01*
X382885Y-72356D01*
X383752Y-70912D01*
X383752Y-69467D01*
X382885Y-68023D01*
X381152Y-67301D01*
X379418Y-67301D01*
X377685Y-68023D01*
X376818Y-69467D01*
X376818Y-70912D01*
X377685Y-72356D01*
X379418Y-73078D01*
X377685Y-73801D01*
X376818Y-75245D01*
X376818Y-76690D01*
X377685Y-78134D01*
X379418Y-78856D01*
X381152Y-78856D01*
X382885Y-78134D01*
X383752Y-76690D01*
X383752Y-75245D01*
X382885Y-73801D01*
X381152Y-73078D01*
G54D11*
X366707Y-67301D02*
X373640Y-67301D01*
X373640Y-72356D01*
X372774Y-72356D01*
X371040Y-71634D01*
X369307Y-71634D01*
X367574Y-72356D01*
X366707Y-73801D01*
X366707Y-76690D01*
X367574Y-78134D01*
X369307Y-78856D01*
X371040Y-78856D01*
X372774Y-78134D01*
X373640Y-76690D01*
G54D11*
X390396Y-50060D02*
X387796Y-51504D01*
X386929Y-52949D01*
X386929Y-55838D01*
G54D11*
X393862Y-55838D02*
X393862Y-44282D01*
X389529Y-44282D01*
X387796Y-45004D01*
X386929Y-46449D01*
X386929Y-47893D01*
X387796Y-49338D01*
X389529Y-50060D01*
X393862Y-50060D01*
G54D11*
X379418Y-50060D02*
X381152Y-50060D01*
X382885Y-49338D01*
X383752Y-47893D01*
X383752Y-46449D01*
X382885Y-45004D01*
X381152Y-44282D01*
X379418Y-44282D01*
X377685Y-45004D01*
X376818Y-46449D01*
X376818Y-47893D01*
X377685Y-49338D01*
X379418Y-50060D01*
X377685Y-50782D01*
X376818Y-52227D01*
X376818Y-53671D01*
X377685Y-55116D01*
X379418Y-55838D01*
X381152Y-55838D01*
X382885Y-55116D01*
X383752Y-53671D01*
X383752Y-52227D01*
X382885Y-50782D01*
X381152Y-50060D01*
G54D11*
X366707Y-46449D02*
X367574Y-45004D01*
X369307Y-44282D01*
X371040Y-44282D01*
X372774Y-45004D01*
X373640Y-46449D01*
X373640Y-50060D01*
X373640Y-50782D01*
X371040Y-49338D01*
X369307Y-49338D01*
X367574Y-50060D01*
X366707Y-51504D01*
X366707Y-53671D01*
X367574Y-55116D01*
X369307Y-55838D01*
X371040Y-55838D01*
X372774Y-55116D01*
X373640Y-53671D01*
X373640Y-50060D01*
G54D11*
X334833Y20584D02*
X332233Y19140D01*
X331367Y17695D01*
X331367Y14806D01*
G54D11*
X338300Y14806D02*
X338300Y26362D01*
X333967Y26362D01*
X332233Y25640D01*
X331367Y24195D01*
X331367Y22751D01*
X332233Y21306D01*
X333967Y20584D01*
X338300Y20584D01*
G54D11*
X323856Y20584D02*
X325589Y20584D01*
X327322Y21306D01*
X328189Y22751D01*
X328189Y24195D01*
X327322Y25640D01*
X325589Y26362D01*
X323856Y26362D01*
X322122Y25640D01*
X321256Y24195D01*
X321256Y22751D01*
X322122Y21306D01*
X323856Y20584D01*
X322122Y19862D01*
X321256Y18417D01*
X321256Y16973D01*
X322122Y15528D01*
X323856Y14806D01*
X325589Y14806D01*
X327322Y15528D01*
X328189Y16973D01*
X328189Y18417D01*
X327322Y19862D01*
X325589Y20584D01*
G54D11*
X318078Y26362D02*
X311145Y26362D01*
X312011Y24917D01*
X313745Y22751D01*
X315478Y19862D01*
X316345Y17695D01*
X316345Y14806D01*
G54D11*
X432083Y331644D02*
X432950Y330200D01*
X434683Y329478D01*
X436417Y329478D01*
X438150Y330200D01*
X439017Y331644D01*
X439017Y338867D01*
X438150Y340311D01*
X436417Y341033D01*
X434683Y341033D01*
X432950Y340311D01*
X432083Y338867D01*
G54D11*
X421972Y338867D02*
X422839Y340311D01*
X424572Y341033D01*
X426306Y341033D01*
X428039Y340311D01*
X428906Y338867D01*
X428906Y335256D01*
X428906Y334533D01*
X426306Y335978D01*
X424572Y335978D01*
X422839Y335256D01*
X421972Y333811D01*
X421972Y331644D01*
X422839Y330200D01*
X424572Y329478D01*
X426306Y329478D01*
X428039Y330200D01*
X428906Y331644D01*
X428906Y335256D01*
G54D11*
X418795Y338867D02*
X417928Y340311D01*
X416195Y341033D01*
X414461Y341033D01*
X412728Y340311D01*
X411861Y338867D01*
X411861Y337422D01*
X412728Y335978D01*
X414461Y335256D01*
X412728Y334533D01*
X411861Y333089D01*
X411861Y331644D01*
X412728Y330200D01*
X414461Y329478D01*
X416195Y329478D01*
X417928Y330200D01*
X418795Y331644D01*
G54D11*
X386427Y61065D02*
X383827Y59621D01*
X382960Y58176D01*
X382960Y55288D01*
G54D11*
X389894Y55288D02*
X389894Y66843D01*
X385560Y66843D01*
X383827Y66121D01*
X382960Y64676D01*
X382960Y63232D01*
X383827Y61788D01*
X385560Y61065D01*
X389894Y61065D01*
G54D11*
X375449Y61065D02*
X377183Y61065D01*
X378916Y61788D01*
X379783Y63232D01*
X379783Y64676D01*
X378916Y66121D01*
X377183Y66843D01*
X375449Y66843D01*
X373716Y66121D01*
X372849Y64676D01*
X372849Y63232D01*
X373716Y61788D01*
X375449Y61065D01*
X373716Y60343D01*
X372849Y58899D01*
X372849Y57454D01*
X373716Y56010D01*
X375449Y55288D01*
X377183Y55288D01*
X378916Y56010D01*
X379783Y57454D01*
X379783Y58899D01*
X378916Y60343D01*
X377183Y61065D01*
G54D11*
X369672Y64676D02*
X368805Y66121D01*
X367072Y66843D01*
X365338Y66843D01*
X363605Y66121D01*
X362738Y64676D01*
X362738Y63232D01*
X363605Y61788D01*
X365338Y61065D01*
X363605Y60343D01*
X362738Y58899D01*
X362738Y57454D01*
X363605Y56010D01*
X365338Y55288D01*
X367072Y55288D01*
X368805Y56010D01*
X369672Y57454D01*
G54D11*
X467389Y61065D02*
X464789Y59621D01*
X463922Y58176D01*
X463922Y55288D01*
G54D11*
X470856Y55288D02*
X470856Y66843D01*
X466522Y66843D01*
X464789Y66121D01*
X463922Y64676D01*
X463922Y63232D01*
X464789Y61788D01*
X466522Y61065D01*
X470856Y61065D01*
G54D11*
X456411Y61065D02*
X458145Y61065D01*
X459878Y61788D01*
X460745Y63232D01*
X460745Y64676D01*
X459878Y66121D01*
X458145Y66843D01*
X456411Y66843D01*
X454678Y66121D01*
X453811Y64676D01*
X453811Y63232D01*
X454678Y61788D01*
X456411Y61065D01*
X454678Y60343D01*
X453811Y58899D01*
X453811Y57454D01*
X454678Y56010D01*
X456411Y55288D01*
X458145Y55288D01*
X459878Y56010D01*
X460745Y57454D01*
X460745Y58899D01*
X459878Y60343D01*
X458145Y61065D01*
G54D11*
X443700Y55288D02*
X450634Y55288D01*
X450634Y56010D01*
X449767Y57454D01*
X444567Y61788D01*
X443700Y63232D01*
X443700Y64676D01*
X444567Y66121D01*
X446300Y66843D01*
X448034Y66843D01*
X449767Y66121D01*
X450634Y64676D01*
G54D11*
X571036Y-59127D02*
X571902Y-60572D01*
X573636Y-61294D01*
X575369Y-61294D01*
X577102Y-60572D01*
X577969Y-59127D01*
X577969Y-51905D01*
X577102Y-50461D01*
X575369Y-49738D01*
X573636Y-49738D01*
X571902Y-50461D01*
X571036Y-51905D01*
G54D11*
X560925Y-49738D02*
X567858Y-49738D01*
X567858Y-54794D01*
X566991Y-54794D01*
X565258Y-54072D01*
X563525Y-54072D01*
X561791Y-54794D01*
X560925Y-56238D01*
X560925Y-59127D01*
X561791Y-60572D01*
X563525Y-61294D01*
X565258Y-61294D01*
X566991Y-60572D01*
X567858Y-59127D01*
G54D11*
X557747Y-49738D02*
X550814Y-49738D01*
X551680Y-51183D01*
X553414Y-53350D01*
X555147Y-56238D01*
X556014Y-58405D01*
X556014Y-61294D01*
G54D11*
X524998Y51998D02*
X525865Y50554D01*
X527598Y49831D01*
X529332Y49831D01*
X531065Y50554D01*
X531932Y51998D01*
X531932Y59220D01*
X531065Y60664D01*
X529332Y61387D01*
X527598Y61387D01*
X525865Y60664D01*
X524998Y59220D01*
G54D11*
X514887Y61387D02*
X521820Y61387D01*
X521820Y56331D01*
X520954Y56331D01*
X519220Y57054D01*
X517487Y57054D01*
X515754Y56331D01*
X514887Y54887D01*
X514887Y51998D01*
X515754Y50554D01*
X517487Y49831D01*
X519220Y49831D01*
X520954Y50554D01*
X521820Y51998D01*
G54D11*
X507376Y55609D02*
X509110Y55609D01*
X510843Y56331D01*
X511710Y57776D01*
X511710Y59220D01*
X510843Y60664D01*
X509110Y61387D01*
X507376Y61387D01*
X505643Y60664D01*
X504776Y59220D01*
X504776Y57776D01*
X505643Y56331D01*
X507376Y55609D01*
X505643Y54887D01*
X504776Y53442D01*
X504776Y51998D01*
X505643Y50554D01*
X507376Y49831D01*
X509110Y49831D01*
X510843Y50554D01*
X511710Y51998D01*
X511710Y53442D01*
X510843Y54887D01*
X509110Y55609D01*
G54D11*
X636370Y-60972D02*
X633770Y-62417D01*
X632904Y-63861D01*
X632904Y-66750D01*
G54D11*
X639837Y-66750D02*
X639837Y-55195D01*
X635504Y-55195D01*
X633770Y-55917D01*
X632904Y-57361D01*
X632904Y-58806D01*
X633770Y-60250D01*
X635504Y-60972D01*
X639837Y-60972D01*
G54D11*
X629726Y-55195D02*
X622793Y-55195D01*
X623659Y-56639D01*
X625393Y-58806D01*
X627126Y-61695D01*
X627993Y-63861D01*
X627993Y-66750D01*
G54D11*
X619615Y-59528D02*
X615282Y-55195D01*
X615282Y-66750D01*
G54D11*
X587952Y9671D02*
X585352Y8226D01*
X584486Y6782D01*
X584486Y3893D01*
G54D11*
X591419Y3893D02*
X591419Y15449D01*
X587086Y15449D01*
X585352Y14726D01*
X584486Y13282D01*
X584486Y11838D01*
X585352Y10393D01*
X587086Y9671D01*
X591419Y9671D01*
G54D11*
X581308Y15449D02*
X574375Y15449D01*
X575241Y14004D01*
X576975Y11838D01*
X578708Y8949D01*
X579575Y6782D01*
X579575Y3893D01*
G54D11*
X564264Y3893D02*
X571197Y3893D01*
X571197Y4616D01*
X570330Y6060D01*
X565130Y10393D01*
X564264Y11838D01*
X564264Y13282D01*
X565130Y14726D01*
X566864Y15449D01*
X568597Y15449D01*
X570330Y14726D01*
X571197Y13282D01*
G54D11*
X673091Y20992D02*
X671647Y23592D01*
X670202Y24458D01*
X667313Y24458D01*
G54D11*
X667313Y17525D02*
X678869Y17525D01*
X678869Y21858D01*
X678147Y23592D01*
X676702Y24458D01*
X675258Y24458D01*
X673813Y23592D01*
X673091Y21858D01*
X673091Y17525D01*
G54D11*
X678869Y27636D02*
X678869Y34570D01*
X677424Y33703D01*
X675258Y31970D01*
X672369Y30236D01*
X670202Y29370D01*
X667313Y29370D01*
G54D11*
X676702Y37747D02*
X678147Y38614D01*
X678869Y40347D01*
X678869Y42080D01*
X678147Y43814D01*
X676702Y44680D01*
X675258Y44680D01*
X673813Y43814D01*
X673091Y42080D01*
X672369Y43814D01*
X670924Y44680D01*
X669480Y44680D01*
X668036Y43814D01*
X667313Y42080D01*
X667313Y40347D01*
X668036Y38614D01*
X669480Y37747D01*
G54D11*
X587158Y80315D02*
X584558Y78871D01*
X583692Y77426D01*
X583692Y74538D01*
G54D11*
X590625Y74538D02*
X590625Y86093D01*
X586292Y86093D01*
X584558Y85371D01*
X583692Y83926D01*
X583692Y82482D01*
X584558Y81038D01*
X586292Y80315D01*
X590625Y80315D01*
G54D11*
X580514Y86093D02*
X573581Y86093D01*
X574448Y84649D01*
X576181Y82482D01*
X577914Y79593D01*
X578781Y77426D01*
X578781Y74538D01*
G54D11*
X565203Y74538D02*
X565203Y86093D01*
X570403Y78871D01*
X570403Y77426D01*
X563470Y77426D01*
G54D11*
X638752Y118415D02*
X636152Y116970D01*
X635286Y115526D01*
X635286Y112637D01*
G54D11*
X642219Y112637D02*
X642219Y124193D01*
X637886Y124193D01*
X636152Y123470D01*
X635286Y122026D01*
X635286Y120582D01*
X636152Y119137D01*
X637886Y118415D01*
X642219Y118415D01*
G54D11*
X632108Y124193D02*
X625175Y124193D01*
X626041Y122748D01*
X627775Y120582D01*
X629508Y117693D01*
X630375Y115526D01*
X630375Y112637D01*
G54D11*
X615064Y124193D02*
X621997Y124193D01*
X621997Y119137D01*
X621130Y119137D01*
X619397Y119860D01*
X617664Y119860D01*
X615930Y119137D01*
X615064Y117693D01*
X615064Y114804D01*
X615930Y113360D01*
X617664Y112637D01*
X619397Y112637D01*
X621130Y113360D01*
X621997Y114804D01*
G54D11*
X549058Y157309D02*
X546458Y155864D01*
X545592Y154420D01*
X545592Y151531D01*
G54D11*
X552525Y151531D02*
X552525Y163087D01*
X548192Y163087D01*
X546458Y162364D01*
X545592Y160920D01*
X545592Y159476D01*
X546458Y158031D01*
X548192Y157309D01*
X552525Y157309D01*
G54D11*
X542414Y163087D02*
X535481Y163087D01*
X536347Y161642D01*
X538081Y159476D01*
X539814Y156587D01*
X540681Y154420D01*
X540681Y151531D01*
G54D11*
X527970Y157309D02*
X529703Y157309D01*
X531436Y158031D01*
X532303Y159476D01*
X532303Y160920D01*
X531436Y162364D01*
X529703Y163087D01*
X527970Y163087D01*
X526236Y162364D01*
X525370Y160920D01*
X525370Y159476D01*
X526236Y158031D01*
X527970Y157309D01*
X526236Y156587D01*
X525370Y155142D01*
X525370Y153698D01*
X526236Y152254D01*
X527970Y151531D01*
X529703Y151531D01*
X531436Y152254D01*
X532303Y153698D01*
X532303Y155142D01*
X531436Y156587D01*
X529703Y157309D01*
G54D11*
X604621Y223190D02*
X602021Y221746D01*
X601154Y220301D01*
X601154Y217412D01*
G54D11*
X608088Y217412D02*
X608088Y228968D01*
X603754Y228968D01*
X602021Y228246D01*
X601154Y226801D01*
X601154Y225357D01*
X602021Y223912D01*
X603754Y223190D01*
X608088Y223190D01*
G54D11*
X597977Y228968D02*
X591044Y228968D01*
X591910Y227524D01*
X593644Y225357D01*
X595377Y222468D01*
X596244Y220301D01*
X596244Y217412D01*
G54D11*
X587866Y228968D02*
X580932Y228968D01*
X581799Y227524D01*
X583532Y225357D01*
X585266Y222468D01*
X586132Y220301D01*
X586132Y217412D01*
G54D11*
X687171Y208109D02*
X684571Y206664D01*
X683704Y205220D01*
X683704Y202331D01*
G54D11*
X690638Y202331D02*
X690638Y213887D01*
X686304Y213887D01*
X684571Y213164D01*
X683704Y211720D01*
X683704Y210276D01*
X684571Y208831D01*
X686304Y208109D01*
X690638Y208109D01*
G54D11*
X680527Y213887D02*
X673594Y213887D01*
X674460Y212442D01*
X676194Y210276D01*
X677927Y207387D01*
X678794Y205220D01*
X678794Y202331D01*
G54D11*
X663482Y211720D02*
X664349Y213164D01*
X666082Y213887D01*
X667816Y213887D01*
X669549Y213164D01*
X670416Y211720D01*
X670416Y208109D01*
X670416Y207387D01*
X667816Y208831D01*
X666082Y208831D01*
X664349Y208109D01*
X663482Y206664D01*
X663482Y204498D01*
X664349Y203054D01*
X666082Y202331D01*
X667816Y202331D01*
X669549Y203054D01*
X670416Y204498D01*
X670416Y208109D01*
G54D11*
X589671Y426090D02*
X587071Y424646D01*
X586204Y423201D01*
X586204Y420312D01*
G54D11*
X593138Y420312D02*
X593138Y431868D01*
X588804Y431868D01*
X587071Y431146D01*
X586204Y429701D01*
X586204Y428257D01*
X587071Y426812D01*
X588804Y426090D01*
X593138Y426090D01*
G54D11*
X583026Y431868D02*
X576093Y431868D01*
X576960Y430424D01*
X578693Y428257D01*
X580426Y425368D01*
X581293Y423201D01*
X581293Y420312D01*
G54D11*
X572916Y422479D02*
X572049Y421035D01*
X570316Y420312D01*
X568582Y420312D01*
X566849Y421035D01*
X565982Y422479D01*
X565982Y426090D01*
X565982Y426812D01*
X568582Y425368D01*
X570316Y425368D01*
X572049Y426090D01*
X572916Y427535D01*
X572916Y429701D01*
X572049Y431146D01*
X570316Y431868D01*
X568582Y431868D01*
X566849Y431146D01*
X565982Y429701D01*
X565982Y426090D01*
G54D11*
X713998Y392317D02*
X714865Y390872D01*
X716598Y390150D01*
X718332Y390150D01*
X720065Y390872D01*
X720932Y392317D01*
X720932Y399539D01*
X720065Y400983D01*
X718332Y401706D01*
X716598Y401706D01*
X714865Y400983D01*
X713998Y399539D01*
G54D11*
X703887Y401706D02*
X710820Y401706D01*
X710820Y396650D01*
X709954Y396650D01*
X708220Y397372D01*
X706487Y397372D01*
X704754Y396650D01*
X703887Y395206D01*
X703887Y392317D01*
X704754Y390872D01*
X706487Y390150D01*
X708220Y390150D01*
X709954Y390872D01*
X710820Y392317D01*
G54D11*
X700710Y392317D02*
X699843Y390872D01*
X698110Y390150D01*
X696376Y390150D01*
X694643Y390872D01*
X693776Y392317D01*
X693776Y395928D01*
X693776Y396650D01*
X696376Y395206D01*
X698110Y395206D01*
X699843Y395928D01*
X700710Y397372D01*
X700710Y399539D01*
X699843Y400983D01*
X698110Y401706D01*
X696376Y401706D01*
X694643Y400983D01*
X693776Y399539D01*
X693776Y395928D01*
G54D11*
X360225Y547987D02*
X360225Y536431D01*
X354158Y536431D01*
G54D11*
X350980Y538598D02*
X350113Y537154D01*
X348380Y536431D01*
X346647Y536431D01*
X344913Y537154D01*
X344047Y538598D01*
X344047Y542209D01*
X344047Y542931D01*
X346647Y541487D01*
X348380Y541487D01*
X350113Y542209D01*
X350980Y543654D01*
X350980Y545820D01*
X350113Y547265D01*
X348380Y547987D01*
X346647Y547987D01*
X344913Y547265D01*
X344047Y545820D01*
X344047Y542209D01*
G54D11*
X422691Y584404D02*
X423558Y582960D01*
X425291Y582238D01*
X427024Y582238D01*
X428758Y582960D01*
X429624Y584404D01*
X429624Y591626D01*
X428758Y593071D01*
X427024Y593793D01*
X425291Y593793D01*
X423558Y593071D01*
X422691Y591626D01*
G54D11*
X412580Y591626D02*
X413447Y593071D01*
X415180Y593793D01*
X416914Y593793D01*
X418647Y593071D01*
X419514Y591626D01*
X419514Y588015D01*
X419514Y587293D01*
X416914Y588738D01*
X415180Y588738D01*
X413447Y588015D01*
X412580Y586571D01*
X412580Y584404D01*
X413447Y582960D01*
X415180Y582238D01*
X416914Y582238D01*
X418647Y582960D01*
X419514Y584404D01*
X419514Y588015D01*
G54D11*
X402469Y593793D02*
X409402Y593793D01*
X409402Y588738D01*
X408536Y588738D01*
X406802Y589460D01*
X405069Y589460D01*
X403336Y588738D01*
X402469Y587293D01*
X402469Y584404D01*
X403336Y582960D01*
X405069Y582238D01*
X406802Y582238D01*
X408536Y582960D01*
X409402Y584404D01*
G54D11*
X488573Y585198D02*
X489439Y583754D01*
X491173Y583031D01*
X492906Y583031D01*
X494639Y583754D01*
X495506Y585198D01*
X495506Y592420D01*
X494639Y593865D01*
X492906Y594587D01*
X491173Y594587D01*
X489439Y593865D01*
X488573Y592420D01*
G54D11*
X478462Y592420D02*
X479328Y593865D01*
X481062Y594587D01*
X482795Y594587D01*
X484528Y593865D01*
X485395Y592420D01*
X485395Y588809D01*
X485395Y588087D01*
X482795Y589531D01*
X481062Y589531D01*
X479328Y588809D01*
X478462Y587365D01*
X478462Y585198D01*
X479328Y583754D01*
X481062Y583031D01*
X482795Y583031D01*
X484528Y583754D01*
X485395Y585198D01*
X485395Y588809D01*
G54D11*
X470084Y583031D02*
X470084Y594587D01*
X475284Y587365D01*
X475284Y585920D01*
X468351Y585920D01*
G54D11*
X529294Y497981D02*
X529294Y486425D01*
X523227Y486425D01*
G54D11*
X515715Y492203D02*
X517448Y492203D01*
X519182Y492925D01*
X520048Y494369D01*
X520048Y495814D01*
X519182Y497258D01*
X517448Y497981D01*
X515715Y497981D01*
X513982Y497258D01*
X513115Y495814D01*
X513115Y494369D01*
X513982Y492925D01*
X515715Y492203D01*
X513982Y491481D01*
X513115Y490036D01*
X513115Y488592D01*
X513982Y487147D01*
X515715Y486425D01*
X517448Y486425D01*
X519182Y487147D01*
X520048Y488592D01*
X520048Y490036D01*
X519182Y491481D01*
X517448Y492203D01*
G54D11*
X556042Y599485D02*
X556908Y598041D01*
X558642Y597319D01*
X560375Y597319D01*
X562108Y598041D01*
X562975Y599485D01*
X562975Y606708D01*
X562108Y608152D01*
X560375Y608874D01*
X558642Y608874D01*
X556908Y608152D01*
X556042Y606708D01*
G54D11*
X545930Y606708D02*
X546797Y608152D01*
X548530Y608874D01*
X550264Y608874D01*
X551997Y608152D01*
X552864Y606708D01*
X552864Y603096D01*
X552864Y602374D01*
X550264Y603819D01*
X548530Y603819D01*
X546797Y603096D01*
X545930Y601652D01*
X545930Y599485D01*
X546797Y598041D01*
X548530Y597319D01*
X550264Y597319D01*
X551997Y598041D01*
X552864Y599485D01*
X552864Y603096D01*
G54D11*
X542753Y604541D02*
X538420Y608874D01*
X538420Y597319D01*
G54D11*
X635708Y522928D02*
X633108Y521483D01*
X632242Y520039D01*
X632242Y517150D01*
G54D11*
X639175Y517150D02*
X639175Y528706D01*
X634842Y528706D01*
X633108Y527983D01*
X632242Y526539D01*
X632242Y525094D01*
X633108Y523650D01*
X634842Y522928D01*
X639175Y522928D01*
G54D11*
X624730Y522928D02*
X626464Y522928D01*
X628197Y523650D01*
X629064Y525094D01*
X629064Y526539D01*
X628197Y527983D01*
X626464Y528706D01*
X624730Y528706D01*
X622997Y527983D01*
X622130Y526539D01*
X622130Y525094D01*
X622997Y523650D01*
X624730Y522928D01*
X622997Y522206D01*
X622130Y520761D01*
X622130Y519317D01*
X622997Y517872D01*
X624730Y517150D01*
X626464Y517150D01*
X628197Y517872D01*
X629064Y519317D01*
X629064Y520761D01*
X628197Y522206D01*
X626464Y522928D01*
G54D11*
X612020Y526539D02*
X612020Y519317D01*
X612886Y517872D01*
X614620Y517150D01*
X616353Y517150D01*
X618086Y517872D01*
X618953Y519317D01*
X618953Y526539D01*
X618086Y527983D01*
X616353Y528706D01*
X614620Y528706D01*
X612886Y527983D01*
X612020Y526539D01*
G54D11*
X555488Y637680D02*
X555488Y626125D01*
X549421Y626125D01*
G54D11*
X546243Y637680D02*
X539310Y637680D01*
X540176Y636236D01*
X541910Y634069D01*
X543643Y631180D01*
X544510Y629014D01*
X544510Y626125D01*
G54D11*
X708442Y661397D02*
X709308Y659953D01*
X711042Y659231D01*
X712775Y659231D01*
X714508Y659953D01*
X715375Y661397D01*
X715375Y668620D01*
X714508Y670064D01*
X712775Y670786D01*
X711042Y670786D01*
X709308Y670064D01*
X708442Y668620D01*
G54D11*
X698330Y668620D02*
X699197Y670064D01*
X700930Y670786D01*
X702664Y670786D01*
X704397Y670064D01*
X705264Y668620D01*
X705264Y665008D01*
X705264Y664286D01*
X702664Y665731D01*
X700930Y665731D01*
X699197Y665008D01*
X698330Y663564D01*
X698330Y661397D01*
X699197Y659953D01*
X700930Y659231D01*
X702664Y659231D01*
X704397Y659953D01*
X705264Y661397D01*
X705264Y665008D01*
G54D11*
X688220Y659231D02*
X695153Y659231D01*
X695153Y659953D01*
X694286Y661397D01*
X689086Y665731D01*
X688220Y667175D01*
X688220Y668620D01*
X689086Y670064D01*
X690820Y670786D01*
X692553Y670786D01*
X694286Y670064D01*
X695153Y668620D01*
G54D11*
X746753Y602223D02*
X745309Y604823D01*
X743864Y605690D01*
X740975Y605690D01*
G54D11*
X740975Y598756D02*
X752531Y598756D01*
X752531Y603090D01*
X751809Y604823D01*
X750364Y605690D01*
X748920Y605690D01*
X747475Y604823D01*
X746753Y603090D01*
X746753Y598756D01*
G54D11*
X746753Y613200D02*
X746753Y611467D01*
X747475Y609734D01*
X748920Y608867D01*
X750364Y608867D01*
X751809Y609734D01*
X752531Y611467D01*
X752531Y613200D01*
X751809Y614934D01*
X750364Y615800D01*
X748920Y615800D01*
X747475Y614934D01*
X746753Y613200D01*
X746031Y614934D01*
X744586Y615800D01*
X743142Y615800D01*
X741698Y614934D01*
X740975Y613200D01*
X740975Y611467D01*
X741698Y609734D01*
X743142Y608867D01*
X744586Y608867D01*
X746031Y609734D01*
X746753Y611467D01*
G54D11*
X748198Y618978D02*
X752531Y623312D01*
X740975Y623312D01*
G54D11*
X769560Y570117D02*
X770427Y568672D01*
X772160Y567950D01*
X773894Y567950D01*
X775627Y568672D01*
X776494Y570117D01*
X776494Y577339D01*
X775627Y578783D01*
X773894Y579506D01*
X772160Y579506D01*
X770427Y578783D01*
X769560Y577339D01*
G54D11*
X759449Y577339D02*
X760316Y578783D01*
X762049Y579506D01*
X763782Y579506D01*
X765516Y578783D01*
X766382Y577339D01*
X766382Y573728D01*
X766382Y573006D01*
X763782Y574450D01*
X762049Y574450D01*
X760316Y573728D01*
X759449Y572283D01*
X759449Y570117D01*
X760316Y568672D01*
X762049Y567950D01*
X763782Y567950D01*
X765516Y568672D01*
X766382Y570117D01*
X766382Y573728D01*
G54D11*
X749338Y577339D02*
X749338Y570117D01*
X750205Y568672D01*
X751938Y567950D01*
X753672Y567950D01*
X755405Y568672D01*
X756272Y570117D01*
X756272Y577339D01*
X755405Y578783D01*
X753672Y579506D01*
X751938Y579506D01*
X750205Y578783D01*
X749338Y577339D01*
G54D11*
X891798Y593929D02*
X892665Y592484D01*
X894398Y591762D01*
X896132Y591762D01*
X897865Y592484D01*
X898732Y593929D01*
X898732Y601151D01*
X897865Y602596D01*
X896132Y603318D01*
X894398Y603318D01*
X892665Y602596D01*
X891798Y601151D01*
G54D11*
X881688Y603318D02*
X888621Y603318D01*
X888621Y598262D01*
X887754Y598262D01*
X886021Y598984D01*
X884288Y598984D01*
X882554Y598262D01*
X881688Y596818D01*
X881688Y593929D01*
X882554Y592484D01*
X884288Y591762D01*
X886021Y591762D01*
X887754Y592484D01*
X888621Y593929D01*
G54D11*
X871576Y601151D02*
X872443Y602596D01*
X874176Y603318D01*
X875910Y603318D01*
X877643Y602596D01*
X878510Y601151D01*
X878510Y597540D01*
X878510Y596818D01*
X875910Y598262D01*
X874176Y598262D01*
X872443Y597540D01*
X871576Y596096D01*
X871576Y593929D01*
X872443Y592484D01*
X874176Y591762D01*
X875910Y591762D01*
X877643Y592484D01*
X878510Y593929D01*
X878510Y597540D01*
G54D11*
X896059Y509434D02*
X893459Y507990D01*
X892592Y506545D01*
X892592Y503656D01*
G54D11*
X899526Y503656D02*
X899526Y515212D01*
X895192Y515212D01*
X893459Y514490D01*
X892592Y513045D01*
X892592Y511601D01*
X893459Y510156D01*
X895192Y509434D01*
X899526Y509434D01*
G54D11*
X882481Y513045D02*
X883348Y514490D01*
X885081Y515212D01*
X886814Y515212D01*
X888548Y514490D01*
X889414Y513045D01*
X889414Y509434D01*
X889414Y508712D01*
X886814Y510156D01*
X885081Y510156D01*
X883348Y509434D01*
X882481Y507990D01*
X882481Y505823D01*
X883348Y504378D01*
X885081Y503656D01*
X886814Y503656D01*
X888548Y504378D01*
X889414Y505823D01*
X889414Y509434D01*
G54D11*
X879304Y505823D02*
X878437Y504378D01*
X876704Y503656D01*
X874970Y503656D01*
X873237Y504378D01*
X872370Y505823D01*
X872370Y509434D01*
X872370Y510156D01*
X874970Y508712D01*
X876704Y508712D01*
X878437Y509434D01*
X879304Y510878D01*
X879304Y513045D01*
X878437Y514490D01*
X876704Y515212D01*
X874970Y515212D01*
X873237Y514490D01*
X872370Y513045D01*
X872370Y509434D01*
G54D11*
X915611Y416923D02*
X916478Y415478D01*
X918211Y414756D01*
X919944Y414756D01*
X921678Y415478D01*
X922544Y416923D01*
X922544Y424145D01*
X921678Y425590D01*
X919944Y426312D01*
X918211Y426312D01*
X916478Y425590D01*
X915611Y424145D01*
G54D11*
X905500Y426312D02*
X912433Y426312D01*
X912433Y421256D01*
X911566Y421256D01*
X909833Y421978D01*
X908100Y421978D01*
X906366Y421256D01*
X905500Y419812D01*
X905500Y416923D01*
X906366Y415478D01*
X908100Y414756D01*
X909833Y414756D01*
X911566Y415478D01*
X912433Y416923D01*
G54D11*
X895389Y426312D02*
X902322Y426312D01*
X902322Y421256D01*
X901456Y421256D01*
X899722Y421978D01*
X897989Y421978D01*
X896256Y421256D01*
X895389Y419812D01*
X895389Y416923D01*
X896256Y415478D01*
X897989Y414756D01*
X899722Y414756D01*
X901456Y415478D01*
X902322Y416923D01*
G54D11*
X1035467Y416923D02*
X1036334Y415478D01*
X1038067Y414756D01*
X1039800Y414756D01*
X1041534Y415478D01*
X1042400Y416923D01*
X1042400Y424145D01*
X1041534Y425590D01*
X1039800Y426312D01*
X1038067Y426312D01*
X1036334Y425590D01*
X1035467Y424145D01*
G54D11*
X1025356Y426312D02*
X1032290Y426312D01*
X1032290Y421256D01*
X1031423Y421256D01*
X1029690Y421978D01*
X1027956Y421978D01*
X1026223Y421256D01*
X1025356Y419812D01*
X1025356Y416923D01*
X1026223Y415478D01*
X1027956Y414756D01*
X1029690Y414756D01*
X1031423Y415478D01*
X1032290Y416923D01*
G54D11*
X1022178Y421978D02*
X1017845Y426312D01*
X1017845Y414756D01*
G54D11*
X841660Y117583D02*
X842527Y116138D01*
X844260Y115416D01*
X845994Y115416D01*
X847727Y116138D01*
X848594Y117583D01*
X848594Y124805D01*
X847727Y126249D01*
X845994Y126971D01*
X844260Y126971D01*
X842527Y126249D01*
X841660Y124805D01*
G54D11*
X831549Y126971D02*
X838482Y126971D01*
X838482Y121916D01*
X837616Y121916D01*
X835882Y122638D01*
X834149Y122638D01*
X832416Y121916D01*
X831549Y120471D01*
X831549Y117583D01*
X832416Y116138D01*
X834149Y115416D01*
X835882Y115416D01*
X837616Y116138D01*
X838482Y117583D01*
G54D11*
X828372Y124805D02*
X827505Y126249D01*
X825772Y126971D01*
X824038Y126971D01*
X822305Y126249D01*
X821438Y124805D01*
X821438Y123360D01*
X822305Y121916D01*
X824038Y121194D01*
X822305Y120471D01*
X821438Y119027D01*
X821438Y117583D01*
X822305Y116138D01*
X824038Y115416D01*
X825772Y115416D01*
X827505Y116138D01*
X828372Y117583D01*
G54D11*
X785595Y197790D02*
X782995Y196346D01*
X782129Y194901D01*
X782129Y192012D01*
G54D11*
X789062Y192012D02*
X789062Y203568D01*
X784729Y203568D01*
X782995Y202846D01*
X782129Y201401D01*
X782129Y199957D01*
X782995Y198512D01*
X784729Y197790D01*
X789062Y197790D01*
G54D11*
X778951Y203568D02*
X772018Y203568D01*
X772884Y202124D01*
X774618Y199957D01*
X776351Y197068D01*
X777218Y194901D01*
X777218Y192012D01*
G54D11*
X761907Y201401D02*
X761907Y194179D01*
X762773Y192735D01*
X764507Y192012D01*
X766240Y192012D01*
X767973Y192735D01*
X768840Y194179D01*
X768840Y201401D01*
X767973Y202846D01*
X766240Y203568D01*
X764507Y203568D01*
X762773Y202846D01*
X761907Y201401D01*
G54D11*
X1139404Y730554D02*
X1140271Y729110D01*
X1142004Y728387D01*
X1143737Y728387D01*
X1145471Y729110D01*
X1146337Y730554D01*
X1146337Y737776D01*
X1145471Y739221D01*
X1143737Y739943D01*
X1142004Y739943D01*
X1140271Y739221D01*
X1139404Y737776D01*
G54D11*
X1131026Y728387D02*
X1131026Y739943D01*
X1136226Y732721D01*
X1136226Y731276D01*
X1129293Y731276D01*
G54D11*
X1126115Y730554D02*
X1125249Y729110D01*
X1123515Y728387D01*
X1121782Y728387D01*
X1120049Y729110D01*
X1119182Y730554D01*
X1119182Y734165D01*
X1119182Y734887D01*
X1121782Y733443D01*
X1123515Y733443D01*
X1125249Y734165D01*
X1126115Y735610D01*
X1126115Y737776D01*
X1125249Y739221D01*
X1123515Y739943D01*
X1121782Y739943D01*
X1120049Y739221D01*
X1119182Y737776D01*
X1119182Y734165D01*
G54D11*
X1099320Y629748D02*
X1100186Y628304D01*
X1101920Y627581D01*
X1103653Y627581D01*
X1105386Y628304D01*
X1106253Y629748D01*
X1106253Y636970D01*
X1105386Y638415D01*
X1103653Y639137D01*
X1101920Y639137D01*
X1100186Y638415D01*
X1099320Y636970D01*
G54D11*
X1090942Y627581D02*
X1090942Y639137D01*
X1096142Y631915D01*
X1096142Y630470D01*
X1089208Y630470D01*
G54D11*
X1081698Y633359D02*
X1083431Y633359D01*
X1085164Y634081D01*
X1086031Y635526D01*
X1086031Y636970D01*
X1085164Y638415D01*
X1083431Y639137D01*
X1081698Y639137D01*
X1079964Y638415D01*
X1079098Y636970D01*
X1079098Y635526D01*
X1079964Y634081D01*
X1081698Y633359D01*
X1079964Y632637D01*
X1079098Y631192D01*
X1079098Y629748D01*
X1079964Y628304D01*
X1081698Y627581D01*
X1083431Y627581D01*
X1085164Y628304D01*
X1086031Y629748D01*
X1086031Y631192D01*
X1085164Y632637D01*
X1083431Y633359D01*
G54D11*
X1223032Y551162D02*
X1223032Y539606D01*
X1216965Y539606D01*
G54D11*
X1208586Y539606D02*
X1208586Y551162D01*
X1213786Y543940D01*
X1213786Y542495D01*
X1206853Y542495D01*
G54D11*
X1140198Y533704D02*
X1141064Y532260D01*
X1142798Y531538D01*
X1144531Y531538D01*
X1146264Y532260D01*
X1147131Y533704D01*
X1147131Y540926D01*
X1146264Y542371D01*
X1144531Y543093D01*
X1142798Y543093D01*
X1141064Y542371D01*
X1140198Y540926D01*
G54D11*
X1131820Y531538D02*
X1131820Y543093D01*
X1137020Y535871D01*
X1137020Y534426D01*
X1130087Y534426D01*
G54D11*
X1119976Y540926D02*
X1120842Y542371D01*
X1122576Y543093D01*
X1124309Y543093D01*
X1126042Y542371D01*
X1126909Y540926D01*
X1126909Y537315D01*
X1126909Y536593D01*
X1124309Y538038D01*
X1122576Y538038D01*
X1120842Y537315D01*
X1119976Y535871D01*
X1119976Y533704D01*
X1120842Y532260D01*
X1122576Y531538D01*
X1124309Y531538D01*
X1126042Y532260D01*
X1126909Y533704D01*
X1126909Y537315D01*
G54D11*
X1205241Y594923D02*
X1206108Y593478D01*
X1207841Y592756D01*
X1209575Y592756D01*
X1211308Y593478D01*
X1212175Y594923D01*
X1212175Y602145D01*
X1211308Y603590D01*
X1209575Y604312D01*
X1207841Y604312D01*
X1206108Y603590D01*
X1205241Y602145D01*
G54D11*
X1196864Y592756D02*
X1196864Y604312D01*
X1202064Y597090D01*
X1202064Y595645D01*
X1195130Y595645D01*
G54D11*
X1191953Y604312D02*
X1185019Y604312D01*
X1185886Y602867D01*
X1187619Y600701D01*
X1189353Y597812D01*
X1190219Y595645D01*
X1190219Y592756D01*
G54D11*
X1382292Y569423D02*
X1383158Y567978D01*
X1384892Y567256D01*
X1386625Y567256D01*
X1388358Y567978D01*
X1389225Y569423D01*
X1389225Y576645D01*
X1388358Y578089D01*
X1386625Y578812D01*
X1384892Y578812D01*
X1383158Y578089D01*
X1382292Y576645D01*
G54D11*
X1379114Y576645D02*
X1378247Y578089D01*
X1376514Y578812D01*
X1374781Y578812D01*
X1373047Y578089D01*
X1372181Y576645D01*
X1372181Y575200D01*
X1373047Y573756D01*
X1374781Y573034D01*
X1373047Y572312D01*
X1372181Y570867D01*
X1372181Y569423D01*
X1373047Y567978D01*
X1374781Y567256D01*
X1376514Y567256D01*
X1378247Y567978D01*
X1379114Y569423D01*
G54D11*
X1364670Y573034D02*
X1366403Y573034D01*
X1368136Y573756D01*
X1369003Y575200D01*
X1369003Y576645D01*
X1368136Y578089D01*
X1366403Y578812D01*
X1364670Y578812D01*
X1362936Y578089D01*
X1362070Y576645D01*
X1362070Y575200D01*
X1362936Y573756D01*
X1364670Y573034D01*
X1362936Y572312D01*
X1362070Y570867D01*
X1362070Y569423D01*
X1362936Y567978D01*
X1364670Y567256D01*
X1366403Y567256D01*
X1368136Y567978D01*
X1369003Y569423D01*
X1369003Y570867D01*
X1368136Y572312D01*
X1366403Y573034D01*
G54D11*
X1286205Y422679D02*
X1287071Y421235D01*
X1288805Y420512D01*
X1290538Y420512D01*
X1292271Y421235D01*
X1293138Y422679D01*
X1293138Y429901D01*
X1292271Y431346D01*
X1290538Y432068D01*
X1288805Y432068D01*
X1287071Y431346D01*
X1286205Y429901D01*
G54D11*
X1277827Y420512D02*
X1277827Y432068D01*
X1283027Y424846D01*
X1283027Y423401D01*
X1276094Y423401D01*
G54D11*
X1267716Y420512D02*
X1267716Y432068D01*
X1272916Y424846D01*
X1272916Y423401D01*
X1265983Y423401D01*
G54D11*
X1187029Y422579D02*
X1187896Y421135D01*
X1189629Y420412D01*
X1191362Y420412D01*
X1193096Y421135D01*
X1193962Y422579D01*
X1193962Y429801D01*
X1193096Y431246D01*
X1191362Y431968D01*
X1189629Y431968D01*
X1187896Y431246D01*
X1187029Y429801D01*
G54D11*
X1178651Y420412D02*
X1178651Y431968D01*
X1183851Y424746D01*
X1183851Y423301D01*
X1176918Y423301D01*
G54D11*
X1166807Y431968D02*
X1173740Y431968D01*
X1173740Y426912D01*
X1172874Y426912D01*
X1171140Y427635D01*
X1169407Y427635D01*
X1167674Y426912D01*
X1166807Y425468D01*
X1166807Y422579D01*
X1167674Y421135D01*
X1169407Y420412D01*
X1171140Y420412D01*
X1172874Y421135D01*
X1173740Y422579D01*
G54D11*
X973379Y164117D02*
X974245Y162672D01*
X975979Y161950D01*
X977712Y161950D01*
X979445Y162672D01*
X980312Y164117D01*
X980312Y171339D01*
X979445Y172784D01*
X977712Y173506D01*
X975979Y173506D01*
X974245Y172784D01*
X973379Y171339D01*
G54D11*
X963268Y173506D02*
X970201Y173506D01*
X970201Y168450D01*
X969334Y168450D01*
X967601Y169172D01*
X965868Y169172D01*
X964134Y168450D01*
X963268Y167006D01*
X963268Y164117D01*
X964134Y162672D01*
X965868Y161950D01*
X967601Y161950D01*
X969334Y162672D01*
X970201Y164117D01*
G54D11*
X953157Y171339D02*
X953157Y164117D01*
X954023Y162672D01*
X955757Y161950D01*
X957490Y161950D01*
X959223Y162672D01*
X960090Y164117D01*
X960090Y171339D01*
X959223Y172784D01*
X957490Y173506D01*
X955757Y173506D01*
X954023Y172784D01*
X953157Y171339D01*
G54D11*
X1305943Y340168D02*
X1303343Y338724D01*
X1302476Y337279D01*
X1302476Y334390D01*
G54D11*
X1309410Y334390D02*
X1309410Y345946D01*
X1305076Y345946D01*
X1303343Y345224D01*
X1302476Y343779D01*
X1302476Y342335D01*
X1303343Y340890D01*
X1305076Y340168D01*
X1309410Y340168D01*
G54D11*
X1292366Y343779D02*
X1293232Y345224D01*
X1294966Y345946D01*
X1296699Y345946D01*
X1298432Y345224D01*
X1299299Y343779D01*
X1299299Y340168D01*
X1299299Y339446D01*
X1296699Y340890D01*
X1294966Y340890D01*
X1293232Y340168D01*
X1292366Y338724D01*
X1292366Y336557D01*
X1293232Y335113D01*
X1294966Y334390D01*
X1296699Y334390D01*
X1298432Y335113D01*
X1299299Y336557D01*
X1299299Y340168D01*
G54D11*
X1282254Y345946D02*
X1289188Y345946D01*
X1289188Y340890D01*
X1288321Y340890D01*
X1286588Y341613D01*
X1284854Y341613D01*
X1283121Y340890D01*
X1282254Y339446D01*
X1282254Y336557D01*
X1283121Y335113D01*
X1284854Y334390D01*
X1286588Y334390D01*
X1288321Y335113D01*
X1289188Y336557D01*
G54D11*
X1479377Y324690D02*
X1476777Y323246D01*
X1475911Y321801D01*
X1475911Y318912D01*
G54D11*
X1482844Y318912D02*
X1482844Y330468D01*
X1478511Y330468D01*
X1476777Y329746D01*
X1475911Y328301D01*
X1475911Y326857D01*
X1476777Y325412D01*
X1478511Y324690D01*
X1482844Y324690D01*
G54D11*
X1465800Y330468D02*
X1472733Y330468D01*
X1472733Y325412D01*
X1471866Y325412D01*
X1470133Y326135D01*
X1468400Y326135D01*
X1466666Y325412D01*
X1465800Y323968D01*
X1465800Y321079D01*
X1466666Y319635D01*
X1468400Y318912D01*
X1470133Y318912D01*
X1471866Y319635D01*
X1472733Y321079D01*
G54D11*
X1455689Y330468D02*
X1462622Y330468D01*
X1462622Y325412D01*
X1461755Y325412D01*
X1460022Y326135D01*
X1458289Y326135D01*
X1456555Y325412D01*
X1455689Y323968D01*
X1455689Y321079D01*
X1456555Y319635D01*
X1458289Y318912D01*
X1460022Y318912D01*
X1461755Y319635D01*
X1462622Y321079D01*
G54D11*
X1182295Y233115D02*
X1179695Y231671D01*
X1178829Y230226D01*
X1178829Y227338D01*
G54D11*
X1185762Y227338D02*
X1185762Y238893D01*
X1181429Y238893D01*
X1179695Y238171D01*
X1178829Y236726D01*
X1178829Y235282D01*
X1179695Y233838D01*
X1181429Y233115D01*
X1185762Y233115D01*
G54D11*
X1168718Y236726D02*
X1169584Y238171D01*
X1171318Y238893D01*
X1173051Y238893D01*
X1174784Y238171D01*
X1175651Y236726D01*
X1175651Y233115D01*
X1175651Y232393D01*
X1173051Y233838D01*
X1171318Y233838D01*
X1169584Y233115D01*
X1168718Y231671D01*
X1168718Y229504D01*
X1169584Y228060D01*
X1171318Y227338D01*
X1173051Y227338D01*
X1174784Y228060D01*
X1175651Y229504D01*
X1175651Y233115D01*
G54D11*
X1160340Y227338D02*
X1160340Y238893D01*
X1165540Y231671D01*
X1165540Y230226D01*
X1158607Y230226D01*
G54D11*
X1178829Y189022D02*
X1179695Y187578D01*
X1181429Y186856D01*
X1183162Y186856D01*
X1184895Y187578D01*
X1185762Y189022D01*
X1185762Y196245D01*
X1184895Y197689D01*
X1183162Y198411D01*
X1181429Y198411D01*
X1179695Y197689D01*
X1178829Y196245D01*
G54D11*
X1170451Y186856D02*
X1170451Y198411D01*
X1175651Y191189D01*
X1175651Y189745D01*
X1168718Y189745D01*
G54D11*
X1165540Y196245D02*
X1164673Y197689D01*
X1162940Y198411D01*
X1161207Y198411D01*
X1159473Y197689D01*
X1158607Y196245D01*
X1158607Y194800D01*
X1159473Y193356D01*
X1161207Y192634D01*
X1159473Y191911D01*
X1158607Y190467D01*
X1158607Y189022D01*
X1159473Y187578D01*
X1161207Y186856D01*
X1162940Y186856D01*
X1164673Y187578D01*
X1165540Y189022D01*
G54D11*
X1110902Y203646D02*
X1108302Y202202D01*
X1107435Y200758D01*
X1107435Y197869D01*
G54D11*
X1114368Y197869D02*
X1114368Y209424D01*
X1110035Y209424D01*
X1108302Y208702D01*
X1107435Y207258D01*
X1107435Y205813D01*
X1108302Y204369D01*
X1110035Y203646D01*
X1114368Y203646D01*
G54D11*
X1097324Y207258D02*
X1098191Y208702D01*
X1099924Y209424D01*
X1101657Y209424D01*
X1103391Y208702D01*
X1104257Y207258D01*
X1104257Y203646D01*
X1104257Y202924D01*
X1101657Y204369D01*
X1099924Y204369D01*
X1098191Y203646D01*
X1097324Y202202D01*
X1097324Y200036D01*
X1098191Y198591D01*
X1099924Y197869D01*
X1101657Y197869D01*
X1103391Y198591D01*
X1104257Y200036D01*
X1104257Y203646D01*
G54D11*
X1087213Y207258D02*
X1088080Y208702D01*
X1089813Y209424D01*
X1091546Y209424D01*
X1093280Y208702D01*
X1094146Y207258D01*
X1094146Y203646D01*
X1094146Y202924D01*
X1091546Y204369D01*
X1089813Y204369D01*
X1088080Y203646D01*
X1087213Y202202D01*
X1087213Y200036D01*
X1088080Y198591D01*
X1089813Y197869D01*
X1091546Y197869D01*
X1093280Y198591D01*
X1094146Y200036D01*
X1094146Y203646D01*
G54D11*
X1023633Y203546D02*
X1021033Y202102D01*
X1020166Y200658D01*
X1020166Y197769D01*
G54D11*
X1027100Y197769D02*
X1027100Y209324D01*
X1022766Y209324D01*
X1021033Y208602D01*
X1020166Y207158D01*
X1020166Y205713D01*
X1021033Y204269D01*
X1022766Y203546D01*
X1027100Y203546D01*
G54D11*
X1010055Y207158D02*
X1010922Y208602D01*
X1012655Y209324D01*
X1014388Y209324D01*
X1016122Y208602D01*
X1016988Y207158D01*
X1016988Y203546D01*
X1016988Y202824D01*
X1014388Y204269D01*
X1012655Y204269D01*
X1010922Y203546D01*
X1010055Y202102D01*
X1010055Y199936D01*
X1010922Y198491D01*
X1012655Y197769D01*
X1014388Y197769D01*
X1016122Y198491D01*
X1016988Y199936D01*
X1016988Y203546D01*
G54D11*
X1006878Y209324D02*
X999944Y209324D01*
X1000811Y207880D01*
X1002544Y205713D01*
X1004278Y202824D01*
X1005144Y200658D01*
X1005144Y197769D01*
G54D11*
X947478Y203446D02*
X944878Y202002D01*
X944011Y200558D01*
X944011Y197669D01*
G54D11*
X950944Y197669D02*
X950944Y209224D01*
X946611Y209224D01*
X944878Y208502D01*
X944011Y207058D01*
X944011Y205613D01*
X944878Y204169D01*
X946611Y203446D01*
X950944Y203446D01*
G54D11*
X933900Y207058D02*
X934766Y208502D01*
X936500Y209224D01*
X938233Y209224D01*
X939966Y208502D01*
X940833Y207058D01*
X940833Y203446D01*
X940833Y202724D01*
X938233Y204169D01*
X936500Y204169D01*
X934766Y203446D01*
X933900Y202002D01*
X933900Y199836D01*
X934766Y198391D01*
X936500Y197669D01*
X938233Y197669D01*
X939966Y198391D01*
X940833Y199836D01*
X940833Y203446D01*
G54D11*
X926389Y203446D02*
X928122Y203446D01*
X929856Y204169D01*
X930722Y205613D01*
X930722Y207058D01*
X929856Y208502D01*
X928122Y209224D01*
X926389Y209224D01*
X924656Y208502D01*
X923789Y207058D01*
X923789Y205613D01*
X924656Y204169D01*
X926389Y203446D01*
X924656Y202724D01*
X923789Y201280D01*
X923789Y199836D01*
X924656Y198391D01*
X926389Y197669D01*
X928122Y197669D01*
X929856Y198391D01*
X930722Y199836D01*
X930722Y201280D01*
X929856Y202724D01*
X928122Y203446D01*
G54D11*
X877379Y204498D02*
X878246Y203054D01*
X879979Y202331D01*
X881712Y202331D01*
X883446Y203054D01*
X884312Y204498D01*
X884312Y211720D01*
X883446Y213164D01*
X881712Y213887D01*
X879979Y213887D01*
X878246Y213164D01*
X877379Y211720D01*
G54D11*
X867268Y213887D02*
X874201Y213887D01*
X874201Y208831D01*
X873334Y208831D01*
X871601Y209554D01*
X869868Y209554D01*
X868134Y208831D01*
X867268Y207387D01*
X867268Y204498D01*
X868134Y203054D01*
X869868Y202331D01*
X871601Y202331D01*
X873334Y203054D01*
X874201Y204498D01*
G54D11*
X858890Y202331D02*
X858890Y213887D01*
X864090Y206664D01*
X864090Y205220D01*
X857157Y205220D01*
G54D11*
X1234938Y118568D02*
X1234938Y107013D01*
X1228871Y107013D01*
G54D11*
X1225693Y116402D02*
X1224826Y117846D01*
X1223093Y118568D01*
X1221360Y118568D01*
X1219626Y117846D01*
X1218760Y116402D01*
X1218760Y114957D01*
X1219626Y113513D01*
X1221360Y112790D01*
X1219626Y112068D01*
X1218760Y110624D01*
X1218760Y109180D01*
X1219626Y107735D01*
X1221360Y107013D01*
X1223093Y107013D01*
X1224826Y107735D01*
X1225693Y109180D01*
G54D11*
X1238652Y71190D02*
X1236052Y69746D01*
X1235185Y68301D01*
X1235185Y65412D01*
G54D11*
X1242118Y65412D02*
X1242118Y76968D01*
X1237785Y76968D01*
X1236052Y76246D01*
X1235185Y74801D01*
X1235185Y73357D01*
X1236052Y71912D01*
X1237785Y71190D01*
X1242118Y71190D01*
G54D11*
X1225074Y74801D02*
X1225941Y76246D01*
X1227674Y76968D01*
X1229407Y76968D01*
X1231141Y76246D01*
X1232007Y74801D01*
X1232007Y71190D01*
X1232007Y70468D01*
X1229407Y71912D01*
X1227674Y71912D01*
X1225941Y71190D01*
X1225074Y69746D01*
X1225074Y67579D01*
X1225941Y66134D01*
X1227674Y65412D01*
X1229407Y65412D01*
X1231141Y66134D01*
X1232007Y67579D01*
X1232007Y71190D01*
G54D11*
X1221896Y74801D02*
X1221030Y76246D01*
X1219296Y76968D01*
X1217563Y76968D01*
X1215830Y76246D01*
X1214963Y74801D01*
X1214963Y73357D01*
X1215830Y71912D01*
X1217563Y71190D01*
X1215830Y70468D01*
X1214963Y69023D01*
X1214963Y67579D01*
X1215830Y66134D01*
X1217563Y65412D01*
X1219296Y65412D01*
X1221030Y66134D01*
X1221896Y67579D01*
G54D11*
X1479377Y213565D02*
X1476777Y212120D01*
X1475911Y210676D01*
X1475911Y207787D01*
G54D11*
X1482844Y207787D02*
X1482844Y219343D01*
X1478511Y219343D01*
X1476777Y218620D01*
X1475911Y217176D01*
X1475911Y215732D01*
X1476777Y214287D01*
X1478511Y213565D01*
X1482844Y213565D01*
G54D11*
X1465800Y219343D02*
X1472733Y219343D01*
X1472733Y214287D01*
X1471866Y214287D01*
X1470133Y215010D01*
X1468400Y215010D01*
X1466666Y214287D01*
X1465800Y212843D01*
X1465800Y209954D01*
X1466666Y208510D01*
X1468400Y207787D01*
X1470133Y207787D01*
X1471866Y208510D01*
X1472733Y209954D01*
G54D11*
X1457422Y207787D02*
X1457422Y219343D01*
X1462622Y212120D01*
X1462622Y210676D01*
X1455689Y210676D01*
G54D11*
X1475911Y156773D02*
X1476777Y155328D01*
X1478511Y154606D01*
X1480244Y154606D01*
X1481977Y155328D01*
X1482844Y156773D01*
X1482844Y163995D01*
X1481977Y165440D01*
X1480244Y166162D01*
X1478511Y166162D01*
X1476777Y165440D01*
X1475911Y163995D01*
G54D11*
X1472733Y163995D02*
X1471866Y165440D01*
X1470133Y166162D01*
X1468400Y166162D01*
X1466666Y165440D01*
X1465800Y163995D01*
X1465800Y162551D01*
X1466666Y161106D01*
X1468400Y160384D01*
X1466666Y159662D01*
X1465800Y158217D01*
X1465800Y156773D01*
X1466666Y155328D01*
X1468400Y154606D01*
X1470133Y154606D01*
X1471866Y155328D01*
X1472733Y156773D01*
G54D11*
X1455689Y163995D02*
X1455689Y156773D01*
X1456555Y155328D01*
X1458289Y154606D01*
X1460022Y154606D01*
X1461755Y155328D01*
X1462622Y156773D01*
X1462622Y163995D01*
X1461755Y165440D01*
X1460022Y166162D01*
X1458289Y166162D01*
X1456555Y165440D01*
X1455689Y163995D01*
G54D11*
X1376190Y142128D02*
X1373590Y140683D01*
X1372723Y139239D01*
X1372723Y136350D01*
G54D11*
X1379656Y136350D02*
X1379656Y147905D01*
X1375323Y147905D01*
X1373590Y147183D01*
X1372723Y145739D01*
X1372723Y144294D01*
X1373590Y142850D01*
X1375323Y142128D01*
X1379656Y142128D01*
G54D11*
X1362612Y145739D02*
X1363479Y147183D01*
X1365212Y147905D01*
X1366946Y147905D01*
X1368679Y147183D01*
X1369546Y145739D01*
X1369546Y142128D01*
X1369546Y141405D01*
X1366946Y142850D01*
X1365212Y142850D01*
X1363479Y142128D01*
X1362612Y140683D01*
X1362612Y138516D01*
X1363479Y137072D01*
X1365212Y136350D01*
X1366946Y136350D01*
X1368679Y137072D01*
X1369546Y138516D01*
X1369546Y142128D01*
G54D11*
X1352501Y136350D02*
X1359434Y136350D01*
X1359434Y137072D01*
X1358568Y138516D01*
X1353368Y142850D01*
X1352501Y144294D01*
X1352501Y145739D01*
X1353368Y147183D01*
X1355101Y147905D01*
X1356834Y147905D01*
X1358568Y147183D01*
X1359434Y145739D01*
G54D11*
X1466677Y81009D02*
X1464077Y79564D01*
X1463210Y78120D01*
X1463210Y75231D01*
G54D11*
X1470144Y75231D02*
X1470144Y86787D01*
X1465810Y86787D01*
X1464077Y86064D01*
X1463210Y84620D01*
X1463210Y83176D01*
X1464077Y81731D01*
X1465810Y81009D01*
X1470144Y81009D01*
G54D11*
X1453099Y86787D02*
X1460033Y86787D01*
X1460033Y81731D01*
X1459166Y81731D01*
X1457433Y82454D01*
X1455699Y82454D01*
X1453966Y81731D01*
X1453099Y80287D01*
X1453099Y77398D01*
X1453966Y75954D01*
X1455699Y75231D01*
X1457433Y75231D01*
X1459166Y75954D01*
X1460033Y77398D01*
G54D11*
X1449922Y84620D02*
X1449055Y86064D01*
X1447322Y86787D01*
X1445588Y86787D01*
X1443855Y86064D01*
X1442988Y84620D01*
X1442988Y83176D01*
X1443855Y81731D01*
X1445588Y81009D01*
X1443855Y80287D01*
X1442988Y78842D01*
X1442988Y77398D01*
X1443855Y75954D01*
X1445588Y75231D01*
X1447322Y75231D01*
X1449055Y75954D01*
X1449922Y77398D01*
G54D11*
X1530971Y-29322D02*
X1528371Y-30766D01*
X1527504Y-32211D01*
X1527504Y-35100D01*
G54D11*
X1534438Y-35100D02*
X1534438Y-23544D01*
X1530104Y-23544D01*
X1528371Y-24266D01*
X1527504Y-25711D01*
X1527504Y-27155D01*
X1528371Y-28600D01*
X1530104Y-29322D01*
X1534438Y-29322D01*
G54D11*
X1517393Y-23544D02*
X1524326Y-23544D01*
X1524326Y-28600D01*
X1523460Y-28600D01*
X1521726Y-27878D01*
X1519993Y-27878D01*
X1518260Y-28600D01*
X1517393Y-30044D01*
X1517393Y-32933D01*
X1518260Y-34378D01*
X1519993Y-35100D01*
X1521726Y-35100D01*
X1523460Y-34378D01*
X1524326Y-32933D01*
G54D11*
X1507282Y-35100D02*
X1514216Y-35100D01*
X1514216Y-34378D01*
X1513349Y-32933D01*
X1508149Y-28600D01*
X1507282Y-27155D01*
X1507282Y-25711D01*
X1508149Y-24266D01*
X1509882Y-23544D01*
X1511616Y-23544D01*
X1513349Y-24266D01*
X1514216Y-25711D01*
G54D11*
X1338592Y-63889D02*
X1339459Y-65334D01*
X1341192Y-66056D01*
X1342925Y-66056D01*
X1344659Y-65334D01*
X1345525Y-63889D01*
X1345525Y-56667D01*
X1344659Y-55223D01*
X1342925Y-54500D01*
X1341192Y-54500D01*
X1339459Y-55223D01*
X1338592Y-56667D01*
G54D11*
X1335414Y-56667D02*
X1334548Y-55223D01*
X1332814Y-54500D01*
X1331081Y-54500D01*
X1329348Y-55223D01*
X1328481Y-56667D01*
X1328481Y-58112D01*
X1329348Y-59556D01*
X1331081Y-60278D01*
X1329348Y-61000D01*
X1328481Y-62445D01*
X1328481Y-63889D01*
X1329348Y-65334D01*
X1331081Y-66056D01*
X1332814Y-66056D01*
X1334548Y-65334D01*
X1335414Y-63889D01*
G54D11*
X1325303Y-54500D02*
X1318370Y-54500D01*
X1319237Y-55945D01*
X1320970Y-58112D01*
X1322703Y-61000D01*
X1323570Y-63167D01*
X1323570Y-66056D01*
G54D11*
X1373015Y-126160D02*
X1370415Y-127604D01*
X1369548Y-129048D01*
X1369548Y-131937D01*
G54D11*
X1376482Y-131937D02*
X1376482Y-120382D01*
X1372148Y-120382D01*
X1370415Y-121104D01*
X1369548Y-122548D01*
X1369548Y-123993D01*
X1370415Y-125437D01*
X1372148Y-126160D01*
X1376482Y-126160D01*
G54D11*
X1359437Y-122548D02*
X1360304Y-121104D01*
X1362037Y-120382D01*
X1363770Y-120382D01*
X1365504Y-121104D01*
X1366370Y-122548D01*
X1366370Y-126160D01*
X1366370Y-126882D01*
X1363770Y-125437D01*
X1362037Y-125437D01*
X1360304Y-126160D01*
X1359437Y-127604D01*
X1359437Y-129771D01*
X1360304Y-131215D01*
X1362037Y-131937D01*
X1363770Y-131937D01*
X1365504Y-131215D01*
X1366370Y-129771D01*
X1366370Y-126160D01*
G54D11*
X1356260Y-124715D02*
X1351926Y-120382D01*
X1351926Y-131937D01*
G54D11*
X1382540Y-187278D02*
X1379940Y-188723D01*
X1379073Y-190167D01*
X1379073Y-193056D01*
G54D11*
X1386006Y-193056D02*
X1386006Y-181501D01*
X1381673Y-181501D01*
X1379940Y-182223D01*
X1379073Y-183667D01*
X1379073Y-185112D01*
X1379940Y-186556D01*
X1381673Y-187278D01*
X1386006Y-187278D01*
G54D11*
X1368962Y-183667D02*
X1369829Y-182223D01*
X1371562Y-181501D01*
X1373296Y-181501D01*
X1375029Y-182223D01*
X1375896Y-183667D01*
X1375896Y-187278D01*
X1375896Y-188001D01*
X1373296Y-186556D01*
X1371562Y-186556D01*
X1369829Y-187278D01*
X1368962Y-188723D01*
X1368962Y-190890D01*
X1369829Y-192334D01*
X1371562Y-193056D01*
X1373296Y-193056D01*
X1375029Y-192334D01*
X1375896Y-190890D01*
X1375896Y-187278D01*
G54D11*
X1358851Y-183667D02*
X1358851Y-190890D01*
X1359718Y-192334D01*
X1361451Y-193056D01*
X1363184Y-193056D01*
X1364918Y-192334D01*
X1365784Y-190890D01*
X1365784Y-183667D01*
X1364918Y-182223D01*
X1363184Y-181501D01*
X1361451Y-181501D01*
X1359718Y-182223D01*
X1358851Y-183667D01*
G54D11*
X1525458Y-141341D02*
X1522858Y-142785D01*
X1521991Y-144230D01*
X1521991Y-147118D01*
G54D11*
X1528925Y-147118D02*
X1528925Y-135563D01*
X1524591Y-135563D01*
X1522858Y-136285D01*
X1521991Y-137730D01*
X1521991Y-139174D01*
X1522858Y-140618D01*
X1524591Y-141341D01*
X1528925Y-141341D01*
G54D11*
X1511880Y-135563D02*
X1518814Y-135563D01*
X1518814Y-140618D01*
X1517947Y-140618D01*
X1516214Y-139896D01*
X1514480Y-139896D01*
X1512747Y-140618D01*
X1511880Y-142063D01*
X1511880Y-144952D01*
X1512747Y-146396D01*
X1514480Y-147118D01*
X1516214Y-147118D01*
X1517947Y-146396D01*
X1518814Y-144952D01*
G54D11*
X1508703Y-139896D02*
X1504369Y-135563D01*
X1504369Y-147118D01*
G54D11*
X1662734Y-39641D02*
X1660134Y-41085D01*
X1659267Y-42530D01*
X1659267Y-45418D01*
G54D11*
X1666200Y-45418D02*
X1666200Y-33863D01*
X1661867Y-33863D01*
X1660134Y-34585D01*
X1659267Y-36030D01*
X1659267Y-37474D01*
X1660134Y-38918D01*
X1661867Y-39641D01*
X1666200Y-39641D01*
G54D11*
X1649156Y-45418D02*
X1656090Y-45418D01*
X1656090Y-44696D01*
X1655223Y-43252D01*
X1650023Y-38918D01*
X1649156Y-37474D01*
X1649156Y-36030D01*
X1650023Y-34585D01*
X1651756Y-33863D01*
X1653490Y-33863D01*
X1655223Y-34585D01*
X1656090Y-36030D01*
G54D11*
X1641645Y-39641D02*
X1643378Y-39641D01*
X1645112Y-38918D01*
X1645978Y-37474D01*
X1645978Y-36030D01*
X1645112Y-34585D01*
X1643378Y-33863D01*
X1641645Y-33863D01*
X1639912Y-34585D01*
X1639045Y-36030D01*
X1639045Y-37474D01*
X1639912Y-38918D01*
X1641645Y-39641D01*
X1639912Y-40363D01*
X1639045Y-41807D01*
X1639045Y-43252D01*
X1639912Y-44696D01*
X1641645Y-45418D01*
X1643378Y-45418D01*
X1645112Y-44696D01*
X1645978Y-43252D01*
X1645978Y-41807D01*
X1645112Y-40363D01*
X1643378Y-39641D01*
G54D11*
X1560048Y-96433D02*
X1560915Y-97878D01*
X1562648Y-98600D01*
X1564382Y-98600D01*
X1566115Y-97878D01*
X1566982Y-96433D01*
X1566982Y-89211D01*
X1566115Y-87767D01*
X1564382Y-87044D01*
X1562648Y-87044D01*
X1560915Y-87767D01*
X1560048Y-89211D01*
G54D11*
X1549937Y-98600D02*
X1556871Y-98600D01*
X1556871Y-97878D01*
X1556004Y-96433D01*
X1550804Y-92100D01*
X1549937Y-90656D01*
X1549937Y-89211D01*
X1550804Y-87767D01*
X1552537Y-87044D01*
X1554271Y-87044D01*
X1556004Y-87767D01*
X1556871Y-89211D01*
G54D11*
X1542426Y-92822D02*
X1544160Y-92822D01*
X1545893Y-92100D01*
X1546760Y-90656D01*
X1546760Y-89211D01*
X1545893Y-87767D01*
X1544160Y-87044D01*
X1542426Y-87044D01*
X1540693Y-87767D01*
X1539826Y-89211D01*
X1539826Y-90656D01*
X1540693Y-92100D01*
X1542426Y-92822D01*
X1540693Y-93544D01*
X1539826Y-94989D01*
X1539826Y-96433D01*
X1540693Y-97878D01*
X1542426Y-98600D01*
X1544160Y-98600D01*
X1545893Y-97878D01*
X1546760Y-96433D01*
X1546760Y-94989D01*
X1545893Y-93544D01*
X1544160Y-92822D01*
G54D11*
X1525458Y-232622D02*
X1522858Y-234066D01*
X1521991Y-235511D01*
X1521991Y-238400D01*
G54D11*
X1528925Y-238400D02*
X1528925Y-226844D01*
X1524591Y-226844D01*
X1522858Y-227566D01*
X1521991Y-229011D01*
X1521991Y-230455D01*
X1522858Y-231900D01*
X1524591Y-232622D01*
X1528925Y-232622D01*
G54D11*
X1511880Y-226844D02*
X1518814Y-226844D01*
X1518814Y-231900D01*
X1517947Y-231900D01*
X1516214Y-231177D01*
X1514480Y-231177D01*
X1512747Y-231900D01*
X1511880Y-233344D01*
X1511880Y-236233D01*
X1512747Y-237677D01*
X1514480Y-238400D01*
X1516214Y-238400D01*
X1517947Y-237677D01*
X1518814Y-236233D01*
G54D11*
X1501769Y-229011D02*
X1501769Y-236233D01*
X1502636Y-237677D01*
X1504369Y-238400D01*
X1506103Y-238400D01*
X1507836Y-237677D01*
X1508703Y-236233D01*
X1508703Y-229011D01*
X1507836Y-227566D01*
X1506103Y-226844D01*
X1504369Y-226844D01*
X1502636Y-227566D01*
X1501769Y-229011D01*
G54D11*
X1607215Y-151660D02*
X1604615Y-153104D01*
X1603748Y-154548D01*
X1603748Y-157437D01*
G54D11*
X1610682Y-157437D02*
X1610682Y-145882D01*
X1606348Y-145882D01*
X1604615Y-146604D01*
X1603748Y-148048D01*
X1603748Y-149493D01*
X1604615Y-150937D01*
X1606348Y-151660D01*
X1610682Y-151660D01*
G54D11*
X1595370Y-157437D02*
X1595370Y-145882D01*
X1600570Y-153104D01*
X1600570Y-154548D01*
X1593637Y-154548D01*
G54D11*
X1590460Y-155271D02*
X1589593Y-156715D01*
X1587860Y-157437D01*
X1586126Y-157437D01*
X1584393Y-156715D01*
X1583526Y-155271D01*
X1583526Y-151660D01*
X1583526Y-150937D01*
X1586126Y-152382D01*
X1587860Y-152382D01*
X1589593Y-151660D01*
X1590460Y-150215D01*
X1590460Y-148048D01*
X1589593Y-146604D01*
X1587860Y-145882D01*
X1586126Y-145882D01*
X1584393Y-146604D01*
X1583526Y-148048D01*
X1583526Y-151660D01*
G54D11*
X1607215Y-238179D02*
X1604615Y-239623D01*
X1603748Y-241068D01*
X1603748Y-243957D01*
G54D11*
X1610682Y-243957D02*
X1610682Y-232401D01*
X1606348Y-232401D01*
X1604615Y-233123D01*
X1603748Y-234568D01*
X1603748Y-236012D01*
X1604615Y-237457D01*
X1606348Y-238179D01*
X1610682Y-238179D01*
G54D11*
X1595370Y-243957D02*
X1595370Y-232401D01*
X1600570Y-239623D01*
X1600570Y-241068D01*
X1593637Y-241068D01*
G54D11*
X1586126Y-238179D02*
X1587860Y-238179D01*
X1589593Y-237457D01*
X1590460Y-236012D01*
X1590460Y-234568D01*
X1589593Y-233123D01*
X1587860Y-232401D01*
X1586126Y-232401D01*
X1584393Y-233123D01*
X1583526Y-234568D01*
X1583526Y-236012D01*
X1584393Y-237457D01*
X1586126Y-238179D01*
X1584393Y-238901D01*
X1583526Y-240346D01*
X1583526Y-241790D01*
X1584393Y-243234D01*
X1586126Y-243957D01*
X1587860Y-243957D01*
X1589593Y-243234D01*
X1590460Y-241790D01*
X1590460Y-240346D01*
X1589593Y-238901D01*
X1587860Y-238179D01*
G54D11*
X1662734Y-141241D02*
X1660134Y-142686D01*
X1659267Y-144130D01*
X1659267Y-147019D01*
G54D11*
X1666200Y-147019D02*
X1666200Y-135464D01*
X1661867Y-135464D01*
X1660134Y-136186D01*
X1659267Y-137630D01*
X1659267Y-139074D01*
X1660134Y-140519D01*
X1661867Y-141241D01*
X1666200Y-141241D01*
G54D11*
X1649156Y-147019D02*
X1656090Y-147019D01*
X1656090Y-146297D01*
X1655223Y-144852D01*
X1650023Y-140519D01*
X1649156Y-139074D01*
X1649156Y-137630D01*
X1650023Y-136186D01*
X1651756Y-135464D01*
X1653490Y-135464D01*
X1655223Y-136186D01*
X1656090Y-137630D01*
G54D11*
X1645978Y-135464D02*
X1639045Y-135464D01*
X1639912Y-136908D01*
X1641645Y-139074D01*
X1643378Y-141964D01*
X1644245Y-144130D01*
X1644245Y-147019D01*
G54D11*
X1736260Y-139296D02*
X1737127Y-140740D01*
X1738860Y-141463D01*
X1740594Y-141463D01*
X1742327Y-140740D01*
X1743194Y-139296D01*
X1743194Y-132074D01*
X1742327Y-130629D01*
X1740594Y-129907D01*
X1738860Y-129907D01*
X1737127Y-130629D01*
X1736260Y-132074D01*
G54D11*
X1726149Y-141463D02*
X1733082Y-141463D01*
X1733082Y-140740D01*
X1732216Y-139296D01*
X1727016Y-134963D01*
X1726149Y-133518D01*
X1726149Y-132074D01*
X1727016Y-130629D01*
X1728749Y-129907D01*
X1730482Y-129907D01*
X1732216Y-130629D01*
X1733082Y-132074D01*
G54D11*
X1716038Y-141463D02*
X1722972Y-141463D01*
X1722972Y-140740D01*
X1722105Y-139296D01*
X1716905Y-134963D01*
X1716038Y-133518D01*
X1716038Y-132074D01*
X1716905Y-130629D01*
X1718638Y-129907D01*
X1720372Y-129907D01*
X1722105Y-130629D01*
X1722972Y-132074D01*
G54D11*
X1689765Y-161185D02*
X1687165Y-162629D01*
X1686298Y-164074D01*
X1686298Y-166963D01*
G54D11*
X1693232Y-166963D02*
X1693232Y-155407D01*
X1688898Y-155407D01*
X1687165Y-156129D01*
X1686298Y-157574D01*
X1686298Y-159018D01*
X1687165Y-160463D01*
X1688898Y-161185D01*
X1693232Y-161185D01*
G54D11*
X1676187Y-166963D02*
X1683121Y-166963D01*
X1683121Y-166240D01*
X1682254Y-164796D01*
X1677054Y-160463D01*
X1676187Y-159018D01*
X1676187Y-157574D01*
X1677054Y-156129D01*
X1678787Y-155407D01*
X1680521Y-155407D01*
X1682254Y-156129D01*
X1683121Y-157574D01*
G54D11*
X1666076Y-157574D02*
X1666943Y-156129D01*
X1668676Y-155407D01*
X1670410Y-155407D01*
X1672143Y-156129D01*
X1673010Y-157574D01*
X1673010Y-161185D01*
X1673010Y-161907D01*
X1670410Y-160463D01*
X1668676Y-160463D01*
X1666943Y-161185D01*
X1666076Y-162629D01*
X1666076Y-164796D01*
X1666943Y-166240D01*
X1668676Y-166963D01*
X1670410Y-166963D01*
X1672143Y-166240D01*
X1673010Y-164796D01*
X1673010Y-161185D01*
G54D11*
X1689765Y-240560D02*
X1687165Y-242004D01*
X1686298Y-243449D01*
X1686298Y-246338D01*
G54D11*
X1693232Y-246338D02*
X1693232Y-234782D01*
X1688898Y-234782D01*
X1687165Y-235504D01*
X1686298Y-236949D01*
X1686298Y-238393D01*
X1687165Y-239838D01*
X1688898Y-240560D01*
X1693232Y-240560D01*
G54D11*
X1676187Y-246338D02*
X1683121Y-246338D01*
X1683121Y-245615D01*
X1682254Y-244171D01*
X1677054Y-239838D01*
X1676187Y-238393D01*
X1676187Y-236949D01*
X1677054Y-235504D01*
X1678787Y-234782D01*
X1680521Y-234782D01*
X1682254Y-235504D01*
X1683121Y-236949D01*
G54D11*
X1666076Y-234782D02*
X1673010Y-234782D01*
X1673010Y-239838D01*
X1672143Y-239838D01*
X1670410Y-239115D01*
X1668676Y-239115D01*
X1666943Y-239838D01*
X1666076Y-241282D01*
X1666076Y-244171D01*
X1666943Y-245615D01*
X1668676Y-246338D01*
X1670410Y-246338D01*
X1672143Y-245615D01*
X1673010Y-244171D01*
G54D11*
X1760408Y-161185D02*
X1757808Y-162629D01*
X1756941Y-164074D01*
X1756941Y-166963D01*
G54D11*
X1763874Y-166963D02*
X1763874Y-155407D01*
X1759541Y-155407D01*
X1757808Y-156129D01*
X1756941Y-157574D01*
X1756941Y-159018D01*
X1757808Y-160463D01*
X1759541Y-161185D01*
X1763874Y-161185D01*
G54D11*
X1746830Y-166963D02*
X1753764Y-166963D01*
X1753764Y-166240D01*
X1752897Y-164796D01*
X1747697Y-160463D01*
X1746830Y-159018D01*
X1746830Y-157574D01*
X1747697Y-156129D01*
X1749430Y-155407D01*
X1751164Y-155407D01*
X1752897Y-156129D01*
X1753764Y-157574D01*
G54D11*
X1738452Y-166963D02*
X1738452Y-155407D01*
X1743652Y-162629D01*
X1743652Y-164074D01*
X1736719Y-164074D01*
G54D11*
X1760408Y-240560D02*
X1757808Y-242004D01*
X1756941Y-243449D01*
X1756941Y-246338D01*
G54D11*
X1763874Y-246338D02*
X1763874Y-234782D01*
X1759541Y-234782D01*
X1757808Y-235504D01*
X1756941Y-236949D01*
X1756941Y-238393D01*
X1757808Y-239838D01*
X1759541Y-240560D01*
X1763874Y-240560D01*
G54D11*
X1746830Y-246338D02*
X1753764Y-246338D01*
X1753764Y-245615D01*
X1752897Y-244171D01*
X1747697Y-239838D01*
X1746830Y-238393D01*
X1746830Y-236949D01*
X1747697Y-235504D01*
X1749430Y-234782D01*
X1751164Y-234782D01*
X1752897Y-235504D01*
X1753764Y-236949D01*
G54D11*
X1743652Y-236949D02*
X1742786Y-235504D01*
X1741052Y-234782D01*
X1739319Y-234782D01*
X1737586Y-235504D01*
X1736719Y-236949D01*
X1736719Y-238393D01*
X1737586Y-239838D01*
X1739319Y-240560D01*
X1737586Y-241282D01*
X1736719Y-242726D01*
X1736719Y-244171D01*
X1737586Y-245615D01*
X1739319Y-246338D01*
X1741052Y-246338D01*
X1742786Y-245615D01*
X1743652Y-244171D01*
G54D11*
X1842958Y-161184D02*
X1840358Y-162629D01*
X1839491Y-164073D01*
X1839491Y-166962D01*
G54D11*
X1846425Y-166962D02*
X1846425Y-155406D01*
X1842091Y-155406D01*
X1840358Y-156129D01*
X1839491Y-157573D01*
X1839491Y-159018D01*
X1840358Y-160462D01*
X1842091Y-161184D01*
X1846425Y-161184D01*
G54D11*
X1836314Y-159740D02*
X1831980Y-155406D01*
X1831980Y-166962D01*
G54D11*
X1828803Y-155406D02*
X1821869Y-155406D01*
X1822736Y-156851D01*
X1824469Y-159018D01*
X1826203Y-161906D01*
X1827069Y-164073D01*
X1827069Y-166962D01*
G54D11*
X1842958Y-240560D02*
X1840358Y-242004D01*
X1839491Y-243449D01*
X1839491Y-246338D01*
G54D11*
X1846425Y-246338D02*
X1846425Y-234782D01*
X1842091Y-234782D01*
X1840358Y-235504D01*
X1839491Y-236949D01*
X1839491Y-238393D01*
X1840358Y-239838D01*
X1842091Y-240560D01*
X1846425Y-240560D01*
G54D11*
X1836314Y-239116D02*
X1831980Y-234782D01*
X1831980Y-246338D01*
G54D11*
X1821869Y-236949D02*
X1822736Y-235504D01*
X1824469Y-234782D01*
X1826203Y-234782D01*
X1827936Y-235504D01*
X1828803Y-236949D01*
X1828803Y-240560D01*
X1828803Y-241282D01*
X1826203Y-239838D01*
X1824469Y-239838D01*
X1822736Y-240560D01*
X1821869Y-242004D01*
X1821869Y-244171D01*
X1822736Y-245616D01*
X1824469Y-246338D01*
X1826203Y-246338D01*
X1827936Y-245616D01*
X1828803Y-244171D01*
X1828803Y-240560D01*
G54D11*
X1923921Y-161185D02*
X1921321Y-162629D01*
X1920454Y-164074D01*
X1920454Y-166962D01*
G54D11*
X1927387Y-166962D02*
X1927387Y-155407D01*
X1923054Y-155407D01*
X1921321Y-156129D01*
X1920454Y-157574D01*
X1920454Y-159018D01*
X1921321Y-160462D01*
X1923054Y-161185D01*
X1927387Y-161185D01*
G54D11*
X1917276Y-159740D02*
X1912943Y-155407D01*
X1912943Y-166962D01*
G54D11*
X1902832Y-155407D02*
X1909765Y-155407D01*
X1909765Y-160462D01*
X1908899Y-160462D01*
X1907165Y-159740D01*
X1905432Y-159740D01*
X1903699Y-160462D01*
X1902832Y-161907D01*
X1902832Y-164796D01*
X1903699Y-166240D01*
X1905432Y-166962D01*
X1907165Y-166962D01*
X1908899Y-166240D01*
X1909765Y-164796D01*
G54D11*
X1923921Y-240560D02*
X1921321Y-242004D01*
X1920454Y-243448D01*
X1920454Y-246337D01*
G54D11*
X1927387Y-246337D02*
X1927387Y-234782D01*
X1923054Y-234782D01*
X1921321Y-235504D01*
X1920454Y-236948D01*
X1920454Y-238393D01*
X1921321Y-239837D01*
X1923054Y-240560D01*
X1927387Y-240560D01*
G54D11*
X1917276Y-239115D02*
X1912943Y-234782D01*
X1912943Y-246337D01*
G54D11*
X1904565Y-246337D02*
X1904565Y-234782D01*
X1909765Y-242004D01*
X1909765Y-243448D01*
X1902832Y-243448D01*
G54D11*
X1627913Y220273D02*
X1628780Y218828D01*
X1630513Y218106D01*
X1632247Y218106D01*
X1633980Y218828D01*
X1634847Y220273D01*
X1634847Y227495D01*
X1633980Y228939D01*
X1632247Y229662D01*
X1630513Y229662D01*
X1628780Y228939D01*
X1627913Y227495D01*
G54D11*
X1617802Y218106D02*
X1624736Y218106D01*
X1624736Y218828D01*
X1623869Y220273D01*
X1618669Y224606D01*
X1617802Y226050D01*
X1617802Y227495D01*
X1618669Y228939D01*
X1620402Y229662D01*
X1622136Y229662D01*
X1623869Y228939D01*
X1624736Y227495D01*
G54D11*
X1614625Y220273D02*
X1613758Y218828D01*
X1612025Y218106D01*
X1610291Y218106D01*
X1608558Y218828D01*
X1607691Y220273D01*
X1607691Y223884D01*
X1607691Y224606D01*
X1610291Y223162D01*
X1612025Y223162D01*
X1613758Y223884D01*
X1614625Y225328D01*
X1614625Y227495D01*
X1613758Y228939D01*
X1612025Y229662D01*
X1610291Y229662D01*
X1608558Y228939D01*
X1607691Y227495D01*
X1607691Y223884D01*
G54D11*
X1687357Y202000D02*
X1685912Y204600D01*
X1684468Y205466D01*
X1681579Y205466D01*
G54D11*
X1681579Y198533D02*
X1693135Y198533D01*
X1693135Y202866D01*
X1692412Y204600D01*
X1690968Y205466D01*
X1689524Y205466D01*
X1688079Y204600D01*
X1687357Y202866D01*
X1687357Y198533D01*
G54D11*
X1690968Y208644D02*
X1692412Y209511D01*
X1693135Y211244D01*
X1693135Y212977D01*
X1692412Y214711D01*
X1690968Y215577D01*
X1689524Y215577D01*
X1688079Y214711D01*
X1687357Y212977D01*
X1686635Y214711D01*
X1685190Y215577D01*
X1683746Y215577D01*
X1682302Y214711D01*
X1681579Y212977D01*
X1681579Y211244D01*
X1682302Y209511D01*
X1683746Y208644D01*
G54D11*
X1687357Y223088D02*
X1687357Y221355D01*
X1688079Y219622D01*
X1689524Y218755D01*
X1690968Y218755D01*
X1692412Y219622D01*
X1693135Y221355D01*
X1693135Y223088D01*
X1692412Y224822D01*
X1690968Y225688D01*
X1689524Y225688D01*
X1688079Y224822D01*
X1687357Y223088D01*
X1686635Y224822D01*
X1685190Y225688D01*
X1683746Y225688D01*
X1682302Y224822D01*
X1681579Y223088D01*
X1681579Y221355D01*
X1682302Y219622D01*
X1683746Y218755D01*
X1685190Y218755D01*
X1686635Y219622D01*
X1687357Y221355D01*
G54D11*
X1776240Y198484D02*
X1773640Y197040D01*
X1772773Y195595D01*
X1772773Y192706D01*
G54D11*
X1779706Y192706D02*
X1779706Y204262D01*
X1775373Y204262D01*
X1773640Y203540D01*
X1772773Y202095D01*
X1772773Y200651D01*
X1773640Y199206D01*
X1775373Y198484D01*
X1779706Y198484D01*
G54D11*
X1769596Y202095D02*
X1768729Y203540D01*
X1766996Y204262D01*
X1765262Y204262D01*
X1763529Y203540D01*
X1762662Y202095D01*
X1762662Y200651D01*
X1763529Y199206D01*
X1765262Y198484D01*
X1763529Y197762D01*
X1762662Y196318D01*
X1762662Y194873D01*
X1763529Y193429D01*
X1765262Y192706D01*
X1766996Y192706D01*
X1768729Y193429D01*
X1769596Y194873D01*
G54D11*
X1759484Y204262D02*
X1752551Y204262D01*
X1753418Y202818D01*
X1755151Y200651D01*
X1756884Y197762D01*
X1757751Y195595D01*
X1757751Y192706D01*
G54D11*
X1661956Y121037D02*
X1660512Y123637D01*
X1659068Y124503D01*
X1656179Y124503D01*
G54D11*
X1656179Y117570D02*
X1667734Y117570D01*
X1667734Y121903D01*
X1667012Y123637D01*
X1665568Y124503D01*
X1664123Y124503D01*
X1662679Y123637D01*
X1661956Y121903D01*
X1661956Y117570D01*
G54D11*
X1665568Y127681D02*
X1667012Y128548D01*
X1667734Y130281D01*
X1667734Y132014D01*
X1667012Y133748D01*
X1665568Y134614D01*
X1664123Y134614D01*
X1662679Y133748D01*
X1661956Y132014D01*
X1661234Y133748D01*
X1659790Y134614D01*
X1658346Y134614D01*
X1656901Y133748D01*
X1656179Y132014D01*
X1656179Y130281D01*
X1656901Y128548D01*
X1658346Y127681D01*
G54D11*
X1665568Y144725D02*
X1667012Y143859D01*
X1667734Y142125D01*
X1667734Y140392D01*
X1667012Y138659D01*
X1665568Y137792D01*
X1661956Y137792D01*
X1661234Y137792D01*
X1662679Y140392D01*
X1662679Y142125D01*
X1661956Y143859D01*
X1660512Y144725D01*
X1658346Y144725D01*
X1656901Y143859D01*
X1656179Y142125D01*
X1656179Y140392D01*
X1656901Y138659D01*
X1658346Y137792D01*
X1661956Y137792D01*
G54D11*
X1652458Y71384D02*
X1649858Y69940D01*
X1648991Y68496D01*
X1648991Y65607D01*
G54D11*
X1655924Y65607D02*
X1655924Y77162D01*
X1651591Y77162D01*
X1649858Y76440D01*
X1648991Y74996D01*
X1648991Y73551D01*
X1649858Y72107D01*
X1651591Y71384D01*
X1655924Y71384D01*
G54D11*
X1645814Y74996D02*
X1644947Y76440D01*
X1643214Y77162D01*
X1641480Y77162D01*
X1639747Y76440D01*
X1638880Y74996D01*
X1638880Y73551D01*
X1639747Y72107D01*
X1641480Y71384D01*
X1639747Y70662D01*
X1638880Y69218D01*
X1638880Y67774D01*
X1639747Y66329D01*
X1641480Y65607D01*
X1643214Y65607D01*
X1644947Y66329D01*
X1645814Y67774D01*
G54D11*
X1630502Y65607D02*
X1630502Y77162D01*
X1635702Y69940D01*
X1635702Y68496D01*
X1628769Y68496D01*
G54D11*
X1652458Y45984D02*
X1649858Y44540D01*
X1648991Y43096D01*
X1648991Y40207D01*
G54D11*
X1655924Y40207D02*
X1655924Y51762D01*
X1651591Y51762D01*
X1649858Y51040D01*
X1648991Y49596D01*
X1648991Y48151D01*
X1649858Y46707D01*
X1651591Y45984D01*
X1655924Y45984D01*
G54D11*
X1645814Y49596D02*
X1644947Y51040D01*
X1643214Y51762D01*
X1641480Y51762D01*
X1639747Y51040D01*
X1638880Y49596D01*
X1638880Y48151D01*
X1639747Y46707D01*
X1641480Y45984D01*
X1639747Y45262D01*
X1638880Y43818D01*
X1638880Y42374D01*
X1639747Y40929D01*
X1641480Y40207D01*
X1643214Y40207D01*
X1644947Y40929D01*
X1645814Y42374D01*
G54D11*
X1628769Y40207D02*
X1635702Y40207D01*
X1635702Y40929D01*
X1634836Y42374D01*
X1629636Y46707D01*
X1628769Y48151D01*
X1628769Y49596D01*
X1629636Y51040D01*
X1631369Y51762D01*
X1633102Y51762D01*
X1634836Y51040D01*
X1635702Y49596D01*
G54D11*
X1652458Y20584D02*
X1649858Y19140D01*
X1648991Y17695D01*
X1648991Y14806D01*
G54D11*
X1655924Y14806D02*
X1655924Y26362D01*
X1651591Y26362D01*
X1649858Y25640D01*
X1648991Y24195D01*
X1648991Y22751D01*
X1649858Y21306D01*
X1651591Y20584D01*
X1655924Y20584D01*
G54D11*
X1645814Y24195D02*
X1644947Y25640D01*
X1643214Y26362D01*
X1641480Y26362D01*
X1639747Y25640D01*
X1638880Y24195D01*
X1638880Y22751D01*
X1639747Y21306D01*
X1641480Y20584D01*
X1639747Y19862D01*
X1638880Y18418D01*
X1638880Y16973D01*
X1639747Y15529D01*
X1641480Y14806D01*
X1643214Y14806D01*
X1644947Y15529D01*
X1645814Y16973D01*
G54D11*
X1628769Y24195D02*
X1628769Y16973D01*
X1629636Y15529D01*
X1631369Y14806D01*
X1633102Y14806D01*
X1634836Y15529D01*
X1635702Y16973D01*
X1635702Y24195D01*
X1634836Y25640D01*
X1633102Y26362D01*
X1631369Y26362D01*
X1629636Y25640D01*
X1628769Y24195D01*
G54D11*
X1760365Y-9478D02*
X1757765Y-10923D01*
X1756898Y-12367D01*
X1756898Y-15256D01*
G54D11*
X1763832Y-15256D02*
X1763832Y-3700D01*
X1759498Y-3700D01*
X1757765Y-4423D01*
X1756898Y-5867D01*
X1756898Y-7312D01*
X1757765Y-8756D01*
X1759498Y-9478D01*
X1763832Y-9478D01*
G54D11*
X1746787Y-15256D02*
X1753720Y-15256D01*
X1753720Y-14534D01*
X1752854Y-13089D01*
X1747654Y-8756D01*
X1746787Y-7312D01*
X1746787Y-5867D01*
X1747654Y-4423D01*
X1749387Y-3700D01*
X1751120Y-3700D01*
X1752854Y-4423D01*
X1753720Y-5867D01*
G54D11*
X1743610Y-13089D02*
X1742743Y-14534D01*
X1741010Y-15256D01*
X1739276Y-15256D01*
X1737543Y-14534D01*
X1736676Y-13089D01*
X1736676Y-9478D01*
X1736676Y-8756D01*
X1739276Y-10200D01*
X1741010Y-10200D01*
X1742743Y-9478D01*
X1743610Y-8034D01*
X1743610Y-5867D01*
X1742743Y-4423D01*
X1741010Y-3700D01*
X1739276Y-3700D01*
X1737543Y-4423D01*
X1736676Y-5867D01*
X1736676Y-9478D01*
G54D11*
X1831802Y66722D02*
X1829202Y65278D01*
X1828336Y63833D01*
X1828336Y60944D01*
G54D11*
X1835269Y60944D02*
X1835269Y72500D01*
X1830936Y72500D01*
X1829202Y71778D01*
X1828336Y70333D01*
X1828336Y68889D01*
X1829202Y67444D01*
X1830936Y66722D01*
X1835269Y66722D01*
G54D11*
X1825158Y70333D02*
X1824291Y71778D01*
X1822558Y72500D01*
X1820825Y72500D01*
X1819091Y71778D01*
X1818225Y70333D01*
X1818225Y68889D01*
X1819091Y67444D01*
X1820825Y66722D01*
X1819091Y66000D01*
X1818225Y64555D01*
X1818225Y63111D01*
X1819091Y61666D01*
X1820825Y60944D01*
X1822558Y60944D01*
X1824291Y61666D01*
X1825158Y63111D01*
G54D11*
X1815047Y68166D02*
X1810714Y72500D01*
X1810714Y60944D01*
G54D11*
X1831802Y92122D02*
X1829202Y90678D01*
X1828336Y89233D01*
X1828336Y86344D01*
G54D11*
X1835269Y86344D02*
X1835269Y97900D01*
X1830936Y97900D01*
X1829202Y97178D01*
X1828336Y95733D01*
X1828336Y94289D01*
X1829202Y92844D01*
X1830936Y92122D01*
X1835269Y92122D01*
G54D11*
X1825158Y95733D02*
X1824291Y97178D01*
X1822558Y97900D01*
X1820825Y97900D01*
X1819091Y97178D01*
X1818225Y95733D01*
X1818225Y94289D01*
X1819091Y92844D01*
X1820825Y92122D01*
X1819091Y91400D01*
X1818225Y89955D01*
X1818225Y88511D01*
X1819091Y87066D01*
X1820825Y86344D01*
X1822558Y86344D01*
X1824291Y87066D01*
X1825158Y88511D01*
G54D11*
X1815047Y95733D02*
X1814180Y97178D01*
X1812447Y97900D01*
X1810714Y97900D01*
X1808980Y97178D01*
X1808114Y95733D01*
X1808114Y94289D01*
X1808980Y92844D01*
X1810714Y92122D01*
X1808980Y91400D01*
X1808114Y89955D01*
X1808114Y88511D01*
X1808980Y87066D01*
X1810714Y86344D01*
X1812447Y86344D01*
X1814180Y87066D01*
X1815047Y88511D01*
G54D11*
X1831802Y117522D02*
X1829202Y116077D01*
X1828336Y114633D01*
X1828336Y111744D01*
G54D11*
X1835269Y111744D02*
X1835269Y123300D01*
X1830936Y123300D01*
X1829202Y122577D01*
X1828336Y121133D01*
X1828336Y119688D01*
X1829202Y118244D01*
X1830936Y117522D01*
X1835269Y117522D01*
G54D11*
X1825158Y121133D02*
X1824291Y122577D01*
X1822558Y123300D01*
X1820825Y123300D01*
X1819091Y122577D01*
X1818225Y121133D01*
X1818225Y119688D01*
X1819091Y118244D01*
X1820825Y117522D01*
X1819091Y116800D01*
X1818225Y115355D01*
X1818225Y113911D01*
X1819091Y112466D01*
X1820825Y111744D01*
X1822558Y111744D01*
X1824291Y112466D01*
X1825158Y113911D01*
G54D11*
X1808114Y123300D02*
X1815047Y123300D01*
X1815047Y118244D01*
X1814180Y118244D01*
X1812447Y118966D01*
X1810714Y118966D01*
X1808980Y118244D01*
X1808114Y116800D01*
X1808114Y113911D01*
X1808980Y112466D01*
X1810714Y111744D01*
X1812447Y111744D01*
X1814180Y112466D01*
X1815047Y113911D01*
G54D11*
X1863260Y163917D02*
X1864127Y162473D01*
X1865860Y161750D01*
X1867593Y161750D01*
X1869327Y162473D01*
X1870193Y163917D01*
X1870193Y171139D01*
X1869327Y172584D01*
X1867593Y173306D01*
X1865860Y173306D01*
X1864127Y172584D01*
X1863260Y171139D01*
G54D11*
X1860082Y168973D02*
X1855749Y173306D01*
X1855749Y161750D01*
G54D11*
X1847371Y161750D02*
X1847371Y173306D01*
X1852571Y166084D01*
X1852571Y164639D01*
X1845638Y164639D01*
G54D11*
X1942884Y147784D02*
X1940284Y146340D01*
X1939417Y144896D01*
X1939417Y142007D01*
G54D11*
X1946350Y142007D02*
X1946350Y153562D01*
X1942017Y153562D01*
X1940284Y152840D01*
X1939417Y151396D01*
X1939417Y149951D01*
X1940284Y148507D01*
X1942017Y147784D01*
X1946350Y147784D01*
G54D11*
X1936239Y149229D02*
X1931906Y153562D01*
X1931906Y142007D01*
G54D11*
X1924395Y147784D02*
X1926128Y147784D01*
X1927862Y148507D01*
X1928728Y149951D01*
X1928728Y151396D01*
X1927862Y152840D01*
X1926128Y153562D01*
X1924395Y153562D01*
X1922662Y152840D01*
X1921795Y151396D01*
X1921795Y149951D01*
X1922662Y148507D01*
X1924395Y147784D01*
X1922662Y147062D01*
X1921795Y145618D01*
X1921795Y144174D01*
X1922662Y142729D01*
X1924395Y142007D01*
X1926128Y142007D01*
X1927862Y142729D01*
X1928728Y144174D01*
X1928728Y145618D01*
X1927862Y147062D01*
X1926128Y147784D01*
G54D11*
X1878341Y52792D02*
X1879208Y51348D01*
X1880941Y50626D01*
X1882674Y50626D01*
X1884408Y51348D01*
X1885274Y52792D01*
X1885274Y60014D01*
X1884408Y61459D01*
X1882674Y62181D01*
X1880941Y62181D01*
X1879208Y61459D01*
X1878341Y60014D01*
G54D11*
X1875164Y57848D02*
X1870830Y62181D01*
X1870830Y50626D01*
G54D11*
X1867652Y60014D02*
X1866786Y61459D01*
X1865052Y62181D01*
X1863319Y62181D01*
X1861586Y61459D01*
X1860719Y60014D01*
X1860719Y58570D01*
X1861586Y57126D01*
X1863319Y56403D01*
X1861586Y55681D01*
X1860719Y54237D01*
X1860719Y52792D01*
X1861586Y51348D01*
X1863319Y50626D01*
X1865052Y50626D01*
X1866786Y51348D01*
X1867652Y52792D01*
G54D11*
X2011189Y-178548D02*
X2008589Y-179992D01*
X2007723Y-181436D01*
X2007723Y-184325D01*
G54D11*
X2014656Y-184325D02*
X2014656Y-172770D01*
X2010323Y-172770D01*
X2008589Y-173492D01*
X2007723Y-174936D01*
X2007723Y-176381D01*
X2008589Y-177825D01*
X2010323Y-178548D01*
X2014656Y-178548D01*
G54D11*
X2004545Y-177103D02*
X2000212Y-172770D01*
X2000212Y-184325D01*
G54D11*
X1977058Y-54722D02*
X1974458Y-56166D01*
X1973591Y-57611D01*
X1973591Y-60500D01*
G54D11*
X1980525Y-60500D02*
X1980525Y-48944D01*
X1976191Y-48944D01*
X1974458Y-49666D01*
X1973591Y-51111D01*
X1973591Y-52555D01*
X1974458Y-54000D01*
X1976191Y-54722D01*
X1980525Y-54722D01*
G54D11*
X1970414Y-51111D02*
X1969547Y-49666D01*
X1967814Y-48944D01*
X1966080Y-48944D01*
X1964347Y-49666D01*
X1963480Y-51111D01*
X1963480Y-52555D01*
X1964347Y-54000D01*
X1966080Y-54722D01*
X1964347Y-55444D01*
X1963480Y-56888D01*
X1963480Y-58333D01*
X1964347Y-59777D01*
X1966080Y-60500D01*
X1967814Y-60500D01*
X1969547Y-59777D01*
X1970414Y-58333D01*
G54D11*
X1863260Y-63889D02*
X1864127Y-65334D01*
X1865860Y-66056D01*
X1867593Y-66056D01*
X1869327Y-65334D01*
X1870193Y-63889D01*
X1870193Y-56667D01*
X1869327Y-55222D01*
X1867593Y-54500D01*
X1865860Y-54500D01*
X1864127Y-55222D01*
X1863260Y-56667D01*
G54D11*
X1860082Y-58834D02*
X1855749Y-54500D01*
X1855749Y-66056D01*
G54D11*
X1845638Y-66056D02*
X1852571Y-66056D01*
X1852571Y-65334D01*
X1851705Y-63889D01*
X1846505Y-59556D01*
X1845638Y-58111D01*
X1845638Y-56667D01*
X1846505Y-55222D01*
X1848238Y-54500D01*
X1849971Y-54500D01*
X1851705Y-55222D01*
X1852571Y-56667D01*
G54D11*
X1977058Y-91234D02*
X1974458Y-92679D01*
X1973591Y-94123D01*
X1973591Y-97012D01*
G54D11*
X1980525Y-97012D02*
X1980525Y-85457D01*
X1976191Y-85457D01*
X1974458Y-86179D01*
X1973591Y-87623D01*
X1973591Y-89068D01*
X1974458Y-90512D01*
X1976191Y-91234D01*
X1980525Y-91234D01*
G54D11*
X1963480Y-97012D02*
X1970414Y-97012D01*
X1970414Y-96290D01*
X1969547Y-94846D01*
X1964347Y-90512D01*
X1963480Y-89068D01*
X1963480Y-87623D01*
X1964347Y-86179D01*
X1966080Y-85457D01*
X1967814Y-85457D01*
X1969547Y-86179D01*
X1970414Y-87623D01*
G54D11*
X2098211Y-134534D02*
X2099077Y-135978D01*
X2100811Y-136700D01*
X2102544Y-136700D01*
X2104277Y-135978D01*
X2105144Y-134534D01*
X2105144Y-127312D01*
X2104277Y-125867D01*
X2102544Y-125145D01*
X2100811Y-125145D01*
X2099077Y-125867D01*
X2098211Y-127312D01*
G54D11*
X2095033Y-129478D02*
X2090700Y-125145D01*
X2090700Y-136700D01*
G54D11*
X2087522Y-129478D02*
X2083189Y-125145D01*
X2083189Y-136700D01*
G54D11*
X2146524Y-39641D02*
X2143924Y-41086D01*
X2143058Y-42530D01*
X2143058Y-45419D01*
G54D11*
X2149991Y-45419D02*
X2149991Y-33863D01*
X2145658Y-33863D01*
X2143924Y-34586D01*
X2143058Y-36030D01*
X2143058Y-37474D01*
X2143924Y-38919D01*
X2145658Y-39641D01*
X2149991Y-39641D01*
G54D11*
X2134680Y-45419D02*
X2134680Y-33863D01*
X2139880Y-41086D01*
X2139880Y-42530D01*
X2132947Y-42530D01*
G54D11*
X2020715Y-14241D02*
X2018115Y-15686D01*
X2017248Y-17130D01*
X2017248Y-20019D01*
G54D11*
X2024182Y-20019D02*
X2024182Y-8463D01*
X2019848Y-8463D01*
X2018115Y-9186D01*
X2017248Y-10630D01*
X2017248Y-12074D01*
X2018115Y-13519D01*
X2019848Y-14241D01*
X2024182Y-14241D01*
G54D11*
X2007137Y-8463D02*
X2014071Y-8463D01*
X2014071Y-13519D01*
X2013204Y-13519D01*
X2011471Y-12796D01*
X2009737Y-12796D01*
X2008004Y-13519D01*
X2007137Y-14963D01*
X2007137Y-17852D01*
X2008004Y-19296D01*
X2009737Y-20019D01*
X2011471Y-20019D01*
X2013204Y-19296D01*
X2014071Y-17852D01*
G54D11*
X1123486Y-114689D02*
X1124352Y-116134D01*
X1126086Y-116856D01*
X1127819Y-116856D01*
X1129552Y-116134D01*
X1130419Y-114689D01*
X1130419Y-107467D01*
X1129552Y-106023D01*
X1127819Y-105300D01*
X1126086Y-105300D01*
X1124352Y-106023D01*
X1123486Y-107467D01*
G54D11*
X1115108Y-116856D02*
X1115108Y-105300D01*
X1120308Y-112523D01*
X1120308Y-113967D01*
X1113375Y-113967D01*
G54D11*
X1103264Y-116856D02*
X1110197Y-116856D01*
X1110197Y-116134D01*
X1109330Y-114689D01*
X1104130Y-110356D01*
X1103264Y-108912D01*
X1103264Y-107467D01*
X1104130Y-106023D01*
X1105864Y-105300D01*
X1107597Y-105300D01*
X1109330Y-106023D01*
X1110197Y-107467D01*
G54D11*
X1621458Y542971D02*
X1618858Y541527D01*
X1617991Y540082D01*
X1617991Y537193D01*
G54D11*
X1624925Y537193D02*
X1624925Y548749D01*
X1620591Y548749D01*
X1618858Y548027D01*
X1617991Y546582D01*
X1617991Y545138D01*
X1618858Y543693D01*
X1620591Y542971D01*
X1624925Y542971D01*
G54D11*
X1607880Y548749D02*
X1614814Y548749D01*
X1614814Y543693D01*
X1613947Y543693D01*
X1612214Y544416D01*
X1610480Y544416D01*
X1608747Y543693D01*
X1607880Y542249D01*
X1607880Y539360D01*
X1608747Y537916D01*
X1610480Y537193D01*
X1612214Y537193D01*
X1613947Y537916D01*
X1614814Y539360D01*
G54D11*
X1604703Y539360D02*
X1603836Y537916D01*
X1602103Y537193D01*
X1600369Y537193D01*
X1598636Y537916D01*
X1597769Y539360D01*
X1597769Y542971D01*
X1597769Y543693D01*
X1600369Y542249D01*
X1602103Y542249D01*
X1603836Y542971D01*
X1604703Y544416D01*
X1604703Y546582D01*
X1603836Y548027D01*
X1602103Y548749D01*
X1600369Y548749D01*
X1598636Y548027D01*
X1597769Y546582D01*
X1597769Y542971D01*
G54D11*
X1506117Y494016D02*
X1506984Y492572D01*
X1508717Y491850D01*
X1510450Y491850D01*
X1512184Y492572D01*
X1513050Y494016D01*
X1513050Y501238D01*
X1512184Y502683D01*
X1510450Y503405D01*
X1508717Y503405D01*
X1506984Y502683D01*
X1506117Y501238D01*
G54D11*
X1502939Y501238D02*
X1502073Y502683D01*
X1500339Y503405D01*
X1498606Y503405D01*
X1496873Y502683D01*
X1496006Y501238D01*
X1496006Y499794D01*
X1496873Y498350D01*
X1498606Y497627D01*
X1496873Y496905D01*
X1496006Y495461D01*
X1496006Y494016D01*
X1496873Y492572D01*
X1498606Y491850D01*
X1500339Y491850D01*
X1502073Y492572D01*
X1502939Y494016D01*
G54D11*
X1492828Y499072D02*
X1488495Y503405D01*
X1488495Y491850D01*
G54D11*
X1943677Y249384D02*
X1941077Y247940D01*
X1940211Y246495D01*
X1940211Y243606D01*
G54D11*
X1947144Y243606D02*
X1947144Y255162D01*
X1942811Y255162D01*
X1941077Y254440D01*
X1940211Y252995D01*
X1940211Y251551D01*
X1941077Y250106D01*
X1942811Y249384D01*
X1947144Y249384D01*
G54D11*
X1937033Y250829D02*
X1932700Y255162D01*
X1932700Y243606D01*
G54D11*
X1929522Y245773D02*
X1928655Y244329D01*
X1926922Y243606D01*
X1925189Y243606D01*
X1923455Y244329D01*
X1922589Y245773D01*
X1922589Y249384D01*
X1922589Y250106D01*
X1925189Y248662D01*
X1926922Y248662D01*
X1928655Y249384D01*
X1929522Y250829D01*
X1929522Y252995D01*
X1928655Y254440D01*
X1926922Y255162D01*
X1925189Y255162D01*
X1923455Y254440D01*
X1922589Y252995D01*
X1922589Y249384D01*
G54D11*
X1857704Y280598D02*
X1858570Y279154D01*
X1860304Y278432D01*
X1862037Y278432D01*
X1863770Y279154D01*
X1864637Y280598D01*
X1864637Y287820D01*
X1863770Y289265D01*
X1862037Y289987D01*
X1860304Y289987D01*
X1858570Y289265D01*
X1857704Y287820D01*
G54D11*
X1854526Y285654D02*
X1850193Y289987D01*
X1850193Y278432D01*
G54D11*
X1840082Y289987D02*
X1847015Y289987D01*
X1847015Y284932D01*
X1846148Y284932D01*
X1844415Y285654D01*
X1842682Y285654D01*
X1840948Y284932D01*
X1840082Y283487D01*
X1840082Y280598D01*
X1840948Y279154D01*
X1842682Y278432D01*
X1844415Y278432D01*
X1846148Y279154D01*
X1847015Y280598D01*
G54D11*
X2000034Y294628D02*
X1997434Y293183D01*
X1996567Y291739D01*
X1996567Y288850D01*
G54D11*
X2003500Y288850D02*
X2003500Y300406D01*
X1999167Y300406D01*
X1997434Y299683D01*
X1996567Y298239D01*
X1996567Y296794D01*
X1997434Y295350D01*
X1999167Y294628D01*
X2003500Y294628D01*
G54D11*
X1986456Y288850D02*
X1993389Y288850D01*
X1993389Y289572D01*
X1992523Y291017D01*
X1987323Y295350D01*
X1986456Y296794D01*
X1986456Y298239D01*
X1987323Y299683D01*
X1989056Y300406D01*
X1990789Y300406D01*
X1992523Y299683D01*
X1993389Y298239D01*
G54D11*
X1976345Y298239D02*
X1976345Y291017D01*
X1977212Y289572D01*
X1978945Y288850D01*
X1980678Y288850D01*
X1982412Y289572D01*
X1983278Y291017D01*
X1983278Y298239D01*
X1982412Y299683D01*
X1980678Y300406D01*
X1978945Y300406D01*
X1977212Y299683D01*
X1976345Y298239D01*
G54D11*
X1942884Y360509D02*
X1940284Y359065D01*
X1939417Y357620D01*
X1939417Y354731D01*
G54D11*
X1946350Y354731D02*
X1946350Y366287D01*
X1942017Y366287D01*
X1940284Y365565D01*
X1939417Y364120D01*
X1939417Y362676D01*
X1940284Y361231D01*
X1942017Y360509D01*
X1946350Y360509D01*
G54D11*
X1929306Y354731D02*
X1936239Y354731D01*
X1936239Y355454D01*
X1935373Y356898D01*
X1930173Y361231D01*
X1929306Y362676D01*
X1929306Y364120D01*
X1930173Y365565D01*
X1931906Y366287D01*
X1933639Y366287D01*
X1935373Y365565D01*
X1936239Y364120D01*
G54D11*
X1926128Y361954D02*
X1921795Y366287D01*
X1921795Y354731D01*
G54D11*
X1861673Y392517D02*
X1862539Y391073D01*
X1864273Y390350D01*
X1866006Y390350D01*
X1867739Y391073D01*
X1868606Y392517D01*
X1868606Y399739D01*
X1867739Y401184D01*
X1866006Y401906D01*
X1864273Y401906D01*
X1862539Y401184D01*
X1861673Y399739D01*
G54D11*
X1858495Y397573D02*
X1854162Y401906D01*
X1854162Y390350D01*
G54D11*
X1844051Y399739D02*
X1844917Y401184D01*
X1846651Y401906D01*
X1848384Y401906D01*
X1850117Y401184D01*
X1850984Y399739D01*
X1850984Y396128D01*
X1850984Y395406D01*
X1848384Y396850D01*
X1846651Y396850D01*
X1844917Y396128D01*
X1844051Y394684D01*
X1844051Y392517D01*
X1844917Y391073D01*
X1846651Y390350D01*
X1848384Y390350D01*
X1850117Y391073D01*
X1850984Y392517D01*
X1850984Y396128D01*
G54D11*
X1787352Y269128D02*
X1784752Y267683D01*
X1783885Y266239D01*
X1783885Y263350D01*
G54D11*
X1790818Y263350D02*
X1790818Y274906D01*
X1786485Y274906D01*
X1784752Y274183D01*
X1783885Y272739D01*
X1783885Y271294D01*
X1784752Y269850D01*
X1786485Y269128D01*
X1790818Y269128D01*
G54D11*
X1780708Y272739D02*
X1779841Y274183D01*
X1778108Y274906D01*
X1776374Y274906D01*
X1774641Y274183D01*
X1773774Y272739D01*
X1773774Y271294D01*
X1774641Y269850D01*
X1776374Y269128D01*
X1774641Y268406D01*
X1773774Y266961D01*
X1773774Y265517D01*
X1774641Y264072D01*
X1776374Y263350D01*
X1778108Y263350D01*
X1779841Y264072D01*
X1780708Y265517D01*
G54D11*
X1770596Y265517D02*
X1769730Y264072D01*
X1767996Y263350D01*
X1766263Y263350D01*
X1764530Y264072D01*
X1763663Y265517D01*
X1763663Y269128D01*
X1763663Y269850D01*
X1766263Y268406D01*
X1767996Y268406D01*
X1769730Y269128D01*
X1770596Y270572D01*
X1770596Y272739D01*
X1769730Y274183D01*
X1767996Y274906D01*
X1766263Y274906D01*
X1764530Y274183D01*
X1763663Y272739D01*
X1763663Y269128D01*
G54D11*
X1787352Y360409D02*
X1784752Y358965D01*
X1783885Y357520D01*
X1783885Y354631D01*
G54D11*
X1790818Y354631D02*
X1790818Y366187D01*
X1786485Y366187D01*
X1784752Y365465D01*
X1783885Y364020D01*
X1783885Y362576D01*
X1784752Y361131D01*
X1786485Y360409D01*
X1790818Y360409D01*
G54D11*
X1775508Y354631D02*
X1775508Y366187D01*
X1780708Y358965D01*
X1780708Y357520D01*
X1773774Y357520D01*
G54D11*
X1770596Y361854D02*
X1766263Y366187D01*
X1766263Y354631D01*
G54D11*
X1706433Y360309D02*
X1703833Y358865D01*
X1702966Y357420D01*
X1702966Y354531D01*
G54D11*
X1709900Y354531D02*
X1709900Y366087D01*
X1705566Y366087D01*
X1703833Y365365D01*
X1702966Y363920D01*
X1702966Y362476D01*
X1703833Y361031D01*
X1705566Y360309D01*
X1709900Y360309D01*
G54D11*
X1694588Y354531D02*
X1694588Y366087D01*
X1699788Y358865D01*
X1699788Y357420D01*
X1692855Y357420D01*
G54D11*
X1682744Y354531D02*
X1689678Y354531D01*
X1689678Y355254D01*
X1688811Y356698D01*
X1683611Y361031D01*
X1682744Y362476D01*
X1682744Y363920D01*
X1683611Y365365D01*
X1685344Y366087D01*
X1687078Y366087D01*
X1688811Y365365D01*
X1689678Y363920D01*
G54D11*
X1706433Y269028D02*
X1703833Y267583D01*
X1702966Y266139D01*
X1702966Y263250D01*
G54D11*
X1709900Y263250D02*
X1709900Y274806D01*
X1705566Y274806D01*
X1703833Y274083D01*
X1702966Y272639D01*
X1702966Y271194D01*
X1703833Y269750D01*
X1705566Y269028D01*
X1709900Y269028D01*
G54D11*
X1694588Y263250D02*
X1694588Y274806D01*
X1699788Y267583D01*
X1699788Y266139D01*
X1692855Y266139D01*
G54D11*
X1682744Y272639D02*
X1682744Y265417D01*
X1683611Y263972D01*
X1685344Y263250D01*
X1687078Y263250D01*
X1688811Y263972D01*
X1689678Y265417D01*
X1689678Y272639D01*
X1688811Y274083D01*
X1687078Y274806D01*
X1685344Y274806D01*
X1683611Y274083D01*
X1682744Y272639D01*
G54D11*
X1634952Y313578D02*
X1632352Y312133D01*
X1631485Y310689D01*
X1631485Y307800D01*
G54D11*
X1638418Y307800D02*
X1638418Y319356D01*
X1634085Y319356D01*
X1632352Y318633D01*
X1631485Y317189D01*
X1631485Y315744D01*
X1632352Y314300D01*
X1634085Y313578D01*
X1638418Y313578D01*
G54D11*
X1623107Y307800D02*
X1623107Y319356D01*
X1628307Y312133D01*
X1628307Y310689D01*
X1621374Y310689D01*
G54D11*
X1618196Y317189D02*
X1617330Y318633D01*
X1615596Y319356D01*
X1613863Y319356D01*
X1612130Y318633D01*
X1611263Y317189D01*
X1611263Y315744D01*
X1612130Y314300D01*
X1613863Y313578D01*
X1612130Y312856D01*
X1611263Y311411D01*
X1611263Y309967D01*
X1612130Y308522D01*
X1613863Y307800D01*
X1615596Y307800D01*
X1617330Y308522D01*
X1618196Y309967D01*
G54D11*
X1515140Y346022D02*
X1512540Y344577D01*
X1511673Y343133D01*
X1511673Y340244D01*
G54D11*
X1518606Y340244D02*
X1518606Y351799D01*
X1514273Y351799D01*
X1512540Y351077D01*
X1511673Y349633D01*
X1511673Y348188D01*
X1512540Y346744D01*
X1514273Y346022D01*
X1518606Y346022D01*
G54D11*
X1501562Y351799D02*
X1508496Y351799D01*
X1508496Y346744D01*
X1507629Y346744D01*
X1505896Y347466D01*
X1504162Y347466D01*
X1502429Y346744D01*
X1501562Y345299D01*
X1501562Y342410D01*
X1502429Y340966D01*
X1504162Y340244D01*
X1505896Y340244D01*
X1507629Y340966D01*
X1508496Y342410D01*
G54D11*
X1491451Y349633D02*
X1492318Y351077D01*
X1494051Y351799D01*
X1495784Y351799D01*
X1497518Y351077D01*
X1498384Y349633D01*
X1498384Y346022D01*
X1498384Y345299D01*
X1495784Y346744D01*
X1494051Y346744D01*
X1492318Y346022D01*
X1491451Y344577D01*
X1491451Y342410D01*
X1492318Y340966D01*
X1494051Y340244D01*
X1495784Y340244D01*
X1497518Y340966D01*
X1498384Y342410D01*
X1498384Y346022D01*
G54D11*
X1631027Y391265D02*
X1628427Y389821D01*
X1627561Y388376D01*
X1627561Y385488D01*
G54D11*
X1634494Y385488D02*
X1634494Y397043D01*
X1630161Y397043D01*
X1628427Y396321D01*
X1627561Y394876D01*
X1627561Y393432D01*
X1628427Y391988D01*
X1630161Y391265D01*
X1634494Y391265D01*
G54D11*
X1617450Y397043D02*
X1624383Y397043D01*
X1624383Y391988D01*
X1623516Y391988D01*
X1621783Y392710D01*
X1620050Y392710D01*
X1618316Y391988D01*
X1617450Y390543D01*
X1617450Y387654D01*
X1618316Y386210D01*
X1620050Y385488D01*
X1621783Y385488D01*
X1623516Y386210D01*
X1624383Y387654D01*
G54D11*
X1614272Y397043D02*
X1607339Y397043D01*
X1608205Y395599D01*
X1609939Y393432D01*
X1611672Y390543D01*
X1612539Y388376D01*
X1612539Y385488D01*
G54D11*
X1631027Y431746D02*
X1628427Y430302D01*
X1627561Y428857D01*
X1627561Y425968D01*
G54D11*
X1634494Y425968D02*
X1634494Y437524D01*
X1630161Y437524D01*
X1628427Y436802D01*
X1627561Y435357D01*
X1627561Y433913D01*
X1628427Y432468D01*
X1630161Y431746D01*
X1634494Y431746D01*
G54D11*
X1617450Y437524D02*
X1624383Y437524D01*
X1624383Y432468D01*
X1623516Y432468D01*
X1621783Y433191D01*
X1620050Y433191D01*
X1618316Y432468D01*
X1617450Y431024D01*
X1617450Y428135D01*
X1618316Y426691D01*
X1620050Y425968D01*
X1621783Y425968D01*
X1623516Y426691D01*
X1624383Y428135D01*
G54D11*
X1609939Y431746D02*
X1611672Y431746D01*
X1613405Y432468D01*
X1614272Y433913D01*
X1614272Y435357D01*
X1613405Y436802D01*
X1611672Y437524D01*
X1609939Y437524D01*
X1608205Y436802D01*
X1607339Y435357D01*
X1607339Y433913D01*
X1608205Y432468D01*
X1609939Y431746D01*
X1608205Y431024D01*
X1607339Y429580D01*
X1607339Y428135D01*
X1608205Y426691D01*
X1609939Y425968D01*
X1611672Y425968D01*
X1613405Y426691D01*
X1614272Y428135D01*
X1614272Y429580D01*
X1613405Y431024D01*
X1611672Y431746D01*
G54D11*
X1755354Y595617D02*
X1756221Y594172D01*
X1757954Y593450D01*
X1759688Y593450D01*
X1761421Y594172D01*
X1762288Y595617D01*
X1762288Y602839D01*
X1761421Y604283D01*
X1759688Y605006D01*
X1757954Y605006D01*
X1756221Y604283D01*
X1755354Y602839D01*
G54D11*
X1745243Y593450D02*
X1752177Y593450D01*
X1752177Y594172D01*
X1751310Y595617D01*
X1746110Y599950D01*
X1745243Y601394D01*
X1745243Y602839D01*
X1746110Y604283D01*
X1747843Y605006D01*
X1749577Y605006D01*
X1751310Y604283D01*
X1752177Y602839D01*
G54D11*
X1736866Y593450D02*
X1736866Y605006D01*
X1742066Y597783D01*
X1742066Y596339D01*
X1735132Y596339D01*
G54D11*
X1755354Y683723D02*
X1756221Y682278D01*
X1757954Y681556D01*
X1759688Y681556D01*
X1761421Y682278D01*
X1762288Y683723D01*
X1762288Y690945D01*
X1761421Y692390D01*
X1759688Y693112D01*
X1757954Y693112D01*
X1756221Y692390D01*
X1755354Y690945D01*
G54D11*
X1745243Y681556D02*
X1752177Y681556D01*
X1752177Y682278D01*
X1751310Y683723D01*
X1746110Y688056D01*
X1745243Y689501D01*
X1745243Y690945D01*
X1746110Y692390D01*
X1747843Y693112D01*
X1749577Y693112D01*
X1751310Y692390D01*
X1752177Y690945D01*
G54D11*
X1735132Y693112D02*
X1742066Y693112D01*
X1742066Y688056D01*
X1741199Y688056D01*
X1739466Y688778D01*
X1737732Y688778D01*
X1735999Y688056D01*
X1735132Y686612D01*
X1735132Y683723D01*
X1735999Y682278D01*
X1737732Y681556D01*
X1739466Y681556D01*
X1741199Y682278D01*
X1742066Y683723D01*
G54D11*
X1856954Y686898D02*
X1857820Y685454D01*
X1859554Y684731D01*
X1861287Y684731D01*
X1863020Y685454D01*
X1863887Y686898D01*
X1863887Y694120D01*
X1863020Y695565D01*
X1861287Y696287D01*
X1859554Y696287D01*
X1857820Y695565D01*
X1856954Y694120D01*
G54D11*
X1853776Y691954D02*
X1849443Y696287D01*
X1849443Y684731D01*
G54D11*
X1846265Y686898D02*
X1845398Y685454D01*
X1843665Y684731D01*
X1841932Y684731D01*
X1840198Y685454D01*
X1839332Y686898D01*
X1839332Y690509D01*
X1839332Y691231D01*
X1841932Y689787D01*
X1843665Y689787D01*
X1845398Y690509D01*
X1846265Y691954D01*
X1846265Y694120D01*
X1845398Y695565D01*
X1843665Y696287D01*
X1841932Y696287D01*
X1840198Y695565D01*
X1839332Y694120D01*
X1839332Y690509D01*
G54D11*
X1856955Y620223D02*
X1857821Y618779D01*
X1859555Y618056D01*
X1861288Y618056D01*
X1863021Y618779D01*
X1863888Y620223D01*
X1863888Y627445D01*
X1863021Y628890D01*
X1861288Y629612D01*
X1859555Y629612D01*
X1857821Y628890D01*
X1856955Y627445D01*
G54D11*
X1853777Y625279D02*
X1849444Y629612D01*
X1849444Y618056D01*
G54D11*
X1841933Y623834D02*
X1843666Y623834D01*
X1845399Y624556D01*
X1846266Y626001D01*
X1846266Y627445D01*
X1845399Y628890D01*
X1843666Y629612D01*
X1841933Y629612D01*
X1840199Y628890D01*
X1839333Y627445D01*
X1839333Y626001D01*
X1840199Y624556D01*
X1841933Y623834D01*
X1840199Y623112D01*
X1839333Y621668D01*
X1839333Y620223D01*
X1840199Y618779D01*
X1841933Y618056D01*
X1843666Y618056D01*
X1845399Y618779D01*
X1846266Y620223D01*
X1846266Y621668D01*
X1845399Y623112D01*
X1843666Y623834D01*
G54D11*
X2062783Y551703D02*
X2060183Y550259D01*
X2059317Y548814D01*
X2059317Y545925D01*
G54D11*
X2066250Y545925D02*
X2066250Y557481D01*
X2061917Y557481D01*
X2060183Y556759D01*
X2059317Y555314D01*
X2059317Y553870D01*
X2060183Y552425D01*
X2061917Y551703D01*
X2066250Y551703D01*
G54D11*
X2049206Y555314D02*
X2050072Y556759D01*
X2051806Y557481D01*
X2053539Y557481D01*
X2055272Y556759D01*
X2056139Y555314D01*
X2056139Y551703D01*
X2056139Y550981D01*
X2053539Y552425D01*
X2051806Y552425D01*
X2050072Y551703D01*
X2049206Y550259D01*
X2049206Y548092D01*
X2050072Y546648D01*
X2051806Y545925D01*
X2053539Y545925D01*
X2055272Y546648D01*
X2056139Y548092D01*
X2056139Y551703D01*
G54D11*
X1976265Y614409D02*
X1973665Y612965D01*
X1972798Y611520D01*
X1972798Y608631D01*
G54D11*
X1979731Y608631D02*
X1979731Y620187D01*
X1975398Y620187D01*
X1973665Y619465D01*
X1972798Y618020D01*
X1972798Y616576D01*
X1973665Y615131D01*
X1975398Y614409D01*
X1979731Y614409D01*
G54D11*
X1969620Y620187D02*
X1962687Y620187D01*
X1963554Y618742D01*
X1965287Y616576D01*
X1967020Y613687D01*
X1967887Y611520D01*
X1967887Y608631D01*
G54D11*
X1976265Y650128D02*
X1973665Y648683D01*
X1972798Y647239D01*
X1972798Y644350D01*
G54D11*
X1979731Y644350D02*
X1979731Y655906D01*
X1975398Y655906D01*
X1973665Y655183D01*
X1972798Y653739D01*
X1972798Y652294D01*
X1973665Y650850D01*
X1975398Y650128D01*
X1979731Y650128D01*
G54D11*
X1965287Y650128D02*
X1967020Y650128D01*
X1968754Y650850D01*
X1969620Y652294D01*
X1969620Y653739D01*
X1968754Y655183D01*
X1967020Y655906D01*
X1965287Y655906D01*
X1963554Y655183D01*
X1962687Y653739D01*
X1962687Y652294D01*
X1963554Y650850D01*
X1965287Y650128D01*
X1963554Y649406D01*
X1962687Y647961D01*
X1962687Y646517D01*
X1963554Y645072D01*
X1965287Y644350D01*
X1967020Y644350D01*
X1968754Y645072D01*
X1969620Y646517D01*
X1969620Y647961D01*
X1968754Y649406D01*
X1967020Y650128D01*
G54D11*
X1976265Y690609D02*
X1973665Y689165D01*
X1972798Y687720D01*
X1972798Y684831D01*
G54D11*
X1979731Y684831D02*
X1979731Y696387D01*
X1975398Y696387D01*
X1973665Y695665D01*
X1972798Y694220D01*
X1972798Y692776D01*
X1973665Y691331D01*
X1975398Y690609D01*
X1979731Y690609D01*
G54D11*
X1969620Y686998D02*
X1968754Y685554D01*
X1967020Y684831D01*
X1965287Y684831D01*
X1963554Y685554D01*
X1962687Y686998D01*
X1962687Y690609D01*
X1962687Y691331D01*
X1965287Y689887D01*
X1967020Y689887D01*
X1968754Y690609D01*
X1969620Y692054D01*
X1969620Y694220D01*
X1968754Y695665D01*
X1967020Y696387D01*
X1965287Y696387D01*
X1963554Y695665D01*
X1962687Y694220D01*
X1962687Y690609D01*
G54D11*
X2119889Y751828D02*
X2117289Y750383D01*
X2116423Y748939D01*
X2116423Y746050D01*
G54D11*
X2123356Y746050D02*
X2123356Y757606D01*
X2119023Y757606D01*
X2117289Y756883D01*
X2116423Y755439D01*
X2116423Y753994D01*
X2117289Y752550D01*
X2119023Y751828D01*
X2123356Y751828D01*
G54D11*
X2113245Y753272D02*
X2108912Y757606D01*
X2108912Y746050D01*
G54D11*
X2098801Y755439D02*
X2098801Y748217D01*
X2099667Y746772D01*
X2101401Y746050D01*
X2103134Y746050D01*
X2104867Y746772D01*
X2105734Y748217D01*
X2105734Y755439D01*
X2104867Y756883D01*
X2103134Y757606D01*
X2101401Y757606D01*
X2099667Y756883D01*
X2098801Y755439D01*
G54D11*
X2119889Y843109D02*
X2117289Y841665D01*
X2116423Y840220D01*
X2116423Y837331D01*
G54D11*
X2123356Y837331D02*
X2123356Y848887D01*
X2119023Y848887D01*
X2117289Y848165D01*
X2116423Y846720D01*
X2116423Y845276D01*
X2117289Y843831D01*
X2119023Y843109D01*
X2123356Y843109D01*
G54D11*
X2113245Y844553D02*
X2108912Y848887D01*
X2108912Y837331D01*
G54D11*
X2098801Y837331D02*
X2105734Y837331D01*
X2105734Y838053D01*
X2104867Y839498D01*
X2099667Y843831D01*
X2098801Y845276D01*
X2098801Y846720D01*
X2099667Y848165D01*
X2101401Y848887D01*
X2103134Y848887D01*
X2104867Y848165D01*
X2105734Y846720D01*
G54D11*
X2044527Y843009D02*
X2041927Y841565D01*
X2041060Y840120D01*
X2041060Y837231D01*
G54D11*
X2047994Y837231D02*
X2047994Y848787D01*
X2043660Y848787D01*
X2041927Y848065D01*
X2041060Y846620D01*
X2041060Y845176D01*
X2041927Y843731D01*
X2043660Y843009D01*
X2047994Y843009D01*
G54D11*
X2037882Y844453D02*
X2033549Y848787D01*
X2033549Y837231D01*
G54D11*
X2030372Y846620D02*
X2029505Y848065D01*
X2027772Y848787D01*
X2026038Y848787D01*
X2024305Y848065D01*
X2023438Y846620D01*
X2023438Y845176D01*
X2024305Y843731D01*
X2026038Y843009D01*
X2024305Y842287D01*
X2023438Y840842D01*
X2023438Y839398D01*
X2024305Y837953D01*
X2026038Y837231D01*
X2027772Y837231D01*
X2029505Y837953D01*
X2030372Y839398D01*
G54D11*
X2044527Y751728D02*
X2041927Y750283D01*
X2041060Y748839D01*
X2041060Y745950D01*
G54D11*
X2047994Y745950D02*
X2047994Y757506D01*
X2043660Y757506D01*
X2041927Y756783D01*
X2041060Y755339D01*
X2041060Y753894D01*
X2041927Y752450D01*
X2043660Y751728D01*
X2047994Y751728D01*
G54D11*
X2037882Y753172D02*
X2033549Y757506D01*
X2033549Y745950D01*
G54D11*
X2030372Y753172D02*
X2026038Y757506D01*
X2026038Y745950D01*
G54D10*
X1690650Y737356D02*
X1739312Y737356D01*
X1739312Y716994D01*
X1690650Y716994D01*
X1690650Y737356D01*
G54D11*
X1785015Y730990D02*
X1782415Y729546D01*
X1781548Y728101D01*
X1781548Y725212D01*
G54D11*
X1788482Y725212D02*
X1788482Y736768D01*
X1784148Y736768D01*
X1782415Y736046D01*
X1781548Y734601D01*
X1781548Y733157D01*
X1782415Y731712D01*
X1784148Y730990D01*
X1788482Y730990D01*
G54D11*
X1773170Y725212D02*
X1773170Y736768D01*
X1778370Y729546D01*
X1778370Y728101D01*
X1771437Y728101D01*
G54D11*
X1763060Y725212D02*
X1763060Y736768D01*
X1768260Y729546D01*
X1768260Y728101D01*
X1761326Y728101D01*
G54D10*
X1690650Y776250D02*
X1739312Y776250D01*
X1739312Y755888D01*
X1690650Y755888D01*
X1690650Y776250D01*
G54D11*
X1739771Y806397D02*
X1737171Y804952D01*
X1736304Y803508D01*
X1736304Y800619D01*
G54D11*
X1743238Y800619D02*
X1743238Y812174D01*
X1738904Y812174D01*
X1737171Y811452D01*
X1736304Y810008D01*
X1736304Y808563D01*
X1737171Y807119D01*
X1738904Y806397D01*
X1743238Y806397D01*
G54D11*
X1727927Y800619D02*
X1727927Y812174D01*
X1733127Y804952D01*
X1733127Y803508D01*
X1726193Y803508D01*
G54D11*
X1716082Y810008D02*
X1716949Y811452D01*
X1718682Y812174D01*
X1720416Y812174D01*
X1722149Y811452D01*
X1723016Y810008D01*
X1723016Y806397D01*
X1723016Y805674D01*
X1720416Y807119D01*
X1718682Y807119D01*
X1716949Y806397D01*
X1716082Y804952D01*
X1716082Y802785D01*
X1716949Y801341D01*
X1718682Y800619D01*
X1720416Y800619D01*
X1722149Y801341D01*
X1723016Y802785D01*
X1723016Y806397D01*
G54D10*
X1613656Y737356D02*
X1662319Y737356D01*
X1662319Y716994D01*
X1613656Y716994D01*
X1613656Y737356D01*
G54D11*
X1647696Y700034D02*
X1645096Y698590D01*
X1644229Y697145D01*
X1644229Y694256D01*
G54D11*
X1651163Y694256D02*
X1651163Y705812D01*
X1646829Y705812D01*
X1645096Y705090D01*
X1644229Y703645D01*
X1644229Y702201D01*
X1645096Y700756D01*
X1646829Y700034D01*
X1651163Y700034D01*
G54D11*
X1635852Y694256D02*
X1635852Y705812D01*
X1641052Y698590D01*
X1641052Y697145D01*
X1634118Y697145D01*
G54D11*
X1624007Y705812D02*
X1630941Y705812D01*
X1630941Y700756D01*
X1630074Y700756D01*
X1628341Y701478D01*
X1626607Y701478D01*
X1624874Y700756D01*
X1624007Y699312D01*
X1624007Y696423D01*
X1624874Y694978D01*
X1626607Y694256D01*
X1628341Y694256D01*
X1630074Y694978D01*
X1630941Y696423D01*
G54D10*
X1613656Y776250D02*
X1662319Y776250D01*
X1662319Y755888D01*
X1613656Y755888D01*
X1613656Y776250D01*
G54D11*
X1584698Y744842D02*
X1585565Y743397D01*
X1587298Y742675D01*
X1589032Y742675D01*
X1590765Y743397D01*
X1591632Y744842D01*
X1591632Y752064D01*
X1590765Y753508D01*
X1589032Y754231D01*
X1587298Y754231D01*
X1585565Y753508D01*
X1584698Y752064D01*
G54D11*
X1574587Y742675D02*
X1581520Y742675D01*
X1581520Y743397D01*
X1580654Y744842D01*
X1575454Y749175D01*
X1574587Y750619D01*
X1574587Y752064D01*
X1575454Y753508D01*
X1577187Y754231D01*
X1578920Y754231D01*
X1580654Y753508D01*
X1581520Y752064D01*
G54D11*
X1564476Y752064D02*
X1565343Y753508D01*
X1567076Y754231D01*
X1568810Y754231D01*
X1570543Y753508D01*
X1571410Y752064D01*
X1571410Y748453D01*
X1571410Y747731D01*
X1568810Y749175D01*
X1567076Y749175D01*
X1565343Y748453D01*
X1564476Y747008D01*
X1564476Y744842D01*
X1565343Y743397D01*
X1567076Y742675D01*
X1568810Y742675D01*
X1570543Y743397D01*
X1571410Y744842D01*
X1571410Y748453D01*
G54D10*
X1613656Y813556D02*
X1662319Y813556D01*
X1662319Y793194D01*
X1613656Y793194D01*
X1613656Y813556D01*
G54D11*
X1646902Y832590D02*
X1644302Y831146D01*
X1643436Y829701D01*
X1643436Y826812D01*
G54D11*
X1650369Y826812D02*
X1650369Y838368D01*
X1646036Y838368D01*
X1644302Y837646D01*
X1643436Y836201D01*
X1643436Y834757D01*
X1644302Y833312D01*
X1646036Y832590D01*
X1650369Y832590D01*
G54D11*
X1635058Y826812D02*
X1635058Y838368D01*
X1640258Y831146D01*
X1640258Y829701D01*
X1633325Y829701D01*
G54D11*
X1630147Y838368D02*
X1623214Y838368D01*
X1624080Y836924D01*
X1625814Y834757D01*
X1627547Y831868D01*
X1628414Y829701D01*
X1628414Y826812D01*
G54D10*
X1613656Y864356D02*
X1662319Y864356D01*
X1662319Y843994D01*
X1613656Y843994D01*
X1613656Y864356D01*
G54D11*
X1704554Y853585D02*
X1705421Y852141D01*
X1707154Y851419D01*
X1708888Y851419D01*
X1710621Y852141D01*
X1711488Y853585D01*
X1711488Y860808D01*
X1710621Y862252D01*
X1708888Y862974D01*
X1707154Y862974D01*
X1705421Y862252D01*
X1704554Y860808D01*
G54D11*
X1694443Y851419D02*
X1701377Y851419D01*
X1701377Y852141D01*
X1700510Y853585D01*
X1695310Y857919D01*
X1694443Y859363D01*
X1694443Y860808D01*
X1695310Y862252D01*
X1697043Y862974D01*
X1698777Y862974D01*
X1700510Y862252D01*
X1701377Y860808D01*
G54D11*
X1691266Y862974D02*
X1684332Y862974D01*
X1685199Y861530D01*
X1686932Y859363D01*
X1688666Y856474D01*
X1689532Y854308D01*
X1689532Y851419D01*
G54D10*
X1523962Y864356D02*
X1572625Y864356D01*
X1572625Y843994D01*
X1523962Y843994D01*
X1523962Y864356D01*
G54D11*
X1552154Y874223D02*
X1553021Y872778D01*
X1554754Y872056D01*
X1556488Y872056D01*
X1558221Y872778D01*
X1559088Y874223D01*
X1559088Y881445D01*
X1558221Y882890D01*
X1556488Y883612D01*
X1554754Y883612D01*
X1553021Y882890D01*
X1552154Y881445D01*
G54D11*
X1548977Y881445D02*
X1548110Y882890D01*
X1546377Y883612D01*
X1544643Y883612D01*
X1542910Y882890D01*
X1542043Y881445D01*
X1542043Y880001D01*
X1542910Y878556D01*
X1544643Y877834D01*
X1542910Y877112D01*
X1542043Y875667D01*
X1542043Y874223D01*
X1542910Y872778D01*
X1544643Y872056D01*
X1546377Y872056D01*
X1548110Y872778D01*
X1548977Y874223D01*
G54D11*
X1533666Y872056D02*
X1533666Y883612D01*
X1538866Y876390D01*
X1538866Y874945D01*
X1531932Y874945D01*
G54D10*
X1523962Y826256D02*
X1572625Y826256D01*
X1572625Y805894D01*
X1523962Y805894D01*
X1523962Y826256D01*
G54D11*
X1586350Y792609D02*
X1584905Y791742D01*
X1584183Y790009D01*
X1584183Y788275D01*
X1584905Y786542D01*
X1586350Y785675D01*
X1593572Y785675D01*
X1595016Y786542D01*
X1595738Y788275D01*
X1595738Y790009D01*
X1595016Y791742D01*
X1593572Y792609D01*
G54D11*
X1593572Y795786D02*
X1595016Y796653D01*
X1595738Y798386D01*
X1595738Y800120D01*
X1595016Y801853D01*
X1593572Y802720D01*
X1592127Y802720D01*
X1590683Y801853D01*
X1589961Y800120D01*
X1589238Y801853D01*
X1587794Y802720D01*
X1586350Y802720D01*
X1584905Y801853D01*
X1584183Y800120D01*
X1584183Y798386D01*
X1584905Y796653D01*
X1586350Y795786D01*
G54D11*
X1593572Y805897D02*
X1595016Y806764D01*
X1595738Y808497D01*
X1595738Y810231D01*
X1595016Y811964D01*
X1593572Y812831D01*
X1592127Y812831D01*
X1590683Y811964D01*
X1589961Y810231D01*
X1589238Y811964D01*
X1587794Y812831D01*
X1586350Y812831D01*
X1584905Y811964D01*
X1584183Y810231D01*
X1584183Y808497D01*
X1584905Y806764D01*
X1586350Y805897D01*
G54D10*
X1523962Y788156D02*
X1572625Y788156D01*
X1572625Y767794D01*
X1523962Y767794D01*
X1523962Y788156D01*
G54D11*
X1526754Y752779D02*
X1527621Y751335D01*
X1529354Y750612D01*
X1531088Y750612D01*
X1532821Y751335D01*
X1533688Y752779D01*
X1533688Y760001D01*
X1532821Y761446D01*
X1531088Y762168D01*
X1529354Y762168D01*
X1527621Y761446D01*
X1526754Y760001D01*
G54D11*
X1523577Y760001D02*
X1522710Y761446D01*
X1520977Y762168D01*
X1519243Y762168D01*
X1517510Y761446D01*
X1516643Y760001D01*
X1516643Y758557D01*
X1517510Y757112D01*
X1519243Y756390D01*
X1517510Y755668D01*
X1516643Y754224D01*
X1516643Y752779D01*
X1517510Y751335D01*
X1519243Y750612D01*
X1520977Y750612D01*
X1522710Y751335D01*
X1523577Y752779D01*
G54D11*
X1506532Y750612D02*
X1513466Y750612D01*
X1513466Y751335D01*
X1512599Y752779D01*
X1507399Y757112D01*
X1506532Y758557D01*
X1506532Y760001D01*
X1507399Y761446D01*
X1509132Y762168D01*
X1510866Y762168D01*
X1512599Y761446D01*
X1513466Y760001D01*
G54D10*
X1460462Y826256D02*
X1509125Y826256D01*
X1509125Y805894D01*
X1460462Y805894D01*
X1460462Y826256D01*
G54D11*
X1493814Y832317D02*
X1494681Y830872D01*
X1496414Y830150D01*
X1498147Y830150D01*
X1499881Y830872D01*
X1500747Y832317D01*
X1500747Y839539D01*
X1499881Y840984D01*
X1498147Y841706D01*
X1496414Y841706D01*
X1494681Y840984D01*
X1493814Y839539D01*
G54D11*
X1490636Y839539D02*
X1489770Y840984D01*
X1488036Y841706D01*
X1486303Y841706D01*
X1484570Y840984D01*
X1483703Y839539D01*
X1483703Y838095D01*
X1484570Y836650D01*
X1486303Y835928D01*
X1484570Y835206D01*
X1483703Y833761D01*
X1483703Y832317D01*
X1484570Y830872D01*
X1486303Y830150D01*
X1488036Y830150D01*
X1489770Y830872D01*
X1490636Y832317D01*
G54D11*
X1473592Y841706D02*
X1480525Y841706D01*
X1480525Y836650D01*
X1479659Y836650D01*
X1477925Y837372D01*
X1476192Y837372D01*
X1474459Y836650D01*
X1473592Y835206D01*
X1473592Y832317D01*
X1474459Y830872D01*
X1476192Y830150D01*
X1477925Y830150D01*
X1479659Y830872D01*
X1480525Y832317D01*
G54D10*
X1460462Y865150D02*
X1509125Y865150D01*
X1509125Y844788D01*
X1460462Y844788D01*
X1460462Y865150D01*
G54D11*
X1474367Y874223D02*
X1475234Y872778D01*
X1476967Y872056D01*
X1478700Y872056D01*
X1480434Y872778D01*
X1481300Y874223D01*
X1481300Y881445D01*
X1480434Y882890D01*
X1478700Y883612D01*
X1476967Y883612D01*
X1475234Y882890D01*
X1474367Y881445D01*
G54D11*
X1471189Y881445D02*
X1470323Y882890D01*
X1468589Y883612D01*
X1466856Y883612D01*
X1465123Y882890D01*
X1464256Y881445D01*
X1464256Y880001D01*
X1465123Y878556D01*
X1466856Y877834D01*
X1465123Y877112D01*
X1464256Y875667D01*
X1464256Y874223D01*
X1465123Y872778D01*
X1466856Y872056D01*
X1468589Y872056D01*
X1470323Y872778D01*
X1471189Y874223D01*
G54D11*
X1454145Y881445D02*
X1455012Y882890D01*
X1456745Y883612D01*
X1458478Y883612D01*
X1460212Y882890D01*
X1461078Y881445D01*
X1461078Y877834D01*
X1461078Y877112D01*
X1458478Y878556D01*
X1456745Y878556D01*
X1455012Y877834D01*
X1454145Y876390D01*
X1454145Y874223D01*
X1455012Y872778D01*
X1456745Y872056D01*
X1458478Y872056D01*
X1460212Y872778D01*
X1461078Y874223D01*
X1461078Y877834D01*
G54D10*
X1396962Y826256D02*
X1445625Y826256D01*
X1445625Y805894D01*
X1396962Y805894D01*
X1396962Y826256D01*
G54D11*
X1367608Y813267D02*
X1368474Y811822D01*
X1370208Y811100D01*
X1371941Y811100D01*
X1373674Y811822D01*
X1374541Y813267D01*
X1374541Y820489D01*
X1373674Y821934D01*
X1371941Y822656D01*
X1370208Y822656D01*
X1368474Y821934D01*
X1367608Y820489D01*
G54D11*
X1359230Y811100D02*
X1359230Y822656D01*
X1364430Y815434D01*
X1364430Y813989D01*
X1357497Y813989D01*
G54D11*
X1347386Y820489D02*
X1347386Y813267D01*
X1348252Y811822D01*
X1349986Y811100D01*
X1351719Y811100D01*
X1353452Y811822D01*
X1354319Y813267D01*
X1354319Y820489D01*
X1353452Y821934D01*
X1351719Y822656D01*
X1349986Y822656D01*
X1348252Y821934D01*
X1347386Y820489D01*
G54D10*
X1396962Y865150D02*
X1445625Y865150D01*
X1445625Y844788D01*
X1396962Y844788D01*
X1396962Y865150D01*
G54D11*
X1367211Y853585D02*
X1368077Y852141D01*
X1369811Y851419D01*
X1371544Y851419D01*
X1373277Y852141D01*
X1374144Y853585D01*
X1374144Y860808D01*
X1373277Y862252D01*
X1371544Y862974D01*
X1369811Y862974D01*
X1368077Y862252D01*
X1367211Y860808D01*
G54D11*
X1358833Y851419D02*
X1358833Y862974D01*
X1364033Y855752D01*
X1364033Y854308D01*
X1357100Y854308D01*
G54D11*
X1353922Y858641D02*
X1349589Y862974D01*
X1349589Y851419D01*
G54D10*
X1396962Y781806D02*
X1445625Y781806D01*
X1445625Y761444D01*
X1396962Y761444D01*
X1396962Y781806D01*
G54D11*
X1404517Y742460D02*
X1405384Y741016D01*
X1407117Y740294D01*
X1408850Y740294D01*
X1410584Y741016D01*
X1411450Y742460D01*
X1411450Y749683D01*
X1410584Y751127D01*
X1408850Y751849D01*
X1407117Y751849D01*
X1405384Y751127D01*
X1404517Y749683D01*
G54D11*
X1401339Y749683D02*
X1400473Y751127D01*
X1398739Y751849D01*
X1397006Y751849D01*
X1395273Y751127D01*
X1394406Y749683D01*
X1394406Y748238D01*
X1395273Y746794D01*
X1397006Y746072D01*
X1395273Y745349D01*
X1394406Y743905D01*
X1394406Y742460D01*
X1395273Y741016D01*
X1397006Y740294D01*
X1398739Y740294D01*
X1400473Y741016D01*
X1401339Y742460D01*
G54D11*
X1391228Y742460D02*
X1390362Y741016D01*
X1388628Y740294D01*
X1386895Y740294D01*
X1385162Y741016D01*
X1384295Y742460D01*
X1384295Y746072D01*
X1384295Y746794D01*
X1386895Y745349D01*
X1388628Y745349D01*
X1390362Y746072D01*
X1391228Y747516D01*
X1391228Y749683D01*
X1390362Y751127D01*
X1388628Y751849D01*
X1386895Y751849D01*
X1385162Y751127D01*
X1384295Y749683D01*
X1384295Y746072D01*
G54D10*
X1846225Y811969D02*
X1894888Y811969D01*
X1894888Y791606D01*
X1846225Y791606D01*
X1846225Y811969D01*
G54D11*
X1872829Y778179D02*
X1873695Y776735D01*
X1875429Y776012D01*
X1877162Y776012D01*
X1878895Y776735D01*
X1879762Y778179D01*
X1879762Y785401D01*
X1878895Y786846D01*
X1877162Y787568D01*
X1875429Y787568D01*
X1873695Y786846D01*
X1872829Y785401D01*
G54D11*
X1862718Y776012D02*
X1869651Y776012D01*
X1869651Y776735D01*
X1868784Y778179D01*
X1863584Y782512D01*
X1862718Y783957D01*
X1862718Y785401D01*
X1863584Y786846D01*
X1865318Y787568D01*
X1867051Y787568D01*
X1868784Y786846D01*
X1869651Y785401D01*
G54D11*
X1852607Y785401D02*
X1852607Y778179D01*
X1853473Y776735D01*
X1855207Y776012D01*
X1856940Y776012D01*
X1858673Y776735D01*
X1859540Y778179D01*
X1859540Y785401D01*
X1858673Y786846D01*
X1856940Y787568D01*
X1855207Y787568D01*
X1853473Y786846D01*
X1852607Y785401D01*
G54D10*
X1780344Y850862D02*
X1829006Y850862D01*
X1829006Y830500D01*
X1780344Y830500D01*
X1780344Y850862D01*
G54D11*
X1806947Y863904D02*
X1807814Y862460D01*
X1809547Y861738D01*
X1811281Y861738D01*
X1813014Y862460D01*
X1813881Y863904D01*
X1813881Y871126D01*
X1813014Y872571D01*
X1811281Y873293D01*
X1809547Y873293D01*
X1807814Y872571D01*
X1806947Y871126D01*
G54D11*
X1796836Y861738D02*
X1803770Y861738D01*
X1803770Y862460D01*
X1802903Y863904D01*
X1797703Y868238D01*
X1796836Y869682D01*
X1796836Y871126D01*
X1797703Y872571D01*
X1799436Y873293D01*
X1801170Y873293D01*
X1802903Y872571D01*
X1803770Y871126D01*
G54D11*
X1793659Y868960D02*
X1789325Y873293D01*
X1789325Y861738D01*
G54D10*
X355462Y701075D02*
X355462Y677075D01*
X291462Y677075D01*
X291462Y701075D01*
X355462Y701075D01*
G54D12*
X342719Y660799D02*
X342719Y649244D01*
X336652Y649244D01*
G54D12*
X332608Y656466D02*
X328275Y660799D01*
X328275Y649244D01*
G54D12*
X317298Y658633D02*
X317298Y651410D01*
X318164Y649966D01*
X319898Y649244D01*
X321631Y649244D01*
X323364Y649966D01*
X324231Y651410D01*
X324231Y658633D01*
X323364Y660077D01*
X321631Y660799D01*
X319898Y660799D01*
X318164Y660077D01*
X317298Y658633D01*
G54D13*
X2153444Y-271462D02*
X2145888Y-256351D01*
X2138333Y-271462D01*
G54D13*
X2150422Y-265796D02*
X2141355Y-265796D01*
G54D13*
X2134177Y-271462D02*
X2134177Y-256351D01*
X2126621Y-256351D01*
X2123599Y-257296D01*
X2122088Y-259185D01*
X2122088Y-261074D01*
X2123599Y-262962D01*
X2126621Y-263907D01*
X2134177Y-263907D01*
G54D13*
X2117932Y-271462D02*
X2117932Y-256351D01*
X2110376Y-256351D01*
X2107354Y-257296D01*
X2105843Y-259185D01*
X2105843Y-261074D01*
X2107354Y-262962D01*
X2110376Y-263907D01*
X2117932Y-263907D01*
G54D13*
X2101687Y-256351D02*
X2101687Y-271462D01*
X2091109Y-271462D01*
G54D13*
X2076375Y-271462D02*
X2086953Y-271462D01*
X2086953Y-256351D01*
X2076375Y-256351D01*
G54D13*
X2086953Y-263907D02*
X2076375Y-263907D01*
G54D13*
X2042298Y-268629D02*
X2043809Y-270518D01*
X2046831Y-271462D01*
X2049854Y-271462D01*
X2052876Y-270518D01*
X2054387Y-268629D01*
X2054387Y-259185D01*
X2052876Y-257296D01*
X2049854Y-256351D01*
X2046831Y-256351D01*
X2043809Y-257296D01*
X2042298Y-259185D01*
G54D13*
X2026053Y-259185D02*
X2026053Y-268629D01*
X2027564Y-270518D01*
X2030586Y-271462D01*
X2033608Y-271462D01*
X2036631Y-270518D01*
X2038142Y-268629D01*
X2038142Y-259185D01*
X2036631Y-257296D01*
X2033608Y-256351D01*
X2030586Y-256351D01*
X2027564Y-257296D01*
X2026053Y-259185D01*
G54D13*
X2021897Y-271462D02*
X2021897Y-256351D01*
X2014341Y-265796D01*
X2006786Y-256351D01*
X2006786Y-271462D01*
G54D13*
X2002630Y-271462D02*
X2002630Y-256351D01*
X1995074Y-256351D01*
X1992052Y-257296D01*
X1990541Y-259185D01*
X1990541Y-261074D01*
X1992052Y-262962D01*
X1995074Y-263907D01*
X2002630Y-263907D01*
G54D13*
X1986385Y-256351D02*
X1986385Y-268629D01*
X1984874Y-270518D01*
X1981852Y-271462D01*
X1978829Y-271462D01*
X1975807Y-270518D01*
X1974296Y-268629D01*
X1974296Y-256351D01*
G54D13*
X1964095Y-271462D02*
X1964095Y-256351D01*
G54D13*
X1970140Y-256351D02*
X1958051Y-256351D01*
G54D13*
X1943317Y-271462D02*
X1953895Y-271462D01*
X1953895Y-256351D01*
X1943317Y-256351D01*
G54D13*
X1953895Y-263907D02*
X1943317Y-263907D01*
G54D13*
X1933116Y-263907D02*
X1928583Y-265796D01*
X1927072Y-267685D01*
X1927072Y-271462D01*
G54D13*
X1939161Y-271462D02*
X1939161Y-256351D01*
X1931605Y-256351D01*
X1928583Y-257296D01*
X1927072Y-259185D01*
X1927072Y-261074D01*
X1928583Y-262962D01*
X1931605Y-263907D01*
X1939161Y-263907D01*
G54D13*
X1905084Y-271462D02*
X1905084Y-256351D01*
G54D13*
X1900928Y-271462D02*
X1900928Y-256351D01*
X1888839Y-271462D01*
X1888839Y-256351D01*
G54D13*
X1872594Y-268629D02*
X1874105Y-270518D01*
X1877127Y-271462D01*
X1880150Y-271462D01*
X1883172Y-270518D01*
X1884683Y-268629D01*
X1884683Y-259185D01*
X1883172Y-257296D01*
X1880150Y-256351D01*
X1877127Y-256351D01*
X1874105Y-257296D01*
X1872594Y-259185D01*
G54D13*
X1868438Y-271462D02*
X1868438Y-271462D01*
G54D13*
X1838894Y-263907D02*
X1841916Y-263907D01*
X1844939Y-262962D01*
X1846450Y-261074D01*
X1846450Y-259185D01*
X1844939Y-257296D01*
X1841916Y-256351D01*
X1838894Y-256351D01*
X1835872Y-257296D01*
X1834361Y-259185D01*
X1834361Y-261074D01*
X1835872Y-262962D01*
X1838894Y-263907D01*
X1835872Y-264851D01*
X1834361Y-266740D01*
X1834361Y-268629D01*
X1835872Y-270518D01*
X1838894Y-271462D01*
X1841916Y-271462D01*
X1844939Y-270518D01*
X1846450Y-268629D01*
X1846450Y-266740D01*
X1844939Y-264851D01*
X1841916Y-263907D01*
G54D13*
X1818116Y-271462D02*
X1830205Y-271462D01*
X1830205Y-270518D01*
X1828694Y-268629D01*
X1819627Y-262962D01*
X1818116Y-261074D01*
X1818116Y-259185D01*
X1819627Y-257296D01*
X1822649Y-256351D01*
X1825672Y-256351D01*
X1828694Y-257296D01*
X1830205Y-259185D01*
G54D13*
X1801871Y-259185D02*
X1801871Y-268629D01*
X1803382Y-270518D01*
X1806404Y-271462D01*
X1809426Y-271462D01*
X1812449Y-270518D01*
X1813960Y-268629D01*
X1813960Y-259185D01*
X1812449Y-257296D01*
X1809426Y-256351D01*
X1806404Y-256351D01*
X1803382Y-257296D01*
X1801871Y-259185D01*
G54D13*
X1797715Y-264851D02*
X1785626Y-264851D01*
G54D13*
X1769381Y-259185D02*
X1769381Y-268629D01*
X1770892Y-270518D01*
X1773914Y-271462D01*
X1776936Y-271462D01*
X1779959Y-270518D01*
X1781470Y-268629D01*
X1781470Y-259185D01*
X1779959Y-257296D01*
X1776936Y-256351D01*
X1773914Y-256351D01*
X1770892Y-257296D01*
X1769381Y-259185D01*
G54D13*
X1765225Y-259185D02*
X1763714Y-257296D01*
X1760692Y-256351D01*
X1757669Y-256351D01*
X1754647Y-257296D01*
X1753136Y-259185D01*
X1753136Y-261074D01*
X1754647Y-262962D01*
X1757669Y-263907D01*
X1754647Y-264851D01*
X1753136Y-266740D01*
X1753136Y-268629D01*
X1754647Y-270518D01*
X1757669Y-271462D01*
X1760692Y-271462D01*
X1763714Y-270518D01*
X1765225Y-268629D01*
G54D13*
X1748980Y-268629D02*
X1747469Y-270518D01*
X1744446Y-271462D01*
X1741424Y-271462D01*
X1738402Y-270518D01*
X1736891Y-268629D01*
X1736891Y-263907D01*
X1736891Y-262962D01*
X1741424Y-264851D01*
X1744446Y-264851D01*
X1747469Y-263907D01*
X1748980Y-262018D01*
X1748980Y-259185D01*
X1747469Y-257296D01*
X1744446Y-256351D01*
X1741424Y-256351D01*
X1738402Y-257296D01*
X1736891Y-259185D01*
X1736891Y-263907D01*
G54D13*
X1720646Y-259185D02*
X1720646Y-268629D01*
X1722157Y-270518D01*
X1725179Y-271462D01*
X1728202Y-271462D01*
X1731224Y-270518D01*
X1732735Y-268629D01*
X1732735Y-259185D01*
X1731224Y-257296D01*
X1728202Y-256351D01*
X1725179Y-256351D01*
X1722157Y-257296D01*
X1720646Y-259185D01*
G54D13*
X1716490Y-264851D02*
X1704401Y-264851D01*
G54D13*
X1688156Y-259185D02*
X1688156Y-268629D01*
X1689667Y-270518D01*
X1692689Y-271462D01*
X1695712Y-271462D01*
X1698734Y-270518D01*
X1700245Y-268629D01*
X1700245Y-259185D01*
X1698734Y-257296D01*
X1695712Y-256351D01*
X1692689Y-256351D01*
X1689667Y-257296D01*
X1688156Y-259185D01*
G54D13*
X1684000Y-259185D02*
X1682489Y-257296D01*
X1679466Y-256351D01*
X1676444Y-256351D01*
X1673422Y-257296D01*
X1671911Y-259185D01*
X1671911Y-261074D01*
X1673422Y-262962D01*
X1676444Y-263907D01*
X1673422Y-264851D01*
X1671911Y-266740D01*
X1671911Y-268629D01*
X1673422Y-270518D01*
X1676444Y-271462D01*
X1679466Y-271462D01*
X1682489Y-270518D01*
X1684000Y-268629D01*
G54D13*
X1642880Y-268629D02*
X1644391Y-270518D01*
X1647413Y-271462D01*
X1650435Y-271462D01*
X1653458Y-270518D01*
X1654969Y-268629D01*
X1654969Y-259185D01*
X1653458Y-257296D01*
X1650435Y-256351D01*
X1647413Y-256351D01*
X1644391Y-257296D01*
X1642880Y-259185D01*
G54D14*
G75*
G01X1665288Y-264319D02*
G03X1665288Y-264319I-15876J0D01*
G01*
G54D13*
X1625600Y-262018D02*
X1618044Y-256351D01*
X1618044Y-271462D01*
G54D13*
X1613888Y-268629D02*
X1612377Y-270518D01*
X1609355Y-271462D01*
X1606332Y-271462D01*
X1603310Y-270518D01*
X1601799Y-268629D01*
X1601799Y-263907D01*
X1601799Y-262962D01*
X1606332Y-264851D01*
X1609355Y-264851D01*
X1612377Y-263907D01*
X1613888Y-262018D01*
X1613888Y-259185D01*
X1612377Y-257296D01*
X1609355Y-256351D01*
X1606332Y-256351D01*
X1603310Y-257296D01*
X1601799Y-259185D01*
X1601799Y-263907D01*
G54D13*
X1597643Y-268629D02*
X1596132Y-270518D01*
X1593110Y-271462D01*
X1590088Y-271462D01*
X1587065Y-270518D01*
X1585554Y-268629D01*
X1585554Y-263907D01*
X1585554Y-262962D01*
X1590088Y-264851D01*
X1593110Y-264851D01*
X1596132Y-263907D01*
X1597643Y-262018D01*
X1597643Y-259185D01*
X1596132Y-257296D01*
X1593110Y-256351D01*
X1590088Y-256351D01*
X1587065Y-257296D01*
X1585554Y-259185D01*
X1585554Y-263907D01*
G54D13*
X1569309Y-259185D02*
X1569309Y-268629D01*
X1570820Y-270518D01*
X1573842Y-271462D01*
X1576865Y-271462D01*
X1579887Y-270518D01*
X1581398Y-268629D01*
X1581398Y-259185D01*
X1579887Y-257296D01*
X1576865Y-256351D01*
X1573842Y-256351D01*
X1570820Y-257296D01*
X1569309Y-259185D01*
G54D12*
X707994Y497981D02*
X707994Y486425D01*
X701927Y486425D01*
G54D12*
X690949Y497981D02*
X697882Y497981D01*
X697882Y492925D01*
X697016Y492925D01*
X695282Y493647D01*
X693549Y493647D01*
X691816Y492925D01*
X690949Y491481D01*
X690949Y488592D01*
X691816Y487147D01*
X693549Y486425D01*
X695282Y486425D01*
X697016Y487147D01*
X697882Y488592D01*
G54D12*
X1000542Y704260D02*
X1001408Y702816D01*
X1003142Y702094D01*
X1004875Y702094D01*
X1006608Y702816D01*
X1007475Y704260D01*
X1007475Y711482D01*
X1006608Y712927D01*
X1004875Y713649D01*
X1003142Y713649D01*
X1001408Y712927D01*
X1000542Y711482D01*
G54D12*
X989564Y713649D02*
X996498Y713649D01*
X996498Y708594D01*
X995631Y708594D01*
X993898Y709316D01*
X992164Y709316D01*
X990431Y708594D01*
X989564Y707149D01*
X989564Y704260D01*
X990431Y702816D01*
X992164Y702094D01*
X993898Y702094D01*
X995631Y702816D01*
X996498Y704260D01*
G54D12*
X978588Y702094D02*
X985521Y702094D01*
X985521Y702816D01*
X984654Y704260D01*
X979454Y708594D01*
X978588Y710038D01*
X978588Y711482D01*
X979454Y712927D01*
X981188Y713649D01*
X982921Y713649D01*
X984654Y712927D01*
X985521Y711482D01*
G54D11*
X1699791Y509098D02*
X1700658Y507654D01*
X1702391Y506931D01*
X1704125Y506931D01*
X1705858Y507654D01*
X1706725Y509098D01*
X1706725Y516320D01*
X1705858Y517765D01*
X1704125Y518487D01*
X1702391Y518487D01*
X1700658Y517765D01*
X1699791Y516320D01*
G54D11*
X1689680Y506931D02*
X1696614Y506931D01*
X1696614Y507654D01*
X1695747Y509098D01*
X1690547Y513431D01*
X1689680Y514876D01*
X1689680Y516320D01*
X1690547Y517765D01*
X1692280Y518487D01*
X1694014Y518487D01*
X1695747Y517765D01*
X1696614Y516320D01*
G54D11*
X1686503Y516320D02*
X1685636Y517765D01*
X1683903Y518487D01*
X1682169Y518487D01*
X1680436Y517765D01*
X1679569Y516320D01*
X1679569Y514876D01*
X1680436Y513431D01*
X1682169Y512709D01*
X1680436Y511987D01*
X1679569Y510542D01*
X1679569Y509098D01*
X1680436Y507654D01*
X1682169Y506931D01*
X1683903Y506931D01*
X1685636Y507654D01*
X1686503Y509098D01*
G54D11*
X1858498Y509198D02*
X1859365Y507754D01*
X1861098Y507031D01*
X1862832Y507031D01*
X1864565Y507754D01*
X1865432Y509198D01*
X1865432Y516420D01*
X1864565Y517865D01*
X1862832Y518587D01*
X1861098Y518587D01*
X1859365Y517865D01*
X1858498Y516420D01*
G54D11*
X1855320Y514254D02*
X1850987Y518587D01*
X1850987Y507031D01*
G54D11*
X1847810Y518587D02*
X1840876Y518587D01*
X1841743Y517142D01*
X1843476Y514976D01*
X1845210Y512087D01*
X1846076Y509920D01*
X1846076Y507031D01*
G54D11*
X1963961Y547734D02*
X1961361Y546290D01*
X1960494Y544845D01*
X1960494Y541956D01*
G54D11*
X1967428Y541956D02*
X1967428Y553512D01*
X1963094Y553512D01*
X1961361Y552790D01*
X1960494Y551345D01*
X1960494Y549901D01*
X1961361Y548456D01*
X1963094Y547734D01*
X1967428Y547734D01*
G54D11*
X1950384Y541956D02*
X1957317Y541956D01*
X1957317Y542679D01*
X1956450Y544123D01*
X1951250Y548456D01*
X1950384Y549901D01*
X1950384Y551345D01*
X1951250Y552790D01*
X1952984Y553512D01*
X1954717Y553512D01*
X1956450Y552790D01*
X1957317Y551345D01*
G54D11*
X1940272Y541956D02*
X1947206Y541956D01*
X1947206Y542679D01*
X1946339Y544123D01*
X1941139Y548456D01*
X1940272Y549901D01*
X1940272Y551345D01*
X1941139Y552790D01*
X1942872Y553512D01*
X1944606Y553512D01*
X1946339Y552790D01*
X1947206Y551345D01*
G54D15*
X921767Y-240349D02*
X917767Y-242571D01*
X916433Y-244793D01*
X916433Y-249238D01*
G54D15*
X927100Y-249238D02*
X927100Y-231460D01*
X920433Y-231460D01*
X917767Y-232571D01*
X916433Y-234793D01*
X916433Y-237015D01*
X917767Y-239238D01*
X920433Y-240349D01*
X927100Y-240349D01*
G54D15*
X902211Y-248126D02*
X904344Y-249238D01*
X907011Y-249238D01*
X909678Y-248126D01*
X910211Y-245904D01*
X910211Y-242126D01*
X908878Y-239904D01*
X906211Y-239238D01*
X903544Y-239904D01*
X902211Y-241460D01*
X902211Y-243682D01*
X910211Y-243682D01*
G54D15*
X889322Y-239904D02*
X891989Y-239238D01*
X894656Y-239904D01*
X895989Y-242126D01*
X895989Y-246571D01*
X894656Y-248793D01*
X891989Y-249238D01*
X889322Y-248793D01*
G54D15*
X883100Y-249238D02*
X883100Y-239238D01*
G54D15*
X883100Y-241460D02*
X880433Y-239238D01*
X877767Y-239238D01*
G54D15*
X863545Y-248126D02*
X865678Y-249238D01*
X868345Y-249238D01*
X871012Y-248126D01*
X871545Y-245904D01*
X871545Y-242126D01*
X870212Y-239904D01*
X867545Y-239238D01*
X864878Y-239904D01*
X863545Y-241460D01*
X863545Y-243682D01*
X871545Y-243682D01*
G54D15*
X857323Y-240349D02*
X854656Y-239238D01*
X851456Y-239238D01*
X849323Y-241460D01*
X849323Y-249238D01*
G54D15*
X849323Y-245904D02*
X850656Y-243682D01*
X853323Y-243238D01*
X855990Y-243682D01*
X857323Y-245904D01*
X856790Y-248126D01*
X854656Y-249238D01*
X853323Y-249238D01*
X852790Y-249238D01*
X850656Y-248126D01*
X849323Y-245904D01*
G54D15*
X840434Y-231460D02*
X840434Y-248126D01*
X839101Y-249238D01*
X837768Y-248793D01*
G54D15*
X843101Y-239238D02*
X837768Y-239238D01*
G54D15*
X823546Y-248126D02*
X825679Y-249238D01*
X828346Y-249238D01*
X831013Y-248126D01*
X831546Y-245904D01*
X831546Y-242126D01*
X830213Y-239904D01*
X827546Y-239238D01*
X824879Y-239904D01*
X823546Y-241460D01*
X823546Y-243682D01*
X831546Y-243682D01*
G54D15*
X809324Y-249238D02*
X809324Y-231460D01*
G54D15*
X809324Y-242126D02*
X810657Y-239904D01*
X813324Y-239238D01*
X815991Y-239904D01*
X817324Y-242126D01*
X817324Y-246571D01*
X815991Y-248793D01*
X813324Y-249238D01*
X810657Y-248793D01*
X809324Y-246571D01*
G54D15*
X796613Y-249238D02*
X796613Y-239238D01*
G54D15*
X796613Y-235904D02*
X796613Y-235904D01*
G54D15*
X790391Y-249238D02*
X790391Y-239238D01*
G54D15*
X790391Y-241460D02*
X789058Y-239904D01*
X786391Y-239238D01*
X783724Y-239904D01*
X782391Y-241460D01*
X782391Y-249238D01*
G54D15*
X769680Y-245904D02*
X768347Y-248126D01*
X765680Y-249238D01*
X763013Y-249238D01*
X760347Y-248126D01*
X759013Y-245904D01*
X759013Y-243682D01*
X760347Y-241460D01*
X763013Y-240349D01*
X765680Y-240349D01*
X768347Y-239238D01*
X769680Y-237015D01*
X769680Y-234793D01*
X768347Y-232571D01*
X765680Y-231460D01*
X763013Y-231460D01*
X760347Y-232571D01*
X759013Y-234793D01*
G54D15*
X752791Y-239238D02*
X752791Y-253682D01*
G54D15*
X752791Y-245904D02*
X751458Y-248793D01*
X748791Y-249238D01*
X746124Y-248793D01*
X744791Y-246571D01*
X744791Y-242126D01*
X746124Y-239904D01*
X748791Y-239238D01*
X751458Y-239904D01*
X752791Y-242571D01*
G54D15*
X738569Y-249238D02*
X738569Y-239238D01*
G54D15*
X738569Y-241460D02*
X735902Y-239238D01*
X733236Y-239238D01*
G54D15*
X727014Y-249238D02*
X727014Y-239238D01*
G54D15*
X727014Y-235904D02*
X727014Y-235904D01*
G54D15*
X720792Y-249238D02*
X720792Y-239238D01*
G54D15*
X720792Y-241460D02*
X719459Y-239904D01*
X716792Y-239238D01*
X714125Y-239904D01*
X712792Y-241460D01*
X712792Y-249238D01*
G54D15*
X703903Y-231460D02*
X703903Y-248126D01*
X702570Y-249238D01*
X701237Y-248793D01*
G54D15*
X706570Y-239238D02*
X701237Y-239238D01*
G54D15*
X695015Y-241460D02*
X684348Y-241460D01*
G54D15*
X678126Y-231460D02*
X678126Y-249238D01*
X668793Y-249238D01*
G54D15*
X662571Y-240349D02*
X659904Y-239238D01*
X656704Y-239238D01*
X654571Y-241460D01*
X654571Y-249238D01*
G54D15*
X654571Y-245904D02*
X655904Y-243682D01*
X658571Y-243238D01*
X661238Y-243682D01*
X662571Y-245904D01*
X662038Y-248126D01*
X659904Y-249238D01*
X658571Y-249238D01*
X658038Y-249238D01*
X655904Y-248126D01*
X654571Y-245904D01*
G54D15*
X648349Y-239238D02*
X643016Y-249238D01*
X637682Y-239238D01*
G54D15*
X643016Y-249238D02*
X644349Y-252571D01*
X645682Y-253682D01*
X647016Y-253682D01*
G54D15*
X623460Y-246571D02*
X623460Y-242126D01*
X624793Y-239904D01*
X627460Y-239238D01*
X630127Y-239904D01*
X631460Y-242126D01*
X631460Y-246571D01*
X630127Y-248793D01*
X627460Y-249238D01*
X624793Y-248793D01*
X623460Y-246571D01*
G54D15*
X609238Y-239238D02*
X609238Y-249238D01*
G54D15*
X609238Y-247015D02*
X610571Y-248793D01*
X613238Y-249238D01*
X615905Y-248793D01*
X617238Y-247015D01*
X617238Y-239238D01*
G54D15*
X600349Y-231460D02*
X600349Y-248126D01*
X599016Y-249238D01*
X597683Y-248793D01*
G54D15*
X603016Y-239238D02*
X597683Y-239238D01*
G54D15*
X574305Y-234793D02*
X575639Y-232571D01*
X578305Y-231460D01*
X580972Y-231460D01*
X583639Y-232571D01*
X584972Y-234793D01*
X584972Y-240349D01*
X584972Y-241460D01*
X580972Y-239238D01*
X578305Y-239238D01*
X575639Y-240349D01*
X574305Y-242571D01*
X574305Y-245904D01*
X575639Y-248126D01*
X578305Y-249238D01*
X580972Y-249238D01*
X583639Y-248126D01*
X584972Y-245904D01*
X584972Y-240349D01*
G54D15*
X568083Y-249238D02*
X568083Y-249238D01*
G54D15*
X551194Y-234793D02*
X551194Y-245904D01*
X552528Y-248126D01*
X555194Y-249238D01*
X557861Y-249238D01*
X560528Y-248126D01*
X561861Y-245904D01*
X561861Y-234793D01*
X560528Y-232571D01*
X557861Y-231460D01*
X555194Y-231460D01*
X552528Y-232571D01*
X551194Y-234793D01*
G54D15*
X538483Y-249238D02*
X538483Y-231460D01*
G54D15*
X538483Y-242126D02*
X537150Y-239904D01*
X534483Y-239238D01*
X531816Y-239904D01*
X530483Y-242126D01*
X530483Y-246571D01*
X531816Y-248793D01*
X534483Y-249238D01*
X537150Y-248793D01*
X538483Y-246571D01*
G54D15*
X524261Y-239238D02*
X518928Y-249238D01*
X513594Y-239238D01*
G54D15*
X518928Y-249238D02*
X520261Y-252571D01*
X521594Y-253682D01*
X522928Y-253682D01*
G54D15*
X500883Y-249238D02*
X500883Y-231460D01*
G54D15*
X500883Y-243682D02*
X490216Y-231460D01*
G54D15*
X496883Y-240349D02*
X490216Y-249238D01*
G54D15*
X483994Y-240349D02*
X481327Y-239238D01*
X478127Y-239238D01*
X475994Y-241460D01*
X475994Y-249238D01*
G54D15*
X475994Y-245904D02*
X477327Y-243682D01*
X479994Y-243238D01*
X482661Y-243682D01*
X483994Y-245904D01*
X483461Y-248126D01*
X481327Y-249238D01*
X479994Y-249238D01*
X479461Y-249238D01*
X477327Y-248126D01*
X475994Y-245904D01*
G54D15*
X469772Y-249238D02*
X469772Y-239238D01*
G54D15*
X469772Y-235904D02*
X469772Y-235904D01*
G54D15*
X451728Y-240349D02*
X447728Y-242571D01*
X446394Y-244793D01*
X446394Y-249238D01*
G54D15*
X457061Y-249238D02*
X457061Y-231460D01*
X450394Y-231460D01*
X447728Y-232571D01*
X446394Y-234793D01*
X446394Y-237015D01*
X447728Y-239238D01*
X450394Y-240349D01*
X457061Y-240349D01*
G54D15*
X432172Y-246571D02*
X432172Y-242126D01*
X433505Y-239904D01*
X436172Y-239238D01*
X438839Y-239904D01*
X440172Y-242126D01*
X440172Y-246571D01*
X438839Y-248793D01*
X436172Y-249238D01*
X433505Y-248793D01*
X432172Y-246571D01*
G54D15*
X425950Y-249238D02*
X425950Y-231460D01*
G54D15*
X425950Y-242126D02*
X424617Y-239904D01*
X421950Y-239238D01*
X419283Y-239904D01*
X417950Y-242126D01*
X417950Y-246571D01*
X419283Y-248793D01*
X421950Y-249238D01*
X424617Y-248793D01*
X425950Y-246571D01*
G54D15*
X411728Y-249238D02*
X411728Y-239238D01*
G54D15*
X411728Y-235904D02*
X411728Y-235904D01*
G54D15*
X405506Y-249238D02*
X405506Y-239238D01*
G54D15*
X405506Y-241460D02*
X404173Y-239904D01*
X401506Y-239238D01*
X398839Y-239904D01*
X397506Y-241460D01*
X397506Y-249238D01*
G54D15*
X391284Y-248126D02*
X388617Y-249238D01*
X385951Y-249238D01*
X383284Y-248126D01*
X383284Y-245904D01*
X384617Y-244793D01*
X389951Y-243682D01*
X391284Y-242571D01*
X391284Y-240349D01*
X388617Y-239238D01*
X385951Y-239238D01*
X383284Y-240349D01*
G54D15*
X369062Y-246571D02*
X369062Y-242126D01*
X370395Y-239904D01*
X373062Y-239238D01*
X375729Y-239904D01*
X377062Y-242126D01*
X377062Y-246571D01*
X375729Y-248793D01*
X373062Y-249238D01*
X370395Y-248793D01*
X369062Y-246571D01*
G54D15*
X362840Y-249238D02*
X362840Y-239238D01*
G54D15*
X362840Y-241460D02*
X361507Y-239904D01*
X358840Y-239238D01*
X356173Y-239904D01*
X354840Y-241460D01*
X354840Y-249238D01*
G54D15*
X927100Y-207804D02*
X925767Y-210026D01*
X923100Y-211138D01*
X920433Y-211138D01*
X917767Y-210026D01*
X916433Y-207804D01*
X916433Y-205582D01*
X917767Y-203360D01*
X920433Y-202249D01*
X923100Y-202249D01*
X925767Y-201138D01*
X927100Y-198915D01*
X927100Y-196693D01*
X925767Y-194471D01*
X923100Y-193360D01*
X920433Y-193360D01*
X917767Y-194471D01*
X916433Y-196693D01*
G54D15*
X910211Y-201138D02*
X910211Y-215582D01*
G54D15*
X910211Y-207804D02*
X908878Y-210693D01*
X906211Y-211138D01*
X903544Y-210693D01*
X902211Y-208471D01*
X902211Y-204026D01*
X903544Y-201804D01*
X906211Y-201138D01*
X908878Y-201804D01*
X910211Y-204471D01*
G54D15*
X887989Y-210026D02*
X890122Y-211138D01*
X892789Y-211138D01*
X895456Y-210026D01*
X895989Y-207804D01*
X895989Y-204026D01*
X894656Y-201804D01*
X891989Y-201138D01*
X889322Y-201804D01*
X887989Y-203360D01*
X887989Y-205582D01*
X895989Y-205582D01*
G54D15*
X875100Y-201804D02*
X877767Y-201138D01*
X880434Y-201804D01*
X881767Y-204026D01*
X881767Y-208471D01*
X880434Y-210693D01*
X877767Y-211138D01*
X875100Y-210693D01*
G54D15*
X868878Y-211138D02*
X868878Y-201138D01*
G54D15*
X868878Y-197804D02*
X868878Y-197804D01*
G54D15*
X862656Y-202249D02*
X859989Y-201138D01*
X856789Y-201138D01*
X854656Y-203360D01*
X854656Y-211138D01*
G54D15*
X854656Y-207804D02*
X855989Y-205582D01*
X858656Y-205138D01*
X861323Y-205582D01*
X862656Y-207804D01*
X862123Y-210026D01*
X859989Y-211138D01*
X858656Y-211138D01*
X858123Y-211138D01*
X855989Y-210026D01*
X854656Y-207804D01*
G54D15*
X848434Y-211138D02*
X848434Y-193360D01*
G54D15*
X830390Y-211138D02*
X830390Y-193360D01*
G54D15*
X835723Y-193360D02*
X825056Y-193360D01*
G54D15*
X818834Y-211138D02*
X818834Y-193360D01*
G54D15*
X818834Y-204026D02*
X817501Y-201804D01*
X814834Y-201138D01*
X812167Y-201804D01*
X810834Y-204026D01*
X810834Y-211138D01*
G54D15*
X804612Y-202249D02*
X801945Y-201138D01*
X798745Y-201138D01*
X796612Y-203360D01*
X796612Y-211138D01*
G54D15*
X796612Y-207804D02*
X797945Y-205582D01*
X800612Y-205138D01*
X803279Y-205582D01*
X804612Y-207804D01*
X804079Y-210026D01*
X801945Y-211138D01*
X800612Y-211138D01*
X800079Y-211138D01*
X797945Y-210026D01*
X796612Y-207804D01*
G54D15*
X790390Y-211138D02*
X790390Y-201138D01*
G54D15*
X790390Y-203360D02*
X789057Y-201804D01*
X786390Y-201138D01*
X783723Y-201804D01*
X782390Y-203360D01*
X782390Y-211138D01*
G54D15*
X776168Y-211138D02*
X776168Y-193360D01*
G54D15*
X772168Y-204471D02*
X768168Y-211138D01*
G54D15*
X776168Y-206693D02*
X768168Y-201138D01*
G54D15*
X761946Y-210026D02*
X759279Y-211138D01*
X756613Y-211138D01*
X753946Y-210026D01*
X753946Y-207804D01*
X755279Y-206693D01*
X760613Y-205582D01*
X761946Y-204471D01*
X761946Y-202249D01*
X759279Y-201138D01*
X756613Y-201138D01*
X753946Y-202249D01*
G54D15*
X738568Y-193360D02*
X738568Y-210026D01*
X737235Y-211138D01*
X735902Y-210693D01*
G54D15*
X741235Y-201138D02*
X735902Y-201138D01*
G54D15*
X721680Y-208471D02*
X721680Y-204026D01*
X723013Y-201804D01*
X725680Y-201138D01*
X728347Y-201804D01*
X729680Y-204026D01*
X729680Y-208471D01*
X728347Y-210693D01*
X725680Y-211138D01*
X723013Y-210693D01*
X721680Y-208471D01*
G54D15*
X715458Y-211138D02*
X715458Y-211138D01*
G54D15*
X715458Y-201138D02*
X715458Y-201138D01*
G54D15*
X702747Y-211138D02*
X702747Y-193360D01*
X696080Y-193360D01*
X693414Y-194471D01*
X692080Y-196693D01*
X692080Y-198915D01*
X693414Y-201138D01*
X696080Y-202249D01*
X693414Y-203360D01*
X692080Y-205582D01*
X692080Y-207804D01*
X693414Y-210026D01*
X696080Y-211138D01*
X702747Y-211138D01*
G54D15*
X702747Y-202249D02*
X696080Y-202249D01*
G54D15*
X685858Y-211138D02*
X685858Y-201138D01*
G54D15*
X685858Y-203360D02*
X683191Y-201138D01*
X680525Y-201138D01*
G54D15*
X666303Y-201138D02*
X666303Y-211138D01*
G54D15*
X666303Y-208915D02*
X667636Y-210693D01*
X670303Y-211138D01*
X672970Y-210693D01*
X674303Y-208915D01*
X674303Y-201138D01*
G54D15*
X653414Y-201804D02*
X656081Y-201138D01*
X658748Y-201804D01*
X660081Y-204026D01*
X660081Y-208471D01*
X658748Y-210693D01*
X656081Y-211138D01*
X653414Y-210693D01*
G54D15*
X639192Y-210026D02*
X641325Y-211138D01*
X643992Y-211138D01*
X646659Y-210026D01*
X647192Y-207804D01*
X647192Y-204026D01*
X645859Y-201804D01*
X643192Y-201138D01*
X640525Y-201804D01*
X639192Y-203360D01*
X639192Y-205582D01*
X647192Y-205582D01*
G54D15*
X621148Y-202249D02*
X617148Y-204471D01*
X615814Y-206693D01*
X615814Y-211138D01*
G54D15*
X626481Y-211138D02*
X626481Y-193360D01*
X619814Y-193360D01*
X617148Y-194471D01*
X615814Y-196693D01*
X615814Y-198915D01*
X617148Y-201138D01*
X619814Y-202249D01*
X626481Y-202249D01*
G54D15*
X609592Y-202249D02*
X606925Y-201138D01*
X603725Y-201138D01*
X601592Y-203360D01*
X601592Y-211138D01*
G54D15*
X601592Y-207804D02*
X602925Y-205582D01*
X605592Y-205138D01*
X608259Y-205582D01*
X609592Y-207804D01*
X609059Y-210026D01*
X606925Y-211138D01*
X605592Y-211138D01*
X605059Y-211138D01*
X602925Y-210026D01*
X601592Y-207804D01*
G54D15*
X595370Y-201138D02*
X590037Y-211138D01*
X584703Y-201138D01*
G54D15*
X590037Y-211138D02*
X591370Y-214471D01*
X592703Y-215582D01*
X594037Y-215582D01*
G54D15*
X578481Y-211138D02*
X578481Y-201138D01*
G54D15*
X578481Y-203360D02*
X577148Y-201804D01*
X574481Y-201138D01*
X571814Y-201804D01*
X570481Y-203360D01*
X570481Y-211138D01*
G54D15*
X556259Y-210026D02*
X558392Y-211138D01*
X561059Y-211138D01*
X563726Y-210026D01*
X564259Y-207804D01*
X564259Y-204026D01*
X562926Y-201804D01*
X560259Y-201138D01*
X557592Y-201804D01*
X556259Y-203360D01*
X556259Y-205582D01*
X564259Y-205582D01*
G54D15*
X530215Y-208915D02*
X540881Y-200026D01*
X542215Y-197804D01*
X542215Y-195582D01*
X539548Y-193360D01*
X536881Y-193360D01*
X534215Y-195582D01*
X534215Y-197804D01*
X535548Y-200026D01*
X542215Y-203360D01*
X543548Y-205582D01*
X543548Y-207804D01*
X542215Y-210026D01*
X539548Y-211138D01*
X536881Y-211138D01*
X534215Y-210026D01*
X531548Y-205582D01*
G54D15*
X517504Y-207804D02*
X516171Y-210026D01*
X513504Y-211138D01*
X510837Y-211138D01*
X508171Y-210026D01*
X506837Y-207804D01*
X506837Y-205582D01*
X508171Y-203360D01*
X510837Y-202249D01*
X513504Y-202249D01*
X516171Y-201138D01*
X517504Y-198915D01*
X517504Y-196693D01*
X516171Y-194471D01*
X513504Y-193360D01*
X510837Y-193360D01*
X508171Y-194471D01*
X506837Y-196693D01*
G54D15*
X497948Y-193360D02*
X497948Y-210026D01*
X496615Y-211138D01*
X495282Y-210693D01*
G54D15*
X500615Y-201138D02*
X495282Y-201138D01*
G54D15*
X481060Y-210026D02*
X483193Y-211138D01*
X485860Y-211138D01*
X488527Y-210026D01*
X489060Y-207804D01*
X489060Y-204026D01*
X487727Y-201804D01*
X485060Y-201138D01*
X482393Y-201804D01*
X481060Y-203360D01*
X481060Y-205582D01*
X489060Y-205582D01*
G54D15*
X474838Y-201138D02*
X469505Y-211138D01*
X464171Y-201138D01*
G54D15*
X449949Y-210026D02*
X452082Y-211138D01*
X454749Y-211138D01*
X457416Y-210026D01*
X457949Y-207804D01*
X457949Y-204026D01*
X456616Y-201804D01*
X453949Y-201138D01*
X451282Y-201804D01*
X449949Y-203360D01*
X449949Y-205582D01*
X457949Y-205582D01*
G54D15*
X437238Y-211138D02*
X437238Y-193360D01*
X430571Y-204471D01*
X423905Y-193360D01*
X423905Y-211138D01*
G54D15*
X417683Y-202249D02*
X415016Y-201138D01*
X411816Y-201138D01*
X409683Y-203360D01*
X409683Y-211138D01*
G54D15*
X409683Y-207804D02*
X411016Y-205582D01*
X413683Y-205138D01*
X416350Y-205582D01*
X417683Y-207804D01*
X417150Y-210026D01*
X415016Y-211138D01*
X413683Y-211138D01*
X413150Y-211138D01*
X411016Y-210026D01*
X409683Y-207804D01*
G54D15*
X400794Y-193360D02*
X400794Y-210026D01*
X399461Y-211138D01*
X398128Y-210693D01*
G54D15*
X403461Y-201138D02*
X398128Y-201138D01*
G54D15*
X391906Y-202249D02*
X389239Y-201138D01*
X386039Y-201138D01*
X383906Y-203360D01*
X383906Y-211138D01*
G54D15*
X383906Y-207804D02*
X385239Y-205582D01*
X387906Y-205138D01*
X390573Y-205582D01*
X391906Y-207804D01*
X391373Y-210026D01*
X389239Y-211138D01*
X387906Y-211138D01*
X387373Y-211138D01*
X385239Y-210026D01*
X383906Y-207804D01*
G54D15*
X377684Y-211138D02*
X377684Y-201138D01*
G54D15*
X377684Y-203360D02*
X375017Y-201138D01*
X372351Y-201138D01*
G54D15*
X366129Y-202249D02*
X363462Y-201138D01*
X360262Y-201138D01*
X358129Y-203360D01*
X358129Y-211138D01*
G54D15*
X358129Y-207804D02*
X359462Y-205582D01*
X362129Y-205138D01*
X364796Y-205582D01*
X366129Y-207804D01*
X365596Y-210026D01*
X363462Y-211138D01*
X362129Y-211138D01*
X361596Y-211138D01*
X359462Y-210026D01*
X358129Y-207804D01*
G54D15*
X351907Y-201138D02*
X343907Y-201138D01*
X351907Y-211138D01*
X343907Y-211138D01*
G54D15*
X337685Y-201138D02*
X329685Y-201138D01*
X337685Y-211138D01*
X329685Y-211138D01*
G54D15*
X315463Y-208471D02*
X315463Y-204026D01*
X316796Y-201804D01*
X319463Y-201138D01*
X322130Y-201804D01*
X323463Y-204026D01*
X323463Y-208471D01*
X322130Y-210693D01*
X319463Y-211138D01*
X316796Y-210693D01*
X315463Y-208471D01*
G54D15*
X30560Y824706D02*
X12782Y824706D01*
G54D15*
X30560Y814040D02*
X12782Y814040D01*
G54D15*
X21670Y824706D02*
X21670Y814040D01*
G54D15*
X29448Y799817D02*
X30560Y801951D01*
X30560Y804617D01*
X29448Y807284D01*
X27226Y807817D01*
X23448Y807817D01*
X21226Y806484D01*
X20560Y803817D01*
X21226Y801151D01*
X22782Y799817D01*
X25004Y799817D01*
X25004Y807817D01*
G54D15*
X30560Y793595D02*
X12782Y793595D01*
G54D15*
X30560Y787373D02*
X12782Y787373D01*
G54D15*
X27892Y773151D02*
X23448Y773151D01*
X21226Y774485D01*
X20560Y777151D01*
X21226Y779818D01*
X23448Y781151D01*
X27892Y781151D01*
X30115Y779818D01*
X30560Y777151D01*
X30115Y774485D01*
X27892Y773151D01*
G54D15*
X30560Y764263D02*
X32782Y764263D01*
X35004Y765596D01*
X35004Y766929D01*
G54D15*
X21226Y744884D02*
X20560Y747551D01*
X21226Y750218D01*
X23448Y751551D01*
X27892Y751551D01*
X30115Y750218D01*
X30560Y747551D01*
X30115Y744884D01*
G54D15*
X21670Y738662D02*
X20560Y735996D01*
X20560Y732796D01*
X22782Y730662D01*
X30560Y730662D01*
G54D15*
X27226Y730662D02*
X25004Y731996D01*
X24560Y734662D01*
X25004Y737329D01*
X27226Y738662D01*
X29448Y738129D01*
X30560Y735996D01*
X30560Y734662D01*
X30560Y734129D01*
X29448Y731996D01*
X27226Y730662D01*
G54D15*
X20560Y724440D02*
X30560Y719107D01*
X20560Y713774D01*
G54D15*
X29448Y699551D02*
X30560Y701684D01*
X30560Y704351D01*
X29448Y707018D01*
X27226Y707551D01*
X23448Y707551D01*
X21226Y706218D01*
X20560Y703551D01*
X21226Y700884D01*
X22782Y699551D01*
X25004Y699551D01*
X25004Y707551D01*
G54D15*
X30560Y678840D02*
X12782Y678840D01*
G54D15*
X23448Y678840D02*
X21226Y680174D01*
X20560Y682840D01*
X21226Y685507D01*
X23448Y686840D01*
X27892Y686840D01*
X30115Y685507D01*
X30560Y682840D01*
X30115Y680174D01*
X27892Y678840D01*
G54D15*
X20560Y672618D02*
X30560Y668618D01*
X20560Y664618D01*
X30560Y660618D01*
X20560Y657952D01*
G54D15*
X29448Y643729D02*
X30560Y645862D01*
X30560Y648529D01*
X29448Y651196D01*
X27226Y651729D01*
X23448Y651729D01*
X21226Y650396D01*
X20560Y647729D01*
X21226Y645062D01*
X22782Y643729D01*
X25004Y643729D01*
X25004Y651729D01*
G54D15*
X30560Y637507D02*
X12782Y637507D01*
G54D15*
X30560Y631285D02*
X12782Y631285D01*
G54D15*
X29448Y617063D02*
X30560Y619196D01*
X30560Y621863D01*
X29448Y624530D01*
X27226Y625063D01*
X23448Y625063D01*
X21226Y623730D01*
X20560Y621063D01*
X21226Y618396D01*
X22782Y617063D01*
X25004Y617063D01*
X25004Y625063D01*
G54D15*
X30560Y610841D02*
X20560Y610841D01*
G54D15*
X22782Y610841D02*
X20560Y608174D01*
X20560Y605508D01*
G54D15*
X29448Y599286D02*
X30560Y596620D01*
X30560Y593953D01*
X29448Y591286D01*
X27226Y591286D01*
X26115Y592620D01*
X25004Y597953D01*
X23892Y599286D01*
X21670Y599286D01*
X20560Y596620D01*
X20560Y593953D01*
X21670Y591286D01*
G54D15*
X30560Y585064D02*
X30560Y585064D01*
G54D15*
X30560Y578842D02*
X30560Y578842D01*
G54D15*
X30560Y572620D02*
X30560Y572620D01*
G54D14*
X187325Y-180975D02*
X939800Y-180975D01*
X939800Y-260350D01*
X187325Y-260350D01*
X187325Y-180975D01*
G54D16*
X2193925Y193675D02*
X2220592Y193675D01*
X2203925Y203675D01*
X2220592Y213675D01*
X2193925Y213675D01*
G54D16*
X2207258Y223008D02*
X2208925Y227008D01*
X2208925Y231808D01*
X2205592Y235008D01*
X2193925Y235008D01*
G54D16*
X2198925Y235008D02*
X2202258Y233008D01*
X2202925Y229008D01*
X2202258Y225008D01*
X2198925Y223008D01*
X2195592Y223808D01*
X2193925Y227008D01*
X2193925Y229008D01*
X2193925Y229808D01*
X2195592Y233008D01*
X2198925Y235008D01*
G54D16*
X2207925Y254341D02*
X2208925Y250341D01*
X2207925Y246341D01*
X2204592Y244341D01*
X2197925Y244341D01*
X2194592Y246341D01*
X2193925Y250341D01*
X2194592Y254341D01*
G54D16*
X2193925Y263674D02*
X2208925Y263674D01*
G54D16*
X2213925Y263674D02*
X2213925Y263674D01*
G54D16*
X2193925Y273007D02*
X2208925Y273007D01*
G54D16*
X2205592Y273007D02*
X2207925Y275007D01*
X2208925Y279007D01*
X2207925Y283007D01*
X2205592Y285007D01*
X2193925Y285007D01*
G54D16*
X2220592Y298340D02*
X2195592Y298340D01*
X2193925Y300340D01*
X2194592Y302340D01*
G54D16*
X2208925Y294340D02*
X2208925Y302340D01*
G54D16*
X2197925Y323673D02*
X2204592Y323673D01*
X2207925Y321673D01*
X2208925Y317673D01*
X2207925Y313673D01*
X2204592Y311673D01*
X2197925Y311673D01*
X2194592Y313673D01*
X2193925Y317673D01*
X2194592Y321673D01*
X2197925Y323673D01*
G54D16*
X2195592Y333006D02*
X2193925Y337006D01*
X2193925Y341006D01*
X2195592Y345006D01*
X2198925Y345006D01*
X2200592Y343006D01*
X2202258Y335006D01*
X2203925Y333006D01*
X2207258Y333006D01*
X2208925Y337006D01*
X2208925Y341006D01*
X2207258Y345006D01*
G54D16*
X2193925Y354339D02*
X2220592Y354339D01*
G54D16*
X2204592Y354339D02*
X2207925Y356339D01*
X2208925Y360339D01*
X2207925Y364339D01*
X2204592Y366339D01*
X2193925Y366339D01*
G54D16*
X2198925Y401405D02*
X2195592Y399405D01*
X2193925Y395405D01*
X2193925Y391405D01*
X2195592Y387405D01*
X2198925Y385405D01*
X2215592Y385405D01*
X2218925Y387405D01*
X2220592Y391405D01*
X2220592Y395405D01*
X2218925Y399405D01*
X2215592Y401405D01*
G54D16*
X2193925Y410738D02*
X2220592Y410738D01*
G54D16*
X2207258Y420071D02*
X2208925Y424071D01*
X2208925Y428871D01*
X2205592Y432071D01*
X2193925Y432071D01*
G54D16*
X2198925Y432071D02*
X2202258Y430071D01*
X2202925Y426071D01*
X2202258Y422071D01*
X2198925Y420071D01*
X2195592Y420871D01*
X2193925Y424071D01*
X2193925Y426071D01*
X2193925Y426871D01*
X2195592Y430071D01*
X2198925Y432071D01*
G54D16*
X2195592Y441404D02*
X2193925Y445404D01*
X2193925Y449404D01*
X2195592Y453404D01*
X2198925Y453404D01*
X2200592Y451404D01*
X2202258Y443404D01*
X2203925Y441404D01*
X2207258Y441404D01*
X2208925Y445404D01*
X2208925Y449404D01*
X2207258Y453404D01*
G54D16*
X2195592Y462737D02*
X2193925Y466737D01*
X2193925Y470737D01*
X2195592Y474737D01*
X2198925Y474737D01*
X2200592Y472737D01*
X2202258Y464737D01*
X2203925Y462737D01*
X2207258Y462737D01*
X2208925Y466737D01*
X2208925Y470737D01*
X2207258Y474737D01*
G54D16*
X2193925Y484070D02*
X2208925Y484070D01*
G54D16*
X2213925Y484070D02*
X2213925Y484070D01*
G54D16*
X2207925Y503403D02*
X2208925Y499403D01*
X2207925Y495403D01*
X2204592Y493403D01*
X2197925Y493403D01*
X2194592Y495403D01*
X2193925Y499403D01*
X2194592Y503403D01*
G54D16*
X2207258Y530469D02*
X2203925Y536469D01*
X2200592Y538469D01*
X2193925Y538469D01*
G54D16*
X2193925Y522469D02*
X2220592Y522469D01*
X2220592Y532469D01*
X2218925Y536469D01*
X2215592Y538469D01*
X2212258Y538469D01*
X2208925Y536469D01*
X2207258Y532469D01*
X2207258Y522469D01*
G54D16*
X2195592Y559802D02*
X2193925Y556602D01*
X2193925Y552602D01*
X2195592Y548602D01*
X2198925Y547802D01*
X2204592Y547802D01*
X2207925Y549802D01*
X2208925Y553802D01*
X2207925Y557802D01*
X2205592Y559802D01*
X2202258Y559802D01*
X2202258Y547802D01*
G54D16*
X2193925Y569135D02*
X2220592Y569135D01*
G54D16*
X2197925Y590468D02*
X2204592Y590468D01*
X2207925Y588468D01*
X2208925Y584468D01*
X2207925Y580468D01*
X2204592Y578468D01*
X2197925Y578468D01*
X2194592Y580468D01*
X2193925Y584468D01*
X2194592Y588468D01*
X2197925Y590468D01*
G54D16*
X2207258Y599801D02*
X2208925Y603801D01*
X2208925Y608601D01*
X2205592Y611801D01*
X2193925Y611801D01*
G54D16*
X2198925Y611801D02*
X2202258Y609801D01*
X2202925Y605801D01*
X2202258Y601801D01*
X2198925Y599801D01*
X2195592Y600601D01*
X2193925Y603801D01*
X2193925Y605801D01*
X2193925Y606601D01*
X2195592Y609801D01*
X2198925Y611801D01*
G54D16*
X2193925Y633134D02*
X2220592Y633134D01*
G54D16*
X2204592Y633134D02*
X2207925Y631134D01*
X2208925Y627134D01*
X2207925Y623134D01*
X2204592Y621134D01*
X2197925Y621134D01*
X2194592Y623134D01*
X2193925Y627134D01*
X2194592Y631134D01*
X2197925Y633134D01*
G54D16*
X2195592Y654467D02*
X2193925Y651267D01*
X2193925Y647267D01*
X2195592Y643267D01*
X2198925Y642467D01*
X2204592Y642467D01*
X2207925Y644467D01*
X2208925Y648467D01*
X2207925Y652467D01*
X2205592Y654467D01*
X2202258Y654467D01*
X2202258Y642467D01*
G54D16*
X2193925Y675800D02*
X2220592Y675800D01*
G54D16*
X2204592Y675800D02*
X2207925Y673800D01*
X2208925Y669800D01*
X2207925Y665800D01*
X2204592Y663800D01*
X2197925Y663800D01*
X2194592Y665800D01*
X2193925Y669800D01*
X2194592Y673800D01*
X2197925Y675800D01*
G54D17*
X2168525Y358775D02*
X2181858Y358775D01*
X2181858Y363775D01*
X2181025Y365775D01*
X2179358Y366775D01*
X2177692Y366775D01*
X2176025Y365775D01*
X2175192Y363775D01*
X2174358Y365775D01*
X2172692Y366775D01*
X2171025Y366775D01*
X2169358Y365775D01*
X2168525Y363775D01*
X2168525Y358775D01*
G54D17*
X2175192Y358775D02*
X2175192Y363775D01*
G54D17*
X2170525Y377442D02*
X2173858Y377442D01*
X2175525Y376442D01*
X2176025Y374442D01*
X2175525Y372442D01*
X2173858Y371442D01*
X2170525Y371442D01*
X2168858Y372442D01*
X2168525Y374442D01*
X2168858Y376442D01*
X2170525Y377442D01*
G54D17*
X2175192Y382109D02*
X2176025Y384109D01*
X2176025Y386509D01*
X2174358Y388109D01*
X2168525Y388109D01*
G54D17*
X2171025Y388109D02*
X2172692Y387109D01*
X2173025Y385109D01*
X2172692Y383109D01*
X2171025Y382109D01*
X2169358Y382509D01*
X2168525Y384109D01*
X2168525Y385109D01*
X2168525Y385509D01*
X2169358Y387109D01*
X2171025Y388109D01*
G54D17*
X2168525Y392776D02*
X2176025Y392776D01*
G54D17*
X2174358Y392776D02*
X2176025Y394776D01*
X2176025Y396776D01*
G54D17*
X2168525Y407443D02*
X2181858Y407443D01*
G54D17*
X2173858Y407443D02*
X2175525Y406443D01*
X2176025Y404443D01*
X2175525Y402443D01*
X2173858Y401443D01*
X2170525Y401443D01*
X2168858Y402443D01*
X2168525Y404443D01*
X2168858Y406443D01*
X2170525Y407443D01*
G54D17*
X2175192Y420977D02*
X2173525Y423977D01*
X2171858Y424977D01*
X2168525Y424977D01*
G54D17*
X2168525Y416977D02*
X2181858Y416977D01*
X2181858Y421977D01*
X2181025Y423977D01*
X2179358Y424977D01*
X2177692Y424977D01*
X2176025Y423977D01*
X2175192Y421977D01*
X2175192Y416977D01*
G54D17*
X2169358Y435644D02*
X2168525Y434044D01*
X2168525Y432044D01*
X2169358Y430044D01*
X2171025Y429644D01*
X2173858Y429644D01*
X2175525Y430644D01*
X2176025Y432644D01*
X2175525Y434644D01*
X2174358Y435644D01*
X2172692Y435644D01*
X2172692Y429644D01*
G54D17*
X2176025Y440311D02*
X2168525Y444311D01*
X2176025Y448311D01*
G54D17*
X2168525Y452978D02*
X2176025Y452978D01*
G54D17*
X2178525Y452978D02*
X2178525Y452978D01*
G54D17*
X2169358Y457645D02*
X2168525Y459645D01*
X2168525Y461645D01*
X2169358Y463645D01*
X2171025Y463645D01*
X2171858Y462645D01*
X2172692Y458645D01*
X2173525Y457645D01*
X2175192Y457645D01*
X2176025Y459645D01*
X2176025Y461645D01*
X2175192Y463645D01*
G54D17*
X2168525Y468312D02*
X2176025Y468312D01*
G54D17*
X2178525Y468312D02*
X2178525Y468312D01*
G54D17*
X2170525Y478979D02*
X2173858Y478979D01*
X2175525Y477979D01*
X2176025Y475979D01*
X2175525Y473979D01*
X2173858Y472979D01*
X2170525Y472979D01*
X2168858Y473979D01*
X2168525Y475979D01*
X2168858Y477979D01*
X2170525Y478979D01*
G54D17*
X2168525Y483646D02*
X2176025Y483646D01*
G54D17*
X2174358Y483646D02*
X2175525Y484646D01*
X2176025Y486646D01*
X2175525Y488646D01*
X2174358Y489646D01*
X2168525Y489646D01*
G54D17*
X2176025Y499180D02*
X2168525Y503180D01*
X2176025Y507180D01*
G54D17*
X2176858Y511847D02*
X2181858Y516847D01*
X2168525Y516847D01*
G54D17*
X2168525Y521514D02*
X2168525Y521514D01*
G54D17*
X2168525Y534181D02*
X2168525Y526181D01*
X2169358Y526181D01*
X2171025Y527181D01*
X2176025Y533181D01*
X2177692Y534181D01*
X2179358Y534181D01*
X2181025Y533181D01*
X2181858Y531181D01*
X2181858Y529181D01*
X2181025Y527181D01*
X2179358Y526181D01*
G54D17*
X2175525Y543848D02*
X2176025Y541848D01*
X2175525Y539848D01*
X2173858Y538848D01*
X2170525Y538848D01*
X2168858Y539848D01*
X2168525Y541848D01*
X2168858Y543848D01*
M02*
