%FSLAX34Y34*%
%MOMM*%
%LNSOLDERMASK_TOP*%
G71*
G01*
%ADD10R,0.800X2.200*%
%ADD11R,2.200X0.800*%
%ADD12R,2.400X0.840*%
%ADD13R,0.840X2.400*%
%ADD14R,3.400X1.400*%
%ADD15R,1.400X3.400*%
%ADD16R,1.420X1.220*%
%ADD17R,2.900X1.400*%
%ADD18C,2.200*%
%ADD19C,2.300*%
%ADD20R,6.700X6.700*%
%ADD21R,2.740X2.740*%
%ADD22C,1.600*%
%ADD23R,2.100X2.000*%
%ADD24R,2.000X2.100*%
%ADD25C,2.150*%
%ADD26C,3.400*%
%ADD27C,2.100*%
%ADD28R,2.200X5.900*%
%ADD29C,2.600*%
%ADD30C,2.200*%
%ADD31C,1.200*%
%ADD32C,3.000*%
%LPD*%
X1536700Y337344D02*
G54D10*
D03*
X1549400Y337344D02*
G54D10*
D03*
X1562100Y337344D02*
G54D10*
D03*
X1574800Y337344D02*
G54D10*
D03*
X1587500Y337344D02*
G54D10*
D03*
X1600200Y337344D02*
G54D10*
D03*
X1612900Y337344D02*
G54D10*
D03*
X1625600Y337344D02*
G54D10*
D03*
X1638300Y337344D02*
G54D10*
D03*
X1651000Y337344D02*
G54D10*
D03*
X1663700Y337344D02*
G54D10*
D03*
X1681700Y319344D02*
G54D11*
D03*
X1681700Y306644D02*
G54D11*
D03*
X1681700Y293944D02*
G54D11*
D03*
X1681700Y281244D02*
G54D11*
D03*
X1681700Y268544D02*
G54D11*
D03*
X1681700Y255844D02*
G54D11*
D03*
X1681700Y243144D02*
G54D11*
D03*
X1681700Y230444D02*
G54D11*
D03*
X1681700Y217744D02*
G54D11*
D03*
X1681700Y205044D02*
G54D11*
D03*
X1681700Y192344D02*
G54D11*
D03*
X1681700Y179644D02*
G54D11*
D03*
X1681700Y166944D02*
G54D11*
D03*
X1681700Y154244D02*
G54D11*
D03*
X1681700Y141544D02*
G54D11*
D03*
X1681700Y128844D02*
G54D11*
D03*
X1681700Y116144D02*
G54D11*
D03*
X1681700Y103444D02*
G54D11*
D03*
X1681700Y90744D02*
G54D11*
D03*
X1681700Y78044D02*
G54D11*
D03*
X1681700Y65344D02*
G54D11*
D03*
X1663700Y47344D02*
G54D10*
D03*
X1651000Y47344D02*
G54D10*
D03*
X1638300Y47344D02*
G54D10*
D03*
X1625600Y47344D02*
G54D10*
D03*
X1612900Y47344D02*
G54D10*
D03*
X1600200Y47344D02*
G54D10*
D03*
X1587500Y47344D02*
G54D10*
D03*
X1574800Y47344D02*
G54D10*
D03*
X1562100Y47344D02*
G54D10*
D03*
X1549400Y47344D02*
G54D10*
D03*
X1536700Y47344D02*
G54D10*
D03*
X1524000Y47344D02*
G54D10*
D03*
X1511300Y47344D02*
G54D10*
D03*
X1498600Y47344D02*
G54D10*
D03*
X1485900Y47344D02*
G54D10*
D03*
X1473200Y47344D02*
G54D10*
D03*
X1460500Y47344D02*
G54D10*
D03*
X1447800Y47344D02*
G54D10*
D03*
X1435100Y47344D02*
G54D10*
D03*
X1422400Y47344D02*
G54D10*
D03*
X1409700Y47344D02*
G54D10*
D03*
X1391700Y65344D02*
G54D11*
D03*
X1391700Y78044D02*
G54D11*
D03*
X1391700Y90744D02*
G54D11*
D03*
X1391700Y103444D02*
G54D11*
D03*
X1391700Y116144D02*
G54D11*
D03*
X1391700Y128844D02*
G54D11*
D03*
X1391700Y141544D02*
G54D11*
D03*
X1391700Y154244D02*
G54D11*
D03*
X1391700Y166944D02*
G54D11*
D03*
X1391700Y179644D02*
G54D11*
D03*
X1391700Y192344D02*
G54D11*
D03*
X1391700Y205044D02*
G54D11*
D03*
X1391700Y217744D02*
G54D11*
D03*
X1391700Y230444D02*
G54D11*
D03*
X1391700Y243144D02*
G54D11*
D03*
X1391700Y255844D02*
G54D11*
D03*
X1391700Y268544D02*
G54D11*
D03*
X1391700Y281244D02*
G54D11*
D03*
X1391700Y293944D02*
G54D11*
D03*
X1391700Y306644D02*
G54D11*
D03*
X1391700Y319344D02*
G54D11*
D03*
X1409700Y337344D02*
G54D10*
D03*
X1422400Y337344D02*
G54D10*
D03*
X1435100Y337344D02*
G54D10*
D03*
X1447800Y337344D02*
G54D10*
D03*
X1460500Y337344D02*
G54D10*
D03*
X1473200Y337344D02*
G54D10*
D03*
X1485900Y337344D02*
G54D10*
D03*
X1498600Y337344D02*
G54D10*
D03*
X1511300Y337344D02*
G54D10*
D03*
X1524000Y337344D02*
G54D10*
D03*
X1098512Y617500D02*
G54D11*
D03*
X1098512Y604800D02*
G54D11*
D03*
X1098512Y592100D02*
G54D11*
D03*
X1098512Y579400D02*
G54D11*
D03*
X1098512Y566700D02*
G54D11*
D03*
X1098512Y554000D02*
G54D11*
D03*
X1116012Y536500D02*
G54D10*
D03*
X1128712Y536500D02*
G54D10*
D03*
X1141412Y536500D02*
G54D10*
D03*
X1154112Y536500D02*
G54D10*
D03*
X1166812Y536500D02*
G54D10*
D03*
X1179512Y536500D02*
G54D10*
D03*
X1192212Y536500D02*
G54D10*
D03*
X1204912Y536500D02*
G54D10*
D03*
X1217612Y536500D02*
G54D10*
D03*
X1230312Y536500D02*
G54D10*
D03*
X1243012Y536500D02*
G54D10*
D03*
X1260512Y554000D02*
G54D11*
D03*
X1260512Y566700D02*
G54D11*
D03*
X1260512Y579400D02*
G54D11*
D03*
X1260512Y592100D02*
G54D11*
D03*
X1260512Y604800D02*
G54D11*
D03*
X1260513Y617500D02*
G54D11*
D03*
X1260513Y630200D02*
G54D11*
D03*
X1260513Y642900D02*
G54D11*
D03*
X1260513Y655600D02*
G54D11*
D03*
X1260513Y668300D02*
G54D11*
D03*
X1260512Y681000D02*
G54D11*
D03*
X1243013Y698500D02*
G54D10*
D03*
X1230312Y698500D02*
G54D10*
D03*
X1217612Y698500D02*
G54D10*
D03*
X1204912Y698500D02*
G54D10*
D03*
X1192212Y698500D02*
G54D10*
D03*
X1179512Y698500D02*
G54D10*
D03*
X1166812Y698500D02*
G54D10*
D03*
X1154112Y698500D02*
G54D10*
D03*
X1141412Y698500D02*
G54D10*
D03*
X1128712Y698500D02*
G54D10*
D03*
X1116012Y698500D02*
G54D10*
D03*
X1098512Y681000D02*
G54D11*
D03*
X1098512Y668300D02*
G54D11*
D03*
X1098512Y655600D02*
G54D11*
D03*
X1098512Y642900D02*
G54D11*
D03*
X1098512Y630200D02*
G54D11*
D03*
X911225Y698500D02*
G54D10*
D03*
X898525Y698500D02*
G54D10*
D03*
X885825Y698500D02*
G54D10*
D03*
X873125Y698500D02*
G54D10*
D03*
X860425Y698500D02*
G54D10*
D03*
X847725Y698500D02*
G54D10*
D03*
X830225Y681000D02*
G54D11*
D03*
X830225Y668300D02*
G54D11*
D03*
X830225Y655600D02*
G54D11*
D03*
X830225Y642900D02*
G54D11*
D03*
X830225Y630200D02*
G54D11*
D03*
X830225Y617500D02*
G54D11*
D03*
X830225Y604800D02*
G54D11*
D03*
X830225Y592100D02*
G54D11*
D03*
X830225Y579400D02*
G54D11*
D03*
X830225Y566700D02*
G54D11*
D03*
X830225Y554000D02*
G54D11*
D03*
X847725Y536500D02*
G54D10*
D03*
X860425Y536500D02*
G54D10*
D03*
X873125Y536500D02*
G54D10*
D03*
X885825Y536500D02*
G54D10*
D03*
X898525Y536500D02*
G54D10*
D03*
X911225Y536500D02*
G54D10*
D03*
X923925Y536500D02*
G54D10*
D03*
X936625Y536500D02*
G54D10*
D03*
X949325Y536500D02*
G54D10*
D03*
X962025Y536500D02*
G54D10*
D03*
X974725Y536500D02*
G54D10*
D03*
X992225Y554000D02*
G54D11*
D03*
X992225Y566700D02*
G54D11*
D03*
X992225Y579400D02*
G54D11*
D03*
X992225Y592100D02*
G54D11*
D03*
X992225Y604800D02*
G54D11*
D03*
X992225Y617500D02*
G54D11*
D03*
X992225Y630200D02*
G54D11*
D03*
X992225Y642900D02*
G54D11*
D03*
X992225Y655600D02*
G54D11*
D03*
X992225Y668300D02*
G54D11*
D03*
X992225Y681000D02*
G54D11*
D03*
X974725Y698500D02*
G54D10*
D03*
X962025Y698500D02*
G54D10*
D03*
X949325Y698500D02*
G54D10*
D03*
X936625Y698500D02*
G54D10*
D03*
X923925Y698500D02*
G54D10*
D03*
X800138Y345244D02*
G54D11*
D03*
X800138Y357944D02*
G54D11*
D03*
X800138Y370644D02*
G54D11*
D03*
X800138Y383344D02*
G54D11*
D03*
X800138Y396044D02*
G54D11*
D03*
X800138Y408744D02*
G54D11*
D03*
X782638Y426244D02*
G54D10*
D03*
X769938Y426244D02*
G54D10*
D03*
X757238Y426244D02*
G54D10*
D03*
X744538Y426244D02*
G54D10*
D03*
X731838Y426244D02*
G54D10*
D03*
X719138Y426244D02*
G54D10*
D03*
X706438Y426244D02*
G54D10*
D03*
X693738Y426244D02*
G54D10*
D03*
X681038Y426244D02*
G54D10*
D03*
X668338Y426244D02*
G54D10*
D03*
X655638Y426244D02*
G54D10*
D03*
X638138Y408744D02*
G54D11*
D03*
X638138Y396044D02*
G54D11*
D03*
X638138Y383344D02*
G54D11*
D03*
X638138Y370644D02*
G54D11*
D03*
X638138Y357944D02*
G54D11*
D03*
X638138Y345244D02*
G54D11*
D03*
X638138Y332544D02*
G54D11*
D03*
X638138Y319844D02*
G54D11*
D03*
X638138Y307144D02*
G54D11*
D03*
X638138Y294444D02*
G54D11*
D03*
X638138Y281744D02*
G54D11*
D03*
X655638Y264244D02*
G54D10*
D03*
X668338Y264244D02*
G54D10*
D03*
X681038Y264244D02*
G54D10*
D03*
G36*
X689737Y275244D02*
X697737Y275244D01*
X697738Y253244D01*
X689738Y253244D01*
X689737Y275244D01*
G37*
G36*
X702437Y275244D02*
X710437Y275244D01*
X710438Y253244D01*
X702438Y253244D01*
X702437Y275244D01*
G37*
X719138Y264244D02*
G54D10*
D03*
X731838Y264244D02*
G54D10*
D03*
X744538Y264244D02*
G54D10*
D03*
X757238Y264244D02*
G54D10*
D03*
X769938Y264244D02*
G54D10*
D03*
X782638Y264244D02*
G54D10*
D03*
X800138Y281744D02*
G54D11*
D03*
X800138Y294444D02*
G54D11*
D03*
X800138Y307144D02*
G54D11*
D03*
X800138Y319844D02*
G54D11*
D03*
X800138Y332544D02*
G54D11*
D03*
X494544Y344450D02*
G54D11*
D03*
X494544Y357150D02*
G54D11*
D03*
X494544Y369850D02*
G54D11*
D03*
X494544Y382550D02*
G54D11*
D03*
X494544Y395250D02*
G54D11*
D03*
X494544Y407950D02*
G54D11*
D03*
X477044Y425450D02*
G54D10*
D03*
X464344Y425450D02*
G54D10*
D03*
X451644Y425450D02*
G54D10*
D03*
X438944Y425450D02*
G54D10*
D03*
X426244Y425450D02*
G54D10*
D03*
X413544Y425450D02*
G54D10*
D03*
X400844Y425450D02*
G54D10*
D03*
X388144Y425450D02*
G54D10*
D03*
X375444Y425450D02*
G54D10*
D03*
X362744Y425450D02*
G54D10*
D03*
X350044Y425450D02*
G54D10*
D03*
X332544Y407950D02*
G54D11*
D03*
X332544Y395250D02*
G54D11*
D03*
X332544Y382550D02*
G54D11*
D03*
X332544Y369850D02*
G54D11*
D03*
X332544Y357150D02*
G54D11*
D03*
X332544Y344450D02*
G54D11*
D03*
X332544Y331750D02*
G54D11*
D03*
X332544Y319050D02*
G54D11*
D03*
X332544Y306350D02*
G54D11*
D03*
X332544Y293650D02*
G54D11*
D03*
X332544Y280950D02*
G54D11*
D03*
X350044Y263450D02*
G54D10*
D03*
X362744Y263450D02*
G54D10*
D03*
X375444Y263450D02*
G54D10*
D03*
X388144Y263450D02*
G54D10*
D03*
X400844Y263450D02*
G54D10*
D03*
X413544Y263450D02*
G54D10*
D03*
X426244Y263450D02*
G54D10*
D03*
X438944Y263450D02*
G54D10*
D03*
X451644Y263450D02*
G54D10*
D03*
X464344Y263450D02*
G54D10*
D03*
X477044Y263450D02*
G54D10*
D03*
X494544Y280950D02*
G54D11*
D03*
X494544Y293650D02*
G54D11*
D03*
X494544Y306350D02*
G54D11*
D03*
X494544Y319050D02*
G54D11*
D03*
X494544Y331750D02*
G54D11*
D03*
X395150Y572950D02*
G54D11*
D03*
X395150Y560250D02*
G54D11*
D03*
X395150Y547550D02*
G54D11*
D03*
X412750Y529950D02*
G54D10*
D03*
X425450Y529950D02*
G54D10*
D03*
X438150Y529950D02*
G54D10*
D03*
X450850Y529950D02*
G54D10*
D03*
X463550Y529950D02*
G54D10*
D03*
X481150Y547550D02*
G54D11*
D03*
X481150Y560250D02*
G54D11*
D03*
X481150Y572950D02*
G54D11*
D03*
X481150Y585650D02*
G54D11*
D03*
X481150Y598350D02*
G54D11*
D03*
X463550Y615950D02*
G54D10*
D03*
X450850Y615950D02*
G54D10*
D03*
X438150Y615950D02*
G54D10*
D03*
X425450Y615950D02*
G54D10*
D03*
X412750Y615950D02*
G54D10*
D03*
X395150Y598350D02*
G54D11*
D03*
X395150Y585650D02*
G54D11*
D03*
X615950Y-103856D02*
G54D10*
D03*
X628650Y-103856D02*
G54D10*
D03*
X641350Y-103856D02*
G54D10*
D03*
X654050Y-103856D02*
G54D10*
D03*
X666750Y-103856D02*
G54D10*
D03*
G36*
X675450Y-92856D02*
X683450Y-92856D01*
X683450Y-114856D01*
X675450Y-114856D01*
X675450Y-92856D01*
G37*
X692150Y-103856D02*
G54D10*
D03*
X704850Y-103856D02*
G54D10*
D03*
X717550Y-103856D02*
G54D10*
D03*
X734950Y-86456D02*
G54D11*
D03*
X734950Y-73756D02*
G54D11*
D03*
X734950Y-61056D02*
G54D11*
D03*
X734950Y-48356D02*
G54D11*
D03*
X734950Y-35656D02*
G54D11*
D03*
X734950Y-22956D02*
G54D11*
D03*
X734950Y-10256D02*
G54D11*
D03*
X734950Y2444D02*
G54D11*
D03*
X734950Y15144D02*
G54D11*
D03*
X734950Y27844D02*
G54D11*
D03*
X734950Y40544D02*
G54D11*
D03*
X734950Y53244D02*
G54D11*
D03*
X734950Y65944D02*
G54D11*
D03*
X734950Y78644D02*
G54D11*
D03*
X734950Y91344D02*
G54D11*
D03*
X734950Y104044D02*
G54D11*
D03*
X734950Y116744D02*
G54D11*
D03*
X717550Y134144D02*
G54D10*
D03*
X704850Y134144D02*
G54D10*
D03*
X692150Y134144D02*
G54D10*
D03*
X679450Y134144D02*
G54D10*
D03*
X666750Y134144D02*
G54D10*
D03*
X654050Y134144D02*
G54D10*
D03*
X641350Y134144D02*
G54D10*
D03*
X628650Y134144D02*
G54D10*
D03*
X615950Y134144D02*
G54D10*
D03*
G36*
X599250Y145144D02*
X607250Y145144D01*
X607250Y123144D01*
X599250Y123144D01*
X599250Y145144D01*
G37*
X590550Y134144D02*
G54D10*
D03*
X577850Y134144D02*
G54D10*
D03*
X565150Y134144D02*
G54D10*
D03*
X552450Y134144D02*
G54D10*
D03*
X539750Y134144D02*
G54D10*
D03*
X527050Y134144D02*
G54D10*
D03*
X514350Y134144D02*
G54D10*
D03*
X496950Y116744D02*
G54D11*
D03*
X496950Y104044D02*
G54D11*
D03*
X496950Y91344D02*
G54D11*
D03*
X496950Y78644D02*
G54D11*
D03*
X496950Y65944D02*
G54D11*
D03*
X496950Y53244D02*
G54D11*
D03*
X496950Y40544D02*
G54D11*
D03*
X496950Y27844D02*
G54D11*
D03*
X496950Y15144D02*
G54D11*
D03*
X496950Y2444D02*
G54D11*
D03*
X496950Y-10256D02*
G54D11*
D03*
X496950Y-22956D02*
G54D11*
D03*
X496950Y-35656D02*
G54D11*
D03*
X496950Y-48356D02*
G54D11*
D03*
X496950Y-61056D02*
G54D11*
D03*
X496950Y-73756D02*
G54D11*
D03*
X496950Y-86456D02*
G54D11*
D03*
X514350Y-103856D02*
G54D10*
D03*
G36*
X523050Y-92856D02*
X531050Y-92856D01*
X531050Y-114856D01*
X523050Y-114856D01*
X523050Y-92856D01*
G37*
X539750Y-103856D02*
G54D10*
D03*
X552450Y-103856D02*
G54D10*
D03*
X565150Y-103856D02*
G54D10*
D03*
X577850Y-103856D02*
G54D10*
D03*
X590550Y-103856D02*
G54D10*
D03*
X603250Y-103856D02*
G54D10*
D03*
X265250Y77650D02*
G54D12*
D03*
X265250Y90350D02*
G54D12*
D03*
X265250Y103050D02*
G54D12*
D03*
X247650Y120650D02*
G54D13*
D03*
X234950Y120650D02*
G54D13*
D03*
X222250Y120650D02*
G54D13*
D03*
X209550Y120650D02*
G54D13*
D03*
X196850Y120650D02*
G54D13*
D03*
X179250Y103050D02*
G54D12*
D03*
X179250Y90350D02*
G54D12*
D03*
X179250Y77650D02*
G54D12*
D03*
X179250Y64950D02*
G54D12*
D03*
X179250Y52250D02*
G54D12*
D03*
X196850Y34650D02*
G54D13*
D03*
X209550Y34650D02*
G54D13*
D03*
X222250Y34650D02*
G54D13*
D03*
X234950Y34650D02*
G54D13*
D03*
X247650Y34650D02*
G54D13*
D03*
X265250Y52250D02*
G54D12*
D03*
X265250Y64950D02*
G54D12*
D03*
X165100Y341675D02*
G54D10*
D03*
X177700Y341675D02*
G54D10*
D03*
X194700Y369275D02*
G54D11*
D03*
X194700Y381975D02*
G54D11*
D03*
X194700Y394675D02*
G54D11*
D03*
X194700Y407375D02*
G54D11*
D03*
X194700Y420075D02*
G54D11*
D03*
X177700Y447675D02*
G54D10*
D03*
X165100Y447675D02*
G54D10*
D03*
X152300Y447675D02*
G54D10*
D03*
X139700Y447675D02*
G54D10*
D03*
X122700Y420075D02*
G54D11*
D03*
X122700Y407375D02*
G54D11*
D03*
X122700Y394675D02*
G54D11*
D03*
X122700Y381975D02*
G54D11*
D03*
X122700Y369275D02*
G54D11*
D03*
X139700Y341675D02*
G54D10*
D03*
G36*
X148300Y352675D02*
X156300Y352675D01*
X156300Y330675D01*
X148300Y330675D01*
X148300Y352675D01*
G37*
X1690688Y539750D02*
G54D13*
D03*
X1677988Y539750D02*
G54D13*
D03*
X1665288Y539750D02*
G54D13*
D03*
X1652588Y539750D02*
G54D13*
D03*
X1634688Y521850D02*
G54D12*
D03*
X1634688Y509150D02*
G54D12*
D03*
X1634688Y496450D02*
G54D12*
D03*
X1634688Y483750D02*
G54D12*
D03*
X1634688Y471050D02*
G54D12*
D03*
X1634688Y458350D02*
G54D12*
D03*
X1634688Y445650D02*
G54D12*
D03*
X1652588Y427750D02*
G54D13*
D03*
X1665288Y427750D02*
G54D13*
D03*
X1677988Y427750D02*
G54D13*
D03*
X1690688Y427750D02*
G54D13*
D03*
X1703388Y427750D02*
G54D13*
D03*
X1716088Y427750D02*
G54D13*
D03*
X1728788Y427750D02*
G54D13*
D03*
X1746688Y445650D02*
G54D12*
D03*
X1746688Y458350D02*
G54D12*
D03*
X1746688Y471050D02*
G54D12*
D03*
X1746688Y483750D02*
G54D12*
D03*
X1746688Y496450D02*
G54D12*
D03*
X1746688Y509150D02*
G54D12*
D03*
X1746688Y521850D02*
G54D12*
D03*
X1728788Y539750D02*
G54D13*
D03*
X1716088Y539750D02*
G54D13*
D03*
X1703388Y539750D02*
G54D13*
D03*
X1159709Y458540D02*
G54D11*
D03*
X1159709Y471240D02*
G54D11*
D03*
X1159709Y483940D02*
G54D11*
D03*
X1159709Y496640D02*
G54D11*
D03*
X1109709Y496640D02*
G54D11*
D03*
X1109709Y483940D02*
G54D11*
D03*
X1109709Y471240D02*
G54D11*
D03*
X1109709Y458540D02*
G54D11*
D03*
X675481Y548488D02*
G54D10*
D03*
X688181Y548488D02*
G54D10*
D03*
X700881Y548488D02*
G54D10*
D03*
X713581Y548488D02*
G54D10*
D03*
X713581Y598488D02*
G54D10*
D03*
X700881Y598488D02*
G54D10*
D03*
X688181Y598488D02*
G54D10*
D03*
X675481Y598488D02*
G54D10*
D03*
X1587500Y-42862D02*
G54D10*
D03*
X1574800Y-42862D02*
G54D10*
D03*
X1562100Y-42862D02*
G54D10*
D03*
X1549400Y-42862D02*
G54D10*
D03*
X1536700Y-42862D02*
G54D10*
D03*
X1524000Y-42862D02*
G54D10*
D03*
X1511300Y-42862D02*
G54D10*
D03*
X1498600Y-42862D02*
G54D10*
D03*
X1485900Y-42862D02*
G54D10*
D03*
X1473200Y-42862D02*
G54D10*
D03*
X1473200Y-141212D02*
G54D10*
D03*
X1485900Y-141212D02*
G54D10*
D03*
X1498600Y-141212D02*
G54D10*
D03*
X1511300Y-141212D02*
G54D10*
D03*
X1524000Y-141212D02*
G54D10*
D03*
X1536700Y-141212D02*
G54D10*
D03*
X1549400Y-141212D02*
G54D10*
D03*
X1562100Y-141212D02*
G54D10*
D03*
X1574800Y-141212D02*
G54D10*
D03*
X1587500Y-141212D02*
G54D10*
D03*
X1830388Y-160106D02*
G54D10*
D03*
X1843088Y-160106D02*
G54D10*
D03*
X1855788Y-160106D02*
G54D10*
D03*
X1868488Y-160106D02*
G54D10*
D03*
X1881188Y-160106D02*
G54D10*
D03*
X1931988Y-160106D02*
G54D10*
D03*
X1944688Y-160106D02*
G54D10*
D03*
X1957388Y-160106D02*
G54D10*
D03*
X1970088Y-160106D02*
G54D10*
D03*
X1982788Y-160106D02*
G54D10*
D03*
X1982788Y-88106D02*
G54D10*
D03*
X1970088Y-88106D02*
G54D10*
D03*
X1957388Y-88106D02*
G54D10*
D03*
X1944688Y-88106D02*
G54D10*
D03*
X1931988Y-88106D02*
G54D10*
D03*
X1881188Y-88106D02*
G54D10*
D03*
X1868488Y-88106D02*
G54D10*
D03*
X1855788Y-88106D02*
G54D10*
D03*
X1843088Y-88106D02*
G54D10*
D03*
X1830388Y-88106D02*
G54D10*
D03*
X1830388Y-47394D02*
G54D10*
D03*
X1843088Y-47394D02*
G54D10*
D03*
X1855788Y-47394D02*
G54D10*
D03*
X1868488Y-47394D02*
G54D10*
D03*
X1881188Y-47394D02*
G54D10*
D03*
X1931988Y-47394D02*
G54D10*
D03*
X1944688Y-47394D02*
G54D10*
D03*
X1957388Y-47394D02*
G54D10*
D03*
X1970088Y-47394D02*
G54D10*
D03*
X1982788Y-47394D02*
G54D10*
D03*
X1982788Y24606D02*
G54D10*
D03*
X1970088Y24606D02*
G54D10*
D03*
X1957388Y24606D02*
G54D10*
D03*
X1944688Y24606D02*
G54D10*
D03*
X1931988Y24606D02*
G54D10*
D03*
X1881188Y24606D02*
G54D10*
D03*
X1868488Y24606D02*
G54D10*
D03*
X1855788Y24606D02*
G54D10*
D03*
X1843088Y24606D02*
G54D10*
D03*
X1830388Y24606D02*
G54D10*
D03*
X1830388Y66906D02*
G54D10*
D03*
X1843088Y66906D02*
G54D10*
D03*
X1855788Y66906D02*
G54D10*
D03*
X1868488Y66906D02*
G54D10*
D03*
X1881188Y66906D02*
G54D10*
D03*
X1931988Y66906D02*
G54D10*
D03*
X1944688Y66906D02*
G54D10*
D03*
X1957388Y66906D02*
G54D10*
D03*
X1970088Y66906D02*
G54D10*
D03*
X1982788Y66906D02*
G54D10*
D03*
X1982788Y138906D02*
G54D10*
D03*
X1970088Y138906D02*
G54D10*
D03*
X1957388Y138906D02*
G54D10*
D03*
X1944688Y138906D02*
G54D10*
D03*
X1931988Y138906D02*
G54D10*
D03*
X1881188Y138906D02*
G54D10*
D03*
X1868488Y138906D02*
G54D10*
D03*
X1855788Y138906D02*
G54D10*
D03*
X1843088Y138906D02*
G54D10*
D03*
X1830388Y138906D02*
G54D10*
D03*
X1830388Y182000D02*
G54D10*
D03*
X1843088Y182000D02*
G54D10*
D03*
X1855788Y182000D02*
G54D10*
D03*
X1868488Y182000D02*
G54D10*
D03*
X1881188Y182000D02*
G54D10*
D03*
X1931988Y182000D02*
G54D10*
D03*
X1944688Y182000D02*
G54D10*
D03*
X1957388Y182000D02*
G54D10*
D03*
X1970088Y182000D02*
G54D10*
D03*
X1982788Y182000D02*
G54D10*
D03*
X1982788Y254000D02*
G54D10*
D03*
X1970088Y254000D02*
G54D10*
D03*
X1957388Y254000D02*
G54D10*
D03*
X1944688Y254000D02*
G54D10*
D03*
X1931988Y254000D02*
G54D10*
D03*
X1881188Y254000D02*
G54D10*
D03*
X1868488Y254000D02*
G54D10*
D03*
X1855788Y254000D02*
G54D10*
D03*
X1843088Y254000D02*
G54D10*
D03*
X1830388Y254000D02*
G54D10*
D03*
X1830388Y297094D02*
G54D10*
D03*
X1843088Y297094D02*
G54D10*
D03*
X1855788Y297094D02*
G54D10*
D03*
X1868488Y297094D02*
G54D10*
D03*
X1881188Y297094D02*
G54D10*
D03*
X1931988Y297094D02*
G54D10*
D03*
X1944688Y297094D02*
G54D10*
D03*
X1957388Y297094D02*
G54D10*
D03*
X1970088Y297094D02*
G54D10*
D03*
X1982788Y297094D02*
G54D10*
D03*
X1982788Y369094D02*
G54D10*
D03*
X1970088Y369094D02*
G54D10*
D03*
X1957388Y369094D02*
G54D10*
D03*
X1944688Y369094D02*
G54D10*
D03*
X1931988Y369094D02*
G54D10*
D03*
X1881188Y369094D02*
G54D10*
D03*
X1868488Y369094D02*
G54D10*
D03*
X1855788Y369094D02*
G54D10*
D03*
X1843088Y369094D02*
G54D10*
D03*
X1830388Y369094D02*
G54D10*
D03*
X1831975Y410600D02*
G54D10*
D03*
X1844675Y410600D02*
G54D10*
D03*
X1857375Y410600D02*
G54D10*
D03*
X1870075Y410600D02*
G54D10*
D03*
X1882775Y410600D02*
G54D10*
D03*
X1933575Y410600D02*
G54D10*
D03*
X1946275Y410600D02*
G54D10*
D03*
X1958975Y410600D02*
G54D10*
D03*
X1971675Y410600D02*
G54D10*
D03*
X1984375Y410600D02*
G54D10*
D03*
X1984375Y482600D02*
G54D10*
D03*
X1971675Y482600D02*
G54D10*
D03*
X1958975Y482600D02*
G54D10*
D03*
X1946275Y482600D02*
G54D10*
D03*
X1933575Y482600D02*
G54D10*
D03*
X1882775Y482600D02*
G54D10*
D03*
X1870075Y482600D02*
G54D10*
D03*
X1857375Y482600D02*
G54D10*
D03*
X1844675Y482600D02*
G54D10*
D03*
X1831975Y482600D02*
G54D10*
D03*
X1831975Y524900D02*
G54D10*
D03*
X1844675Y524900D02*
G54D10*
D03*
X1857375Y524900D02*
G54D10*
D03*
X1870075Y524900D02*
G54D10*
D03*
X1882775Y524900D02*
G54D10*
D03*
X1933575Y524900D02*
G54D10*
D03*
X1946275Y524900D02*
G54D10*
D03*
X1958975Y524900D02*
G54D10*
D03*
X1971675Y524900D02*
G54D10*
D03*
X1984375Y524900D02*
G54D10*
D03*
X1984375Y596900D02*
G54D10*
D03*
X1971675Y596900D02*
G54D10*
D03*
X1958975Y596900D02*
G54D10*
D03*
X1946275Y596900D02*
G54D10*
D03*
X1933575Y596900D02*
G54D10*
D03*
X1882775Y596900D02*
G54D10*
D03*
X1870075Y596900D02*
G54D10*
D03*
X1857375Y596900D02*
G54D10*
D03*
X1844675Y596900D02*
G54D10*
D03*
X1831975Y596900D02*
G54D10*
D03*
X1831975Y639200D02*
G54D10*
D03*
X1844675Y639200D02*
G54D10*
D03*
X1857375Y639200D02*
G54D10*
D03*
X1870075Y639200D02*
G54D10*
D03*
X1882775Y639200D02*
G54D10*
D03*
X1933575Y639200D02*
G54D10*
D03*
X1946275Y639200D02*
G54D10*
D03*
X1958975Y639200D02*
G54D10*
D03*
X1971675Y639200D02*
G54D10*
D03*
X1984375Y639200D02*
G54D10*
D03*
X1984375Y711200D02*
G54D10*
D03*
X1971675Y711200D02*
G54D10*
D03*
X1958975Y711200D02*
G54D10*
D03*
X1946275Y711200D02*
G54D10*
D03*
X1933575Y711200D02*
G54D10*
D03*
X1882775Y711200D02*
G54D10*
D03*
X1870075Y711200D02*
G54D10*
D03*
X1857375Y711200D02*
G54D10*
D03*
X1844675Y711200D02*
G54D10*
D03*
X1831975Y711200D02*
G54D10*
D03*
X1200150Y407988D02*
G54D14*
D03*
X1145381Y407988D02*
G54D14*
D03*
X1308894Y407988D02*
G54D14*
D03*
X1254125Y407988D02*
G54D14*
D03*
G36*
X1463643Y480112D02*
X1471643Y480113D01*
X1471644Y458113D01*
X1463644Y458112D01*
X1463643Y480112D01*
G37*
X1480344Y469112D02*
G54D10*
D03*
X1493044Y469112D02*
G54D10*
D03*
X1505744Y469112D02*
G54D10*
D03*
X1518444Y469112D02*
G54D10*
D03*
X1531144Y469112D02*
G54D10*
D03*
G36*
X1539844Y480112D02*
X1547844Y480113D01*
X1547844Y458113D01*
X1539844Y458112D01*
X1539844Y480112D01*
G37*
X1556544Y469112D02*
G54D10*
D03*
G36*
X1552544Y536462D02*
X1560544Y536463D01*
X1560544Y514463D01*
X1552544Y514462D01*
X1552544Y536462D01*
G37*
G36*
X1539844Y536462D02*
X1547844Y536462D01*
X1547844Y514462D01*
X1539844Y514462D01*
X1539844Y536462D01*
G37*
X1531144Y525462D02*
G54D10*
D03*
G36*
X1514444Y536462D02*
X1522444Y536462D01*
X1522444Y514462D01*
X1514444Y514462D01*
X1514444Y536462D01*
G37*
X1505744Y525462D02*
G54D10*
D03*
X1493044Y525462D02*
G54D10*
D03*
X1480344Y525462D02*
G54D10*
D03*
X1467644Y525462D02*
G54D10*
D03*
X938212Y407988D02*
G54D14*
D03*
X883444Y407988D02*
G54D14*
D03*
X1054100Y407988D02*
G54D14*
D03*
X999331Y407988D02*
G54D14*
D03*
X636588Y598488D02*
G54D10*
D03*
X623888Y598488D02*
G54D10*
D03*
X611188Y598488D02*
G54D10*
D03*
X598488Y598488D02*
G54D10*
D03*
X585788Y598488D02*
G54D10*
D03*
X573088Y598488D02*
G54D10*
D03*
X560388Y598488D02*
G54D10*
D03*
X547688Y598488D02*
G54D10*
D03*
X547688Y548488D02*
G54D10*
D03*
X560388Y548488D02*
G54D10*
D03*
X573088Y548488D02*
G54D10*
D03*
X585788Y548488D02*
G54D10*
D03*
X598488Y548488D02*
G54D10*
D03*
X611188Y548488D02*
G54D10*
D03*
X623888Y548488D02*
G54D10*
D03*
X636588Y548488D02*
G54D10*
D03*
X286544Y598488D02*
G54D14*
D03*
X231775Y598488D02*
G54D14*
D03*
X223044Y268288D02*
G54D14*
D03*
X168275Y268288D02*
G54D14*
D03*
X108179Y242778D02*
G54D15*
D03*
X108179Y297547D02*
G54D15*
D03*
X82550Y103188D02*
G54D16*
D03*
X105450Y92988D02*
G54D16*
D03*
X105450Y113388D02*
G54D16*
D03*
X82550Y39688D02*
G54D16*
D03*
X105450Y29488D02*
G54D16*
D03*
X105450Y49888D02*
G54D16*
D03*
X1768475Y724694D02*
G54D16*
D03*
X1791375Y714494D02*
G54D16*
D03*
X1791375Y734894D02*
G54D16*
D03*
X2055019Y-86519D02*
G54D12*
D03*
X2055019Y-99219D02*
G54D12*
D03*
X2055019Y-111919D02*
G54D12*
D03*
X2055019Y-124619D02*
G54D12*
D03*
X2072919Y-142519D02*
G54D13*
D03*
X2085619Y-142519D02*
G54D13*
D03*
X2098319Y-142519D02*
G54D13*
D03*
X2111019Y-142519D02*
G54D13*
D03*
X2123719Y-142519D02*
G54D13*
D03*
X2136419Y-142519D02*
G54D13*
D03*
X2149119Y-142519D02*
G54D13*
D03*
X2167019Y-124619D02*
G54D12*
D03*
X2167019Y-111919D02*
G54D12*
D03*
X2167019Y-99219D02*
G54D12*
D03*
X2167019Y-86519D02*
G54D12*
D03*
X2167019Y-73819D02*
G54D12*
D03*
X2167019Y-61119D02*
G54D12*
D03*
X2167019Y-48419D02*
G54D12*
D03*
X2149119Y-30519D02*
G54D13*
D03*
X2136419Y-30519D02*
G54D13*
D03*
X2123719Y-30519D02*
G54D13*
D03*
X2111019Y-30519D02*
G54D13*
D03*
X2098319Y-30519D02*
G54D13*
D03*
X2085619Y-30519D02*
G54D13*
D03*
X2072919Y-30519D02*
G54D13*
D03*
X2055019Y-48419D02*
G54D12*
D03*
X2055019Y-61119D02*
G54D12*
D03*
X2055019Y-73819D02*
G54D12*
D03*
X241300Y522288D02*
G54D17*
D03*
X278606Y522288D02*
G54D17*
D03*
G36*
X1142716Y102678D02*
X1164716Y102678D01*
X1164716Y80678D01*
X1142716Y80678D01*
X1142716Y102678D01*
G37*
X1306116Y91678D02*
G54D18*
D03*
X1306116Y167878D02*
G54D18*
D03*
X1153716Y167878D02*
G54D18*
D03*
X484188Y727912D02*
G54D13*
D03*
X496888Y727912D02*
G54D13*
D03*
X509588Y727912D02*
G54D13*
D03*
X522288Y727912D02*
G54D13*
D03*
X534988Y727912D02*
G54D13*
D03*
X547688Y727912D02*
G54D13*
D03*
X560388Y727912D02*
G54D13*
D03*
X573088Y727912D02*
G54D13*
D03*
X585788Y727912D02*
G54D13*
D03*
X598488Y727912D02*
G54D13*
D03*
X598488Y823912D02*
G54D13*
D03*
X585788Y823912D02*
G54D13*
D03*
X573088Y823912D02*
G54D13*
D03*
X560388Y823912D02*
G54D13*
D03*
X547688Y823912D02*
G54D13*
D03*
X534988Y823912D02*
G54D13*
D03*
X522288Y823912D02*
G54D13*
D03*
X509588Y823912D02*
G54D13*
D03*
X496888Y823912D02*
G54D13*
D03*
X484188Y823912D02*
G54D13*
D03*
X318294Y727912D02*
G54D13*
D03*
X330994Y727912D02*
G54D13*
D03*
X343694Y727912D02*
G54D13*
D03*
X356394Y727912D02*
G54D13*
D03*
X369094Y727912D02*
G54D13*
D03*
X381794Y727912D02*
G54D13*
D03*
X394494Y727912D02*
G54D13*
D03*
X407194Y727912D02*
G54D13*
D03*
X419894Y727912D02*
G54D13*
D03*
X432594Y727912D02*
G54D13*
D03*
X432594Y823912D02*
G54D13*
D03*
X419894Y823912D02*
G54D13*
D03*
X407194Y823912D02*
G54D13*
D03*
X394494Y823912D02*
G54D13*
D03*
X381794Y823912D02*
G54D13*
D03*
X369094Y823912D02*
G54D13*
D03*
X356394Y823912D02*
G54D13*
D03*
X343694Y823912D02*
G54D13*
D03*
X330994Y823912D02*
G54D13*
D03*
X318294Y823912D02*
G54D13*
D03*
X1429544Y716006D02*
G54D13*
D03*
X1442244Y716006D02*
G54D13*
D03*
X1454944Y716006D02*
G54D13*
D03*
X1467644Y716006D02*
G54D13*
D03*
X1480344Y716006D02*
G54D13*
D03*
X1493044Y716006D02*
G54D13*
D03*
X1505744Y716006D02*
G54D13*
D03*
X1518444Y716006D02*
G54D13*
D03*
X1531144Y716006D02*
G54D13*
D03*
X1543844Y716006D02*
G54D13*
D03*
X1543844Y812006D02*
G54D13*
D03*
X1531144Y812006D02*
G54D13*
D03*
X1518444Y812006D02*
G54D13*
D03*
X1505744Y812006D02*
G54D13*
D03*
X1493044Y812006D02*
G54D13*
D03*
X1480344Y812006D02*
G54D13*
D03*
X1467644Y812006D02*
G54D13*
D03*
X1454944Y812006D02*
G54D13*
D03*
X1442244Y812006D02*
G54D13*
D03*
X1429544Y812006D02*
G54D13*
D03*
G36*
X1424394Y635784D02*
X1447394Y635784D01*
X1447394Y612784D01*
X1424394Y612784D01*
X1424394Y635784D01*
G37*
X1435894Y649684D02*
G54D19*
D03*
X1461294Y624284D02*
G54D19*
D03*
X1461294Y649684D02*
G54D19*
D03*
X1486694Y624284D02*
G54D19*
D03*
X1486694Y649684D02*
G54D19*
D03*
X1512094Y624284D02*
G54D19*
D03*
X1512094Y649684D02*
G54D19*
D03*
X1537494Y624284D02*
G54D19*
D03*
X1537494Y649684D02*
G54D19*
D03*
X1562894Y624284D02*
G54D19*
D03*
X1562894Y649684D02*
G54D19*
D03*
X1588294Y624284D02*
G54D19*
D03*
X1588294Y649684D02*
G54D19*
D03*
X1613694Y624284D02*
G54D19*
D03*
X1613694Y649684D02*
G54D19*
D03*
X1639094Y624284D02*
G54D19*
D03*
X1639094Y649684D02*
G54D19*
D03*
X1664494Y624284D02*
G54D19*
D03*
X1664494Y649684D02*
G54D19*
D03*
X1403275Y904291D02*
G54D19*
D03*
X1430975Y904291D02*
G54D19*
D03*
X1458675Y904291D02*
G54D19*
D03*
X1486375Y904291D02*
G54D19*
D03*
X1514075Y904291D02*
G54D19*
D03*
X1541775Y904291D02*
G54D19*
D03*
X1569475Y904291D02*
G54D19*
D03*
X1597175Y904291D02*
G54D19*
D03*
X1624875Y904291D02*
G54D19*
D03*
G36*
X1386525Y892791D02*
X1363525Y892791D01*
X1363525Y915791D01*
X1386525Y915791D01*
X1386525Y892791D01*
G37*
X1388988Y931116D02*
G54D19*
D03*
X1416688Y931116D02*
G54D19*
D03*
X1444388Y931116D02*
G54D19*
D03*
X1472088Y931116D02*
G54D19*
D03*
X1499788Y931116D02*
G54D19*
D03*
X1527488Y931116D02*
G54D19*
D03*
X1555188Y931116D02*
G54D19*
D03*
X1582888Y931116D02*
G54D19*
D03*
X1610588Y931116D02*
G54D19*
D03*
X1304044Y918172D02*
G54D20*
D03*
X1692981Y918172D02*
G54D20*
D03*
X1622425Y763588D02*
G54D21*
D03*
X1683544Y763588D02*
G54D21*
D03*
X1096963Y704850D02*
G54D22*
D03*
G36*
X1335056Y480112D02*
X1343056Y480113D01*
X1343057Y458113D01*
X1335057Y458112D01*
X1335056Y480112D01*
G37*
X1351756Y469112D02*
G54D10*
D03*
X1364456Y469112D02*
G54D10*
D03*
X1377156Y469112D02*
G54D10*
D03*
X1389856Y469112D02*
G54D10*
D03*
X1402556Y469112D02*
G54D10*
D03*
G36*
X1411256Y480112D02*
X1419256Y480113D01*
X1419257Y458113D01*
X1411257Y458112D01*
X1411256Y480112D01*
G37*
X1427956Y469112D02*
G54D10*
D03*
G36*
X1423956Y536462D02*
X1431956Y536463D01*
X1431957Y514463D01*
X1423957Y514462D01*
X1423956Y536462D01*
G37*
G36*
X1411256Y536462D02*
X1419256Y536462D01*
X1419256Y514462D01*
X1411256Y514462D01*
X1411256Y536462D01*
G37*
X1402556Y525462D02*
G54D10*
D03*
G36*
X1385856Y536462D02*
X1393856Y536462D01*
X1393856Y514462D01*
X1385856Y514462D01*
X1385856Y536462D01*
G37*
X1377156Y525462D02*
G54D10*
D03*
X1364456Y525462D02*
G54D10*
D03*
X1351756Y525462D02*
G54D10*
D03*
X1339056Y525462D02*
G54D10*
D03*
X1218406Y473075D02*
G54D23*
D03*
X1257406Y473075D02*
G54D23*
D03*
X1539875Y395288D02*
G54D16*
D03*
X1562775Y385088D02*
G54D16*
D03*
X1562775Y405488D02*
G54D16*
D03*
X1046162Y706438D02*
G54D24*
D03*
X1046162Y667438D02*
G54D24*
D03*
X917178Y144626D02*
G54D10*
D03*
X904478Y144626D02*
G54D10*
D03*
X891778Y144627D02*
G54D10*
D03*
X879078Y144626D02*
G54D10*
D03*
X866378Y144626D02*
G54D10*
D03*
X853678Y144627D02*
G54D10*
D03*
X840978Y144627D02*
G54D10*
D03*
X828278Y144626D02*
G54D10*
D03*
X828278Y88276D02*
G54D10*
D03*
X840978Y88276D02*
G54D10*
D03*
X853678Y88276D02*
G54D10*
D03*
X866378Y88276D02*
G54D10*
D03*
X879078Y88276D02*
G54D10*
D03*
X891778Y88276D02*
G54D10*
D03*
X904478Y88276D02*
G54D10*
D03*
X917178Y88276D02*
G54D10*
D03*
X1071165Y144626D02*
G54D10*
D03*
X1058465Y144627D02*
G54D10*
D03*
X1045765Y144627D02*
G54D10*
D03*
X1033066Y144627D02*
G54D10*
D03*
X1020366Y144627D02*
G54D10*
D03*
X1007665Y144627D02*
G54D10*
D03*
X994965Y144627D02*
G54D10*
D03*
X982265Y144627D02*
G54D10*
D03*
X982265Y88276D02*
G54D10*
D03*
X994966Y88277D02*
G54D10*
D03*
X1007666Y88277D02*
G54D10*
D03*
X1020365Y88277D02*
G54D10*
D03*
X1033065Y88277D02*
G54D10*
D03*
X1045765Y88277D02*
G54D10*
D03*
X1058465Y88277D02*
G54D10*
D03*
X1071165Y88277D02*
G54D10*
D03*
G36*
X838959Y-173469D02*
X838959Y-151969D01*
X860459Y-151969D01*
X860459Y-173469D01*
X838959Y-173469D01*
G37*
X875109Y-162719D02*
G54D25*
D03*
X900509Y-162719D02*
G54D25*
D03*
X925909Y-162719D02*
G54D25*
D03*
X849709Y-10319D02*
G54D25*
D03*
X875109Y-10319D02*
G54D25*
D03*
X900509Y-10319D02*
G54D25*
D03*
X925909Y-10319D02*
G54D25*
D03*
X951309Y-162719D02*
G54D25*
D03*
X951309Y-10319D02*
G54D25*
D03*
X976709Y-162719D02*
G54D25*
D03*
X1002109Y-162719D02*
G54D25*
D03*
X976709Y-10319D02*
G54D25*
D03*
X1002109Y-10319D02*
G54D25*
D03*
X1027509Y-162719D02*
G54D25*
D03*
X1027509Y-10319D02*
G54D25*
D03*
X1052909Y-162719D02*
G54D25*
D03*
X1052909Y-10319D02*
G54D25*
D03*
X1078309Y-162719D02*
G54D25*
D03*
X1078309Y-10319D02*
G54D25*
D03*
X1103709Y-10319D02*
G54D25*
D03*
X1129109Y-10319D02*
G54D25*
D03*
X1103709Y-162719D02*
G54D25*
D03*
X1129109Y-162719D02*
G54D25*
D03*
X1154509Y-162719D02*
G54D25*
D03*
X1179909Y-162719D02*
G54D25*
D03*
X1154509Y-10319D02*
G54D25*
D03*
X1179909Y-10319D02*
G54D25*
D03*
X1205309Y-10319D02*
G54D25*
D03*
X1230709Y-10319D02*
G54D25*
D03*
X1256109Y-10319D02*
G54D25*
D03*
X1281509Y-10319D02*
G54D25*
D03*
X1306909Y-10319D02*
G54D25*
D03*
X1332309Y-10319D02*
G54D25*
D03*
X1205309Y-162719D02*
G54D25*
D03*
X1230709Y-162719D02*
G54D25*
D03*
X1256109Y-162719D02*
G54D25*
D03*
X1281509Y-162719D02*
G54D25*
D03*
X1306909Y-162719D02*
G54D25*
D03*
X1332309Y-162719D02*
G54D25*
D03*
X1357709Y-10319D02*
G54D25*
D03*
X1357709Y-162719D02*
G54D25*
D03*
X1077913Y-85725D02*
G54D22*
D03*
X1746250Y-42862D02*
G54D10*
D03*
X1733550Y-42862D02*
G54D10*
D03*
X1720850Y-42862D02*
G54D10*
D03*
X1708150Y-42862D02*
G54D10*
D03*
X1695450Y-42862D02*
G54D10*
D03*
X1682750Y-42862D02*
G54D10*
D03*
X1670050Y-42862D02*
G54D10*
D03*
X1657350Y-42862D02*
G54D10*
D03*
X1644650Y-42862D02*
G54D10*
D03*
X1631950Y-42862D02*
G54D10*
D03*
X1631950Y-141212D02*
G54D10*
D03*
X1644650Y-141212D02*
G54D10*
D03*
X1657350Y-141212D02*
G54D10*
D03*
X1670050Y-141212D02*
G54D10*
D03*
X1682750Y-141212D02*
G54D10*
D03*
X1695450Y-141212D02*
G54D10*
D03*
X1708150Y-141212D02*
G54D10*
D03*
X1720850Y-141212D02*
G54D10*
D03*
X1733550Y-141212D02*
G54D10*
D03*
X1746250Y-141212D02*
G54D10*
D03*
G36*
X1334681Y810031D02*
X1311681Y810031D01*
X1311681Y833031D01*
X1334681Y833031D01*
X1334681Y810031D01*
G37*
X1323181Y796131D02*
G54D19*
D03*
X1297781Y821531D02*
G54D19*
D03*
X1297781Y796131D02*
G54D19*
D03*
X1272381Y821531D02*
G54D19*
D03*
X1272381Y796131D02*
G54D19*
D03*
X1246981Y821531D02*
G54D19*
D03*
X1246981Y796131D02*
G54D19*
D03*
X1221581Y821531D02*
G54D19*
D03*
X1221581Y796131D02*
G54D19*
D03*
X1196181Y821531D02*
G54D19*
D03*
X1196181Y796131D02*
G54D19*
D03*
X1170781Y821531D02*
G54D19*
D03*
X1170781Y796131D02*
G54D19*
D03*
X1145381Y821531D02*
G54D19*
D03*
X1145381Y796131D02*
G54D19*
D03*
X1119981Y821531D02*
G54D19*
D03*
X1119981Y796131D02*
G54D19*
D03*
X1094581Y821531D02*
G54D19*
D03*
X1094581Y796131D02*
G54D19*
D03*
X1069181Y821531D02*
G54D19*
D03*
X1069181Y796131D02*
G54D19*
D03*
X1043781Y821531D02*
G54D19*
D03*
X1043781Y796131D02*
G54D19*
D03*
X1018381Y821531D02*
G54D19*
D03*
X1018381Y796131D02*
G54D19*
D03*
X992981Y821531D02*
G54D19*
D03*
X992981Y796131D02*
G54D19*
D03*
X967581Y821531D02*
G54D19*
D03*
X967581Y796131D02*
G54D19*
D03*
X942181Y821531D02*
G54D19*
D03*
X942181Y796131D02*
G54D19*
D03*
X916781Y821531D02*
G54D19*
D03*
X916781Y796131D02*
G54D19*
D03*
X891381Y821531D02*
G54D19*
D03*
X891381Y796131D02*
G54D19*
D03*
X865981Y821531D02*
G54D19*
D03*
X865981Y796131D02*
G54D19*
D03*
X840581Y821531D02*
G54D19*
D03*
X840581Y796131D02*
G54D19*
D03*
X815181Y821531D02*
G54D19*
D03*
X815181Y796131D02*
G54D19*
D03*
X789781Y821531D02*
G54D19*
D03*
X789781Y796131D02*
G54D19*
D03*
X764381Y821531D02*
G54D19*
D03*
X764381Y796131D02*
G54D19*
D03*
X738981Y821531D02*
G54D19*
D03*
X738981Y796131D02*
G54D19*
D03*
X713581Y821531D02*
G54D19*
D03*
X713581Y796131D02*
G54D19*
D03*
X959644Y332978D02*
G54D26*
D03*
X1001644Y332978D02*
G54D26*
D03*
X1043644Y332978D02*
G54D26*
D03*
X1085644Y332978D02*
G54D26*
D03*
X1127644Y332978D02*
G54D26*
D03*
X1169644Y332978D02*
G54D26*
D03*
X1211644Y332978D02*
G54D26*
D03*
X959644Y277978D02*
G54D26*
D03*
X1001644Y277978D02*
G54D26*
D03*
X1043644Y277978D02*
G54D26*
D03*
X1085644Y277978D02*
G54D26*
D03*
X1127644Y277978D02*
G54D26*
D03*
X1169644Y277978D02*
G54D26*
D03*
G36*
X1194644Y294978D02*
X1228644Y294978D01*
X1228644Y260978D01*
X1194644Y260978D01*
X1194644Y294978D01*
G37*
G36*
X2098460Y710588D02*
X2098460Y689588D01*
X2077460Y689588D01*
X2077460Y710588D01*
X2098460Y710588D01*
G37*
X2113359Y700088D02*
G54D27*
D03*
X2087960Y674688D02*
G54D27*
D03*
X2113359Y674688D02*
G54D27*
D03*
X2087959Y649288D02*
G54D27*
D03*
X2113360Y649288D02*
G54D27*
D03*
X2087959Y623888D02*
G54D27*
D03*
X2113360Y623888D02*
G54D27*
D03*
X2087959Y598488D02*
G54D27*
D03*
X2113360Y598488D02*
G54D27*
D03*
X2087959Y573088D02*
G54D27*
D03*
X2113360Y573088D02*
G54D27*
D03*
X2087959Y547688D02*
G54D27*
D03*
X2113360Y547688D02*
G54D27*
D03*
X2087959Y522288D02*
G54D27*
D03*
X2113360Y522288D02*
G54D27*
D03*
X2087959Y496888D02*
G54D27*
D03*
X2113360Y496888D02*
G54D27*
D03*
X2087959Y471488D02*
G54D27*
D03*
X2113360Y471488D02*
G54D27*
D03*
X2087959Y446088D02*
G54D27*
D03*
X2113360Y446088D02*
G54D27*
D03*
X2087959Y420688D02*
G54D27*
D03*
X2113360Y420688D02*
G54D27*
D03*
X2087959Y395288D02*
G54D27*
D03*
X2113360Y395288D02*
G54D27*
D03*
X2087959Y369888D02*
G54D27*
D03*
X2113360Y369888D02*
G54D27*
D03*
X2087959Y344488D02*
G54D27*
D03*
X2113360Y344488D02*
G54D27*
D03*
X2087959Y319088D02*
G54D27*
D03*
X2113360Y319088D02*
G54D27*
D03*
X2087959Y293688D02*
G54D27*
D03*
X2113360Y293688D02*
G54D27*
D03*
X2087959Y268288D02*
G54D27*
D03*
X2113360Y268288D02*
G54D27*
D03*
X2087959Y242888D02*
G54D27*
D03*
X2113360Y242888D02*
G54D27*
D03*
X2087959Y217488D02*
G54D27*
D03*
X2113360Y217488D02*
G54D27*
D03*
X2087960Y192087D02*
G54D27*
D03*
X2113359Y192087D02*
G54D27*
D03*
X2087960Y166688D02*
G54D27*
D03*
X2113359Y166688D02*
G54D27*
D03*
X689769Y719138D02*
G54D21*
D03*
X750888Y719138D02*
G54D21*
D03*
X695325Y661988D02*
G54D21*
D03*
X744538Y661988D02*
G54D21*
D03*
X157956Y116681D02*
G54D22*
D03*
X144462Y193675D02*
G54D18*
D03*
X144462Y168275D02*
G54D18*
D03*
G36*
X72312Y-83028D02*
X102312Y-83028D01*
X102312Y-113028D01*
X72312Y-113028D01*
X72312Y-83028D01*
G37*
X306388Y-262731D02*
G54D28*
D03*
X386388Y-262731D02*
G54D28*
D03*
X346388Y-262731D02*
G54D28*
D03*
X426388Y-262731D02*
G54D28*
D03*
X466388Y-262731D02*
G54D28*
D03*
X506388Y-262731D02*
G54D28*
D03*
X546388Y-262731D02*
G54D28*
D03*
X586388Y-262731D02*
G54D28*
D03*
X626388Y-262731D02*
G54D28*
D03*
X666388Y-262731D02*
G54D28*
D03*
X706388Y-262731D02*
G54D28*
D03*
X746388Y-262731D02*
G54D28*
D03*
X786388Y-262731D02*
G54D28*
D03*
X826388Y-262731D02*
G54D28*
D03*
X866388Y-262731D02*
G54D28*
D03*
X652462Y-222250D02*
G54D22*
D03*
G36*
X251006Y792344D02*
X251006Y771344D01*
X230006Y771344D01*
X230006Y792344D01*
X251006Y792344D01*
G37*
X265906Y781844D02*
G54D27*
D03*
X240506Y756444D02*
G54D27*
D03*
X265906Y756444D02*
G54D27*
D03*
X240506Y731044D02*
G54D27*
D03*
X265906Y731044D02*
G54D27*
D03*
X383381Y-98425D02*
G54D29*
D03*
X1895475Y895350D02*
G54D18*
D03*
X1895475Y922338D02*
G54D18*
D03*
X1830388Y895350D02*
G54D18*
D03*
X1830388Y922338D02*
G54D18*
D03*
G36*
X1756303Y785716D02*
X1777303Y785716D01*
X1777303Y764716D01*
X1756303Y764716D01*
X1756303Y785716D01*
G37*
X1766803Y800616D02*
G54D27*
D03*
X1792203Y775216D02*
G54D27*
D03*
X1792203Y800616D02*
G54D27*
D03*
X1817603Y775216D02*
G54D27*
D03*
X1817603Y800616D02*
G54D27*
D03*
X360362Y898525D02*
G54D30*
D03*
X334962Y898525D02*
G54D30*
D03*
X314325Y898526D02*
G54D30*
D03*
X295275Y898525D02*
G54D30*
D03*
X314325Y922338D02*
G54D30*
D03*
X295275Y922338D02*
G54D30*
D03*
X360362Y922338D02*
G54D30*
D03*
X341312Y922338D02*
G54D30*
D03*
G54D31*
G75*
G01X382984Y941387D02*
G03X404416Y941387I10716J0D01*
G01*
G54D31*
G75*
G01X404416Y954088D02*
G03X382984Y954088I-10716J0D01*
G01*
G54D31*
X404416Y954088D02*
X404416Y941387D01*
G54D31*
X382984Y941387D02*
X382984Y954088D01*
G54D31*
G75*
G01X249634Y941387D02*
G03X271066Y941387I10716J0D01*
G01*
G54D31*
G75*
G01X271066Y954088D02*
G03X249634Y954088I-10716J0D01*
G01*
G54D31*
X271066Y954088D02*
X271066Y941387D01*
G54D31*
X249634Y941387D02*
X249634Y954088D01*
G54D31*
G75*
G01X320676Y967978D02*
G03X320676Y946546I0J-10716D01*
G01*
G54D31*
G75*
G01X333376Y946546D02*
G03X333376Y967978I0J10716D01*
G01*
G54D31*
X333376Y946546D02*
X320676Y946546D01*
G54D31*
X320676Y967978D02*
X333376Y967978D01*
G54D31*
G75*
G01X382984Y941387D02*
G03X404416Y941387I10716J0D01*
G01*
G54D31*
G75*
G01X404416Y954088D02*
G03X382984Y954088I-10716J0D01*
G01*
G54D31*
X404416Y954088D02*
X404416Y941387D01*
G54D31*
X382984Y941387D02*
X382984Y954088D01*
G54D31*
G75*
G01X249634Y941387D02*
G03X271066Y941387I10716J0D01*
G01*
G54D31*
G75*
G01X271066Y954088D02*
G03X249634Y954088I-10716J0D01*
G01*
G54D31*
X271066Y954088D02*
X271066Y941387D01*
G54D31*
X249634Y941387D02*
X249634Y954088D01*
G54D31*
G75*
G01X320676Y967978D02*
G03X320676Y946546I0J-10716D01*
G01*
G54D31*
G75*
G01X333376Y946546D02*
G03X333376Y967978I0J10716D01*
G01*
G54D31*
X333376Y946546D02*
X320676Y946546D01*
G54D31*
X320676Y967978D02*
X333376Y967978D01*
X551100Y899319D02*
G54D30*
D03*
X525700Y899319D02*
G54D30*
D03*
X505062Y899319D02*
G54D30*
D03*
X486012Y899319D02*
G54D30*
D03*
X505062Y923131D02*
G54D30*
D03*
X486012Y923131D02*
G54D30*
D03*
X551100Y923131D02*
G54D30*
D03*
X532050Y923131D02*
G54D30*
D03*
G54D31*
G75*
G01X573722Y941387D02*
G03X595154Y941387I10716J0D01*
G01*
G54D31*
G75*
G01X595154Y954088D02*
G03X573722Y954088I-10716J0D01*
G01*
G54D31*
X595154Y954088D02*
X595154Y941387D01*
G54D31*
X573722Y941387D02*
X573722Y954088D01*
G54D31*
G75*
G01X440372Y941387D02*
G03X461804Y941387I10716J0D01*
G01*
G54D31*
G75*
G01X461804Y954088D02*
G03X440372Y954088I-10716J0D01*
G01*
G54D31*
X461804Y954088D02*
X461804Y941387D01*
G54D31*
X440372Y941387D02*
X440372Y954088D01*
G54D31*
G75*
G01X511413Y967978D02*
G03X511413Y946546I0J-10716D01*
G01*
G54D31*
G75*
G01X524114Y946546D02*
G03X524114Y967978I0J10716D01*
G01*
G54D31*
X524114Y946546D02*
X511413Y946546D01*
G54D31*
X511413Y967978D02*
X524114Y967978D01*
G54D31*
G75*
G01X573722Y941387D02*
G03X595154Y941387I10716J0D01*
G01*
G54D31*
G75*
G01X595154Y954088D02*
G03X573722Y954088I-10716J0D01*
G01*
G54D31*
X595154Y954088D02*
X595154Y941387D01*
G54D31*
X573722Y941387D02*
X573722Y954088D01*
G54D31*
G75*
G01X440372Y941387D02*
G03X461804Y941387I10716J0D01*
G01*
G54D31*
G75*
G01X461804Y954088D02*
G03X440372Y954088I-10716J0D01*
G01*
G54D31*
X461804Y954088D02*
X461804Y941387D01*
G54D31*
X440372Y941387D02*
X440372Y954088D01*
G54D31*
G75*
G01X511413Y967978D02*
G03X511413Y946546I0J-10716D01*
G01*
G54D31*
G75*
G01X524114Y946546D02*
G03X524114Y967978I0J10716D01*
G01*
G54D31*
X524114Y946546D02*
X511413Y946546D01*
G54D31*
X511413Y967978D02*
X524114Y967978D01*
X786862Y905259D02*
G54D19*
D03*
X814562Y905259D02*
G54D19*
D03*
X842262Y905259D02*
G54D19*
D03*
X869962Y905259D02*
G54D19*
D03*
X897662Y905259D02*
G54D19*
D03*
X925362Y905259D02*
G54D19*
D03*
X953062Y905259D02*
G54D19*
D03*
X980762Y905259D02*
G54D19*
D03*
X1008462Y905259D02*
G54D19*
D03*
X1036162Y905259D02*
G54D19*
D03*
X1063862Y905259D02*
G54D19*
D03*
X1091562Y905259D02*
G54D19*
D03*
G36*
X770662Y893759D02*
X747662Y893759D01*
X747662Y916759D01*
X770662Y916759D01*
X770662Y893759D01*
G37*
X772575Y932084D02*
G54D19*
D03*
X800275Y932084D02*
G54D19*
D03*
X827975Y932084D02*
G54D19*
D03*
X855675Y932084D02*
G54D19*
D03*
X883375Y932084D02*
G54D19*
D03*
X911075Y932084D02*
G54D19*
D03*
X938775Y932084D02*
G54D19*
D03*
X966475Y932084D02*
G54D19*
D03*
X994175Y932084D02*
G54D19*
D03*
X1021875Y932084D02*
G54D19*
D03*
X1049575Y932084D02*
G54D19*
D03*
X1077275Y932084D02*
G54D19*
D03*
X688181Y918347D02*
G54D20*
D03*
X1161256Y918347D02*
G54D20*
D03*
X133350Y736600D02*
G54D22*
D03*
G54D31*
G75*
G01X1918335Y941387D02*
G03X1939767Y941387I10716J0D01*
G01*
G54D31*
G75*
G01X1939767Y954088D02*
G03X1918335Y954088I-10716J0D01*
G01*
G54D31*
X1939767Y954088D02*
X1939767Y941387D01*
G54D31*
X1918334Y941387D02*
X1918334Y954088D01*
G54D31*
G75*
G01X1784984Y941387D02*
G03X1806416Y941387I10716J0D01*
G01*
G54D31*
G75*
G01X1806416Y954088D02*
G03X1784984Y954088I-10716J0D01*
G01*
G54D31*
X1806416Y954088D02*
X1806416Y941387D01*
G54D31*
X1784984Y941387D02*
X1784984Y954088D01*
G54D31*
G75*
G01X1856025Y967978D02*
G03X1856025Y946546I0J-10716D01*
G01*
G54D31*
G75*
G01X1868726Y946546D02*
G03X1868726Y967978I0J10716D01*
G01*
G54D31*
X1868726Y946546D02*
X1856025Y946546D01*
G54D31*
X1856025Y967978D02*
X1868726Y967978D01*
X88106Y529389D02*
G54D29*
D03*
X88106Y580231D02*
G54D29*
D03*
X88106Y700881D02*
G54D29*
D03*
X88106Y751724D02*
G54D29*
D03*
X156369Y-110331D02*
G54D29*
D03*
X177800Y869156D02*
G54D18*
D03*
X177800Y843756D02*
G54D18*
D03*
X152400Y869156D02*
G54D18*
D03*
X152400Y843756D02*
G54D18*
D03*
X127000Y869156D02*
G54D18*
D03*
X127000Y843756D02*
G54D18*
D03*
G36*
X138988Y985756D02*
X168988Y985756D01*
X168988Y955756D01*
X138988Y955756D01*
X138988Y985756D01*
G37*
X103188Y919956D02*
G54D32*
D03*
X203200Y919956D02*
G54D32*
D03*
M02*
