; Drill file
; Format: 3.3 (000.000)
M48
METRIC
T01C0.4
T02C0.5
T03C0.8
T04C0.81
T05C0.9
T06C1.0
T07C1.2
T08C1.6
%
G05
G90
T01
X19840Y-12540
X19840Y-8570
X19840Y-4920
X27380Y-5000
X27540Y-8490
X27460Y-12620
X33500Y-11110
X33970Y-16110
X36120Y-17140
X37150Y-15720
X38100Y-17140
X41200Y-16190
X43180Y-16670
X45320Y-17140
X47390Y-17700
X49370Y-17220
X51440Y-16670
X53500Y-16110
X55480Y-15720
X57550Y-15160
X59610Y-14600
X61600Y-14130
X49530Y-13570
X47470Y-13570
X45320Y-13570
X43820Y-12620
X42780Y-10560
X42780Y-7540
X42780Y-5560
X43740Y-3970
X41200Y-3490
X41200Y-870
X43260Y-870
X45320Y-480
X44850Y-6510
X45400Y-8490
X39130Y-870
X41200Y5640
X37150Y10720
X35080Y10720
X33580Y16190
X36670Y16190
X36270Y22380
X37540Y23890
X38810Y22380
X41350Y23890
X42620Y22380
X43890Y23890
X45160Y28970
X43890Y30960
X46430Y31910
X41350Y28970
X38740Y35560
X36270Y34450
X35160Y36990
X36270Y39610
X38810Y39610
X41350Y39610
X43890Y39610
X45160Y45160
X42390Y46670
X40800Y45720
X38740Y47310
X36200Y47310
X33100Y48820
X32540Y52310
X29610Y50240
X26510Y46670
X23420Y42150
X23420Y39610
X23420Y36950
X20880Y34530
X20880Y30960
X24920Y30960
X28500Y34610
X28580Y37110
X28500Y39530
X31120Y42150
X33660Y44690
X36200Y52310
X37230Y56040
X37230Y59850
X33180Y61990
X32150Y59850
X28540Y64970
X30160Y72630
X33100Y75090
X35640Y75090
X38180Y75090
X40720Y75090
X46510Y72550
X49690Y75090
X51510Y67470
X54130Y67470
X54130Y65010
X56670Y67470
X59290Y67470
X60320Y70010
X62310Y70010
X62310Y72070
X63260Y67470
X65560Y63740
X65560Y59930
X66280Y57940
X72950Y58900
X72950Y56910
X77150Y55320
X79140Y52780
X74530Y52310
X74450Y48260
X76040Y47230
X78660Y46200
X81200Y48260
X86200Y46750
X88260Y46750
X90330Y46750
X92310Y47780
X94930Y47780
X96440Y46750
X98500Y47230
X99460Y45720
X101600Y47230
X102710Y45720
X104780Y46200
X105250Y49690
X104780Y51750
X103190Y50640
X102240Y52700
X102240Y56670
X97160Y56360
X92390Y61910
X93030Y73020
X93980Y75560
X95570Y74610
X97630Y74610
X99060Y73020
X100170Y75090
X102240Y75090
X107320Y74610
X91920Y75560
X87950Y77150
X85800Y77150
X84770Y74610
X87310Y74610
X81200Y74610
X73100Y76120
X68420Y84300
X72870Y63580
X77150Y63420
X77150Y61440
X77150Y59450
X71910Y47230
X72470Y45160
X69370Y47230
X66830Y47230
X64290Y47230
X61750Y47230
X62710Y49290
X59130Y47230
X56590Y47230
X54050Y47230
X51440Y47230
X47940Y49770
X43820Y49770
X44930Y56280
X51590Y59850
X49050Y65010
X41280Y65010
X41350Y67550
X30640Y77150
X31790Y80760
X20920Y62940
X21430Y53900
X20880Y49770
X20960Y44770
X15760Y52350
X7100Y50240
X15880Y37070
X15800Y29450
X16670Y22940
X19370Y23420
X24450Y24370
X33100Y26430
X35000Y23890
X46360Y18730
X53020Y23420
X55880Y18810
X57780Y15720
X59060Y16750
X60320Y15720
X61600Y16750
X62860Y15720
X64140Y16750
X65400Y15720
X64210Y18810
X69370Y23500
X69370Y29450
X71910Y29450
X75560Y32380
X77070Y31510
X77070Y33500
X75560Y34530
X77070Y35560
X75560Y36510
X76600Y38100
X74450Y38100
X78180Y40640
X87310Y39050
X90330Y35480
X86760Y33580
X84610Y30480
X82630Y30480
X82150Y26910
X81680Y22940
X83740Y22940
X87310Y25400
X89850Y25400
X89850Y28500
X87310Y28500
X77070Y29450
X76990Y21910
X74450Y16750
X71760Y16750
X77870Y13260
X81680Y16750
X85720Y16750
X88340Y16750
X93420Y14210
X94460Y12060
X95410Y10640
X98500Y11190
X101680Y10640
X100090Y16750
X104620Y17300
X107080Y17300
X108740Y14680
X108740Y11750
X108740Y8180
X107630Y4130
X105170Y4130
X100090Y4130
X97390Y4130
X94850Y4130
X92310Y4130
X89850Y11190
X86760Y11190
X81680Y7060
X80490Y2620
X80490Y640
X84610Y-7540
X87150Y-7060
X88190Y-10560
X85010Y-12140
X82070Y-11110
X79530Y-11110
X76990Y-11110
X76990Y-8650
X74450Y-11110
X71360Y-3570
X69290Y-3570
X69290Y-1030
X69290Y1510
X69290Y4050
X69290Y6590
X69290Y9130
X66680Y9130
X66680Y6590
X59060Y6190
X56990Y6670
X55010Y5640
X53020Y7700
X56990Y9130
X59060Y9130
X51990Y3570
X51990Y1510
X51990Y-1030
X56520Y-1030
X59130Y-1030
X66750Y30480
X66830Y37070
X59690Y37620
X60250Y31990
X54610Y31990
X52070Y35760
X53020Y36990
X52070Y38260
X54050Y39530
X49450Y43180
X56670Y52310
X59210Y52310
X94930Y39050
X98580Y39050
X106760Y39050
X109780Y40560
X111280Y41120
X113350Y39050
X113820Y44130
X108270Y47230
X108740Y50160
X121440Y39050
X124060Y39050
X128550Y34610
X132320Y33500
X135890Y33970
X137950Y34050
X138910Y36510
X140970Y36510
X142950Y38660
X139860Y42070
X137400Y42070
X138430Y44610
X140340Y44610
X140970Y48740
X142950Y48740
X143510Y50720
X146610Y49130
X146050Y43180
X148030Y43100
X149620Y41120
X151130Y42070
X151210Y44610
X153670Y44610
X151690Y39530
X151130Y37070
X154940Y31430
X156210Y29530
X158750Y29530
X158830Y27380
X158830Y24370
X156840Y24370
X153750Y24370
X151130Y24370
X151130Y21750
X151130Y18490
X157800Y19210
X158830Y21830
X161450Y16750
X163910Y16750
X165500Y18260
X163910Y14210
X161450Y14210
X158830Y14210
X158750Y9130
X161450Y9130
X163990Y9130
X163910Y11670
X170580Y20560
X171610Y21830
X170580Y23060
X171610Y24290
X170580Y25560
X173590Y25880
X165500Y25880
X163990Y27460
X163990Y29530
X165580Y30880
X161450Y29530
X160420Y37070
X163990Y36990
X166530Y39610
X167800Y38020
X170340Y39610
X172080Y39610
X174620Y39610
X174150Y37070
X172080Y35560
X180660Y32860
X186290Y32380
X188910Y31830
X189940Y40080
X191450Y43500
X186770Y43500
X185580Y45640
X183670Y43580
X181690Y43580
X182720Y45560
X181210Y52150
X184230Y54770
X183280Y56830
X187010Y57310
X188990Y55240
X191850Y55240
X190980Y53180
X201140Y49610
X203680Y49610
X203680Y53180
X203760Y44530
X201220Y44530
X202170Y41040
X202250Y38500
X203200Y24290
X203990Y20720
X204710Y13650
X207250Y13100
X208840Y10640
X211300Y10640
X211300Y8020
X208840Y8020
X205740Y8020
X205180Y5000
X204710Y1430
X209830Y1430
X212370Y1430
X211850Y5000
X209790Y5000
X213840Y7060
X214390Y5000
X216930Y1430
X217410Y-1110
X213920Y-6110
X213920Y-8650
X211220Y-8650
X208680Y-6110
X198600Y-11270
X195500Y-19370
X195500Y-21830
X187250Y-22380
X187250Y-19840
X184710Y-13260
X183750Y-11750
X185820Y-11750
X181210Y-12220
X179630Y-8260
X179630Y-6190
X179630Y-4130
X178120Y-3180
X179630Y-2060
X178120Y-1030
X182640Y-80
X184710Y-80
X186290Y-2140
X191370Y-2140
X190420Y-6190
X191370Y5480
X191450Y9050
X186770Y11590
X191850Y17700
X186850Y21750
X183750Y20720
X183200Y22220
X181690Y23340
X180660Y20320
X181210Y18180
X173990Y-6510
X173040Y-8100
X172080Y-6670
X170970Y-8100
X168910Y-7140
X169070Y-9680
X169070Y-11750
X175580Y-7620
X177640Y-7620
X179070Y-19370
X179070Y-21830
X163910Y-21830
X163910Y-18730
X155730Y-18810
X155730Y-21350
X147560Y-21350
X144460Y-20240
X145970Y-15720
X145970Y-10640
X144540Y-8100
X142480Y-8100
X140970Y-6590
X139940Y-8100
X138430Y-7140
X136920Y-8650
X138510Y-10910
X135770Y-12580
X133230Y-12580
X130810Y-13180
X129540Y-8650
X128310Y-3490
X133470Y-3490
X135890Y-3570
X138430Y-5000
X141450Y-4050
X141450Y-1980
X145970Y-1430
X148110Y-1030
X149540Y1030
X151130Y1980
X153750Y1510
X156210Y1590
X158750Y1590
X158750Y-6350
X158750Y-8570
X156210Y-6350
X154940Y-7620
X153670Y-6350
X152400Y-7620
X151130Y-6350
X149860Y-7620
X148590Y-6350
X143910Y-6110
X143510Y2540
X146050Y2540
X139380Y5240
X135330Y3100
X132790Y3570
X135890Y11190
X143430Y11670
X143510Y14210
X143510Y17700
X143510Y20480
X143510Y24370
X143910Y27380
X141920Y27940
X142480Y30400
X136370Y29450
X135890Y25880
X136370Y23340
X133270Y24370
X132790Y26990
X128670Y24370
X128670Y19840
X130730Y19290
X135890Y19290
X127790Y30480
X132400Y39050
X131290Y46750
X127710Y46670
X134860Y50160
X138910Y48740
X137950Y58820
X140020Y58820
X137950Y62860
X137480Y64930
X137480Y66910
X140020Y66910
X140020Y64930
X133910Y58820
X129300Y59610
X129220Y61360
X129300Y63900
X145570Y74060
X147080Y77630
X145570Y79140
X143510Y79140
X142950Y83340
X148670Y79140
X150730Y79140
X150020Y87550
X159230Y76600
X159230Y74770
X167560Y80170
X170100Y80170
X171610Y78660
X173510Y78900
X184310Y66440
X165500Y49290
X160420Y44690
X161450Y41120
X151130Y29450
X151690Y27380
X113350Y19210
X106760Y23340
X97470Y22860
X94850Y-6110
X94850Y-10080
X92470Y-10080
X97630Y-9600
X100170Y-10160
X102710Y-10160
X105250Y-10160
X115330Y-8570
X115330Y-6590
X115330Y-13180
X120410Y-13180
X125570Y-13180
X124060Y-20320
X125650Y-22380
X129700Y-20320
X130730Y-22780
X133350Y-22780
X133270Y-19840
X137870Y-20800
X138430Y-15720
X153670Y-12060
X120570Y-21830
X118900Y-20320
X203680Y-18340
X212800Y-17300
X214910Y-17300
X216500Y58780
X216500Y60800
X26430Y11750
X23890Y6510
X13180Y11750
X9050Y14760
X9130Y8180
T02
X13180Y6670
X15800Y11670
X23340Y15240
X23340Y21430
X23420Y29450
X18260Y30960
X10800Y32540
X15800Y39690
X16510Y42700
X9130Y42150
X14290Y57940
X20960Y65090
X20960Y68100
X15400Y68100
X13340Y73660
X41280Y87790
X44930Y82870
X59850Y74690
X64850Y78740
X70960Y86200
X76200Y86200
X78740Y86200
X81280Y86200
X95530Y86200
X105730Y73500
X109700Y70480
X113350Y64450
X115970Y65400
X117950Y67470
X123030Y67470
X122560Y65010
X123590Y59850
X123590Y56830
X117950Y55880
X115890Y55800
X114380Y58340
X112870Y59850
X107320Y60880
X104300Y64290
X97000Y58420
X90330Y55880
X85090Y61910
X87310Y64930
X88580Y67470
X94930Y67470
X78660Y71600
X66910Y66520
X64360Y57850
X65330Y55320
X58580Y56910
X54770Y57390
X41910Y49770
X46430Y35560
X61120Y35800
X74300Y29530
X75720Y44770
X72950Y54850
X109860Y52230
X127240Y51280
X134380Y54770
X137480Y55800
X142000Y55320
X144540Y56360
X144540Y54290
X145020Y52310
X149620Y54770
X151840Y54770
X151690Y57860
X154230Y58340
X156290Y57390
X158910Y57390
X160420Y56440
X157880Y54850
X158910Y52230
X158350Y50160
X154380Y50160
X155650Y44610
X145490Y45160
X143510Y58820
X143590Y74060
X155810Y71040
X158910Y59850
X165260Y59850
X171610Y65960
X169070Y70010
X176690Y70010
X178670Y66040
X178670Y62470
X181770Y59850
X188830Y57310
X189940Y59850
X188910Y68900
X189940Y70960
X183200Y73500
X179230Y75090
X185420Y82070
X184150Y84060
X190980Y80170
X200660Y70960
X198680Y66360
X200660Y55240
X199630Y52230
X189940Y48180
X188830Y46200
X181690Y48180
X172640Y48420
X181690Y37310
X189390Y34450
X189940Y37310
X198680Y32380
X199630Y41040
X189860Y25320
X188830Y23340
X181690Y25320
X181690Y14130
X188830Y11590
X189940Y14130
X198600Y21270
X199630Y6590
X199150Y-2380
X189940Y2460
X188910Y400
X181690Y2460
X181610Y-8730
X176530Y-11750
X189390Y-11270
X189940Y-8730
X198280Y-13810
X208280Y-9290
X213920Y-11190
X161920Y-4130
X160970Y-12060
X147000Y-7620
X153670Y7140
X153670Y9130
X141920Y18730
X141920Y21830
X153670Y30000
X165500Y20320
X107160Y11190
X96520Y14210
X91680Y11190
X83740Y16750
X71360Y240
X57630Y4680
X52940Y-3570
X49450Y14290
X60640Y-22220
X65250Y-22220
X74610Y-22220
X76990Y-22220
X86680Y-22220
X107790Y-8570
X104850Y22940
X125730Y90330
X139540Y87310
X159150Y82950
X162560Y87230
X176690Y87790
X209710Y92870
X10640Y21430
T03
X14450Y16830
X14450Y19370
X24050Y73100
X24050Y75640
X24050Y78180
X26590Y78180
X26590Y75640
X26590Y73100
X17780Y84380
X17780Y86920
X15240Y86920
X15240Y84380
X12700Y84380
X12700Y86920
X84970Y-1030
X87510Y-1030
X90050Y-1030
X92590Y-1030
X95130Y-1030
X97670Y-1030
X100210Y-1030
X102750Y-1030
X105290Y-1030
X107830Y-1030
X110370Y-1030
X112910Y-1030
X115450Y-1030
X117990Y-1030
X120530Y-1030
X123070Y-1030
X125610Y-1030
X128150Y-1030
X130690Y-1030
X133230Y-1030
X135770Y-1030
X130610Y9170
X130610Y16790
X115370Y16790
X115370Y9170
X115450Y-16270
X117990Y-16270
X120530Y-16270
X123070Y-16270
X125610Y-16270
X128150Y-16270
X130690Y-16270
X133230Y-16270
X135770Y-16270
X112910Y-16270
X110370Y-16270
X107830Y-16270
X105290Y-16270
X102750Y-16270
X100210Y-16270
X97670Y-16270
X95130Y-16270
X92590Y-16270
X90050Y-16270
X87510Y-16270
X84970Y-16270
X208800Y16670
X208800Y19210
X211340Y19210
X211340Y16670
X211340Y21750
X211340Y24290
X211340Y26830
X211340Y29370
X211340Y31910
X211340Y34450
X211340Y36990
X211340Y39530
X211340Y42070
X211340Y44610
X211340Y47150
X211340Y49690
X211340Y52230
X211340Y54770
X211340Y57310
X211340Y59850
X211340Y62390
X211340Y64930
X208800Y64930
X208800Y62390
X208800Y59850
X208800Y57310
X208800Y54770
X208800Y52230
X208800Y49690
X208800Y47150
X208800Y44610
X208800Y42070
X208800Y39530
X208800Y36990
X208800Y34450
X208800Y31910
X208800Y29370
X208800Y26830
X208800Y24290
X208800Y21750
X208800Y67470
X211340Y67470
X211340Y70010
X208800Y70010
X189550Y89540
X189550Y92230
X183040Y92230
X183040Y89540
X181760Y80060
X181760Y77520
X179220Y77520
X179220Y80060
X176680Y80060
X176680Y77520
T04
X29530Y89850
X31430Y89850
X33500Y89850
X34130Y92230
X36040Y92230
X36040Y89850
X31430Y92230
X29530Y92230
X48600Y92310
X50510Y92310
X50510Y89930
X48600Y89930
X52570Y89930
X53200Y92310
X55110Y92310
X55110Y89930
T05
X71360Y79610
X71360Y82150
X73900Y82150
X73900Y79610
X76440Y79610
X76440Y82150
X78980Y82150
X78980Y79610
X81520Y79610
X81520Y82150
X84060Y82150
X84060Y79610
X86600Y79610
X86600Y82150
X89140Y82150
X89140Y79610
X91680Y79610
X91680Y82150
X94220Y82150
X94220Y79610
X96760Y79610
X96760Y82150
X99300Y82150
X99300Y79610
X101840Y79610
X104380Y79610
X104380Y82150
X101840Y82150
X106920Y82150
X106920Y79610
X109460Y79610
X109460Y82150
X112000Y82150
X112000Y79610
X114540Y79610
X114540Y82150
X117080Y82150
X117080Y79610
X119620Y79610
X119620Y82150
X122160Y82150
X122160Y79610
X124700Y79610
X124700Y82150
X127240Y82150
X127240Y79610
X129780Y79610
X129780Y82150
X132320Y82150
X132320Y79610
X137500Y90430
X140330Y90430
X143100Y90430
X145870Y90430
X148640Y90430
X151410Y90430
X154180Y90430
X156950Y90430
X159720Y90430
X162490Y90430
X161060Y93110
X158290Y93110
X155520Y93110
X152750Y93110
X149980Y93110
X147210Y93110
X144440Y93110
X141670Y93110
X138900Y93110
X143590Y64970
X146130Y64970
X148670Y64970
X151210Y64970
X153750Y64970
X156290Y64970
X158830Y64970
X158830Y62430
X156290Y62430
X153750Y62430
X151210Y62430
X148670Y62430
X146130Y62430
X143590Y62430
X161370Y62430
X161370Y64970
X163910Y64970
X163910Y62430
X166450Y62430
X166450Y64970
X109160Y90530
X106390Y90530
X103620Y90530
X100850Y90530
X98080Y90530
X95310Y90530
X92540Y90530
X89770Y90530
X87000Y90530
X84230Y90530
X81460Y90530
X78690Y90530
X75920Y90530
X77260Y93210
X80030Y93210
X82800Y93210
X85570Y93210
X88340Y93210
X91110Y93210
X93880Y93210
X96650Y93210
X99420Y93210
X102190Y93210
X104960Y93210
X107730Y93210
T06
X15640Y-11030
X38340Y-9840
X8810Y52940
X8810Y58020
X8810Y70090
X8810Y75170
T07
X8730Y-9800
X10320Y92000
X15400Y97080
X20320Y92000
T08
X95960Y27800
X100160Y27800
X104360Y27800
X108560Y27800
X112760Y27800
X116960Y27800
X121160Y27800
X121160Y33300
X116960Y33300
X112760Y33300
X108560Y33300
X104360Y33300
X100160Y33300
X95960Y33300
M30
