%FSLAX34Y34*%
%MOMM*%
%LNSMDMASK_BOTTOM*%
G71*
G01*
%ADD10R,1.300X1.800*%
%ADD11R,1.900X1.800*%
%ADD12R,6.500X6.500*%
%LPD*%
X153194Y765175D02*
G54D10*
D03*
X185694Y765275D02*
G54D10*
D03*
X153194Y803275D02*
G54D10*
D03*
X185694Y803375D02*
G54D10*
D03*
X153194Y733425D02*
G54D10*
D03*
X185694Y733525D02*
G54D10*
D03*
X153194Y702469D02*
G54D10*
D03*
X185694Y702569D02*
G54D10*
D03*
X230188Y688975D02*
G54D10*
D03*
X262688Y689075D02*
G54D10*
D03*
X230188Y650875D02*
G54D10*
D03*
X262688Y650975D02*
G54D10*
D03*
X304800Y841375D02*
G54D10*
D03*
X337300Y841475D02*
G54D10*
D03*
X396081Y562769D02*
G54D10*
D03*
X428581Y562869D02*
G54D10*
D03*
X230981Y447675D02*
G54D10*
D03*
X263481Y447775D02*
G54D10*
D03*
X89694Y447675D02*
G54D10*
D03*
X122194Y447775D02*
G54D10*
D03*
X153194Y447675D02*
G54D10*
D03*
X185694Y447775D02*
G54D10*
D03*
X485775Y562769D02*
G54D10*
D03*
X518275Y562869D02*
G54D10*
D03*
X432700Y523875D02*
G54D11*
D03*
X393700Y523875D02*
G54D11*
D03*
X523981Y523875D02*
G54D11*
D03*
X484981Y523875D02*
G54D11*
D03*
X587375Y588169D02*
G54D10*
D03*
X619875Y588269D02*
G54D10*
D03*
X587375Y550069D02*
G54D10*
D03*
X619875Y550169D02*
G54D10*
D03*
X623994Y637381D02*
G54D11*
D03*
X584994Y637381D02*
G54D11*
D03*
X676275Y637381D02*
G54D10*
D03*
X708775Y637481D02*
G54D10*
D03*
X676275Y600075D02*
G54D10*
D03*
X708775Y600175D02*
G54D10*
D03*
X676275Y562769D02*
G54D10*
D03*
X708775Y562869D02*
G54D10*
D03*
X712206Y523875D02*
G54D11*
D03*
X673206Y523875D02*
G54D11*
D03*
X700194Y739775D02*
G54D11*
D03*
X661194Y739775D02*
G54D11*
D03*
X869156Y619125D02*
G54D10*
D03*
X901656Y619225D02*
G54D10*
D03*
X869156Y537369D02*
G54D10*
D03*
X901656Y537469D02*
G54D10*
D03*
X562769Y397669D02*
G54D10*
D03*
X595269Y397769D02*
G54D10*
D03*
X690562Y372269D02*
G54D10*
D03*
X723062Y372369D02*
G54D10*
D03*
X894556Y397669D02*
G54D10*
D03*
X927056Y397769D02*
G54D10*
D03*
X408781Y359569D02*
G54D10*
D03*
X441281Y359669D02*
G54D10*
D03*
X89694Y397669D02*
G54D10*
D03*
X122194Y397769D02*
G54D10*
D03*
X89694Y359569D02*
G54D10*
D03*
X122194Y359669D02*
G54D10*
D03*
X96044Y270669D02*
G54D10*
D03*
X128544Y270769D02*
G54D10*
D03*
X230981Y340519D02*
G54D10*
D03*
X263481Y340619D02*
G54D10*
D03*
X179388Y207962D02*
G54D10*
D03*
X211888Y208062D02*
G54D10*
D03*
X179388Y168275D02*
G54D10*
D03*
X211888Y168375D02*
G54D10*
D03*
X179388Y117475D02*
G54D10*
D03*
X211888Y117575D02*
G54D10*
D03*
X179388Y80962D02*
G54D10*
D03*
X211888Y81062D02*
G54D10*
D03*
X1008856Y397669D02*
G54D10*
D03*
X1041356Y397769D02*
G54D10*
D03*
X1162800Y397769D02*
G54D10*
D03*
X1195300Y397869D02*
G54D10*
D03*
X1264356Y397869D02*
G54D10*
D03*
X1296856Y397969D02*
G54D10*
D03*
X218281Y-47625D02*
G54D10*
D03*
X250781Y-47525D02*
G54D10*
D03*
X218281Y-85725D02*
G54D10*
D03*
X250781Y-85625D02*
G54D10*
D03*
X218281Y-122238D02*
G54D10*
D03*
X250781Y-122138D02*
G54D10*
D03*
X306344Y-47525D02*
G54D10*
D03*
X338844Y-47425D02*
G54D10*
D03*
X306344Y-8631D02*
G54D10*
D03*
X338844Y-8531D02*
G54D10*
D03*
X306344Y-84831D02*
G54D10*
D03*
X338844Y-84731D02*
G54D10*
D03*
X306344Y-135631D02*
G54D10*
D03*
X338844Y-135531D02*
G54D10*
D03*
X382544Y29469D02*
G54D10*
D03*
X415044Y29569D02*
G54D10*
D03*
X447631Y29469D02*
G54D10*
D03*
X480131Y29569D02*
G54D10*
D03*
X549188Y29569D02*
G54D10*
D03*
X581688Y29669D02*
G54D10*
D03*
X549188Y-34725D02*
G54D10*
D03*
X581688Y-34625D02*
G54D10*
D03*
X613438Y29669D02*
G54D10*
D03*
X645938Y29769D02*
G54D10*
D03*
X613438Y-3669D02*
G54D10*
D03*
X645938Y-3569D02*
G54D10*
D03*
X614231Y-34625D02*
G54D10*
D03*
X646731Y-34525D02*
G54D10*
D03*
X613438Y61419D02*
G54D10*
D03*
X645938Y61519D02*
G54D10*
D03*
X613438Y92375D02*
G54D10*
D03*
X645938Y92475D02*
G54D10*
D03*
X523744Y131269D02*
G54D10*
D03*
X556244Y131369D02*
G54D10*
D03*
X581688Y194769D02*
G54D10*
D03*
X614188Y194869D02*
G54D10*
D03*
X664238Y182069D02*
G54D10*
D03*
X696738Y182169D02*
G54D10*
D03*
X766631Y169369D02*
G54D10*
D03*
X799131Y169469D02*
G54D10*
D03*
X856325Y144366D02*
G54D10*
D03*
X888825Y144466D02*
G54D10*
D03*
X983281Y144862D02*
G54D10*
D03*
X1015781Y144962D02*
G54D10*
D03*
X856325Y229694D02*
G54D10*
D03*
X888825Y229794D02*
G54D10*
D03*
X922956Y229794D02*
G54D10*
D03*
X955456Y229894D02*
G54D10*
D03*
X996731Y229894D02*
G54D10*
D03*
X1029231Y229994D02*
G54D10*
D03*
X1086381Y229994D02*
G54D10*
D03*
X1118881Y230094D02*
G54D10*
D03*
X1214131Y230094D02*
G54D10*
D03*
X1246631Y230194D02*
G54D10*
D03*
X1214131Y180881D02*
G54D10*
D03*
X1246631Y180981D02*
G54D10*
D03*
X1250262Y143669D02*
G54D11*
D03*
X1211262Y143669D02*
G54D11*
D03*
X1214131Y41975D02*
G54D10*
D03*
X1246631Y42075D02*
G54D10*
D03*
X1295709Y312541D02*
G54D10*
D03*
X1328209Y312641D02*
G54D10*
D03*
X1355638Y168475D02*
G54D10*
D03*
X1388138Y168575D02*
G54D10*
D03*
X1457238Y238325D02*
G54D10*
D03*
X1489738Y238425D02*
G54D10*
D03*
X1457238Y296269D02*
G54D10*
D03*
X1489738Y296369D02*
G54D10*
D03*
X1457238Y181969D02*
G54D10*
D03*
X1489738Y182069D02*
G54D10*
D03*
X1443744Y54969D02*
G54D10*
D03*
X1476244Y55069D02*
G54D10*
D03*
X1443744Y-33138D02*
G54D10*
D03*
X1476244Y-33038D02*
G54D10*
D03*
X1317538Y-87112D02*
G54D10*
D03*
X1350038Y-87012D02*
G54D10*
D03*
X1098462Y-87112D02*
G54D10*
D03*
X1130962Y-87012D02*
G54D10*
D03*
X1406438Y-109338D02*
G54D10*
D03*
X1438938Y-109238D02*
G54D10*
D03*
X1406438Y-160931D02*
G54D10*
D03*
X1438938Y-160831D02*
G54D10*
D03*
X1022350Y708025D02*
G54D10*
D03*
X1054850Y708125D02*
G54D10*
D03*
X1118350Y708125D02*
G54D10*
D03*
X1150850Y708225D02*
G54D10*
D03*
X1124700Y626369D02*
G54D10*
D03*
X1157200Y626469D02*
G54D10*
D03*
X1188950Y626469D02*
G54D10*
D03*
X1221450Y626569D02*
G54D10*
D03*
X1124700Y512069D02*
G54D10*
D03*
X1157200Y512169D02*
G54D10*
D03*
X1236769Y511969D02*
G54D11*
D03*
X1197769Y511969D02*
G54D11*
D03*
X1347744Y530325D02*
G54D10*
D03*
X1380244Y530425D02*
G54D10*
D03*
X1469188Y523181D02*
G54D10*
D03*
X1501688Y523281D02*
G54D10*
D03*
X1531850Y523281D02*
G54D10*
D03*
X1564350Y523381D02*
G54D10*
D03*
X1673975Y486669D02*
G54D10*
D03*
X1706475Y486769D02*
G54D10*
D03*
X1838238Y486769D02*
G54D10*
D03*
X1870738Y486869D02*
G54D10*
D03*
X1545388Y409675D02*
G54D10*
D03*
X1577888Y409775D02*
G54D10*
D03*
X1545388Y372369D02*
G54D10*
D03*
X1577888Y372469D02*
G54D10*
D03*
X1545388Y337444D02*
G54D10*
D03*
X1577888Y337544D02*
G54D10*
D03*
X1616781Y337544D02*
G54D10*
D03*
X1649281Y337644D02*
G54D10*
D03*
X1735888Y626369D02*
G54D10*
D03*
X1768388Y626469D02*
G54D10*
D03*
X1735888Y664469D02*
G54D10*
D03*
X1768388Y664569D02*
G54D10*
D03*
X1685881Y334269D02*
G54D10*
D03*
X1718381Y334369D02*
G54D10*
D03*
X1685881Y296169D02*
G54D10*
D03*
X1718381Y296269D02*
G54D10*
D03*
X1750925Y334369D02*
G54D10*
D03*
X1783425Y334469D02*
G54D10*
D03*
X1750925Y296269D02*
G54D10*
D03*
X1783425Y296369D02*
G54D10*
D03*
X1915188Y334469D02*
G54D10*
D03*
X1947688Y334569D02*
G54D10*
D03*
X1915188Y296369D02*
G54D10*
D03*
X1947688Y296469D02*
G54D10*
D03*
X1915188Y220962D02*
G54D10*
D03*
X1947688Y221062D02*
G54D10*
D03*
X1839825Y374056D02*
G54D10*
D03*
X1872325Y374156D02*
G54D10*
D03*
X1839031Y258962D02*
G54D10*
D03*
X1871531Y259062D02*
G54D10*
D03*
X1839031Y145456D02*
G54D10*
D03*
X1871531Y145556D02*
G54D10*
D03*
X1915188Y120156D02*
G54D10*
D03*
X1947688Y120256D02*
G54D10*
D03*
X1839031Y24806D02*
G54D10*
D03*
X1871531Y24906D02*
G54D10*
D03*
X1595350Y193875D02*
G54D10*
D03*
X1627850Y193975D02*
G54D10*
D03*
X1632656Y-71238D02*
G54D10*
D03*
X1665156Y-71138D02*
G54D10*
D03*
X1839031Y-83144D02*
G54D10*
D03*
X1871531Y-83044D02*
G54D10*
D03*
X1685881Y169962D02*
G54D10*
D03*
X1718381Y170062D02*
G54D10*
D03*
X1749338Y170062D02*
G54D10*
D03*
X1781838Y170162D02*
G54D10*
D03*
X1685881Y131862D02*
G54D10*
D03*
X1718381Y131962D02*
G54D10*
D03*
X1749338Y131962D02*
G54D10*
D03*
X1781838Y132062D02*
G54D10*
D03*
X1685881Y94556D02*
G54D10*
D03*
X1718381Y94656D02*
G54D10*
D03*
X1749338Y94656D02*
G54D10*
D03*
X1781838Y94756D02*
G54D10*
D03*
X1685881Y56456D02*
G54D10*
D03*
X1718381Y56556D02*
G54D10*
D03*
X1749338Y56556D02*
G54D10*
D03*
X1781838Y56656D02*
G54D10*
D03*
X1685881Y17562D02*
G54D10*
D03*
X1718381Y17662D02*
G54D10*
D03*
X1749338Y17662D02*
G54D10*
D03*
X1781838Y17762D02*
G54D10*
D03*
X1663656Y-187225D02*
G54D10*
D03*
X1696156Y-187125D02*
G54D10*
D03*
X1663656Y-218181D02*
G54D10*
D03*
X1696156Y-218081D02*
G54D10*
D03*
X1736681Y-187225D02*
G54D10*
D03*
X1769181Y-187125D02*
G54D10*
D03*
X1736681Y-218181D02*
G54D10*
D03*
X1769181Y-218081D02*
G54D10*
D03*
X1816850Y-184844D02*
G54D10*
D03*
X1849350Y-184744D02*
G54D10*
D03*
X1816850Y-215800D02*
G54D10*
D03*
X1849350Y-215700D02*
G54D10*
D03*
X1899400Y-186431D02*
G54D10*
D03*
X1931900Y-186331D02*
G54D10*
D03*
X1899400Y-217388D02*
G54D10*
D03*
X1931900Y-217288D02*
G54D10*
D03*
X1583488Y-182462D02*
G54D10*
D03*
X1615988Y-182362D02*
G54D10*
D03*
X1583488Y-213419D02*
G54D10*
D03*
X1615988Y-213319D02*
G54D10*
D03*
X1499350Y-172938D02*
G54D10*
D03*
X1531850Y-172838D02*
G54D10*
D03*
X1499350Y-203894D02*
G54D10*
D03*
X1531850Y-203794D02*
G54D10*
D03*
X1632656Y-114100D02*
G54D10*
D03*
X1665156Y-114000D02*
G54D10*
D03*
X1712825Y-114100D02*
G54D10*
D03*
X1745325Y-114000D02*
G54D10*
D03*
X1556456Y-116481D02*
G54D10*
D03*
X1588956Y-116381D02*
G54D10*
D03*
X2004925Y-57744D02*
G54D10*
D03*
X2037425Y-57644D02*
G54D10*
D03*
X2004925Y-112512D02*
G54D10*
D03*
X2037425Y-112412D02*
G54D10*
D03*
X2004925Y-145850D02*
G54D10*
D03*
X2037425Y-145750D02*
G54D10*
D03*
X2082712Y-111719D02*
G54D10*
D03*
X2115213Y-111619D02*
G54D10*
D03*
X2045406Y-11706D02*
G54D10*
D03*
X2077906Y-11606D02*
G54D10*
D03*
X2117638Y-11706D02*
G54D10*
D03*
X2150138Y-11606D02*
G54D10*
D03*
X1835106Y601762D02*
G54D10*
D03*
X1867606Y601862D02*
G54D10*
D03*
X1838281Y715269D02*
G54D10*
D03*
X1870781Y715369D02*
G54D10*
D03*
X1916025Y576462D02*
G54D10*
D03*
X1948525Y576562D02*
G54D10*
D03*
X2005719Y576462D02*
G54D10*
D03*
X2038219Y576562D02*
G54D10*
D03*
X2005719Y613769D02*
G54D10*
D03*
X2038219Y613869D02*
G54D10*
D03*
X2005719Y651869D02*
G54D10*
D03*
X2038219Y651969D02*
G54D10*
D03*
X2005719Y689969D02*
G54D10*
D03*
X2038219Y690069D02*
G54D10*
D03*
X2017625Y816969D02*
G54D10*
D03*
X2050125Y817069D02*
G54D10*
D03*
X2017625Y778869D02*
G54D10*
D03*
X2050125Y778969D02*
G54D10*
D03*
X2094575Y817069D02*
G54D10*
D03*
X2127075Y817169D02*
G54D10*
D03*
X2094575Y778969D02*
G54D10*
D03*
X2127075Y779069D02*
G54D10*
D03*
X1698581Y727175D02*
G54D10*
D03*
X1731081Y727275D02*
G54D10*
D03*
X1698581Y766069D02*
G54D10*
D03*
X1731081Y766169D02*
G54D10*
D03*
X1621588Y727175D02*
G54D10*
D03*
X1654088Y727275D02*
G54D10*
D03*
X1621588Y766069D02*
G54D10*
D03*
X1654088Y766169D02*
G54D10*
D03*
X1621588Y803375D02*
G54D10*
D03*
X1654088Y803475D02*
G54D10*
D03*
X1621588Y854175D02*
G54D10*
D03*
X1654088Y854275D02*
G54D10*
D03*
X1531894Y854175D02*
G54D10*
D03*
X1564394Y854275D02*
G54D10*
D03*
X1531894Y816075D02*
G54D10*
D03*
X1564394Y816175D02*
G54D10*
D03*
X1531894Y777975D02*
G54D10*
D03*
X1564394Y778075D02*
G54D10*
D03*
X1468394Y816075D02*
G54D10*
D03*
X1500894Y816175D02*
G54D10*
D03*
X1468394Y854969D02*
G54D10*
D03*
X1500894Y855069D02*
G54D10*
D03*
X1404894Y816075D02*
G54D10*
D03*
X1437394Y816175D02*
G54D10*
D03*
X1404894Y854969D02*
G54D10*
D03*
X1437394Y855069D02*
G54D10*
D03*
X1404894Y771625D02*
G54D10*
D03*
X1437394Y771725D02*
G54D10*
D03*
X1854156Y801788D02*
G54D10*
D03*
X1886656Y801888D02*
G54D10*
D03*
X1788275Y840681D02*
G54D10*
D03*
X1820775Y840781D02*
G54D10*
D03*
X342962Y689075D02*
G54D11*
D03*
X303962Y689075D02*
G54D11*
D03*
X1304044Y918172D02*
G54D12*
D03*
X1692981Y918172D02*
G54D12*
D03*
X688181Y918347D02*
G54D12*
D03*
X1161256Y918347D02*
G54D12*
D03*
M02*
