%FSLAX34Y34*%
%MOMM*%
%LNSILK_TOP*%
G71*
G01*
%ADD10C,0.150*%
%ADD11C,0.206*%
%ADD12C,0.159*%
%ADD13C,0.400*%
%ADD14C,0.200*%
%ADD15C,0.300*%
%ADD16C,0.318*%
%ADD17C,0.250*%
%ADD18C,0.178*%
%ADD19C,0.144*%
%ADD20C,0.600*%
%LPD*%
G54D10*
X1376700Y32344D02*
X1376700Y352344D01*
X1696700Y352344D01*
X1696700Y32344D01*
X1376700Y32344D01*
G54D10*
X1676700Y352344D02*
X1696700Y332344D01*
G54D11*
X1715432Y81599D02*
X1724820Y81599D01*
X1726265Y82466D01*
X1726987Y84199D01*
X1726987Y85932D01*
X1726265Y87666D01*
X1724820Y88532D01*
X1715432Y88532D01*
G54D11*
X1719765Y92576D02*
X1715432Y96909D01*
X1726987Y96909D01*
G54D11*
X1726987Y106153D02*
X1715432Y106153D01*
X1722654Y100953D01*
X1724098Y100953D01*
X1724098Y107886D01*
G54D11*
X1726940Y142360D02*
X1715384Y142360D01*
X1715384Y146693D01*
X1716107Y148427D01*
X1717551Y149293D01*
X1718996Y149293D01*
X1720440Y148427D01*
X1721162Y146693D01*
X1721884Y148427D01*
X1723329Y149293D01*
X1724773Y149293D01*
X1726218Y148427D01*
X1726940Y146693D01*
X1726940Y142360D01*
G54D11*
X1721162Y142360D02*
X1721162Y146693D01*
G54D11*
X1726940Y153337D02*
X1715384Y153337D01*
X1715384Y157670D01*
X1716107Y159404D01*
X1717551Y160270D01*
X1718996Y160270D01*
X1720440Y159404D01*
X1721162Y157670D01*
X1721884Y159404D01*
X1723329Y160270D01*
X1724773Y160270D01*
X1726218Y159404D01*
X1726940Y157670D01*
X1726940Y153337D01*
G54D11*
X1721162Y153337D02*
X1721162Y157670D01*
G54D11*
X1715384Y164314D02*
X1724773Y164314D01*
X1726218Y165181D01*
X1726940Y166914D01*
X1726940Y168647D01*
X1726218Y170381D01*
X1724773Y171247D01*
X1715384Y171247D01*
G54D10*
X1275512Y713500D02*
X1083512Y713500D01*
X1083512Y521500D01*
X1275512Y521500D01*
X1275512Y713500D01*
G54D10*
X1083512Y541500D02*
X1103512Y521500D01*
G54D11*
X1061082Y542975D02*
X1070471Y542975D01*
X1071915Y543842D01*
X1072638Y545575D01*
X1072638Y547308D01*
X1071915Y549042D01*
X1070471Y549908D01*
X1061082Y549908D01*
G54D11*
X1066860Y557419D02*
X1066860Y560885D01*
X1070471Y560885D01*
X1071915Y560019D01*
X1072638Y558285D01*
X1072638Y556552D01*
X1071915Y554819D01*
X1070471Y553952D01*
X1063249Y553952D01*
X1061804Y554819D01*
X1061082Y556552D01*
X1061082Y558285D01*
X1061804Y560019D01*
X1063249Y560885D01*
G54D11*
X1066860Y569262D02*
X1066860Y567529D01*
X1066138Y565796D01*
X1064693Y564929D01*
X1063249Y564929D01*
X1061804Y565796D01*
X1061082Y567529D01*
X1061082Y569262D01*
X1061804Y570996D01*
X1063249Y571862D01*
X1064693Y571862D01*
X1066138Y570996D01*
X1066860Y569262D01*
X1067582Y570996D01*
X1069026Y571862D01*
X1070471Y571862D01*
X1071915Y570996D01*
X1072638Y569262D01*
X1072638Y567529D01*
X1071915Y565796D01*
X1070471Y564929D01*
X1069026Y564929D01*
X1067582Y565796D01*
X1066860Y567529D01*
G54D11*
X1299521Y673150D02*
X1300965Y674017D01*
X1301688Y675750D01*
X1301688Y677483D01*
X1300965Y679217D01*
X1299521Y680083D01*
X1298076Y680083D01*
X1296632Y679217D01*
X1295910Y677483D01*
X1295910Y675750D01*
X1295188Y674017D01*
X1293743Y673150D01*
X1292299Y673150D01*
X1290854Y674017D01*
X1290132Y675750D01*
X1290132Y677483D01*
X1290854Y679217D01*
X1292299Y680083D01*
G54D11*
X1290132Y684127D02*
X1301688Y684127D01*
X1294465Y688460D01*
X1301688Y692794D01*
X1290132Y692794D01*
G54D11*
X1301688Y696838D02*
X1290132Y696838D01*
G54D11*
X1301688Y700882D02*
X1290132Y700882D01*
X1297354Y705215D01*
X1290132Y709549D01*
X1301688Y709549D01*
G54D10*
X1007225Y521500D02*
X1007225Y713500D01*
X815225Y713500D01*
X815225Y521500D01*
X1007225Y521500D01*
G54D10*
X835225Y713500D02*
X815225Y693500D01*
G54D11*
X793130Y564745D02*
X802518Y564745D01*
X803963Y565612D01*
X804685Y567345D01*
X804685Y569078D01*
X803963Y570812D01*
X802518Y571678D01*
X793130Y571678D01*
G54D11*
X804685Y581789D02*
X804685Y575722D01*
X793130Y575722D01*
X793130Y581789D01*
G54D11*
X798907Y575722D02*
X798907Y581789D01*
G54D11*
X798907Y590166D02*
X798907Y588433D01*
X798185Y586700D01*
X796741Y585833D01*
X795296Y585833D01*
X793852Y586700D01*
X793130Y588433D01*
X793130Y590166D01*
X793852Y591900D01*
X795296Y592766D01*
X796741Y592766D01*
X798185Y591900D01*
X798907Y590166D01*
X799630Y591900D01*
X801074Y592766D01*
X802518Y592766D01*
X803963Y591900D01*
X804685Y590166D01*
X804685Y588433D01*
X803963Y586700D01*
X802518Y585833D01*
X801074Y585833D01*
X799630Y586700D01*
X798907Y588433D01*
G54D11*
X1027493Y591585D02*
X1028938Y592452D01*
X1029660Y594185D01*
X1029660Y595918D01*
X1028938Y597652D01*
X1027493Y598518D01*
X1026049Y598518D01*
X1024604Y597652D01*
X1023882Y595918D01*
X1023882Y594185D01*
X1023160Y592452D01*
X1021716Y591585D01*
X1020271Y591585D01*
X1018827Y592452D01*
X1018104Y594185D01*
X1018104Y595918D01*
X1018827Y597652D01*
X1020271Y598518D01*
G54D11*
X1027493Y609495D02*
X1028938Y608629D01*
X1029660Y606895D01*
X1029660Y605162D01*
X1028938Y603429D01*
X1027493Y602562D01*
X1020271Y602562D01*
X1018827Y603429D01*
X1018104Y605162D01*
X1018104Y606895D01*
X1018827Y608629D01*
X1020271Y609495D01*
G54D11*
X1027493Y613539D02*
X1028938Y614406D01*
X1029660Y616139D01*
X1029660Y617872D01*
X1028938Y619606D01*
X1027493Y620472D01*
X1026049Y620472D01*
X1024604Y619606D01*
X1023882Y617872D01*
X1023882Y616139D01*
X1023160Y614406D01*
X1021716Y613539D01*
X1020271Y613539D01*
X1018827Y614406D01*
X1018104Y616139D01*
X1018104Y617872D01*
X1018827Y619606D01*
X1020271Y620472D01*
G54D11*
X1029660Y624516D02*
X1018104Y624516D01*
G54D10*
X623138Y249244D02*
X815138Y249244D01*
X815138Y441244D01*
X623138Y441244D01*
X623138Y249244D01*
G54D10*
X815138Y421244D02*
X795138Y441244D01*
G54D11*
X601732Y264194D02*
X611121Y264194D01*
X612565Y265060D01*
X613288Y266794D01*
X613288Y268527D01*
X612565Y270260D01*
X611121Y271127D01*
X601732Y271127D01*
G54D11*
X613288Y275171D02*
X601732Y275171D01*
X601732Y279504D01*
X602454Y281237D01*
X603899Y282104D01*
X611121Y282104D01*
X612565Y281237D01*
X613288Y279504D01*
X613288Y275171D01*
G54D11*
X601732Y293081D02*
X601732Y286148D01*
X606788Y286148D01*
X606788Y287014D01*
X606065Y288748D01*
X606065Y290481D01*
X606788Y292214D01*
X608232Y293081D01*
X611121Y293081D01*
X612565Y292214D01*
X613288Y290481D01*
X613288Y288748D01*
X612565Y287014D01*
X611121Y286148D01*
G54D11*
X610671Y394369D02*
X612115Y395235D01*
X612838Y396969D01*
X612838Y398702D01*
X612115Y400435D01*
X610671Y401302D01*
X609226Y401302D01*
X607782Y400435D01*
X607060Y398702D01*
X607060Y396969D01*
X606338Y395235D01*
X604893Y394369D01*
X603449Y394369D01*
X602004Y395235D01*
X601282Y396969D01*
X601282Y398702D01*
X602004Y400435D01*
X603449Y401302D01*
G54D11*
X610671Y412279D02*
X612115Y411412D01*
X612838Y409679D01*
X612838Y407946D01*
X612115Y406212D01*
X610671Y405346D01*
X603449Y405346D01*
X602004Y406212D01*
X601282Y407946D01*
X601282Y409679D01*
X602004Y411412D01*
X603449Y412279D01*
G54D11*
X610671Y423256D02*
X612115Y422389D01*
X612838Y420656D01*
X612838Y418923D01*
X612115Y417189D01*
X610671Y416323D01*
X603449Y416323D01*
X602004Y417189D01*
X601282Y418923D01*
X601282Y420656D01*
X602004Y422389D01*
X603449Y423256D01*
G54D10*
X317544Y248450D02*
X509544Y248450D01*
X509544Y440450D01*
X317544Y440450D01*
X317544Y248450D01*
G54D10*
X509544Y420450D02*
X489544Y440450D01*
G54D11*
X296138Y269750D02*
X305527Y269750D01*
X306972Y270617D01*
X307694Y272350D01*
X307694Y274083D01*
X306972Y275817D01*
X305527Y276683D01*
X296138Y276683D01*
G54D11*
X307694Y280727D02*
X296138Y280727D01*
X296138Y285060D01*
X296860Y286794D01*
X298305Y287660D01*
X299749Y287660D01*
X301194Y286794D01*
X301916Y285060D01*
X302638Y286794D01*
X304083Y287660D01*
X305527Y287660D01*
X306972Y286794D01*
X307694Y285060D01*
X307694Y280727D01*
G54D11*
X301916Y280727D02*
X301916Y285060D01*
G54D11*
X296138Y298637D02*
X296138Y291704D01*
X301194Y291704D01*
X301194Y292571D01*
X300472Y294304D01*
X300472Y296037D01*
X301194Y297771D01*
X302638Y298637D01*
X305527Y298637D01*
X306972Y297771D01*
X307694Y296037D01*
X307694Y294304D01*
X306972Y292571D01*
X305527Y291704D01*
G54D11*
X298863Y371350D02*
X310419Y375683D01*
X298863Y380017D01*
G54D11*
X310419Y384061D02*
X298863Y384061D01*
G54D11*
X310419Y388105D02*
X298863Y392438D01*
X310419Y396772D01*
G54D11*
X306086Y389838D02*
X306086Y395038D01*
G54D10*
X496150Y630950D02*
X380150Y630950D01*
X380150Y514950D01*
X496150Y514950D01*
X496150Y630950D01*
G54D10*
X380150Y534950D02*
X400150Y514950D01*
G54D11*
X340257Y542775D02*
X349646Y542775D01*
X351090Y543642D01*
X351812Y545375D01*
X351812Y547108D01*
X351090Y548842D01*
X349646Y549708D01*
X340257Y549708D01*
G54D11*
X351812Y553752D02*
X340257Y553752D01*
X340257Y558085D01*
X340979Y559819D01*
X342424Y560685D01*
X343868Y560685D01*
X345312Y559819D01*
X346035Y558085D01*
X346757Y559819D01*
X348201Y560685D01*
X349646Y560685D01*
X351090Y559819D01*
X351812Y558085D01*
X351812Y553752D01*
G54D11*
X346035Y553752D02*
X346035Y558085D01*
G54D11*
X340257Y564729D02*
X340257Y571662D01*
X341701Y570796D01*
X343868Y569062D01*
X346757Y567329D01*
X348924Y566462D01*
X351812Y566462D01*
G54D11*
X514188Y517165D02*
X514188Y510231D01*
X513465Y510231D01*
X512021Y511098D01*
X507688Y516298D01*
X506243Y517165D01*
X504799Y517165D01*
X503354Y516298D01*
X502632Y514565D01*
X502632Y512831D01*
X503354Y511098D01*
X504799Y510231D01*
G54D11*
X504799Y528142D02*
X503354Y527275D01*
X502632Y525542D01*
X502632Y523808D01*
X503354Y522075D01*
X504799Y521208D01*
X508410Y521208D01*
X509132Y521208D01*
X507688Y523808D01*
X507688Y525542D01*
X508410Y527275D01*
X509854Y528142D01*
X512021Y528142D01*
X513465Y527275D01*
X514188Y525542D01*
X514188Y523808D01*
X513465Y522075D01*
X512021Y521208D01*
X508410Y521208D01*
G54D11*
X502632Y532185D02*
X514188Y532185D01*
X514188Y538252D01*
G54D11*
X512021Y542296D02*
X513465Y543163D01*
X514188Y544896D01*
X514188Y546630D01*
X513465Y548363D01*
X512021Y549230D01*
X510576Y549230D01*
X509132Y548363D01*
X508410Y546630D01*
X508410Y544896D01*
X507688Y543163D01*
X506243Y542296D01*
X504799Y542296D01*
X503354Y543163D01*
X502632Y544896D01*
X502632Y546630D01*
X503354Y548363D01*
X504799Y549230D01*
G54D11*
X504799Y553273D02*
X503354Y554140D01*
X502632Y555873D01*
X502632Y557607D01*
X503354Y559340D01*
X504799Y560207D01*
X506243Y560207D01*
X507688Y559340D01*
X508410Y557607D01*
X509132Y559340D01*
X510576Y560207D01*
X512021Y560207D01*
X513465Y559340D01*
X514188Y557607D01*
X514188Y555873D01*
X513465Y554140D01*
X512021Y553273D01*
G54D11*
X504799Y571184D02*
X512021Y571184D01*
X513465Y570317D01*
X514188Y568584D01*
X514188Y566850D01*
X513465Y565117D01*
X512021Y564250D01*
X504799Y564250D01*
X503354Y565117D01*
X502632Y566850D01*
X502632Y568584D01*
X503354Y570317D01*
X504799Y571184D01*
G54D10*
X481950Y149144D02*
X481950Y-118856D01*
X749950Y-118856D01*
X749950Y149144D01*
X481950Y149144D01*
G54D10*
X729950Y-118856D02*
X749950Y-98856D01*
G54D11*
X762225Y5157D02*
X771614Y5157D01*
X773058Y6024D01*
X773780Y7757D01*
X773780Y9490D01*
X773058Y11224D01*
X771614Y12090D01*
X762225Y12090D01*
G54D11*
X771614Y23067D02*
X773058Y22200D01*
X773780Y20467D01*
X773780Y18734D01*
X773058Y17000D01*
X771614Y16134D01*
X764392Y16134D01*
X762947Y17000D01*
X762225Y18734D01*
X762225Y20467D01*
X762947Y22200D01*
X764392Y23067D01*
G54D11*
X773780Y34044D02*
X773780Y27111D01*
X773058Y27111D01*
X771614Y27978D01*
X767280Y33178D01*
X765836Y34044D01*
X764392Y34044D01*
X762947Y33178D01*
X762225Y31444D01*
X762225Y29711D01*
X762947Y27978D01*
X764392Y27111D01*
G54D11*
X784686Y-16529D02*
X783241Y-17396D01*
X782519Y-19129D01*
X782519Y-20862D01*
X783241Y-22596D01*
X784686Y-23462D01*
X788297Y-23462D01*
X789019Y-23462D01*
X787574Y-20862D01*
X787574Y-19129D01*
X788297Y-17396D01*
X789741Y-16529D01*
X791908Y-16529D01*
X793352Y-17396D01*
X794074Y-19129D01*
X794074Y-20862D01*
X793352Y-22596D01*
X791908Y-23462D01*
X788297Y-23462D01*
G54D11*
X788297Y-8152D02*
X788297Y-9885D01*
X787574Y-11618D01*
X786130Y-12485D01*
X784686Y-12485D01*
X783241Y-11618D01*
X782519Y-9885D01*
X782519Y-8152D01*
X783241Y-6418D01*
X784686Y-5552D01*
X786130Y-5552D01*
X787574Y-6418D01*
X788297Y-8152D01*
X789019Y-6418D01*
X790463Y-5552D01*
X791908Y-5552D01*
X793352Y-6418D01*
X794074Y-8152D01*
X794074Y-9885D01*
X793352Y-11618D01*
X791908Y-12485D01*
X790463Y-12485D01*
X789019Y-11618D01*
X788297Y-9885D01*
G54D11*
X784686Y5425D02*
X791908Y5425D01*
X793352Y4558D01*
X794074Y2825D01*
X794074Y1092D01*
X793352Y-642D01*
X791908Y-1508D01*
X784686Y-1508D01*
X783241Y-642D01*
X782519Y1092D01*
X782519Y2825D01*
X783241Y4558D01*
X784686Y5425D01*
G54D11*
X784686Y16402D02*
X791908Y16402D01*
X793352Y15536D01*
X794074Y13802D01*
X794074Y12069D01*
X793352Y10336D01*
X791908Y9469D01*
X784686Y9469D01*
X783241Y10336D01*
X782519Y12069D01*
X782519Y13802D01*
X783241Y15536D01*
X784686Y16402D01*
G54D11*
X784686Y27379D02*
X791908Y27379D01*
X793352Y26512D01*
X794074Y24779D01*
X794074Y23046D01*
X793352Y21312D01*
X791908Y20446D01*
X784686Y20446D01*
X783241Y21312D01*
X782519Y23046D01*
X782519Y24779D01*
X783241Y26512D01*
X784686Y27379D01*
G54D11*
X794074Y31423D02*
X782519Y31423D01*
X782519Y37490D01*
G54D11*
X788297Y31423D02*
X788297Y37490D01*
G54D11*
X794074Y41534D02*
X782519Y41534D01*
X794074Y48467D01*
X782519Y48467D01*
G54D11*
X788297Y56844D02*
X788297Y55111D01*
X787574Y53378D01*
X786130Y52511D01*
X784686Y52511D01*
X783241Y53378D01*
X782519Y55111D01*
X782519Y56844D01*
X783241Y58578D01*
X784686Y59444D01*
X786130Y59444D01*
X787574Y58578D01*
X788297Y56844D01*
X789019Y58578D01*
X790463Y59444D01*
X791908Y59444D01*
X793352Y58578D01*
X794074Y56844D01*
X794074Y55111D01*
X793352Y53378D01*
X791908Y52511D01*
X790463Y52511D01*
X789019Y53378D01*
X788297Y55111D01*
G54D10*
X164250Y19650D02*
X280250Y19650D01*
X280250Y135650D01*
X164250Y135650D01*
X164250Y19650D01*
G54D10*
X280250Y115650D02*
X260250Y135650D01*
G54D11*
X289094Y28450D02*
X298483Y28450D01*
X299928Y29317D01*
X300650Y31050D01*
X300650Y32783D01*
X299928Y34517D01*
X298483Y35383D01*
X289094Y35383D01*
G54D11*
X300650Y39427D02*
X289094Y43760D01*
X300650Y48094D01*
G54D11*
X296317Y41160D02*
X296317Y46360D01*
G54D11*
X300650Y59071D02*
X300650Y52138D01*
X299928Y52138D01*
X298483Y53005D01*
X294150Y58205D01*
X292706Y59071D01*
X291261Y59071D01*
X289817Y58205D01*
X289094Y56471D01*
X289094Y54738D01*
X289817Y53005D01*
X291261Y52138D01*
G54D11*
X294422Y101767D02*
X295867Y104367D01*
X297311Y105233D01*
X300200Y105233D01*
G54D11*
X300200Y98300D02*
X288644Y98300D01*
X288644Y102633D01*
X289367Y104367D01*
X290811Y105233D01*
X292256Y105233D01*
X293700Y104367D01*
X294422Y102633D01*
X294422Y98300D01*
G54D11*
X300200Y112744D02*
X288644Y112744D01*
G54D11*
X288644Y109277D02*
X288644Y116210D01*
G54D11*
X298033Y127187D02*
X299478Y126321D01*
X300200Y124587D01*
X300200Y122854D01*
X299478Y121121D01*
X298033Y120254D01*
X290811Y120254D01*
X289367Y121121D01*
X288644Y122854D01*
X288644Y124587D01*
X289367Y126321D01*
X290811Y127187D01*
G54D10*
X1761688Y412750D02*
X1761688Y554750D01*
X1619688Y554750D01*
X1619688Y412750D01*
X1761688Y412750D01*
G54D10*
X1639688Y554750D02*
X1619688Y534750D01*
G54D11*
X1601808Y474573D02*
X1611197Y474573D01*
X1612642Y475439D01*
X1613364Y477173D01*
X1613364Y478906D01*
X1612642Y480639D01*
X1611197Y481506D01*
X1601808Y481506D01*
G54D11*
X1601808Y492483D02*
X1611197Y492483D01*
X1612642Y491616D01*
X1613364Y489883D01*
X1613364Y488150D01*
X1612642Y486416D01*
X1611197Y485550D01*
G54D11*
X1603975Y503460D02*
X1602530Y502593D01*
X1601808Y500860D01*
X1601808Y499127D01*
X1602530Y497393D01*
X1603975Y496527D01*
X1607586Y496527D01*
X1608308Y496527D01*
X1606864Y499127D01*
X1606864Y500860D01*
X1607586Y502593D01*
X1609030Y503460D01*
X1611197Y503460D01*
X1612642Y502593D01*
X1613364Y500860D01*
X1613364Y499127D01*
X1612642Y497393D01*
X1611197Y496527D01*
X1607586Y496527D01*
G54D11*
X1781241Y443022D02*
X1769686Y447356D01*
X1781241Y451689D01*
G54D11*
X1776908Y444756D02*
X1776908Y449956D01*
G54D11*
X1781241Y455733D02*
X1769686Y455733D01*
X1769686Y460066D01*
X1770408Y461800D01*
X1771852Y462666D01*
X1779074Y462666D01*
X1780519Y461800D01*
X1781241Y460066D01*
X1781241Y455733D01*
G54D11*
X1781241Y466710D02*
X1769686Y466710D01*
X1769686Y471044D01*
X1770408Y472777D01*
X1771852Y473644D01*
X1773296Y473644D01*
X1774741Y472777D01*
X1775463Y471044D01*
X1776186Y472777D01*
X1777630Y473644D01*
X1779074Y473644D01*
X1780519Y472777D01*
X1781241Y471044D01*
X1781241Y466710D01*
G54D11*
X1775463Y466710D02*
X1775463Y471044D01*
G54D11*
X1776186Y477687D02*
X1776186Y484620D01*
G54D11*
X1769686Y488664D02*
X1781241Y497331D01*
G54D11*
X1781241Y488664D02*
X1769686Y497331D01*
G54D11*
X1779074Y508308D02*
X1780519Y507442D01*
X1781241Y505708D01*
X1781241Y503975D01*
X1780519Y502242D01*
X1779074Y501375D01*
X1771852Y501375D01*
X1770408Y502242D01*
X1769686Y503975D01*
X1769686Y505708D01*
X1770408Y507442D01*
X1771852Y508308D01*
G54D11*
X1769686Y512352D02*
X1781241Y516686D01*
X1769686Y521019D01*
G54D11*
X1775463Y528530D02*
X1776908Y531130D01*
X1778352Y531996D01*
X1781241Y531996D01*
G54D11*
X1781241Y525063D02*
X1769686Y525063D01*
X1769686Y529396D01*
X1770408Y531130D01*
X1771852Y531996D01*
X1773296Y531996D01*
X1774741Y531130D01*
X1775463Y529396D01*
X1775463Y525063D01*
G54D10*
X1124709Y451540D02*
X1144709Y451540D01*
X1144709Y502640D01*
X1124709Y502640D01*
X1124709Y451540D01*
G54D10*
X1129709Y451540D02*
X1139709Y451540D01*
X1139709Y456540D01*
X1129709Y456540D01*
X1129709Y451540D01*
G54D11*
X1095185Y423372D02*
X1106740Y427705D01*
X1095185Y432038D01*
G54D11*
X1100963Y439549D02*
X1102407Y442149D01*
X1103852Y443016D01*
X1106740Y443016D01*
G54D11*
X1106740Y436083D02*
X1095185Y436083D01*
X1095185Y440416D01*
X1095907Y442149D01*
X1097352Y443016D01*
X1098796Y443016D01*
X1100240Y442149D01*
X1100963Y440416D01*
X1100963Y436083D01*
G54D11*
X1099518Y447060D02*
X1095185Y451393D01*
X1106740Y451393D01*
G54D12*
X1130306Y460110D02*
X1130306Y465443D01*
X1131417Y464776D01*
X1133083Y463443D01*
X1135306Y462110D01*
X1136972Y461443D01*
X1139194Y461443D01*
G54D12*
X1137528Y468554D02*
X1138639Y469220D01*
X1139194Y470554D01*
X1139194Y471887D01*
X1138639Y473220D01*
X1137528Y473887D01*
X1134750Y473887D01*
X1134194Y473887D01*
X1135306Y471887D01*
X1135306Y470554D01*
X1134750Y469220D01*
X1133639Y468554D01*
X1131972Y468554D01*
X1130861Y469220D01*
X1130306Y470554D01*
X1130306Y471887D01*
X1130861Y473220D01*
X1131972Y473887D01*
X1134750Y473887D01*
G54D12*
X1130306Y476998D02*
X1139194Y476998D01*
X1139194Y481664D01*
G54D12*
X1131972Y490109D02*
X1137528Y490109D01*
X1138639Y489442D01*
X1139194Y488109D01*
X1139194Y486776D01*
X1138639Y485442D01*
X1137528Y484776D01*
X1131972Y484776D01*
X1130861Y485442D01*
X1130306Y486776D01*
X1130306Y488109D01*
X1130861Y489442D01*
X1131972Y490109D01*
G54D12*
X1130306Y498553D02*
X1130306Y493220D01*
X1134194Y493220D01*
X1134194Y493886D01*
X1133639Y495220D01*
X1133639Y496553D01*
X1134194Y497886D01*
X1135306Y498553D01*
X1137528Y498553D01*
X1138639Y497886D01*
X1139194Y496553D01*
X1139194Y495220D01*
X1138639Y493886D01*
X1137528Y493220D01*
G54D10*
X668481Y583488D02*
X668481Y563488D01*
X719581Y563488D01*
X719581Y583488D01*
X668481Y583488D01*
G54D10*
X668481Y578488D02*
X668481Y568488D01*
X673481Y568488D01*
X673481Y578488D01*
X668481Y578488D01*
G54D11*
X742538Y568409D02*
X751927Y568409D01*
X753372Y569276D01*
X754094Y571009D01*
X754094Y572742D01*
X753372Y574476D01*
X751927Y575342D01*
X742538Y575342D01*
G54D11*
X754094Y579386D02*
X742538Y579386D01*
X742538Y583719D01*
X743260Y585453D01*
X744705Y586319D01*
X751927Y586319D01*
X753372Y585453D01*
X754094Y583719D01*
X754094Y579386D01*
G54D11*
X742538Y590363D02*
X742538Y597296D01*
X743983Y596430D01*
X746149Y594696D01*
X749038Y592963D01*
X751205Y592096D01*
X754094Y592096D01*
G54D11*
X663371Y507420D02*
X664815Y508287D01*
X665537Y510020D01*
X665537Y511754D01*
X664815Y513487D01*
X663371Y514354D01*
X661926Y514354D01*
X660482Y513487D01*
X659760Y511754D01*
X659760Y510020D01*
X659037Y508287D01*
X657593Y507420D01*
X656148Y507420D01*
X654704Y508287D01*
X653982Y510020D01*
X653982Y511754D01*
X654704Y513487D01*
X656148Y514354D01*
G54D11*
X665537Y518397D02*
X653982Y518397D01*
X665537Y525331D01*
X653982Y525331D01*
G54D11*
X653982Y529374D02*
X653982Y536308D01*
X655426Y535441D01*
X657593Y533708D01*
X660482Y531974D01*
X662648Y531108D01*
X665537Y531108D01*
G54D11*
X653982Y547285D02*
X653982Y540351D01*
X659037Y540351D01*
X659037Y541218D01*
X658315Y542951D01*
X658315Y544685D01*
X659037Y546418D01*
X660482Y547285D01*
X663371Y547285D01*
X664815Y546418D01*
X665537Y544685D01*
X665537Y542951D01*
X664815Y541218D01*
X663371Y540351D01*
G54D11*
X658315Y551328D02*
X653982Y555662D01*
X665537Y555662D01*
G54D11*
X653982Y566639D02*
X653982Y559705D01*
X659037Y559705D01*
X659037Y560572D01*
X658315Y562305D01*
X658315Y564039D01*
X659037Y565772D01*
X660482Y566639D01*
X663371Y566639D01*
X664815Y565772D01*
X665537Y564039D01*
X665537Y562305D01*
X664815Y560572D01*
X663371Y559705D01*
G54D11*
X656148Y577616D02*
X663371Y577616D01*
X664815Y576749D01*
X665537Y575016D01*
X665537Y573282D01*
X664815Y571549D01*
X663371Y570682D01*
X656148Y570682D01*
X654704Y571549D01*
X653982Y573282D01*
X653982Y575016D01*
X654704Y576749D01*
X656148Y577616D01*
G54D10*
X1594500Y-122038D02*
X1594500Y-62038D01*
X1466200Y-62038D01*
X1466200Y-122038D01*
X1594500Y-122038D01*
G54D10*
X1594500Y-117038D02*
X1594500Y-67038D01*
X1589500Y-67038D01*
X1589500Y-117038D01*
X1594500Y-117038D01*
G54D10*
X1825388Y-75106D02*
X1825388Y-173106D01*
X1987788Y-173106D01*
X1987788Y-75106D01*
X1825388Y-75106D01*
G54D10*
X1825388Y-104106D02*
X1825388Y-144106D01*
X1835388Y-144106D01*
X1835388Y-104106D01*
X1825388Y-104106D01*
G54D11*
X1794054Y-137086D02*
X1803444Y-137086D01*
X1804888Y-136220D01*
X1805610Y-134486D01*
X1805610Y-132753D01*
X1804888Y-131020D01*
X1803444Y-130153D01*
X1794054Y-130153D01*
G54D11*
X1805610Y-126109D02*
X1794054Y-126109D01*
G54D11*
X1801999Y-126109D02*
X1794054Y-119176D01*
G54D11*
X1799832Y-123509D02*
X1805610Y-119176D01*
G54D11*
X1798388Y-115132D02*
X1794054Y-110799D01*
X1805610Y-110799D01*
G54D11*
X1851626Y-128975D02*
X1851626Y-117419D01*
X1855959Y-124641D01*
X1860292Y-117419D01*
X1860292Y-128975D01*
G54D11*
X1871270Y-117419D02*
X1864336Y-117419D01*
X1864336Y-122475D01*
X1865203Y-122475D01*
X1866936Y-121752D01*
X1868670Y-121752D01*
X1870403Y-122475D01*
X1871270Y-123919D01*
X1871270Y-126808D01*
X1870403Y-128252D01*
X1868670Y-128975D01*
X1866936Y-128975D01*
X1865203Y-128252D01*
X1864336Y-126808D01*
G54D11*
X1875314Y-128975D02*
X1875314Y-117419D01*
X1879647Y-124641D01*
X1883980Y-117419D01*
X1883980Y-128975D01*
G54D11*
X1893224Y-128975D02*
X1893224Y-117419D01*
X1888024Y-124641D01*
X1888024Y-126086D01*
X1894958Y-126086D01*
G54D11*
X1904202Y-128975D02*
X1904202Y-117419D01*
X1899002Y-124641D01*
X1899002Y-126086D01*
X1905935Y-126086D01*
G54D11*
X1916912Y-128975D02*
X1909978Y-128975D01*
X1909978Y-128252D01*
X1910845Y-126808D01*
X1916045Y-122475D01*
X1916912Y-121030D01*
X1916912Y-119586D01*
X1916045Y-118141D01*
X1914312Y-117419D01*
X1912578Y-117419D01*
X1910845Y-118141D01*
X1909978Y-119586D01*
G54D11*
X1927889Y-117419D02*
X1920956Y-117419D01*
X1920956Y-122475D01*
X1921822Y-122475D01*
X1923556Y-121752D01*
X1925289Y-121752D01*
X1927022Y-122475D01*
X1927889Y-123919D01*
X1927889Y-126808D01*
X1927022Y-128252D01*
X1925289Y-128975D01*
X1923556Y-128975D01*
X1921822Y-128252D01*
X1920956Y-126808D01*
G54D11*
X1938866Y-119586D02*
X1937999Y-118141D01*
X1936266Y-117419D01*
X1934532Y-117419D01*
X1932799Y-118141D01*
X1931932Y-119586D01*
X1931932Y-123197D01*
X1931932Y-123919D01*
X1934532Y-122475D01*
X1936266Y-122475D01*
X1937999Y-123197D01*
X1938866Y-124641D01*
X1938866Y-126808D01*
X1937999Y-128252D01*
X1936266Y-128975D01*
X1934532Y-128975D01*
X1932799Y-128252D01*
X1931932Y-126808D01*
X1931932Y-123197D01*
G54D11*
X1942910Y-128975D02*
X1942910Y-117419D01*
X1947243Y-117419D01*
X1948976Y-118141D01*
X1949843Y-119586D01*
X1949843Y-121030D01*
X1948976Y-122475D01*
X1947243Y-123197D01*
X1948976Y-123919D01*
X1949843Y-125364D01*
X1949843Y-126808D01*
X1948976Y-128252D01*
X1947243Y-128975D01*
X1942910Y-128975D01*
G54D11*
X1942910Y-123197D02*
X1947243Y-123197D01*
G54D11*
X1960820Y-117419D02*
X1960820Y-126808D01*
X1959953Y-128252D01*
X1958220Y-128975D01*
X1956486Y-128975D01*
X1954753Y-128252D01*
X1953886Y-126808D01*
G54D10*
X1825388Y37606D02*
X1825388Y-60394D01*
X1987788Y-60394D01*
X1987788Y37606D01*
X1825388Y37606D01*
G54D10*
X1825388Y8606D02*
X1825388Y-31394D01*
X1835388Y-31394D01*
X1835388Y8606D01*
X1825388Y8606D01*
G54D11*
X1794054Y-25168D02*
X1803444Y-25168D01*
X1804888Y-24301D01*
X1805610Y-22568D01*
X1805610Y-20834D01*
X1804888Y-19101D01*
X1803444Y-18234D01*
X1794054Y-18234D01*
G54D11*
X1805610Y-14191D02*
X1794054Y-14191D01*
G54D11*
X1801999Y-14191D02*
X1794054Y-7258D01*
G54D11*
X1799832Y-11591D02*
X1805610Y-7258D01*
G54D11*
X1805610Y3720D02*
X1805610Y-3214D01*
X1804888Y-3214D01*
X1803444Y-2347D01*
X1799110Y2853D01*
X1797666Y3720D01*
X1796221Y3720D01*
X1794777Y2853D01*
X1794054Y1120D01*
X1794054Y-614D01*
X1794777Y-2347D01*
X1796221Y-3214D01*
G54D11*
X1851626Y-18644D02*
X1851626Y-7088D01*
X1855959Y-14311D01*
X1860292Y-7088D01*
X1860292Y-18644D01*
G54D11*
X1871270Y-7088D02*
X1864336Y-7088D01*
X1864336Y-12144D01*
X1865203Y-12144D01*
X1866936Y-11422D01*
X1868670Y-11422D01*
X1870403Y-12144D01*
X1871270Y-13588D01*
X1871270Y-16477D01*
X1870403Y-17922D01*
X1868670Y-18644D01*
X1866936Y-18644D01*
X1865203Y-17922D01*
X1864336Y-16477D01*
G54D11*
X1875314Y-18644D02*
X1875314Y-7088D01*
X1879647Y-14311D01*
X1883980Y-7088D01*
X1883980Y-18644D01*
G54D11*
X1893224Y-18644D02*
X1893224Y-7088D01*
X1888024Y-14311D01*
X1888024Y-15755D01*
X1894958Y-15755D01*
G54D11*
X1904202Y-18644D02*
X1904202Y-7088D01*
X1899002Y-14311D01*
X1899002Y-15755D01*
X1905935Y-15755D01*
G54D11*
X1916912Y-18644D02*
X1909978Y-18644D01*
X1909978Y-17922D01*
X1910845Y-16477D01*
X1916045Y-12144D01*
X1916912Y-10700D01*
X1916912Y-9255D01*
X1916045Y-7811D01*
X1914312Y-7088D01*
X1912578Y-7088D01*
X1910845Y-7811D01*
X1909978Y-9255D01*
G54D11*
X1927889Y-7088D02*
X1920956Y-7088D01*
X1920956Y-12144D01*
X1921822Y-12144D01*
X1923556Y-11422D01*
X1925289Y-11422D01*
X1927022Y-12144D01*
X1927889Y-13588D01*
X1927889Y-16477D01*
X1927022Y-17922D01*
X1925289Y-18644D01*
X1923556Y-18644D01*
X1921822Y-17922D01*
X1920956Y-16477D01*
G54D11*
X1938866Y-9255D02*
X1937999Y-7811D01*
X1936266Y-7088D01*
X1934532Y-7088D01*
X1932799Y-7811D01*
X1931932Y-9255D01*
X1931932Y-12866D01*
X1931932Y-13588D01*
X1934532Y-12144D01*
X1936266Y-12144D01*
X1937999Y-12866D01*
X1938866Y-14311D01*
X1938866Y-16477D01*
X1937999Y-17922D01*
X1936266Y-18644D01*
X1934532Y-18644D01*
X1932799Y-17922D01*
X1931932Y-16477D01*
X1931932Y-12866D01*
G54D11*
X1942910Y-18644D02*
X1942910Y-7088D01*
X1947243Y-7088D01*
X1948976Y-7811D01*
X1949843Y-9255D01*
X1949843Y-10700D01*
X1948976Y-12144D01*
X1947243Y-12866D01*
X1948976Y-13588D01*
X1949843Y-15033D01*
X1949843Y-16477D01*
X1948976Y-17922D01*
X1947243Y-18644D01*
X1942910Y-18644D01*
G54D11*
X1942910Y-12866D02*
X1947243Y-12866D01*
G54D11*
X1960820Y-7088D02*
X1960820Y-16477D01*
X1959953Y-17922D01*
X1958220Y-18644D01*
X1956486Y-18644D01*
X1954753Y-17922D01*
X1953886Y-16477D01*
G54D10*
X1825388Y151906D02*
X1825388Y53906D01*
X1987788Y53906D01*
X1987788Y151906D01*
X1825388Y151906D01*
G54D10*
X1825388Y122906D02*
X1825388Y82906D01*
X1835388Y82906D01*
X1835388Y122906D01*
X1825388Y122906D01*
G54D11*
X1794014Y90779D02*
X1803403Y90779D01*
X1804848Y91645D01*
X1805570Y93379D01*
X1805570Y95112D01*
X1804848Y96845D01*
X1803403Y97712D01*
X1794014Y97712D01*
G54D11*
X1805570Y101756D02*
X1794014Y101756D01*
G54D11*
X1801959Y101756D02*
X1794014Y108689D01*
G54D11*
X1799792Y104356D02*
X1805570Y108689D01*
G54D11*
X1796181Y112733D02*
X1794737Y113599D01*
X1794014Y115333D01*
X1794014Y117066D01*
X1794737Y118799D01*
X1796181Y119666D01*
X1797626Y119666D01*
X1799070Y118799D01*
X1799792Y117066D01*
X1800514Y118799D01*
X1801959Y119666D01*
X1803403Y119666D01*
X1804848Y118799D01*
X1805570Y117066D01*
X1805570Y115333D01*
X1804848Y113599D01*
X1803403Y112733D01*
G54D11*
X1851626Y99625D02*
X1851626Y111180D01*
X1855959Y103958D01*
X1860292Y111180D01*
X1860292Y99625D01*
G54D11*
X1871270Y111180D02*
X1864336Y111180D01*
X1864336Y106125D01*
X1865203Y106125D01*
X1866936Y106847D01*
X1868670Y106847D01*
X1870403Y106125D01*
X1871270Y104680D01*
X1871270Y101792D01*
X1870403Y100347D01*
X1868670Y99625D01*
X1866936Y99625D01*
X1865203Y100347D01*
X1864336Y101792D01*
G54D11*
X1875314Y99625D02*
X1875314Y111180D01*
X1879647Y103958D01*
X1883980Y111180D01*
X1883980Y99625D01*
G54D11*
X1893224Y99625D02*
X1893224Y111180D01*
X1888024Y103958D01*
X1888024Y102514D01*
X1894958Y102514D01*
G54D11*
X1904202Y99625D02*
X1904202Y111180D01*
X1899002Y103958D01*
X1899002Y102514D01*
X1905935Y102514D01*
G54D11*
X1916912Y99625D02*
X1909978Y99625D01*
X1909978Y100347D01*
X1910845Y101792D01*
X1916045Y106125D01*
X1916912Y107569D01*
X1916912Y109014D01*
X1916045Y110458D01*
X1914312Y111180D01*
X1912578Y111180D01*
X1910845Y110458D01*
X1909978Y109014D01*
G54D11*
X1927889Y111180D02*
X1920956Y111180D01*
X1920956Y106125D01*
X1921822Y106125D01*
X1923556Y106847D01*
X1925289Y106847D01*
X1927022Y106125D01*
X1927889Y104680D01*
X1927889Y101792D01*
X1927022Y100347D01*
X1925289Y99625D01*
X1923556Y99625D01*
X1921822Y100347D01*
X1920956Y101792D01*
G54D11*
X1938866Y109014D02*
X1937999Y110458D01*
X1936266Y111180D01*
X1934532Y111180D01*
X1932799Y110458D01*
X1931932Y109014D01*
X1931932Y105402D01*
X1931932Y104680D01*
X1934532Y106125D01*
X1936266Y106125D01*
X1937999Y105402D01*
X1938866Y103958D01*
X1938866Y101792D01*
X1937999Y100347D01*
X1936266Y99625D01*
X1934532Y99625D01*
X1932799Y100347D01*
X1931932Y101792D01*
X1931932Y105402D01*
G54D11*
X1942910Y99625D02*
X1942910Y111180D01*
X1947243Y111180D01*
X1948976Y110458D01*
X1949843Y109014D01*
X1949843Y107569D01*
X1948976Y106125D01*
X1947243Y105402D01*
X1948976Y104680D01*
X1949843Y103236D01*
X1949843Y101792D01*
X1948976Y100347D01*
X1947243Y99625D01*
X1942910Y99625D01*
G54D11*
X1942910Y105402D02*
X1947243Y105402D01*
G54D11*
X1960820Y111180D02*
X1960820Y101792D01*
X1959953Y100347D01*
X1958220Y99625D01*
X1956486Y99625D01*
X1954753Y100347D01*
X1953886Y101792D01*
G54D10*
X1825388Y267000D02*
X1825388Y169000D01*
X1987788Y169000D01*
X1987788Y267000D01*
X1825388Y267000D01*
G54D10*
X1825388Y238000D02*
X1825388Y198000D01*
X1835388Y198000D01*
X1835388Y238000D01*
X1825388Y238000D01*
G54D11*
X1793936Y204352D02*
X1803326Y204352D01*
X1804770Y205218D01*
X1805492Y206952D01*
X1805492Y208685D01*
X1804770Y210418D01*
X1803326Y211285D01*
X1793936Y211285D01*
G54D11*
X1805492Y215329D02*
X1793936Y215329D01*
G54D11*
X1801881Y215329D02*
X1793936Y222262D01*
G54D11*
X1799714Y217929D02*
X1805492Y222262D01*
G54D11*
X1805492Y231506D02*
X1793936Y231506D01*
X1801159Y226306D01*
X1802603Y226306D01*
X1802603Y233239D01*
G54D11*
X1851626Y213131D02*
X1851626Y224687D01*
X1855959Y217464D01*
X1860292Y224687D01*
X1860292Y213131D01*
G54D11*
X1871270Y224687D02*
X1864336Y224687D01*
X1864336Y219631D01*
X1865203Y219631D01*
X1866936Y220354D01*
X1868670Y220354D01*
X1870403Y219631D01*
X1871270Y218187D01*
X1871270Y215298D01*
X1870403Y213854D01*
X1868670Y213131D01*
X1866936Y213131D01*
X1865203Y213854D01*
X1864336Y215298D01*
G54D11*
X1875314Y213131D02*
X1875314Y224687D01*
X1879647Y217464D01*
X1883980Y224687D01*
X1883980Y213131D01*
G54D11*
X1893224Y213131D02*
X1893224Y224687D01*
X1888024Y217464D01*
X1888024Y216020D01*
X1894958Y216020D01*
G54D11*
X1904202Y213131D02*
X1904202Y224687D01*
X1899002Y217464D01*
X1899002Y216020D01*
X1905935Y216020D01*
G54D11*
X1916912Y213131D02*
X1909978Y213131D01*
X1909978Y213854D01*
X1910845Y215298D01*
X1916045Y219631D01*
X1916912Y221076D01*
X1916912Y222520D01*
X1916045Y223964D01*
X1914312Y224687D01*
X1912578Y224687D01*
X1910845Y223964D01*
X1909978Y222520D01*
G54D11*
X1927889Y224687D02*
X1920956Y224687D01*
X1920956Y219631D01*
X1921822Y219631D01*
X1923556Y220354D01*
X1925289Y220354D01*
X1927022Y219631D01*
X1927889Y218187D01*
X1927889Y215298D01*
X1927022Y213854D01*
X1925289Y213131D01*
X1923556Y213131D01*
X1921822Y213854D01*
X1920956Y215298D01*
G54D11*
X1938866Y222520D02*
X1937999Y223964D01*
X1936266Y224687D01*
X1934532Y224687D01*
X1932799Y223964D01*
X1931932Y222520D01*
X1931932Y218909D01*
X1931932Y218187D01*
X1934532Y219631D01*
X1936266Y219631D01*
X1937999Y218909D01*
X1938866Y217464D01*
X1938866Y215298D01*
X1937999Y213854D01*
X1936266Y213131D01*
X1934532Y213131D01*
X1932799Y213854D01*
X1931932Y215298D01*
X1931932Y218909D01*
G54D11*
X1942910Y213131D02*
X1942910Y224687D01*
X1947243Y224687D01*
X1948976Y223964D01*
X1949843Y222520D01*
X1949843Y221076D01*
X1948976Y219631D01*
X1947243Y218909D01*
X1948976Y218187D01*
X1949843Y216742D01*
X1949843Y215298D01*
X1948976Y213854D01*
X1947243Y213131D01*
X1942910Y213131D01*
G54D11*
X1942910Y218909D02*
X1947243Y218909D01*
G54D11*
X1960820Y224687D02*
X1960820Y215298D01*
X1959953Y213854D01*
X1958220Y213131D01*
X1956486Y213131D01*
X1954753Y213854D01*
X1953886Y215298D01*
G54D10*
X1825388Y382094D02*
X1825388Y284094D01*
X1987788Y284094D01*
X1987788Y382094D01*
X1825388Y382094D01*
G54D10*
X1825388Y353094D02*
X1825388Y313094D01*
X1835388Y313094D01*
X1835388Y353094D01*
X1825388Y353094D01*
G54D11*
X1794178Y318188D02*
X1803567Y318188D01*
X1805012Y319054D01*
X1805734Y320788D01*
X1805734Y322521D01*
X1805012Y324254D01*
X1803567Y325121D01*
X1794178Y325121D01*
G54D11*
X1805734Y329165D02*
X1794178Y329165D01*
G54D11*
X1802123Y329165D02*
X1794178Y336098D01*
G54D11*
X1799956Y331765D02*
X1805734Y336098D01*
G54D11*
X1794178Y347075D02*
X1794178Y340142D01*
X1799234Y340142D01*
X1799234Y341008D01*
X1798512Y342742D01*
X1798512Y344475D01*
X1799234Y346208D01*
X1800678Y347075D01*
X1803567Y347075D01*
X1805012Y346208D01*
X1805734Y344475D01*
X1805734Y342742D01*
X1805012Y341008D01*
X1803567Y340142D01*
G54D11*
X1851626Y327432D02*
X1851626Y338987D01*
X1855959Y331765D01*
X1860292Y338987D01*
X1860292Y327432D01*
G54D11*
X1871270Y338987D02*
X1864336Y338987D01*
X1864336Y333932D01*
X1865203Y333932D01*
X1866936Y334654D01*
X1868670Y334654D01*
X1870403Y333932D01*
X1871270Y332487D01*
X1871270Y329598D01*
X1870403Y328154D01*
X1868670Y327432D01*
X1866936Y327432D01*
X1865203Y328154D01*
X1864336Y329598D01*
G54D11*
X1875314Y327432D02*
X1875314Y338987D01*
X1879647Y331765D01*
X1883980Y338987D01*
X1883980Y327432D01*
G54D11*
X1893224Y327432D02*
X1893224Y338987D01*
X1888024Y331765D01*
X1888024Y330320D01*
X1894958Y330320D01*
G54D11*
X1904202Y327432D02*
X1904202Y338987D01*
X1899002Y331765D01*
X1899002Y330320D01*
X1905935Y330320D01*
G54D11*
X1916912Y327432D02*
X1909978Y327432D01*
X1909978Y328154D01*
X1910845Y329598D01*
X1916045Y333932D01*
X1916912Y335376D01*
X1916912Y336820D01*
X1916045Y338265D01*
X1914312Y338987D01*
X1912578Y338987D01*
X1910845Y338265D01*
X1909978Y336820D01*
G54D11*
X1927889Y338987D02*
X1920956Y338987D01*
X1920956Y333932D01*
X1921822Y333932D01*
X1923556Y334654D01*
X1925289Y334654D01*
X1927022Y333932D01*
X1927889Y332487D01*
X1927889Y329598D01*
X1927022Y328154D01*
X1925289Y327432D01*
X1923556Y327432D01*
X1921822Y328154D01*
X1920956Y329598D01*
G54D11*
X1938866Y336820D02*
X1937999Y338265D01*
X1936266Y338987D01*
X1934532Y338987D01*
X1932799Y338265D01*
X1931932Y336820D01*
X1931932Y333209D01*
X1931932Y332487D01*
X1934532Y333932D01*
X1936266Y333932D01*
X1937999Y333209D01*
X1938866Y331765D01*
X1938866Y329598D01*
X1937999Y328154D01*
X1936266Y327432D01*
X1934532Y327432D01*
X1932799Y328154D01*
X1931932Y329598D01*
X1931932Y333209D01*
G54D11*
X1942910Y327432D02*
X1942910Y338987D01*
X1947243Y338987D01*
X1948976Y338265D01*
X1949843Y336820D01*
X1949843Y335376D01*
X1948976Y333932D01*
X1947243Y333209D01*
X1948976Y332487D01*
X1949843Y331043D01*
X1949843Y329598D01*
X1948976Y328154D01*
X1947243Y327432D01*
X1942910Y327432D01*
G54D11*
X1942910Y333209D02*
X1947243Y333209D01*
G54D11*
X1960820Y338987D02*
X1960820Y329598D01*
X1959953Y328154D01*
X1958220Y327432D01*
X1956486Y327432D01*
X1954753Y328154D01*
X1953886Y329598D01*
G54D10*
X1826975Y495600D02*
X1826975Y397600D01*
X1989375Y397600D01*
X1989375Y495600D01*
X1826975Y495600D01*
G54D10*
X1826975Y466600D02*
X1826975Y426600D01*
X1836975Y426600D01*
X1836975Y466600D01*
X1826975Y466600D01*
G54D11*
X1794226Y431142D02*
X1803615Y431142D01*
X1805059Y432008D01*
X1805781Y433742D01*
X1805781Y435475D01*
X1805059Y437208D01*
X1803615Y438075D01*
X1794226Y438075D01*
G54D11*
X1805781Y442119D02*
X1794226Y442119D01*
G54D11*
X1802170Y442119D02*
X1794226Y449052D01*
G54D11*
X1800004Y444719D02*
X1805781Y449052D01*
G54D11*
X1796392Y460029D02*
X1794948Y459162D01*
X1794226Y457429D01*
X1794226Y455696D01*
X1794948Y453962D01*
X1796392Y453096D01*
X1800004Y453096D01*
X1800726Y453096D01*
X1799281Y455696D01*
X1799281Y457429D01*
X1800004Y459162D01*
X1801448Y460029D01*
X1803615Y460029D01*
X1805059Y459162D01*
X1805781Y457429D01*
X1805781Y455696D01*
X1805059Y453962D01*
X1803615Y453096D01*
X1800004Y453096D01*
G54D11*
X1851625Y439350D02*
X1851625Y450906D01*
X1855958Y443683D01*
X1860292Y450906D01*
X1860292Y439350D01*
G54D11*
X1871269Y450906D02*
X1864336Y450906D01*
X1864336Y445850D01*
X1865203Y445850D01*
X1866936Y446572D01*
X1868669Y446572D01*
X1870403Y445850D01*
X1871269Y444406D01*
X1871269Y441517D01*
X1870403Y440072D01*
X1868669Y439350D01*
X1866936Y439350D01*
X1865203Y440072D01*
X1864336Y441517D01*
G54D11*
X1875313Y439350D02*
X1875313Y450906D01*
X1879646Y443683D01*
X1883980Y450906D01*
X1883980Y439350D01*
G54D11*
X1893224Y439350D02*
X1893224Y450906D01*
X1888024Y443683D01*
X1888024Y442239D01*
X1894957Y442239D01*
G54D11*
X1904201Y439350D02*
X1904201Y450906D01*
X1899001Y443683D01*
X1899001Y442239D01*
X1905934Y442239D01*
G54D11*
X1916911Y439350D02*
X1909978Y439350D01*
X1909978Y440072D01*
X1910845Y441517D01*
X1916045Y445850D01*
X1916911Y447294D01*
X1916911Y448739D01*
X1916045Y450183D01*
X1914311Y450906D01*
X1912578Y450906D01*
X1910845Y450183D01*
X1909978Y448739D01*
G54D11*
X1927888Y450906D02*
X1920955Y450906D01*
X1920955Y445850D01*
X1921822Y445850D01*
X1923555Y446572D01*
X1925288Y446572D01*
X1927022Y445850D01*
X1927888Y444406D01*
X1927888Y441517D01*
X1927022Y440072D01*
X1925288Y439350D01*
X1923555Y439350D01*
X1921822Y440072D01*
X1920955Y441517D01*
G54D11*
X1938865Y448739D02*
X1937999Y450183D01*
X1936265Y450906D01*
X1934532Y450906D01*
X1932799Y450183D01*
X1931932Y448739D01*
X1931932Y445128D01*
X1931932Y444406D01*
X1934532Y445850D01*
X1936265Y445850D01*
X1937999Y445128D01*
X1938865Y443683D01*
X1938865Y441517D01*
X1937999Y440072D01*
X1936265Y439350D01*
X1934532Y439350D01*
X1932799Y440072D01*
X1931932Y441517D01*
X1931932Y445128D01*
G54D11*
X1942909Y439350D02*
X1942909Y450906D01*
X1947242Y450906D01*
X1948976Y450183D01*
X1949842Y448739D01*
X1949842Y447294D01*
X1948976Y445850D01*
X1947242Y445128D01*
X1948976Y444406D01*
X1949842Y442961D01*
X1949842Y441517D01*
X1948976Y440072D01*
X1947242Y439350D01*
X1942909Y439350D01*
G54D11*
X1942909Y445128D02*
X1947242Y445128D01*
G54D11*
X1960819Y450906D02*
X1960819Y441517D01*
X1959953Y440072D01*
X1958219Y439350D01*
X1956486Y439350D01*
X1954753Y440072D01*
X1953886Y441517D01*
G54D10*
X1826975Y609900D02*
X1826975Y511900D01*
X1989375Y511900D01*
X1989375Y609900D01*
X1826975Y609900D01*
G54D10*
X1826975Y580900D02*
X1826975Y540900D01*
X1836975Y540900D01*
X1836975Y580900D01*
X1826975Y580900D01*
G54D11*
X1794048Y544865D02*
X1803436Y544865D01*
X1804881Y545732D01*
X1805603Y547465D01*
X1805603Y549198D01*
X1804881Y550932D01*
X1803436Y551798D01*
X1794048Y551798D01*
G54D11*
X1805603Y555842D02*
X1794048Y555842D01*
G54D11*
X1801992Y555842D02*
X1794048Y562775D01*
G54D11*
X1799825Y558442D02*
X1805603Y562775D01*
G54D11*
X1794048Y566819D02*
X1794048Y573752D01*
X1795492Y572886D01*
X1797659Y571152D01*
X1800548Y569419D01*
X1802714Y568552D01*
X1805603Y568552D01*
G54D11*
X1851625Y555238D02*
X1851625Y566793D01*
X1855958Y559571D01*
X1860292Y566793D01*
X1860292Y555238D01*
G54D11*
X1871269Y566793D02*
X1864336Y566793D01*
X1864336Y561738D01*
X1865203Y561738D01*
X1866936Y562460D01*
X1868669Y562460D01*
X1870403Y561738D01*
X1871269Y560293D01*
X1871269Y557404D01*
X1870403Y555960D01*
X1868669Y555238D01*
X1866936Y555238D01*
X1865203Y555960D01*
X1864336Y557404D01*
G54D11*
X1875313Y555238D02*
X1875313Y566793D01*
X1879646Y559571D01*
X1883980Y566793D01*
X1883980Y555238D01*
G54D11*
X1893224Y555238D02*
X1893224Y566793D01*
X1888024Y559571D01*
X1888024Y558126D01*
X1894957Y558126D01*
G54D11*
X1904201Y555238D02*
X1904201Y566793D01*
X1899001Y559571D01*
X1899001Y558126D01*
X1905934Y558126D01*
G54D11*
X1916911Y555238D02*
X1909978Y555238D01*
X1909978Y555960D01*
X1910845Y557404D01*
X1916045Y561738D01*
X1916911Y563182D01*
X1916911Y564626D01*
X1916045Y566071D01*
X1914311Y566793D01*
X1912578Y566793D01*
X1910845Y566071D01*
X1909978Y564626D01*
G54D11*
X1927888Y566793D02*
X1920955Y566793D01*
X1920955Y561738D01*
X1921822Y561738D01*
X1923555Y562460D01*
X1925288Y562460D01*
X1927022Y561738D01*
X1927888Y560293D01*
X1927888Y557404D01*
X1927022Y555960D01*
X1925288Y555238D01*
X1923555Y555238D01*
X1921822Y555960D01*
X1920955Y557404D01*
G54D11*
X1938865Y564626D02*
X1937999Y566071D01*
X1936265Y566793D01*
X1934532Y566793D01*
X1932799Y566071D01*
X1931932Y564626D01*
X1931932Y561015D01*
X1931932Y560293D01*
X1934532Y561738D01*
X1936265Y561738D01*
X1937999Y561015D01*
X1938865Y559571D01*
X1938865Y557404D01*
X1937999Y555960D01*
X1936265Y555238D01*
X1934532Y555238D01*
X1932799Y555960D01*
X1931932Y557404D01*
X1931932Y561015D01*
G54D11*
X1942909Y555238D02*
X1942909Y566793D01*
X1947242Y566793D01*
X1948976Y566071D01*
X1949842Y564626D01*
X1949842Y563182D01*
X1948976Y561738D01*
X1947242Y561015D01*
X1948976Y560293D01*
X1949842Y558849D01*
X1949842Y557404D01*
X1948976Y555960D01*
X1947242Y555238D01*
X1942909Y555238D01*
G54D11*
X1942909Y561015D02*
X1947242Y561015D01*
G54D11*
X1960819Y566793D02*
X1960819Y557404D01*
X1959953Y555960D01*
X1958219Y555238D01*
X1956486Y555238D01*
X1954753Y555960D01*
X1953886Y557404D01*
G54D10*
X1826975Y724200D02*
X1826975Y626200D01*
X1989375Y626200D01*
X1989375Y724200D01*
X1826975Y724200D01*
G54D10*
X1826975Y695200D02*
X1826975Y655200D01*
X1836975Y655200D01*
X1836975Y695200D01*
X1826975Y695200D01*
G54D11*
X1798776Y659898D02*
X1808165Y659898D01*
X1809610Y660764D01*
X1810332Y662498D01*
X1810332Y664231D01*
X1809610Y665964D01*
X1808165Y666831D01*
X1798776Y666831D01*
G54D11*
X1810332Y670875D02*
X1798776Y670875D01*
G54D11*
X1806721Y670875D02*
X1798776Y677808D01*
G54D11*
X1804554Y673475D02*
X1810332Y677808D01*
G54D11*
X1804554Y686185D02*
X1804554Y684452D01*
X1803832Y682718D01*
X1802388Y681852D01*
X1800943Y681852D01*
X1799499Y682718D01*
X1798776Y684452D01*
X1798776Y686185D01*
X1799499Y687918D01*
X1800943Y688785D01*
X1802388Y688785D01*
X1803832Y687918D01*
X1804554Y686185D01*
X1805276Y687918D01*
X1806721Y688785D01*
X1808165Y688785D01*
X1809610Y687918D01*
X1810332Y686185D01*
X1810332Y684452D01*
X1809610Y682718D01*
X1808165Y681852D01*
X1806721Y681852D01*
X1805276Y682718D01*
X1804554Y684452D01*
G54D11*
X1851625Y669538D02*
X1851625Y681093D01*
X1855958Y673871D01*
X1860292Y681093D01*
X1860292Y669538D01*
G54D11*
X1871269Y681093D02*
X1864336Y681093D01*
X1864336Y676038D01*
X1865203Y676038D01*
X1866936Y676760D01*
X1868669Y676760D01*
X1870403Y676038D01*
X1871269Y674593D01*
X1871269Y671704D01*
X1870403Y670260D01*
X1868669Y669538D01*
X1866936Y669538D01*
X1865203Y670260D01*
X1864336Y671704D01*
G54D11*
X1875313Y669538D02*
X1875313Y681093D01*
X1879646Y673871D01*
X1883980Y681093D01*
X1883980Y669538D01*
G54D11*
X1893224Y669538D02*
X1893224Y681093D01*
X1888024Y673871D01*
X1888024Y672426D01*
X1894957Y672426D01*
G54D11*
X1904201Y669538D02*
X1904201Y681093D01*
X1899001Y673871D01*
X1899001Y672426D01*
X1905934Y672426D01*
G54D11*
X1916911Y669538D02*
X1909978Y669538D01*
X1909978Y670260D01*
X1910845Y671704D01*
X1916045Y676038D01*
X1916911Y677482D01*
X1916911Y678926D01*
X1916045Y680371D01*
X1914311Y681093D01*
X1912578Y681093D01*
X1910845Y680371D01*
X1909978Y678926D01*
G54D11*
X1927888Y681093D02*
X1920955Y681093D01*
X1920955Y676038D01*
X1921822Y676038D01*
X1923555Y676760D01*
X1925288Y676760D01*
X1927022Y676038D01*
X1927888Y674593D01*
X1927888Y671704D01*
X1927022Y670260D01*
X1925288Y669538D01*
X1923555Y669538D01*
X1921822Y670260D01*
X1920955Y671704D01*
G54D11*
X1938865Y678926D02*
X1937999Y680371D01*
X1936265Y681093D01*
X1934532Y681093D01*
X1932799Y680371D01*
X1931932Y678926D01*
X1931932Y675315D01*
X1931932Y674593D01*
X1934532Y676038D01*
X1936265Y676038D01*
X1937999Y675315D01*
X1938865Y673871D01*
X1938865Y671704D01*
X1937999Y670260D01*
X1936265Y669538D01*
X1934532Y669538D01*
X1932799Y670260D01*
X1931932Y671704D01*
X1931932Y675315D01*
G54D11*
X1942909Y669538D02*
X1942909Y681093D01*
X1947242Y681093D01*
X1948976Y680371D01*
X1949842Y678926D01*
X1949842Y677482D01*
X1948976Y676038D01*
X1947242Y675315D01*
X1948976Y674593D01*
X1949842Y673149D01*
X1949842Y671704D01*
X1948976Y670260D01*
X1947242Y669538D01*
X1942909Y669538D01*
G54D11*
X1942909Y675315D02*
X1947242Y675315D01*
G54D11*
X1960819Y681093D02*
X1960819Y671704D01*
X1959953Y670260D01*
X1958219Y669538D01*
X1956486Y669538D01*
X1954753Y670260D01*
X1953886Y671704D01*
G54D10*
X1145381Y399256D02*
X1145381Y385762D01*
X1151731Y379412D01*
X1203325Y379412D01*
X1203325Y399256D01*
G54D10*
X1145381Y416619D02*
X1145381Y430113D01*
X1151731Y436463D01*
X1203325Y436463D01*
X1203325Y416619D01*
G54D10*
X1119188Y381794D02*
X1135062Y381794D01*
G54D10*
X1127125Y389731D02*
X1127125Y373856D01*
G54D11*
X1108879Y377275D02*
X1110324Y376408D01*
X1111046Y374675D01*
X1111046Y372942D01*
X1110324Y371208D01*
X1108879Y370342D01*
X1101657Y370342D01*
X1100212Y371208D01*
X1099490Y372942D01*
X1099490Y374675D01*
X1100212Y376408D01*
X1101657Y377275D01*
G54D11*
X1105268Y385652D02*
X1105268Y383919D01*
X1104546Y382185D01*
X1103102Y381319D01*
X1101657Y381319D01*
X1100212Y382185D01*
X1099490Y383919D01*
X1099490Y385652D01*
X1100212Y387385D01*
X1101657Y388252D01*
X1103102Y388252D01*
X1104546Y387385D01*
X1105268Y385652D01*
X1105990Y387385D01*
X1107435Y388252D01*
X1108879Y388252D01*
X1110324Y387385D01*
X1111046Y385652D01*
X1111046Y383919D01*
X1110324Y382185D01*
X1108879Y381319D01*
X1107435Y381319D01*
X1105990Y382185D01*
X1105268Y383919D01*
G54D10*
X1254125Y399256D02*
X1254125Y385762D01*
X1260475Y379412D01*
X1312069Y379412D01*
X1312069Y399256D01*
G54D10*
X1254125Y416619D02*
X1254125Y430113D01*
X1260475Y436463D01*
X1312069Y436463D01*
X1312069Y416619D01*
G54D10*
X1227931Y381794D02*
X1243806Y381794D01*
G54D10*
X1235869Y389731D02*
X1235869Y373856D01*
G54D11*
X1297791Y351875D02*
X1299235Y351008D01*
X1299958Y349275D01*
X1299958Y347542D01*
X1299235Y345808D01*
X1297791Y344942D01*
X1290569Y344942D01*
X1289124Y345808D01*
X1288402Y347542D01*
X1288402Y349275D01*
X1289124Y351008D01*
X1290569Y351875D01*
G54D11*
X1297791Y355919D02*
X1299235Y356785D01*
X1299958Y358519D01*
X1299958Y360252D01*
X1299235Y361985D01*
X1297791Y362852D01*
X1294180Y362852D01*
X1293458Y362852D01*
X1294902Y360252D01*
X1294902Y358519D01*
X1294180Y356785D01*
X1292735Y355919D01*
X1290569Y355919D01*
X1289124Y356785D01*
X1288402Y358519D01*
X1288402Y360252D01*
X1289124Y361985D01*
X1290569Y362852D01*
X1294180Y362852D01*
G54D10*
X883444Y399256D02*
X883444Y385762D01*
X889794Y379412D01*
X941388Y379412D01*
X941388Y399256D01*
G54D10*
X883444Y416619D02*
X883444Y430113D01*
X889794Y436463D01*
X941388Y436463D01*
X941388Y416619D01*
G54D10*
X857250Y381794D02*
X873125Y381794D01*
G54D10*
X865188Y389731D02*
X865188Y373856D01*
G54D11*
X858218Y433233D02*
X859662Y432366D01*
X860384Y430633D01*
X860384Y428899D01*
X859662Y427166D01*
X858218Y426299D01*
X850995Y426299D01*
X849551Y427166D01*
X848829Y428899D01*
X848829Y430633D01*
X849551Y432366D01*
X850995Y433233D01*
G54D11*
X848829Y444210D02*
X848829Y437276D01*
X853884Y437276D01*
X853884Y438143D01*
X853162Y439876D01*
X853162Y441610D01*
X853884Y443343D01*
X855329Y444210D01*
X858218Y444210D01*
X859662Y443343D01*
X860384Y441610D01*
X860384Y439876D01*
X859662Y438143D01*
X858218Y437276D01*
G54D10*
X999331Y399256D02*
X999331Y385762D01*
X1005681Y379412D01*
X1057275Y379412D01*
X1057275Y399256D01*
G54D10*
X999331Y416619D02*
X999331Y430113D01*
X1005681Y436463D01*
X1057275Y436463D01*
X1057275Y416619D01*
G54D10*
X973138Y381794D02*
X989012Y381794D01*
G54D10*
X981075Y389731D02*
X981075Y373856D01*
G54D11*
X980292Y433632D02*
X981736Y432765D01*
X982458Y431032D01*
X982458Y429298D01*
X981736Y427565D01*
X980292Y426698D01*
X973070Y426698D01*
X971625Y427565D01*
X970903Y429298D01*
X970903Y431032D01*
X971625Y432765D01*
X973070Y433632D01*
G54D11*
X973070Y444609D02*
X971625Y443742D01*
X970903Y442009D01*
X970903Y440275D01*
X971625Y438542D01*
X973070Y437675D01*
X976681Y437675D01*
X977403Y437675D01*
X975958Y440275D01*
X975958Y442009D01*
X976681Y443742D01*
X978125Y444609D01*
X980292Y444609D01*
X981736Y443742D01*
X982458Y442009D01*
X982458Y440275D01*
X981736Y438542D01*
X980292Y437675D01*
X976681Y437675D01*
G54D10*
X643588Y563488D02*
X643588Y583488D01*
X540688Y583488D01*
X540688Y563488D01*
X643588Y563488D01*
G54D10*
X643588Y568488D02*
X643588Y578488D01*
X638588Y578488D01*
X638588Y568488D01*
X643588Y568488D01*
G54D11*
X604747Y628964D02*
X614136Y628964D01*
X615580Y629831D01*
X616302Y631564D01*
X616302Y633297D01*
X615580Y635031D01*
X614136Y635897D01*
X604747Y635897D01*
G54D11*
X614136Y646874D02*
X615580Y646008D01*
X616302Y644274D01*
X616302Y642541D01*
X615580Y640808D01*
X614136Y639941D01*
X606914Y639941D01*
X605469Y640808D01*
X604747Y642541D01*
X604747Y644274D01*
X605469Y646008D01*
X606914Y646874D01*
G54D11*
X604747Y650918D02*
X604747Y657851D01*
X606191Y656985D01*
X608358Y655251D01*
X611247Y653518D01*
X613414Y652651D01*
X616302Y652651D01*
G54D11*
X535684Y517184D02*
X535684Y510250D01*
X534962Y510250D01*
X533517Y511117D01*
X529184Y516317D01*
X527739Y517184D01*
X526295Y517184D01*
X524850Y516317D01*
X524128Y514584D01*
X524128Y512850D01*
X524850Y511117D01*
X526295Y510250D01*
G54D11*
X526295Y528160D02*
X524850Y527294D01*
X524128Y525560D01*
X524128Y523827D01*
X524850Y522094D01*
X526295Y521227D01*
X529906Y521227D01*
X530628Y521227D01*
X529184Y523827D01*
X529184Y525560D01*
X529906Y527294D01*
X531350Y528160D01*
X533517Y528160D01*
X534962Y527294D01*
X535684Y525560D01*
X535684Y523827D01*
X534962Y522094D01*
X533517Y521227D01*
X529906Y521227D01*
G54D11*
X524128Y532204D02*
X535684Y532204D01*
X535684Y538271D01*
G54D11*
X533517Y542315D02*
X534962Y543182D01*
X535684Y544915D01*
X535684Y546648D01*
X534962Y548382D01*
X533517Y549248D01*
X532073Y549248D01*
X530628Y548382D01*
X529906Y546648D01*
X529906Y544915D01*
X529184Y543182D01*
X527739Y542315D01*
X526295Y542315D01*
X524850Y543182D01*
X524128Y544915D01*
X524128Y546648D01*
X524850Y548382D01*
X526295Y549248D01*
G54D11*
X526295Y553292D02*
X524850Y554159D01*
X524128Y555892D01*
X524128Y557626D01*
X524850Y559359D01*
X526295Y560226D01*
X527739Y560226D01*
X529184Y559359D01*
X529906Y557626D01*
X530628Y559359D01*
X532073Y560226D01*
X533517Y560226D01*
X534962Y559359D01*
X535684Y557626D01*
X535684Y555892D01*
X534962Y554159D01*
X533517Y553292D01*
G54D11*
X535684Y571202D02*
X535684Y564269D01*
X534962Y564269D01*
X533517Y565136D01*
X529184Y570336D01*
X527739Y571202D01*
X526295Y571202D01*
X524850Y570336D01*
X524128Y568602D01*
X524128Y566869D01*
X524850Y565136D01*
X526295Y564269D01*
G54D10*
X231775Y589756D02*
X231775Y576262D01*
X238125Y569912D01*
X289719Y569912D01*
X289719Y589756D01*
G54D10*
X231775Y607119D02*
X231775Y620613D01*
X238125Y626963D01*
X289719Y626963D01*
X289719Y607119D01*
G54D10*
X205581Y572294D02*
X221456Y572294D01*
G54D10*
X213519Y580231D02*
X213519Y564356D01*
G54D11*
X266636Y646424D02*
X268080Y645557D01*
X268802Y643824D01*
X268802Y642090D01*
X268080Y640357D01*
X266636Y639490D01*
X259414Y639490D01*
X257969Y640357D01*
X257247Y642090D01*
X257247Y643824D01*
X257969Y645557D01*
X259414Y646424D01*
G54D11*
X268802Y655668D02*
X257247Y655668D01*
X264469Y650468D01*
X265914Y650468D01*
X265914Y657401D01*
G54D10*
X168275Y259556D02*
X168275Y246062D01*
X174625Y239712D01*
X226219Y239712D01*
X226219Y259556D01*
G54D10*
X168275Y276919D02*
X168275Y290413D01*
X174625Y296763D01*
X226219Y296763D01*
X226219Y276919D01*
G54D10*
X142081Y242094D02*
X157956Y242094D01*
G54D10*
X150019Y250031D02*
X150019Y234156D01*
G54D11*
X260755Y265987D02*
X262199Y265120D01*
X262922Y263387D01*
X262922Y261653D01*
X262199Y259920D01*
X260755Y259053D01*
X253533Y259053D01*
X252088Y259920D01*
X251366Y261653D01*
X251366Y263387D01*
X252088Y265120D01*
X253533Y265987D01*
G54D11*
X262922Y276964D02*
X262922Y270030D01*
X262199Y270030D01*
X260755Y270897D01*
X256422Y276097D01*
X254977Y276964D01*
X253533Y276964D01*
X252088Y276097D01*
X251366Y274364D01*
X251366Y272630D01*
X252088Y270897D01*
X253533Y270030D01*
G54D10*
X99448Y297547D02*
X85954Y297547D01*
X79604Y291197D01*
X79604Y239604D01*
X99448Y239604D01*
G54D10*
X116811Y297547D02*
X130304Y297547D01*
X136654Y291197D01*
X136654Y239604D01*
X116811Y239604D01*
G54D10*
X81986Y323741D02*
X81986Y307866D01*
G54D10*
X89923Y315804D02*
X74048Y315804D01*
G54D11*
X82657Y209086D02*
X84101Y208220D01*
X84824Y206486D01*
X84824Y204753D01*
X84101Y203020D01*
X82657Y202153D01*
X75434Y202153D01*
X73990Y203020D01*
X73268Y204753D01*
X73268Y206486D01*
X73990Y208220D01*
X75434Y209086D01*
G54D11*
X77601Y213130D02*
X73268Y217463D01*
X84824Y217463D01*
G54D10*
X116550Y85388D02*
X73950Y85388D01*
X73950Y120988D01*
X116550Y120988D01*
X116550Y85388D01*
G54D11*
X120312Y132259D02*
X108757Y132259D01*
X108757Y136592D01*
X109479Y138325D01*
X110924Y139192D01*
X118146Y139192D01*
X119590Y138325D01*
X120312Y136592D01*
X120312Y132259D01*
G54D11*
X120312Y150169D02*
X120312Y143236D01*
X119590Y143236D01*
X118146Y144102D01*
X113812Y149302D01*
X112368Y150169D01*
X110924Y150169D01*
X109479Y149302D01*
X108757Y147569D01*
X108757Y145836D01*
X109479Y144102D01*
X110924Y143236D01*
G54D10*
X116550Y21888D02*
X73950Y21888D01*
X73950Y57488D01*
X116550Y57488D01*
X116550Y21888D01*
G54D11*
X135052Y30766D02*
X123496Y30766D01*
X123496Y35100D01*
X124218Y36833D01*
X125662Y37700D01*
X132885Y37700D01*
X134329Y36833D01*
X135052Y35100D01*
X135052Y30766D01*
G54D11*
X127829Y41743D02*
X123496Y46076D01*
X135052Y46076D01*
G54D10*
X1802475Y706894D02*
X1759875Y706894D01*
X1759875Y742494D01*
X1802475Y742494D01*
X1802475Y706894D01*
G54D11*
X1748312Y718299D02*
X1750478Y722632D01*
G54D11*
X1741090Y721766D02*
X1748312Y721766D01*
X1749756Y720899D01*
X1750478Y719166D01*
X1750478Y717432D01*
X1749756Y715699D01*
X1748312Y714832D01*
X1741090Y714832D01*
X1739645Y715699D01*
X1738923Y717432D01*
X1738923Y719166D01*
X1739645Y720899D01*
X1741090Y721766D01*
G54D11*
X1741090Y726676D02*
X1739645Y727543D01*
X1738923Y729276D01*
X1738923Y731010D01*
X1739645Y732743D01*
X1741090Y733610D01*
X1742534Y733610D01*
X1743978Y732743D01*
X1744701Y731010D01*
X1745423Y732743D01*
X1746867Y733610D01*
X1748312Y733610D01*
X1749756Y732743D01*
X1750478Y731010D01*
X1750478Y729276D01*
X1749756Y727543D01*
X1748312Y726676D01*
G54D12*
X1763637Y693928D02*
X1758304Y693928D01*
X1758304Y694483D01*
X1758971Y695594D01*
X1762971Y698928D01*
X1763637Y700039D01*
X1763637Y701150D01*
X1762971Y702261D01*
X1761637Y702816D01*
X1760304Y702816D01*
X1758971Y702261D01*
X1758304Y701150D01*
G54D12*
X1766748Y693928D02*
X1766748Y702816D01*
X1772081Y693928D01*
X1772081Y702816D01*
G54D12*
X1775192Y701150D02*
X1775859Y702261D01*
X1777192Y702816D01*
X1778525Y702816D01*
X1779859Y702261D01*
X1780525Y701150D01*
X1780525Y700039D01*
X1779859Y698928D01*
X1778525Y698372D01*
X1779859Y697816D01*
X1780525Y696705D01*
X1780525Y695594D01*
X1779859Y694483D01*
X1778525Y693928D01*
X1777192Y693928D01*
X1775859Y694483D01*
X1775192Y695594D01*
G54D12*
X1783636Y695594D02*
X1784303Y694483D01*
X1785636Y693928D01*
X1786969Y693928D01*
X1788303Y694483D01*
X1788969Y695594D01*
X1788969Y698372D01*
X1788969Y698928D01*
X1786969Y697816D01*
X1785636Y697816D01*
X1784303Y698372D01*
X1783636Y699483D01*
X1783636Y701150D01*
X1784303Y702261D01*
X1785636Y702816D01*
X1786969Y702816D01*
X1788303Y702261D01*
X1788969Y701150D01*
X1788969Y698372D01*
G54D12*
X1797413Y701150D02*
X1797413Y695594D01*
X1796747Y694483D01*
X1795413Y693928D01*
X1794080Y693928D01*
X1792747Y694483D01*
X1792080Y695594D01*
X1792080Y701150D01*
X1792747Y702261D01*
X1794080Y702816D01*
X1795413Y702816D01*
X1796747Y702261D01*
X1797413Y701150D01*
G54D12*
X1804524Y693928D02*
X1804524Y702816D01*
X1800524Y697261D01*
X1800524Y696150D01*
X1805857Y696150D01*
G54D10*
X2182019Y-15519D02*
X2040019Y-15519D01*
X2040019Y-157519D01*
X2182019Y-157519D01*
X2182019Y-15519D01*
G54D10*
X2040019Y-137519D02*
X2060019Y-157519D01*
G54D11*
X2020512Y-138871D02*
X2029901Y-138871D01*
X2031345Y-138004D01*
X2032067Y-136271D01*
X2032067Y-134538D01*
X2031345Y-132804D01*
X2029901Y-131938D01*
X2020512Y-131938D01*
G54D11*
X2020512Y-127894D02*
X2032067Y-127894D01*
X2032067Y-121827D01*
G54D11*
X2024845Y-117783D02*
X2020512Y-113450D01*
X2032067Y-113450D01*
G54D11*
X2029487Y-55655D02*
X2030931Y-56522D01*
X2031653Y-58255D01*
X2031653Y-59988D01*
X2030931Y-61722D01*
X2029487Y-62588D01*
X2022264Y-62588D01*
X2020820Y-61722D01*
X2020098Y-59988D01*
X2020098Y-58255D01*
X2020820Y-56522D01*
X2022264Y-55655D01*
G54D11*
X2031653Y-51611D02*
X2020098Y-47278D01*
X2031653Y-42945D01*
G54D11*
X2027320Y-49878D02*
X2027320Y-44678D01*
G54D11*
X2029487Y-38900D02*
X2030931Y-38034D01*
X2031653Y-36300D01*
X2031653Y-34567D01*
X2030931Y-32834D01*
X2029487Y-31967D01*
X2028042Y-31967D01*
X2026598Y-32834D01*
X2025876Y-34567D01*
X2025876Y-36300D01*
X2025153Y-38034D01*
X2023709Y-38900D01*
X2022264Y-38900D01*
X2020820Y-38034D01*
X2020098Y-36300D01*
X2020098Y-34567D01*
X2020820Y-32834D01*
X2022264Y-31967D01*
G54D11*
X2031653Y-11055D02*
X2020098Y-11055D01*
X2020098Y-6722D01*
X2020820Y-4989D01*
X2022264Y-4122D01*
X2023709Y-4122D01*
X2025153Y-4989D01*
X2025876Y-6722D01*
X2025876Y-11055D01*
G54D11*
X2031653Y-78D02*
X2020098Y4255D01*
X2031653Y8588D01*
G54D11*
X2027320Y1655D02*
X2027320Y6855D01*
G54D11*
X2020098Y12633D02*
X2031653Y12633D01*
X2031653Y18700D01*
G54D10*
X234950Y512762D02*
X234950Y503238D01*
X238125Y500062D01*
X242094Y500062D01*
G54D10*
X234950Y531713D02*
X234950Y541238D01*
X238125Y544413D01*
X242094Y544413D01*
G54D10*
X214312Y501650D02*
X230188Y501650D01*
G54D10*
X222250Y509588D02*
X222250Y493712D01*
G54D10*
X1129109Y92472D02*
X1129109Y66278D01*
X1154509Y66278D01*
G54D10*
X1129109Y178197D02*
X1129109Y186928D01*
X1133872Y191691D01*
X1143397Y191691D01*
G54D10*
X1318022Y191691D02*
X1326753Y191691D01*
X1333897Y184547D01*
X1333897Y176609D01*
G54D10*
X1318022Y66378D02*
X1326753Y66378D01*
X1333897Y73522D01*
X1333897Y81460D01*
G54D11*
X1234204Y40081D02*
X1234204Y43548D01*
X1237815Y43548D01*
X1239260Y42681D01*
X1239982Y40948D01*
X1239982Y39214D01*
X1239260Y37481D01*
X1237815Y36614D01*
X1230593Y36614D01*
X1229149Y37481D01*
X1228427Y39214D01*
X1228427Y40948D01*
X1229149Y42681D01*
X1230593Y43548D01*
G54D11*
X1232760Y47591D02*
X1228427Y51925D01*
X1239982Y51925D01*
G54D11*
X1145821Y134726D02*
X1150155Y139059D01*
X1150155Y127504D01*
G54D11*
X1161132Y139059D02*
X1154198Y139059D01*
X1154198Y134004D01*
X1155065Y134004D01*
X1156798Y134726D01*
X1158532Y134726D01*
X1160265Y134004D01*
X1161132Y132559D01*
X1161132Y129670D01*
X1160265Y128226D01*
X1158532Y127504D01*
X1156798Y127504D01*
X1155065Y128226D01*
X1154198Y129670D01*
G54D11*
X1165175Y127504D02*
X1165175Y127504D01*
G54D11*
X1176153Y136892D02*
X1175286Y138337D01*
X1173553Y139059D01*
X1171819Y139059D01*
X1170086Y138337D01*
X1169219Y136892D01*
X1169219Y133281D01*
X1169219Y132559D01*
X1171819Y134004D01*
X1173553Y134004D01*
X1175286Y133281D01*
X1176153Y131837D01*
X1176153Y129670D01*
X1175286Y128226D01*
X1173553Y127504D01*
X1171819Y127504D01*
X1170086Y128226D01*
X1169219Y129670D01*
X1169219Y133281D01*
G54D11*
X1187130Y136892D02*
X1186263Y138337D01*
X1184530Y139059D01*
X1182796Y139059D01*
X1181063Y138337D01*
X1180196Y136892D01*
X1180196Y133281D01*
X1180196Y132559D01*
X1182796Y134004D01*
X1184530Y134004D01*
X1186263Y133281D01*
X1187130Y131837D01*
X1187130Y129670D01*
X1186263Y128226D01*
X1184530Y127504D01*
X1182796Y127504D01*
X1181063Y128226D01*
X1180196Y129670D01*
X1180196Y133281D01*
G54D11*
X1191173Y139059D02*
X1198107Y139059D01*
X1197240Y137615D01*
X1195507Y135448D01*
X1193773Y132559D01*
X1192907Y130392D01*
X1192907Y127504D01*
G54D11*
X1209084Y127504D02*
X1202150Y127504D01*
X1202150Y128226D01*
X1203017Y129670D01*
X1208217Y134004D01*
X1209084Y135448D01*
X1209084Y136892D01*
X1208217Y138337D01*
X1206484Y139059D01*
X1204750Y139059D01*
X1203017Y138337D01*
X1202150Y136892D01*
G54D11*
X1217344Y127504D02*
X1217344Y139059D01*
X1221678Y131837D01*
X1226011Y139059D01*
X1226011Y127504D01*
G54D11*
X1230055Y127504D02*
X1230055Y139059D01*
G54D11*
X1236989Y127504D02*
X1236989Y139059D01*
G54D11*
X1230055Y133281D02*
X1236989Y133281D01*
G54D11*
X1241032Y134004D02*
X1246232Y134004D01*
X1241032Y127504D01*
X1246232Y127504D01*
G54D10*
X479188Y836912D02*
X479188Y714912D01*
X603488Y714912D01*
X603488Y836912D01*
X479188Y836912D01*
G54D10*
X479188Y795912D02*
X479188Y755912D01*
X489188Y755912D01*
X489188Y795912D01*
X479188Y795912D01*
G54D11*
X500161Y702752D02*
X502761Y701308D01*
X503628Y699863D01*
X503628Y696974D01*
G54D11*
X496694Y696974D02*
X496694Y708530D01*
X501028Y708530D01*
X502761Y707808D01*
X503628Y706363D01*
X503628Y704919D01*
X502761Y703474D01*
X501028Y702752D01*
X496694Y702752D01*
G54D11*
X514605Y699141D02*
X513738Y697697D01*
X512005Y696974D01*
X510271Y696974D01*
X508538Y697697D01*
X507671Y699141D01*
X507671Y706363D01*
X508538Y707808D01*
X510271Y708530D01*
X512005Y708530D01*
X513738Y707808D01*
X514605Y706363D01*
G54D11*
X525582Y696974D02*
X518648Y696974D01*
X518648Y697697D01*
X519515Y699141D01*
X524715Y703474D01*
X525582Y704919D01*
X525582Y706363D01*
X524715Y707808D01*
X522982Y708530D01*
X521248Y708530D01*
X519515Y707808D01*
X518648Y706363D01*
G54D10*
X313294Y836912D02*
X313294Y714912D01*
X437594Y714912D01*
X437594Y836912D01*
X313294Y836912D01*
G54D10*
X313294Y795912D02*
X313294Y755912D01*
X323294Y755912D01*
X323294Y795912D01*
X313294Y795912D01*
G54D11*
X334267Y702752D02*
X336867Y701308D01*
X337734Y699863D01*
X337734Y696974D01*
G54D11*
X330800Y696974D02*
X330800Y708530D01*
X335134Y708530D01*
X336867Y707808D01*
X337734Y706363D01*
X337734Y704919D01*
X336867Y703474D01*
X335134Y702752D01*
X330800Y702752D01*
G54D11*
X348711Y699141D02*
X347844Y697697D01*
X346111Y696974D01*
X344377Y696974D01*
X342644Y697697D01*
X341777Y699141D01*
X341777Y706363D01*
X342644Y707808D01*
X344377Y708530D01*
X346111Y708530D01*
X347844Y707808D01*
X348711Y706363D01*
G54D11*
X352754Y704197D02*
X357088Y708530D01*
X357088Y696974D01*
G54D10*
X1424544Y825006D02*
X1424544Y703006D01*
X1548844Y703006D01*
X1548844Y825006D01*
X1424544Y825006D01*
G54D10*
X1424544Y784006D02*
X1424544Y744006D01*
X1434544Y744006D01*
X1434544Y784006D01*
X1424544Y784006D01*
G54D11*
X1404944Y727271D02*
X1406389Y729871D01*
X1407833Y730738D01*
X1410722Y730738D01*
G54D11*
X1410722Y723805D02*
X1399166Y723805D01*
X1399166Y728138D01*
X1399889Y729871D01*
X1401333Y730738D01*
X1402778Y730738D01*
X1404222Y729871D01*
X1404944Y728138D01*
X1404944Y723805D01*
G54D11*
X1408555Y741715D02*
X1410000Y740848D01*
X1410722Y739115D01*
X1410722Y737382D01*
X1410000Y735648D01*
X1408555Y734782D01*
X1401333Y734782D01*
X1399889Y735648D01*
X1399166Y737382D01*
X1399166Y739115D01*
X1399889Y740848D01*
X1401333Y741715D01*
G54D11*
X1401333Y745759D02*
X1399889Y746625D01*
X1399166Y748359D01*
X1399166Y750092D01*
X1399889Y751825D01*
X1401333Y752692D01*
X1402778Y752692D01*
X1404222Y751825D01*
X1404944Y750092D01*
X1405666Y751825D01*
X1407111Y752692D01*
X1408555Y752692D01*
X1410000Y751825D01*
X1410722Y750092D01*
X1410722Y748359D01*
X1410000Y746625D01*
X1408555Y745759D01*
G54D13*
X1273881Y994372D02*
X1273881Y953891D01*
G54D13*
X1340556Y886422D02*
X1657262Y886422D01*
G54D13*
X1723938Y953891D02*
X1723938Y994372D01*
G54D13*
X1614488Y789781D02*
X1602581Y789781D01*
X1602581Y738188D01*
X1614488Y738188D01*
G54D13*
X1692275Y789781D02*
X1704181Y789781D01*
X1704181Y738188D01*
X1692275Y738188D01*
G54D14*
X1385094Y667147D02*
X1385094Y679053D01*
X1397000Y679053D01*
G54D14*
X1397000Y594916D02*
X1385094Y594916D01*
X1385094Y606822D01*
G54D14*
X1716755Y667147D02*
X1716755Y679053D01*
X1704849Y679053D01*
G54D14*
X1704849Y594916D02*
X1716755Y594916D01*
X1716755Y606822D01*
G54D14*
X1524794Y594916D02*
X1537494Y594916D01*
X1537494Y607616D01*
X1563688Y607616D01*
X1563688Y594916D01*
X1575594Y594916D01*
G54D14*
X1553369Y513556D02*
X1560512Y513556D01*
X1560512Y481012D01*
X1553369Y481012D01*
G54D14*
X1470025Y512762D02*
X1464469Y512762D01*
X1464469Y504031D01*
G54D14*
X1470025Y481012D02*
X1464469Y481012D01*
X1464469Y489744D01*
G54D14*
G75*
G01X1464470Y489907D02*
G03X1464470Y503907I0J7000D01*
G01*
G54D11*
X1570856Y451528D02*
X1580245Y451528D01*
X1581690Y452394D01*
X1582412Y454128D01*
X1582412Y455861D01*
X1581690Y457594D01*
X1580245Y458461D01*
X1570856Y458461D01*
G54D11*
X1582412Y462505D02*
X1570856Y462505D01*
G54D11*
X1573023Y473482D02*
X1571579Y472616D01*
X1570856Y470882D01*
X1570856Y469149D01*
X1571579Y467416D01*
X1573023Y466549D01*
X1576634Y466549D01*
X1577356Y466549D01*
X1575912Y469149D01*
X1575912Y470882D01*
X1576634Y472616D01*
X1578079Y473482D01*
X1580245Y473482D01*
X1581690Y472616D01*
X1582412Y470882D01*
X1582412Y469149D01*
X1581690Y467416D01*
X1580245Y466549D01*
X1576634Y466549D01*
G54D11*
X1443406Y429989D02*
X1443406Y436922D01*
X1444851Y436056D01*
X1447018Y434322D01*
X1449906Y432589D01*
X1452073Y431722D01*
X1454962Y431722D01*
G54D11*
X1454962Y446166D02*
X1443406Y446166D01*
X1450629Y440966D01*
X1452073Y440966D01*
X1452073Y447899D01*
G54D11*
X1443406Y451943D02*
X1454962Y451943D01*
X1454962Y458010D01*
G54D11*
X1452795Y462054D02*
X1454240Y462921D01*
X1454962Y464654D01*
X1454962Y466387D01*
X1454240Y468121D01*
X1452795Y468987D01*
X1451351Y468987D01*
X1449906Y468121D01*
X1449184Y466387D01*
X1449184Y464654D01*
X1448462Y462921D01*
X1447018Y462054D01*
X1445573Y462054D01*
X1444129Y462921D01*
X1443406Y464654D01*
X1443406Y466387D01*
X1444129Y468121D01*
X1445573Y468987D01*
G54D11*
X1445573Y473031D02*
X1444129Y473898D01*
X1443406Y475631D01*
X1443406Y477364D01*
X1444129Y479098D01*
X1445573Y479964D01*
X1447018Y479964D01*
X1448462Y479098D01*
X1449184Y477364D01*
X1449906Y479098D01*
X1451351Y479964D01*
X1452795Y479964D01*
X1454240Y479098D01*
X1454962Y477364D01*
X1454962Y475631D01*
X1454240Y473898D01*
X1452795Y473031D01*
G54D11*
X1445573Y490941D02*
X1444129Y490075D01*
X1443406Y488341D01*
X1443406Y486608D01*
X1444129Y484875D01*
X1445573Y484008D01*
X1449184Y484008D01*
X1449906Y484008D01*
X1448462Y486608D01*
X1448462Y488341D01*
X1449184Y490075D01*
X1450629Y490941D01*
X1452795Y490941D01*
X1454240Y490075D01*
X1454962Y488341D01*
X1454962Y486608D01*
X1454240Y484875D01*
X1452795Y484008D01*
X1449184Y484008D01*
G54D11*
X1449184Y499318D02*
X1449184Y497585D01*
X1448462Y495852D01*
X1447018Y494985D01*
X1445573Y494985D01*
X1444129Y495852D01*
X1443406Y497585D01*
X1443406Y499318D01*
X1444129Y501052D01*
X1445573Y501918D01*
X1447018Y501918D01*
X1448462Y501052D01*
X1449184Y499318D01*
X1449906Y501052D01*
X1451351Y501918D01*
X1452795Y501918D01*
X1454240Y501052D01*
X1454962Y499318D01*
X1454962Y497585D01*
X1454240Y495852D01*
X1452795Y494985D01*
X1451351Y494985D01*
X1449906Y495852D01*
X1449184Y497585D01*
G54D14*
X1424781Y513556D02*
X1431925Y513556D01*
X1431925Y481012D01*
X1424781Y481012D01*
G54D14*
X1341438Y512762D02*
X1335881Y512762D01*
X1335881Y504031D01*
G54D14*
X1341438Y481012D02*
X1335881Y481012D01*
X1335881Y489744D01*
G54D14*
G75*
G01X1335882Y489907D02*
G03X1335882Y503907I0J7000D01*
G01*
G54D11*
X1350407Y408298D02*
X1359796Y408298D01*
X1361240Y409164D01*
X1361962Y410898D01*
X1361962Y412631D01*
X1361240Y414364D01*
X1359796Y415231D01*
X1350407Y415231D01*
G54D11*
X1361962Y419275D02*
X1350407Y419275D01*
G54D11*
X1361962Y426208D02*
X1350407Y426208D01*
G54D11*
X1356185Y419275D02*
X1356185Y426208D01*
G54D11*
X1352574Y437185D02*
X1351129Y436318D01*
X1350407Y434585D01*
X1350407Y432852D01*
X1351129Y431118D01*
X1352574Y430252D01*
X1356185Y430252D01*
X1356907Y430252D01*
X1355462Y432852D01*
X1355462Y434585D01*
X1356185Y436318D01*
X1357629Y437185D01*
X1359796Y437185D01*
X1361240Y436318D01*
X1361962Y434585D01*
X1361962Y432852D01*
X1361240Y431118D01*
X1359796Y430252D01*
X1356185Y430252D01*
G54D11*
X1315032Y490887D02*
X1315032Y497820D01*
X1316476Y496954D01*
X1318643Y495220D01*
X1321532Y493487D01*
X1323698Y492620D01*
X1326587Y492620D01*
G54D11*
X1326587Y507064D02*
X1315032Y507064D01*
X1322254Y501864D01*
X1323698Y501864D01*
X1323698Y508797D01*
G54D11*
X1315032Y512841D02*
X1326587Y512841D01*
X1326587Y518908D01*
G54D11*
X1324421Y522952D02*
X1325865Y523819D01*
X1326587Y525552D01*
X1326587Y527285D01*
X1325865Y529019D01*
X1324421Y529885D01*
X1322976Y529885D01*
X1321532Y529019D01*
X1320810Y527285D01*
X1320810Y525552D01*
X1320087Y523819D01*
X1318643Y522952D01*
X1317198Y522952D01*
X1315754Y523819D01*
X1315032Y525552D01*
X1315032Y527285D01*
X1315754Y529019D01*
X1317198Y529885D01*
G54D11*
X1319365Y533929D02*
X1315032Y538262D01*
X1326587Y538262D01*
G54D11*
X1315032Y542306D02*
X1315032Y549239D01*
X1316476Y548373D01*
X1318643Y546639D01*
X1321532Y544906D01*
X1323698Y544039D01*
X1326587Y544039D01*
G54D11*
X1326587Y558483D02*
X1315032Y558483D01*
X1322254Y553283D01*
X1323698Y553283D01*
X1323698Y560216D01*
G54D10*
X1205906Y461075D02*
X1205906Y485075D01*
X1269906Y485075D01*
X1269906Y461075D01*
X1205906Y461075D01*
G54D11*
X1296523Y470912D02*
X1297967Y470045D01*
X1298690Y468312D01*
X1298690Y466578D01*
X1297967Y464845D01*
X1296523Y463978D01*
X1289301Y463978D01*
X1287856Y464845D01*
X1287134Y466578D01*
X1287134Y468312D01*
X1287856Y470045D01*
X1289301Y470912D01*
G54D11*
X1291467Y474955D02*
X1287134Y479289D01*
X1298690Y479289D01*
G54D11*
X1289301Y490266D02*
X1296523Y490266D01*
X1297967Y489399D01*
X1298690Y487666D01*
X1298690Y485932D01*
X1297967Y484199D01*
X1296523Y483332D01*
X1289301Y483332D01*
X1287856Y484199D01*
X1287134Y485932D01*
X1287134Y487666D01*
X1287856Y489399D01*
X1289301Y490266D01*
G54D10*
X1573875Y377488D02*
X1531275Y377488D01*
X1531275Y413088D01*
X1573875Y413088D01*
X1573875Y377488D01*
G54D11*
X1593926Y397461D02*
X1596093Y401794D01*
G54D11*
X1586704Y400928D02*
X1593926Y400928D01*
X1595371Y400061D01*
X1596093Y398328D01*
X1596093Y396594D01*
X1595371Y394861D01*
X1593926Y393994D01*
X1586704Y393994D01*
X1585260Y394861D01*
X1584538Y396594D01*
X1584538Y398328D01*
X1585260Y400061D01*
X1586704Y400928D01*
G54D11*
X1596093Y412772D02*
X1596093Y405838D01*
X1595371Y405838D01*
X1593926Y406705D01*
X1589593Y411905D01*
X1588149Y412772D01*
X1586704Y412772D01*
X1585260Y411905D01*
X1584538Y410172D01*
X1584538Y408438D01*
X1585260Y406705D01*
X1586704Y405838D01*
G54D12*
X1534244Y416909D02*
X1528910Y416909D01*
X1528910Y417465D01*
X1529577Y418576D01*
X1533577Y421909D01*
X1534244Y423020D01*
X1534244Y424131D01*
X1533577Y425242D01*
X1532244Y425798D01*
X1530910Y425798D01*
X1529577Y425242D01*
X1528910Y424131D01*
G54D12*
X1537354Y416909D02*
X1537354Y425798D01*
X1542688Y416909D01*
X1542688Y425798D01*
G54D12*
X1545798Y424131D02*
X1546465Y425242D01*
X1547798Y425798D01*
X1549132Y425798D01*
X1550465Y425242D01*
X1551132Y424131D01*
X1551132Y423020D01*
X1550465Y421909D01*
X1549132Y421353D01*
X1550465Y420798D01*
X1551132Y419687D01*
X1551132Y418576D01*
X1550465Y417465D01*
X1549132Y416909D01*
X1547798Y416909D01*
X1546465Y417465D01*
X1545798Y418576D01*
G54D12*
X1554242Y418576D02*
X1554909Y417465D01*
X1556242Y416909D01*
X1557576Y416909D01*
X1558909Y417465D01*
X1559576Y418576D01*
X1559576Y421353D01*
X1559576Y421909D01*
X1557576Y420798D01*
X1556242Y420798D01*
X1554909Y421353D01*
X1554242Y422465D01*
X1554242Y424131D01*
X1554909Y425242D01*
X1556242Y425798D01*
X1557576Y425798D01*
X1558909Y425242D01*
X1559576Y424131D01*
X1559576Y421353D01*
G54D12*
X1568020Y424131D02*
X1568020Y418576D01*
X1567353Y417465D01*
X1566020Y416909D01*
X1564686Y416909D01*
X1563353Y417465D01*
X1562686Y418576D01*
X1562686Y424131D01*
X1563353Y425242D01*
X1564686Y425798D01*
X1566020Y425798D01*
X1567353Y425242D01*
X1568020Y424131D01*
G54D12*
X1575130Y416909D02*
X1575130Y425798D01*
X1571130Y420242D01*
X1571130Y419131D01*
X1576464Y419131D01*
G54D10*
X1034162Y718938D02*
X1058162Y718938D01*
X1058162Y654938D01*
X1034162Y654938D01*
X1034162Y718938D01*
G54D14*
X831453Y100183D02*
X824309Y100183D01*
X824309Y132726D01*
X831453Y132726D01*
G54D14*
X914797Y100976D02*
X920353Y100976D01*
X920353Y109708D01*
G54D14*
X914797Y132726D02*
X920353Y132726D01*
X920353Y123995D01*
G54D14*
G75*
G01X920352Y123832D02*
G03X920352Y109832I0J-7000D01*
G01*
G54D11*
X895346Y180528D02*
X904734Y180528D01*
X906179Y181395D01*
X906901Y183128D01*
X906901Y184862D01*
X906179Y186595D01*
X904734Y187462D01*
X895346Y187462D01*
G54D11*
X906901Y197572D02*
X906901Y191506D01*
X895346Y191506D01*
X895346Y197572D01*
G54D11*
X901123Y191506D02*
X901123Y197572D01*
G54D11*
X897512Y201616D02*
X896068Y202483D01*
X895346Y204216D01*
X895346Y205950D01*
X896068Y207683D01*
X897512Y208550D01*
X898957Y208550D01*
X900401Y207683D01*
X901123Y205950D01*
X901846Y207683D01*
X903290Y208550D01*
X904734Y208550D01*
X906179Y207683D01*
X906901Y205950D01*
X906901Y204216D01*
X906179Y202483D01*
X904734Y201616D01*
G54D11*
X798958Y88851D02*
X798958Y95784D01*
X800402Y94918D01*
X802569Y93184D01*
X805458Y91451D01*
X807625Y90584D01*
X810514Y90584D01*
G54D11*
X810514Y105028D02*
X798958Y105028D01*
X806180Y99828D01*
X807625Y99828D01*
X807625Y106761D01*
G54D11*
X810514Y110805D02*
X798958Y110805D01*
X798958Y116872D01*
G54D11*
X804736Y110805D02*
X804736Y116872D01*
G54D11*
X810514Y127849D02*
X810514Y120916D01*
X809791Y120916D01*
X808347Y121783D01*
X804014Y126983D01*
X802569Y127849D01*
X801125Y127849D01*
X799680Y126983D01*
X798958Y125249D01*
X798958Y123516D01*
X799680Y121783D01*
X801125Y120916D01*
G54D11*
X798958Y138826D02*
X798958Y131893D01*
X804014Y131893D01*
X804014Y132760D01*
X803291Y134493D01*
X803291Y136226D01*
X804014Y137960D01*
X805458Y138826D01*
X808347Y138826D01*
X809791Y137960D01*
X810514Y136226D01*
X810514Y134493D01*
X809791Y132760D01*
X808347Y131893D01*
G54D11*
X798958Y142870D02*
X798958Y149803D01*
X800402Y148937D01*
X802569Y147203D01*
X805458Y145470D01*
X807625Y144603D01*
X810514Y144603D01*
G54D14*
X985440Y100183D02*
X978297Y100183D01*
X978297Y132727D01*
X985440Y132727D01*
G54D14*
X1068784Y100977D02*
X1074340Y100977D01*
X1074340Y109708D01*
G54D14*
X1068784Y132726D02*
X1074340Y132727D01*
X1074340Y123995D01*
G54D14*
G75*
G01X1074340Y123832D02*
G03X1074340Y109832I0J-7000D01*
G01*
G54D11*
X1017584Y167828D02*
X1026972Y167828D01*
X1028417Y168695D01*
X1029139Y170428D01*
X1029139Y172162D01*
X1028417Y173895D01*
X1026972Y174762D01*
X1017584Y174762D01*
G54D11*
X1029139Y178806D02*
X1017584Y178806D01*
X1017584Y184872D01*
G54D11*
X1023361Y178806D02*
X1023361Y184872D01*
G54D11*
X1019750Y188916D02*
X1018306Y189783D01*
X1017584Y191516D01*
X1017584Y193250D01*
X1018306Y194983D01*
X1019750Y195850D01*
X1021195Y195850D01*
X1022639Y194983D01*
X1023361Y193250D01*
X1024084Y194983D01*
X1025528Y195850D01*
X1026972Y195850D01*
X1028417Y194983D01*
X1029139Y193250D01*
X1029139Y191516D01*
X1028417Y189783D01*
X1026972Y188916D01*
G54D11*
X1100583Y77738D02*
X1100583Y84672D01*
X1102028Y83805D01*
X1104194Y82072D01*
X1107083Y80338D01*
X1109250Y79472D01*
X1112139Y79472D01*
G54D11*
X1112139Y93916D02*
X1100583Y93916D01*
X1107806Y88716D01*
X1109250Y88716D01*
X1109250Y95649D01*
G54D11*
X1112139Y99692D02*
X1100583Y99692D01*
X1100583Y105759D01*
G54D11*
X1106361Y99692D02*
X1106361Y105759D01*
G54D11*
X1112139Y116737D02*
X1112139Y109804D01*
X1111416Y109804D01*
X1109972Y110670D01*
X1105639Y115870D01*
X1104194Y116737D01*
X1102750Y116737D01*
X1101306Y115870D01*
X1100583Y114137D01*
X1100583Y112404D01*
X1101306Y110670D01*
X1102750Y109804D01*
G54D11*
X1100583Y127714D02*
X1100583Y120780D01*
X1105639Y120780D01*
X1105639Y121647D01*
X1104916Y123380D01*
X1104916Y125114D01*
X1105639Y126847D01*
X1107083Y127714D01*
X1109972Y127714D01*
X1111416Y126847D01*
X1112139Y125114D01*
X1112139Y123380D01*
X1111416Y121647D01*
X1109972Y120780D01*
G54D11*
X1100583Y131758D02*
X1100583Y138691D01*
X1102028Y137824D01*
X1104194Y136091D01*
X1107083Y134358D01*
X1109250Y133491D01*
X1112139Y133491D01*
G54D14*
X1360091Y-21431D02*
X1372791Y-21431D01*
X1372791Y-148431D01*
X1360091Y-148431D01*
G54D14*
X848916Y-21431D02*
X836216Y-21431D01*
X836216Y-72231D01*
G54D14*
X848916Y-148431D02*
X836216Y-148431D01*
X836216Y-97631D01*
G54D14*
G75*
G01X836216Y-97631D02*
G03X836216Y-72231I0J12700D01*
G01*
G54D11*
X1417403Y-130709D02*
X1426792Y-130709D01*
X1428236Y-129842D01*
X1428959Y-128109D01*
X1428959Y-126376D01*
X1428236Y-124642D01*
X1426792Y-123776D01*
X1417403Y-123776D01*
G54D11*
X1428959Y-119732D02*
X1417403Y-119732D01*
G54D11*
X1421736Y-115688D02*
X1417403Y-111355D01*
X1428959Y-111355D01*
G54D11*
X1421736Y-107311D02*
X1417403Y-102978D01*
X1428959Y-102978D01*
G54D11*
X1436039Y-165521D02*
X1436039Y-158588D01*
X1437484Y-159454D01*
X1439650Y-161188D01*
X1442539Y-162921D01*
X1444706Y-163788D01*
X1447595Y-163788D01*
G54D11*
X1447595Y-149344D02*
X1436039Y-149344D01*
X1443262Y-154544D01*
X1444706Y-154544D01*
X1444706Y-147610D01*
G54D11*
X1436039Y-143567D02*
X1447595Y-143567D01*
X1447595Y-137500D01*
G54D11*
X1445428Y-133456D02*
X1446872Y-132589D01*
X1447595Y-130856D01*
X1447595Y-129122D01*
X1446872Y-127389D01*
X1445428Y-126522D01*
X1443984Y-126522D01*
X1442539Y-127389D01*
X1441817Y-129122D01*
X1441817Y-130856D01*
X1441095Y-132589D01*
X1439650Y-133456D01*
X1438206Y-133456D01*
X1436762Y-132589D01*
X1436039Y-130856D01*
X1436039Y-129122D01*
X1436762Y-127389D01*
X1438206Y-126522D01*
G54D11*
X1447595Y-115546D02*
X1447595Y-122479D01*
X1446872Y-122479D01*
X1445428Y-121612D01*
X1441095Y-116412D01*
X1439650Y-115546D01*
X1438206Y-115546D01*
X1436762Y-116412D01*
X1436039Y-118146D01*
X1436039Y-119879D01*
X1436762Y-121612D01*
X1438206Y-122479D01*
G54D11*
X1447595Y-106302D02*
X1436039Y-106302D01*
X1443262Y-111502D01*
X1444706Y-111502D01*
X1444706Y-104568D01*
G54D11*
X1436039Y-93592D02*
X1436039Y-100525D01*
X1441095Y-100525D01*
X1441095Y-99658D01*
X1440372Y-97925D01*
X1440372Y-96192D01*
X1441095Y-94458D01*
X1442539Y-93592D01*
X1445428Y-93592D01*
X1446872Y-94458D01*
X1447595Y-96192D01*
X1447595Y-97925D01*
X1446872Y-99658D01*
X1445428Y-100525D01*
G54D10*
X1753250Y-122038D02*
X1753250Y-62038D01*
X1624950Y-62038D01*
X1624950Y-122038D01*
X1753250Y-122038D01*
G54D10*
X1753250Y-117038D02*
X1753250Y-67038D01*
X1748250Y-67038D01*
X1748250Y-117038D01*
X1753250Y-117038D01*
G54D11*
X1719028Y-18140D02*
X1728417Y-18140D01*
X1729862Y-17273D01*
X1730584Y-15540D01*
X1730584Y-13806D01*
X1729862Y-12073D01*
X1728417Y-11206D01*
X1719028Y-11206D01*
G54D11*
X1719028Y-230D02*
X1728417Y-230D01*
X1729862Y-1096D01*
X1730584Y-2830D01*
X1730584Y-4563D01*
X1729862Y-6296D01*
X1728417Y-7163D01*
G54D11*
X1723362Y3814D02*
X1719028Y8148D01*
X1730584Y8148D01*
G54D11*
X1607489Y-140121D02*
X1607489Y-133188D01*
X1608934Y-134054D01*
X1611100Y-135788D01*
X1613989Y-137521D01*
X1616156Y-138388D01*
X1619045Y-138388D01*
G54D11*
X1619045Y-123944D02*
X1607489Y-123944D01*
X1614712Y-129144D01*
X1616156Y-129144D01*
X1616156Y-122211D01*
G54D11*
X1607489Y-118167D02*
X1619045Y-118167D01*
X1619045Y-112100D01*
G54D11*
X1616878Y-108056D02*
X1618322Y-107189D01*
X1619045Y-105456D01*
X1619045Y-103723D01*
X1618322Y-101989D01*
X1616878Y-101123D01*
X1615434Y-101123D01*
X1613989Y-101989D01*
X1613267Y-103723D01*
X1613267Y-105456D01*
X1612545Y-107189D01*
X1611100Y-108056D01*
X1609656Y-108056D01*
X1608212Y-107189D01*
X1607489Y-105456D01*
X1607489Y-103723D01*
X1608212Y-101989D01*
X1609656Y-101123D01*
G54D11*
X1619045Y-90146D02*
X1619045Y-97079D01*
X1618322Y-97079D01*
X1616878Y-96212D01*
X1612545Y-91012D01*
X1611100Y-90146D01*
X1609656Y-90146D01*
X1608212Y-91012D01*
X1607489Y-92746D01*
X1607489Y-94479D01*
X1608212Y-96212D01*
X1609656Y-97079D01*
G54D11*
X1619045Y-80902D02*
X1607489Y-80902D01*
X1614712Y-86102D01*
X1616156Y-86102D01*
X1616156Y-79169D01*
G54D11*
X1607489Y-68192D02*
X1607489Y-75125D01*
X1612545Y-75125D01*
X1612545Y-74258D01*
X1611822Y-72525D01*
X1611822Y-70792D01*
X1612545Y-69058D01*
X1613989Y-68192D01*
X1616878Y-68192D01*
X1618322Y-69058D01*
X1619045Y-70792D01*
X1619045Y-72525D01*
X1618322Y-74258D01*
X1616878Y-75125D01*
G54D14*
X945356Y352822D02*
X932656Y352822D01*
X932656Y340122D01*
G54D14*
X945356Y256911D02*
X932656Y256911D01*
X932656Y269611D01*
G54D14*
X1227003Y352822D02*
X1239703Y352822D01*
X1239703Y340122D01*
G54D14*
X1227003Y256911D02*
X1239703Y256911D01*
X1239703Y269611D01*
G54D14*
X1059656Y354409D02*
X1072356Y354409D01*
X1072356Y359172D01*
X1098550Y359172D01*
X1098550Y354409D01*
X1111250Y354409D01*
G54D11*
X1656786Y710660D02*
X1645230Y710660D01*
X1645230Y716726D01*
G54D11*
X1651008Y710660D02*
X1651008Y716726D01*
G54D11*
X1656786Y727704D02*
X1656786Y720770D01*
X1656064Y720770D01*
X1654619Y721637D01*
X1650286Y726837D01*
X1648841Y727704D01*
X1647397Y727704D01*
X1645952Y726837D01*
X1645230Y725104D01*
X1645230Y723370D01*
X1645952Y721637D01*
X1647397Y720770D01*
G54D13*
X681831Y745331D02*
X669925Y745331D01*
X669925Y693738D01*
X681831Y693738D01*
G54D13*
X759618Y745331D02*
X771525Y745331D01*
X771525Y693738D01*
X759618Y693738D01*
G54D11*
X654280Y711453D02*
X642724Y711453D01*
X642724Y717520D01*
G54D11*
X648502Y711453D02*
X648502Y717520D01*
G54D11*
X647057Y721564D02*
X642724Y725898D01*
X654280Y725898D01*
G54D14*
X677069Y680244D02*
X765969Y680244D01*
X765969Y644525D01*
X677069Y644525D01*
X677069Y680244D01*
G54D14*
X727869Y672306D02*
X727869Y652462D01*
G36*
X727550Y662259D02*
X712550Y670919D01*
X712550Y653599D01*
X727550Y662259D01*
G37*
G54D14*
X727550Y662259D02*
X712550Y670919D01*
X712550Y653599D01*
X727550Y662259D01*
G54D11*
X785889Y653829D02*
X774334Y653829D01*
X774334Y658162D01*
X775056Y659896D01*
X776500Y660762D01*
X783723Y660762D01*
X785167Y659896D01*
X785889Y658162D01*
X785889Y653829D01*
G54D11*
X776500Y664806D02*
X775056Y665673D01*
X774334Y667406D01*
X774334Y669139D01*
X775056Y670873D01*
X776500Y671739D01*
X777945Y671739D01*
X779389Y670873D01*
X780112Y669139D01*
X780834Y670873D01*
X782278Y671739D01*
X783723Y671739D01*
X785167Y670873D01*
X785889Y669139D01*
X785889Y667406D01*
X785167Y665673D01*
X783723Y664806D01*
G54D14*
X221456Y800100D02*
X284956Y800100D01*
X284956Y711200D01*
X221456Y711200D01*
X221456Y800100D01*
G54D12*
X236487Y681241D02*
X245376Y681241D01*
X245376Y685907D01*
G54D12*
X239820Y689019D02*
X236487Y692352D01*
X245376Y692352D01*
G54D14*
X1748547Y756166D02*
X1748547Y819666D01*
X1837447Y819666D01*
X1837447Y756166D01*
X1748547Y756166D01*
G54D15*
X393700Y973138D02*
X393700Y989012D01*
X260350Y989012D01*
X260350Y973138D01*
G54D15*
X393700Y973138D02*
X393700Y989012D01*
X260350Y989012D01*
X260350Y973138D01*
G54D15*
X393700Y922338D02*
X393700Y877888D01*
X260350Y877888D01*
X260350Y922338D01*
G54D15*
X584437Y973931D02*
X584437Y989806D01*
X451087Y989806D01*
X451087Y973931D01*
G54D15*
X584437Y973931D02*
X584437Y989806D01*
X451087Y989806D01*
X451087Y973931D01*
G54D15*
X584437Y923131D02*
X584437Y878681D01*
X451087Y878681D01*
X451087Y923131D01*
G54D13*
X658019Y994547D02*
X658019Y954066D01*
G54D13*
X1191418Y994547D02*
X1191418Y954066D01*
G54D13*
X725488Y886597D02*
X1123950Y886597D01*
G54D16*
X1094978Y-268288D02*
X1103867Y-250510D01*
X1112756Y-268288D01*
G54D16*
X1098534Y-261621D02*
X1109200Y-261621D01*
G54D16*
X1118978Y-268288D02*
X1118978Y-250510D01*
X1127867Y-250510D01*
X1131423Y-251621D01*
X1133200Y-253843D01*
X1133200Y-256065D01*
X1131423Y-258288D01*
X1127867Y-259399D01*
X1118978Y-259399D01*
G54D16*
X1139422Y-268288D02*
X1139422Y-250510D01*
X1148311Y-250510D01*
X1151867Y-251621D01*
X1153644Y-253843D01*
X1153644Y-256065D01*
X1151867Y-258288D01*
X1148311Y-259399D01*
X1139422Y-259399D01*
G54D16*
X1159866Y-250510D02*
X1159866Y-268288D01*
X1172311Y-268288D01*
G54D16*
X1190977Y-268288D02*
X1178532Y-268288D01*
X1178532Y-250510D01*
X1190977Y-250510D01*
G54D16*
X1178532Y-259399D02*
X1190977Y-259399D01*
G54D16*
X1217998Y-264954D02*
X1216221Y-267176D01*
X1212665Y-268288D01*
X1209110Y-268288D01*
X1205554Y-267176D01*
X1203776Y-264954D01*
X1203776Y-253843D01*
X1205554Y-251621D01*
X1209110Y-250510D01*
X1212665Y-250510D01*
X1216221Y-251621D01*
X1217998Y-253843D01*
G54D16*
X1238442Y-253843D02*
X1238442Y-264954D01*
X1236665Y-267176D01*
X1233109Y-268288D01*
X1229554Y-268288D01*
X1225998Y-267176D01*
X1224220Y-264954D01*
X1224220Y-253843D01*
X1225998Y-251621D01*
X1229554Y-250510D01*
X1233109Y-250510D01*
X1236665Y-251621D01*
X1238442Y-253843D01*
G54D16*
X1244664Y-268288D02*
X1244664Y-250510D01*
X1253553Y-261621D01*
X1262442Y-250510D01*
X1262442Y-268288D01*
G54D16*
X1268664Y-268288D02*
X1268664Y-250510D01*
X1277553Y-250510D01*
X1281109Y-251621D01*
X1282886Y-253843D01*
X1282886Y-256065D01*
X1281109Y-258288D01*
X1277553Y-259399D01*
X1268664Y-259399D01*
G54D16*
X1289108Y-250510D02*
X1289108Y-264954D01*
X1290886Y-267176D01*
X1294442Y-268288D01*
X1297997Y-268288D01*
X1301553Y-267176D01*
X1303330Y-264954D01*
X1303330Y-250510D01*
G54D16*
X1316663Y-268288D02*
X1316663Y-250510D01*
G54D16*
X1309552Y-250510D02*
X1323774Y-250510D01*
G54D16*
X1342441Y-268288D02*
X1329996Y-268288D01*
X1329996Y-250510D01*
X1342441Y-250510D01*
G54D16*
X1329996Y-259399D02*
X1342441Y-259399D01*
G54D16*
X1355773Y-259399D02*
X1361107Y-261621D01*
X1362884Y-263843D01*
X1362884Y-268288D01*
G54D16*
X1348662Y-268288D02*
X1348662Y-250510D01*
X1357551Y-250510D01*
X1361107Y-251621D01*
X1362884Y-253843D01*
X1362884Y-256065D01*
X1361107Y-258288D01*
X1357551Y-259399D01*
X1348662Y-259399D01*
G54D16*
X1375684Y-268288D02*
X1375684Y-250510D01*
G54D16*
X1381906Y-268288D02*
X1381906Y-250510D01*
X1396128Y-268288D01*
X1396128Y-250510D01*
G54D16*
X1416572Y-264954D02*
X1414795Y-267176D01*
X1411239Y-268288D01*
X1407684Y-268288D01*
X1404128Y-267176D01*
X1402350Y-264954D01*
X1402350Y-253843D01*
X1404128Y-251621D01*
X1407684Y-250510D01*
X1411239Y-250510D01*
X1414795Y-251621D01*
X1416572Y-253843D01*
G54D16*
X1422794Y-268288D02*
X1422794Y-268288D01*
G54D16*
X1527686Y-257176D02*
X1536575Y-250510D01*
X1536575Y-268288D01*
G54D16*
X1542797Y-264954D02*
X1544575Y-267176D01*
X1548130Y-268288D01*
X1551686Y-268288D01*
X1555242Y-267176D01*
X1557019Y-264954D01*
X1557019Y-259399D01*
X1557019Y-258288D01*
X1551686Y-260510D01*
X1548130Y-260510D01*
X1544575Y-259399D01*
X1542797Y-257176D01*
X1542797Y-253843D01*
X1544575Y-251621D01*
X1548130Y-250510D01*
X1551686Y-250510D01*
X1555242Y-251621D01*
X1557019Y-253843D01*
X1557019Y-259399D01*
G54D16*
X1563241Y-264954D02*
X1565019Y-267176D01*
X1568574Y-268288D01*
X1572130Y-268288D01*
X1575686Y-267176D01*
X1577463Y-264954D01*
X1577463Y-259399D01*
X1577463Y-258288D01*
X1572130Y-260510D01*
X1568574Y-260510D01*
X1565019Y-259399D01*
X1563241Y-257176D01*
X1563241Y-253843D01*
X1565019Y-251621D01*
X1568574Y-250510D01*
X1572130Y-250510D01*
X1575686Y-251621D01*
X1577463Y-253843D01*
X1577463Y-259399D01*
G54D16*
X1597907Y-253843D02*
X1597907Y-264954D01*
X1596130Y-267176D01*
X1592574Y-268288D01*
X1589018Y-268288D01*
X1585463Y-267176D01*
X1583685Y-264954D01*
X1583685Y-253843D01*
X1585463Y-251621D01*
X1589018Y-250510D01*
X1592574Y-250510D01*
X1596130Y-251621D01*
X1597907Y-253843D01*
G54D16*
X1659064Y-259399D02*
X1655508Y-259399D01*
X1651953Y-258288D01*
X1650175Y-256065D01*
X1650175Y-253843D01*
X1651953Y-251621D01*
X1655508Y-250510D01*
X1659064Y-250510D01*
X1662620Y-251621D01*
X1664397Y-253843D01*
X1664397Y-256065D01*
X1662620Y-258288D01*
X1659064Y-259399D01*
X1662620Y-260510D01*
X1664397Y-262732D01*
X1664397Y-264954D01*
X1662620Y-267176D01*
X1659064Y-268288D01*
X1655508Y-268288D01*
X1651953Y-267176D01*
X1650175Y-264954D01*
X1650175Y-262732D01*
X1651953Y-260510D01*
X1655508Y-259399D01*
G54D16*
X1684841Y-268288D02*
X1670619Y-268288D01*
X1670619Y-267176D01*
X1672397Y-264954D01*
X1683064Y-258288D01*
X1684841Y-256065D01*
X1684841Y-253843D01*
X1683064Y-251621D01*
X1679508Y-250510D01*
X1675952Y-250510D01*
X1672397Y-251621D01*
X1670619Y-253843D01*
G54D16*
X1705285Y-253843D02*
X1705285Y-264954D01*
X1703508Y-267176D01*
X1699952Y-268288D01*
X1696396Y-268288D01*
X1692841Y-267176D01*
X1691063Y-264954D01*
X1691063Y-253843D01*
X1692841Y-251621D01*
X1696396Y-250510D01*
X1699952Y-250510D01*
X1703508Y-251621D01*
X1705285Y-253843D01*
G54D16*
X1711507Y-260510D02*
X1725729Y-260510D01*
G54D16*
X1746173Y-253843D02*
X1746173Y-264954D01*
X1744396Y-267176D01*
X1740840Y-268288D01*
X1737284Y-268288D01*
X1733729Y-267176D01*
X1731951Y-264954D01*
X1731951Y-253843D01*
X1733729Y-251621D01*
X1737284Y-250510D01*
X1740840Y-250510D01*
X1744396Y-251621D01*
X1746173Y-253843D01*
G54D16*
X1752395Y-253843D02*
X1754173Y-251621D01*
X1757728Y-250510D01*
X1761284Y-250510D01*
X1764840Y-251621D01*
X1766617Y-253843D01*
X1766617Y-256065D01*
X1764840Y-258288D01*
X1761284Y-259399D01*
X1764840Y-260510D01*
X1766617Y-262732D01*
X1766617Y-264954D01*
X1764840Y-267176D01*
X1761284Y-268288D01*
X1757728Y-268288D01*
X1754173Y-267176D01*
X1752395Y-264954D01*
G54D16*
X1772839Y-264954D02*
X1774617Y-267176D01*
X1778172Y-268288D01*
X1781728Y-268288D01*
X1785284Y-267176D01*
X1787061Y-264954D01*
X1787061Y-259399D01*
X1787061Y-258288D01*
X1781728Y-260510D01*
X1778172Y-260510D01*
X1774617Y-259399D01*
X1772839Y-257176D01*
X1772839Y-253843D01*
X1774617Y-251621D01*
X1778172Y-250510D01*
X1781728Y-250510D01*
X1785284Y-251621D01*
X1787061Y-253843D01*
X1787061Y-259399D01*
G54D16*
X1807505Y-253843D02*
X1807505Y-264954D01*
X1805728Y-267176D01*
X1802172Y-268288D01*
X1798616Y-268288D01*
X1795061Y-267176D01*
X1793283Y-264954D01*
X1793283Y-253843D01*
X1795061Y-251621D01*
X1798616Y-250510D01*
X1802172Y-250510D01*
X1805728Y-251621D01*
X1807505Y-253843D01*
G54D16*
X1813727Y-260510D02*
X1827949Y-260510D01*
G54D16*
X1848393Y-253843D02*
X1848393Y-264954D01*
X1846616Y-267176D01*
X1843060Y-268288D01*
X1839504Y-268288D01*
X1835949Y-267176D01*
X1834171Y-264954D01*
X1834171Y-253843D01*
X1835949Y-251621D01*
X1839504Y-250510D01*
X1843060Y-250510D01*
X1846616Y-251621D01*
X1848393Y-253843D01*
G54D16*
X1854615Y-253843D02*
X1856393Y-251621D01*
X1859948Y-250510D01*
X1863504Y-250510D01*
X1867060Y-251621D01*
X1868837Y-253843D01*
X1868837Y-256065D01*
X1867060Y-258288D01*
X1863504Y-259399D01*
X1867060Y-260510D01*
X1868837Y-262732D01*
X1868837Y-264954D01*
X1867060Y-267176D01*
X1863504Y-268288D01*
X1859948Y-268288D01*
X1856393Y-267176D01*
X1854615Y-264954D01*
G54D13*
G75*
G01X1501775Y-259953D02*
G03X1501775Y-259953I-19050J0D01*
G01*
G54D16*
X1489407Y-264954D02*
X1487629Y-267176D01*
X1484073Y-268288D01*
X1480518Y-268288D01*
X1476962Y-267176D01*
X1475184Y-264954D01*
X1475184Y-253843D01*
X1476962Y-251621D01*
X1480518Y-250510D01*
X1484073Y-250510D01*
X1487629Y-251621D01*
X1489407Y-253843D01*
G54D15*
X1929050Y973138D02*
X1929050Y989012D01*
X1795700Y989012D01*
X1795700Y973138D01*
G54D15*
X1929050Y922338D02*
X1929050Y877888D01*
X1795700Y877888D01*
X1795700Y922338D01*
G54D14*
X171450Y193675D02*
X183356Y193675D01*
X183356Y196850D01*
X196056Y196850D01*
G54D14*
X171450Y168274D02*
X183356Y168274D01*
X183356Y165100D01*
X196056Y165100D01*
G54D14*
X257175Y196850D02*
X266700Y196850D01*
X266700Y165100D01*
X257175Y165100D01*
G54D11*
X245278Y478875D02*
X246723Y478009D01*
X247445Y476275D01*
X247445Y474542D01*
X246723Y472809D01*
X245278Y471942D01*
X238056Y471942D01*
X236612Y472809D01*
X235889Y474542D01*
X235889Y476275D01*
X236612Y478009D01*
X238056Y478875D01*
G54D11*
X238056Y482919D02*
X236612Y483786D01*
X235889Y485519D01*
X235889Y487252D01*
X236612Y488986D01*
X238056Y489852D01*
X239500Y489852D01*
X240945Y488986D01*
X241667Y487252D01*
X242389Y488986D01*
X243834Y489852D01*
X245278Y489852D01*
X246723Y488986D01*
X247445Y487252D01*
X247445Y485519D01*
X246723Y483786D01*
X245278Y482919D01*
G54D17*
X109538Y492082D02*
X77788Y492082D01*
X77788Y520658D01*
G54D17*
X138112Y492082D02*
X153988Y492082D01*
X153988Y511132D01*
X138112Y511132D01*
G54D17*
X115888Y520658D02*
X115888Y536532D01*
X195262Y536532D01*
X195262Y568282D01*
X115888Y568282D01*
X115888Y587332D01*
G54D17*
X138112Y593682D02*
X153988Y593682D01*
X153988Y612732D01*
X138112Y612732D01*
G54D17*
X109538Y612732D02*
X77788Y612732D01*
X77788Y587332D01*
G54D17*
X77788Y539708D02*
X77788Y568282D01*
G54D17*
X109538Y663575D02*
X77788Y663575D01*
X77788Y692150D01*
G54D17*
X138112Y663575D02*
X153988Y663575D01*
X153988Y682625D01*
X138112Y682625D01*
G54D17*
X115888Y692150D02*
X115888Y708025D01*
X195262Y708025D01*
X195262Y739775D01*
X115888Y739775D01*
X115888Y758825D01*
G54D17*
X138112Y765175D02*
X153988Y765175D01*
X153988Y784225D01*
X138112Y784225D01*
G54D17*
X109538Y784225D02*
X77788Y784225D01*
X77788Y758825D01*
G54D17*
X77788Y711200D02*
X77788Y739775D01*
G54D11*
X185468Y716079D02*
X186913Y716945D01*
X187635Y718679D01*
X187635Y720412D01*
X186913Y722145D01*
X185468Y723012D01*
X184024Y723012D01*
X182580Y722145D01*
X181857Y720412D01*
X181857Y718679D01*
X181135Y716945D01*
X179691Y716079D01*
X178246Y716079D01*
X176802Y716945D01*
X176080Y718679D01*
X176080Y720412D01*
X176802Y722145D01*
X178246Y723012D01*
G54D11*
X180413Y727056D02*
X176080Y731389D01*
X187635Y731389D01*
G54D11*
X72996Y798521D02*
X61441Y798521D01*
X72996Y805454D01*
X61441Y805454D01*
G54D11*
X72996Y809498D02*
X61441Y809498D01*
X68663Y813831D01*
X61441Y818164D01*
X72996Y818164D01*
G54D11*
X72996Y822209D02*
X61441Y822209D01*
G54D11*
X185236Y544176D02*
X186680Y545042D01*
X187402Y546776D01*
X187402Y548509D01*
X186680Y550242D01*
X185236Y551109D01*
X183791Y551109D01*
X182346Y550242D01*
X181624Y548509D01*
X181624Y546776D01*
X180902Y545042D01*
X179458Y544176D01*
X178013Y544176D01*
X176569Y545042D01*
X175846Y546776D01*
X175846Y548509D01*
X176569Y550242D01*
X178013Y551109D01*
G54D11*
X187402Y562086D02*
X187402Y555153D01*
X186680Y555153D01*
X185236Y556020D01*
X180902Y561220D01*
X179458Y562086D01*
X178013Y562086D01*
X176569Y561220D01*
X175846Y559486D01*
X175846Y557753D01*
X176569Y556020D01*
X178013Y555153D01*
G54D11*
X66874Y431651D02*
X68319Y434251D01*
X69763Y435118D01*
X72652Y435118D01*
G54D11*
X72652Y428185D02*
X61096Y428185D01*
X61096Y432518D01*
X61819Y434251D01*
X63263Y435118D01*
X64708Y435118D01*
X66152Y434251D01*
X66874Y432518D01*
X66874Y428185D01*
G54D11*
X72652Y445228D02*
X72652Y439162D01*
X61096Y439162D01*
X61096Y445228D01*
G54D11*
X66874Y439162D02*
X66874Y445228D01*
G54D11*
X70486Y449273D02*
X71930Y450139D01*
X72652Y451873D01*
X72652Y453606D01*
X71930Y455339D01*
X70486Y456206D01*
X69041Y456206D01*
X67596Y455339D01*
X66874Y453606D01*
X66874Y451873D01*
X66152Y450139D01*
X64708Y449273D01*
X63263Y449273D01*
X61819Y450139D01*
X61096Y451873D01*
X61096Y453606D01*
X61819Y455339D01*
X63263Y456206D01*
G54D11*
X72652Y466316D02*
X72652Y460250D01*
X61096Y460250D01*
X61096Y466316D01*
G54D11*
X66874Y460250D02*
X66874Y466316D01*
G54D11*
X72652Y473827D02*
X61096Y473827D01*
G54D11*
X61096Y470361D02*
X61096Y477294D01*
G54D11*
X276322Y170555D02*
X282099Y174888D01*
X287877Y174888D01*
G54D11*
X282099Y174888D02*
X276322Y179222D01*
G54D11*
X280655Y183266D02*
X276322Y187599D01*
X287877Y187599D01*
G54D11*
X172212Y185164D02*
X173079Y186608D01*
X174812Y187330D01*
X176545Y187330D01*
X178279Y186608D01*
X179145Y185164D01*
X179145Y183720D01*
X178279Y182275D01*
X176545Y181553D01*
X178279Y180830D01*
X179145Y179386D01*
X179145Y177942D01*
X178279Y176497D01*
X176545Y175775D01*
X174812Y175775D01*
X173079Y176497D01*
X172212Y177942D01*
G54D11*
X190122Y175775D02*
X183189Y175775D01*
X183189Y176497D01*
X184056Y177942D01*
X189256Y182275D01*
X190122Y183720D01*
X190122Y185164D01*
X189256Y186608D01*
X187522Y187330D01*
X185789Y187330D01*
X184056Y186608D01*
X183189Y185164D01*
G54D11*
X194166Y175775D02*
X194166Y175775D01*
G54D11*
X198210Y187330D02*
X205143Y187330D01*
X204277Y185886D01*
X202543Y183720D01*
X200810Y180830D01*
X199943Y178664D01*
X199943Y175775D01*
G54D11*
X216120Y185164D02*
X215254Y186608D01*
X213520Y187330D01*
X211787Y187330D01*
X210054Y186608D01*
X209187Y185164D01*
X209187Y181553D01*
X209187Y180830D01*
X211787Y182275D01*
X213520Y182275D01*
X215254Y181553D01*
X216120Y180108D01*
X216120Y177942D01*
X215254Y176497D01*
X213520Y175775D01*
X211787Y175775D01*
X210054Y176497D01*
X209187Y177942D01*
X209187Y181553D01*
G54D11*
X224497Y181553D02*
X222764Y181553D01*
X221031Y182275D01*
X220164Y183720D01*
X220164Y185164D01*
X221031Y186608D01*
X222764Y187330D01*
X224497Y187330D01*
X226231Y186608D01*
X227097Y185164D01*
X227097Y183720D01*
X226231Y182275D01*
X224497Y181553D01*
X226231Y180830D01*
X227097Y179386D01*
X227097Y177942D01*
X226231Y176497D01*
X224497Y175775D01*
X222764Y175775D01*
X221031Y176497D01*
X220164Y177942D01*
X220164Y179386D01*
X221031Y180830D01*
X222764Y181553D01*
G54D11*
X235358Y175775D02*
X235358Y187330D01*
G54D11*
X235358Y179386D02*
X242291Y187330D01*
G54D11*
X237958Y181553D02*
X242291Y175775D01*
G54D11*
X246335Y175775D02*
X246335Y187330D01*
G54D11*
X253268Y175775D02*
X253268Y187330D01*
G54D11*
X246335Y181553D02*
X253268Y181553D01*
G54D11*
X257312Y182275D02*
X262512Y182275D01*
X257312Y175775D01*
X262512Y175775D01*
G54D14*
X1004094Y851694D02*
X658812Y851694D01*
X658812Y766762D01*
X723900Y766762D01*
G54D14*
X738188Y766762D02*
X849312Y766762D01*
G54D14*
X866775Y766762D02*
X871538Y766762D01*
G54D14*
X887412Y766762D02*
X1375569Y766762D01*
X1375569Y851694D01*
X1030288Y851694D01*
X1030288Y838994D01*
X1004094Y838994D01*
X1004094Y851694D01*
G54D11*
X1058168Y620810D02*
X1059612Y619944D01*
X1060335Y618210D01*
X1060335Y616477D01*
X1059612Y614744D01*
X1058168Y613877D01*
X1050946Y613877D01*
X1049501Y614744D01*
X1048779Y616477D01*
X1048779Y618210D01*
X1049501Y619944D01*
X1050946Y620810D01*
G54D11*
X1048779Y624854D02*
X1048779Y631788D01*
X1050224Y630921D01*
X1052390Y629188D01*
X1055279Y627454D01*
X1057446Y626588D01*
X1060335Y626588D01*
G54D11*
X293220Y854366D02*
X302609Y854366D01*
X304053Y853500D01*
X304775Y851766D01*
X304775Y850033D01*
X304053Y848300D01*
X302609Y847433D01*
G54D11*
X304775Y865343D02*
X304775Y858410D01*
X304053Y858410D01*
X302609Y859276D01*
X298275Y864476D01*
X296831Y865343D01*
X295386Y865343D01*
X293942Y864476D01*
X293220Y862743D01*
X293220Y861010D01*
X293942Y859276D01*
X295386Y858410D01*
G54D11*
X457016Y854530D02*
X466405Y854530D01*
X467849Y853664D01*
X468571Y851930D01*
X468571Y850197D01*
X467849Y848464D01*
X466405Y847597D01*
G54D11*
X459182Y858574D02*
X457738Y859441D01*
X457016Y861174D01*
X457016Y862907D01*
X457738Y864641D01*
X459182Y865507D01*
X460627Y865507D01*
X462071Y864641D01*
X462794Y862907D01*
X463516Y864641D01*
X464960Y865507D01*
X466405Y865507D01*
X467849Y864641D01*
X468571Y862907D01*
X468571Y861174D01*
X467849Y859441D01*
X466405Y858574D01*
G54D11*
X1963112Y919618D02*
X1972501Y919618D01*
X1973945Y918751D01*
X1974668Y917018D01*
X1974668Y915284D01*
X1973945Y913551D01*
X1972501Y912684D01*
G54D11*
X1972501Y923661D02*
X1973945Y924528D01*
X1974668Y926261D01*
X1974668Y927995D01*
X1973945Y929728D01*
X1972501Y930595D01*
X1968890Y930595D01*
X1968168Y930595D01*
X1969612Y927995D01*
X1969612Y926261D01*
X1968890Y924528D01*
X1967445Y923661D01*
X1965279Y923661D01*
X1963834Y924528D01*
X1963112Y926261D01*
X1963112Y927995D01*
X1963834Y929728D01*
X1965279Y930595D01*
X1968890Y930595D01*
G54D18*
X21431Y564420D02*
X7209Y571531D01*
X21431Y578642D01*
G54D18*
X16098Y567264D02*
X16098Y575797D01*
G54D18*
X18764Y582552D02*
X20542Y583975D01*
X21431Y586819D01*
X21431Y589664D01*
X20542Y592508D01*
X18764Y593930D01*
X16987Y593930D01*
X15209Y592508D01*
X14320Y589664D01*
X14320Y586819D01*
X13431Y583975D01*
X11654Y582552D01*
X9876Y582552D01*
X8098Y583975D01*
X7209Y586819D01*
X7209Y589664D01*
X8098Y592508D01*
X9876Y593930D01*
G54D18*
X18764Y597842D02*
X20542Y599264D01*
X21431Y602108D01*
X21431Y604953D01*
X20542Y607797D01*
X18764Y609219D01*
X16987Y609219D01*
X15209Y607797D01*
X14320Y604953D01*
X14320Y602108D01*
X13431Y599264D01*
X11654Y597842D01*
X9876Y597842D01*
X8098Y599264D01*
X7209Y602108D01*
X7209Y604953D01*
X8098Y607797D01*
X9876Y609219D01*
G54D18*
X21431Y623086D02*
X21431Y613130D01*
X7209Y613130D01*
X7209Y623086D01*
G54D18*
X14320Y613130D02*
X14320Y623086D01*
G54D18*
X21431Y626998D02*
X7209Y626998D01*
X16098Y634109D01*
X7209Y641220D01*
X21431Y641220D01*
G54D18*
X21431Y645130D02*
X7209Y645130D01*
X7209Y652242D01*
X8098Y655086D01*
X9876Y656508D01*
X11654Y656508D01*
X13431Y655086D01*
X14320Y652242D01*
X15209Y655086D01*
X16987Y656508D01*
X18764Y656508D01*
X20542Y655086D01*
X21431Y652242D01*
X21431Y645130D01*
G54D18*
X14320Y645130D02*
X14320Y652242D01*
G54D18*
X7209Y660420D02*
X21431Y660420D01*
X21431Y670375D01*
G54D18*
X21431Y684242D02*
X21431Y674286D01*
X7209Y674286D01*
X7209Y684242D01*
G54D18*
X14320Y674286D02*
X14320Y684242D01*
G54D18*
X21431Y688154D02*
X7209Y688154D01*
X7209Y695265D01*
X8098Y698109D01*
X9876Y699531D01*
X18764Y699531D01*
X20542Y698109D01*
X21431Y695265D01*
X21431Y688154D01*
G54D18*
X43964Y565039D02*
X29742Y565039D01*
X29742Y572150D01*
X30630Y574995D01*
X32408Y576417D01*
X34186Y576417D01*
X35964Y574995D01*
X36852Y572150D01*
X37742Y574995D01*
X39519Y576417D01*
X41297Y576417D01*
X43075Y574995D01*
X43964Y572150D01*
X43964Y565039D01*
G54D18*
X36852Y565039D02*
X36852Y572150D01*
G54D18*
X29742Y580328D02*
X36852Y587439D01*
X43964Y587439D01*
G54D18*
X36852Y587439D02*
X29742Y594550D01*
G54D18*
X29742Y622424D02*
X41297Y622424D01*
X43075Y621002D01*
X43964Y618157D01*
X43964Y615313D01*
X43075Y612468D01*
X41297Y611046D01*
G54D18*
X29742Y626335D02*
X43964Y626335D01*
X43964Y636291D01*
G54D18*
X41297Y651580D02*
X43075Y650158D01*
X43964Y647313D01*
X43964Y644469D01*
X43075Y641624D01*
X41297Y640202D01*
X32408Y640202D01*
X30630Y641624D01*
X29742Y644469D01*
X29742Y647313D01*
X30630Y650158D01*
X32408Y651580D01*
G54D18*
X43964Y655491D02*
X29742Y655491D01*
X29742Y662602D01*
X30630Y665447D01*
X32408Y666869D01*
X34186Y666869D01*
X35964Y665447D01*
X36852Y662602D01*
X36852Y655491D01*
G54D18*
X41297Y682158D02*
X43075Y680736D01*
X43964Y677891D01*
X43964Y675047D01*
X43075Y672202D01*
X41297Y670780D01*
X32408Y670780D01*
X30630Y672202D01*
X29742Y675047D01*
X29742Y677891D01*
X30630Y680736D01*
X32408Y682158D01*
G54D18*
X43964Y686069D02*
X29742Y686069D01*
X29742Y693180D01*
X30630Y696025D01*
X32408Y697447D01*
X34186Y697447D01*
X35964Y696025D01*
X36852Y693180D01*
X37742Y696025D01*
X39519Y697447D01*
X41297Y697447D01*
X43075Y696025D01*
X43964Y693180D01*
X43964Y686069D01*
G54D18*
X36852Y686069D02*
X36852Y693180D01*
G54D18*
X189309Y-215106D02*
X175087Y-207995D01*
X189309Y-200884D01*
G54D18*
X183976Y-212262D02*
X183976Y-203728D01*
G54D18*
X408384Y-213122D02*
X394162Y-213122D01*
X394162Y-206011D01*
X395051Y-203166D01*
X396829Y-201744D01*
X398607Y-201744D01*
X400384Y-203166D01*
X401273Y-206011D01*
X402162Y-203166D01*
X403940Y-201744D01*
X405718Y-201744D01*
X407496Y-203166D01*
X408384Y-206011D01*
X408384Y-213122D01*
G54D18*
X401273Y-213122D02*
X401273Y-206011D01*
G54D18*
X596615Y-194997D02*
X598392Y-196420D01*
X599281Y-199264D01*
X599281Y-202108D01*
X598392Y-204953D01*
X596615Y-206375D01*
X587726Y-206375D01*
X585948Y-204953D01*
X585059Y-202108D01*
X585059Y-199264D01*
X585948Y-196420D01*
X587726Y-194997D01*
G54D18*
X750888Y-206375D02*
X736665Y-206375D01*
X736665Y-199264D01*
X737554Y-196420D01*
X739332Y-194997D01*
X748221Y-194997D01*
X749999Y-196420D01*
X750888Y-199264D01*
X750888Y-206375D01*
G54D18*
X909638Y-192451D02*
X909638Y-202406D01*
X895415Y-202406D01*
X895415Y-192451D01*
G54D18*
X902526Y-202406D02*
X902526Y-192451D01*
G54D18*
X1035050Y-202009D02*
X1020828Y-202009D01*
X1020828Y-192054D01*
G54D18*
X1027939Y-202009D02*
X1027939Y-192054D01*
G54D18*
X1213676Y-194733D02*
X1213676Y-189044D01*
X1218121Y-189044D01*
X1219899Y-190466D01*
X1220788Y-193311D01*
X1220788Y-196155D01*
X1219899Y-199000D01*
X1218121Y-200422D01*
X1209232Y-200422D01*
X1207454Y-199000D01*
X1206565Y-196155D01*
X1206565Y-193311D01*
X1207454Y-190466D01*
X1209232Y-189044D01*
G54D18*
X1430338Y-222647D02*
X1416115Y-222647D01*
G54D18*
X1430338Y-211269D02*
X1416115Y-211269D01*
G54D18*
X1423226Y-222647D02*
X1423226Y-211269D01*
G54D18*
X1532334Y-217091D02*
X1518112Y-217091D01*
G54D18*
X1713375Y-211666D02*
X1724930Y-211666D01*
X1726708Y-213088D01*
X1727597Y-215933D01*
X1727597Y-218777D01*
X1726708Y-221622D01*
X1724930Y-223044D01*
G54D18*
X1913731Y-223044D02*
X1899509Y-223044D01*
G54D18*
X1909287Y-223044D02*
X1899509Y-211666D01*
G54D18*
X1906620Y-218777D02*
X1913731Y-211666D01*
G54D18*
X2096756Y-223044D02*
X2110978Y-223044D01*
X2110978Y-213088D01*
G54D18*
X2206068Y-123110D02*
X2200734Y-115999D01*
X2214957Y-115999D01*
G54D18*
X2215356Y5028D02*
X2215356Y-6350D01*
X2214468Y-6350D01*
X2212690Y-4928D01*
X2207356Y3606D01*
X2205578Y5028D01*
X2203801Y5028D01*
X2202023Y3606D01*
X2201134Y761D01*
X2201134Y-2083D01*
X2202023Y-4928D01*
X2203801Y-6350D01*
G54D18*
X2204992Y105966D02*
X2203214Y107388D01*
X2202325Y110232D01*
X2202325Y113077D01*
X2203214Y115921D01*
X2204992Y117343D01*
X2206769Y117343D01*
X2208547Y115921D01*
X2209436Y113077D01*
X2210325Y115921D01*
X2212102Y117343D01*
X2213880Y117343D01*
X2215658Y115921D01*
X2216547Y113077D01*
X2216547Y110232D01*
X2215658Y107388D01*
X2213880Y105966D01*
G54D18*
X2213372Y230783D02*
X2199150Y230783D01*
X2208039Y222250D01*
X2209816Y222250D01*
X2209816Y233628D01*
G54D18*
X2199943Y347928D02*
X2199943Y336550D01*
X2206166Y336550D01*
X2206166Y337972D01*
X2205276Y340817D01*
X2205276Y343661D01*
X2206166Y346506D01*
X2207943Y347928D01*
X2211499Y347928D01*
X2213276Y346506D01*
X2214166Y343661D01*
X2214166Y340817D01*
X2213276Y337972D01*
X2211499Y336550D01*
G54D18*
X2203007Y459450D02*
X2201229Y458027D01*
X2200340Y455183D01*
X2200340Y452339D01*
X2201229Y449494D01*
X2203007Y448072D01*
X2207452Y448072D01*
X2208340Y448072D01*
X2206562Y452339D01*
X2206562Y455183D01*
X2207452Y458027D01*
X2209229Y459450D01*
X2211896Y459450D01*
X2213674Y458027D01*
X2214562Y455183D01*
X2214562Y452339D01*
X2213674Y449494D01*
X2211896Y448072D01*
X2207452Y448072D01*
G54D18*
X2199943Y561181D02*
X2199943Y572559D01*
X2201721Y571137D01*
X2204388Y568292D01*
X2207943Y565448D01*
X2210610Y564026D01*
X2214166Y564026D01*
G54D18*
X2208642Y659574D02*
X2208642Y656729D01*
X2207753Y653885D01*
X2205975Y652462D01*
X2204198Y652462D01*
X2202420Y653885D01*
X2201531Y656729D01*
X2201531Y659574D01*
X2202420Y662418D01*
X2204198Y663840D01*
X2205975Y663840D01*
X2207753Y662418D01*
X2208642Y659574D01*
X2209531Y662418D01*
X2211308Y663840D01*
X2213086Y663840D01*
X2214864Y662418D01*
X2215753Y659574D01*
X2215753Y656729D01*
X2214864Y653885D01*
X2213086Y652462D01*
X2211308Y652462D01*
X2209531Y653885D01*
X2208642Y656729D01*
G54D17*
X412750Y-26194D02*
X412750Y-16669D01*
X400050Y-16669D01*
G54D17*
X412750Y-169696D02*
X412750Y-179221D01*
X400050Y-179221D01*
G54D17*
X57317Y-26194D02*
X57317Y-16669D01*
X70017Y-16669D01*
G54D17*
X57317Y-169696D02*
X57317Y-179221D01*
X70017Y-179221D01*
G54D17*
X62706Y-186531D02*
X62706Y-199231D01*
G54D17*
X69056Y-192881D02*
X56356Y-192881D01*
G54D12*
X1851926Y777925D02*
X1860815Y777925D01*
X1860815Y782592D01*
G54D12*
X1860815Y791036D02*
X1860815Y785703D01*
X1860259Y785703D01*
X1859148Y786370D01*
X1855815Y790370D01*
X1854704Y791036D01*
X1853592Y791036D01*
X1852481Y790370D01*
X1851926Y789036D01*
X1851926Y787703D01*
X1852481Y786370D01*
X1853592Y785703D01*
G54D11*
X838879Y5710D02*
X848268Y5710D01*
X849712Y6577D01*
X850435Y8310D01*
X850435Y10044D01*
X849712Y11777D01*
X848268Y12644D01*
X838879Y12644D01*
G54D11*
X850435Y22754D02*
X850435Y16688D01*
X838879Y16688D01*
X838879Y22754D01*
G54D11*
X844657Y16688D02*
X844657Y22754D01*
G54D11*
X843212Y26798D02*
X838879Y31132D01*
X850435Y31132D01*
G54D11*
X866432Y8741D02*
X867876Y11341D01*
X869321Y12207D01*
X872210Y12207D01*
G54D11*
X872210Y5274D02*
X860654Y5274D01*
X860654Y9607D01*
X861376Y11341D01*
X862821Y12207D01*
X864265Y12207D01*
X865710Y11341D01*
X866432Y9607D01*
X866432Y5274D01*
G54D11*
X862821Y23184D02*
X870043Y23184D01*
X871488Y22318D01*
X872210Y20584D01*
X872210Y18851D01*
X871488Y17118D01*
X870043Y16251D01*
X862821Y16251D01*
X861376Y17118D01*
X860654Y18851D01*
X860654Y20584D01*
X861376Y22318D01*
X862821Y23184D01*
G54D11*
X872210Y27228D02*
X860654Y27228D01*
X867876Y31561D01*
X860654Y35895D01*
X872210Y35895D01*
G54D11*
X1099720Y753725D02*
X1099720Y744336D01*
X1098854Y742891D01*
X1097120Y742169D01*
X1095387Y742169D01*
X1093654Y742891D01*
X1092787Y744336D01*
G54D11*
X1110697Y753725D02*
X1103764Y753725D01*
X1103764Y748669D01*
X1104631Y748669D01*
X1106364Y749391D01*
X1108097Y749391D01*
X1109831Y748669D01*
X1110697Y747225D01*
X1110697Y744336D01*
X1109831Y742891D01*
X1108097Y742169D01*
X1106364Y742169D01*
X1104631Y742891D01*
X1103764Y744336D01*
G54D11*
X1462775Y569741D02*
X1472164Y569741D01*
X1473608Y568875D01*
X1474330Y567141D01*
X1474330Y565408D01*
X1473608Y563675D01*
X1472164Y562808D01*
G54D11*
X1468552Y578118D02*
X1468552Y576385D01*
X1467830Y574652D01*
X1466386Y573785D01*
X1464941Y573785D01*
X1463497Y574652D01*
X1462775Y576385D01*
X1462775Y578118D01*
X1463497Y579852D01*
X1464941Y580718D01*
X1466386Y580718D01*
X1467830Y579852D01*
X1468552Y578118D01*
X1469275Y579852D01*
X1470719Y580718D01*
X1472164Y580718D01*
X1473608Y579852D01*
X1474330Y578118D01*
X1474330Y576385D01*
X1473608Y574652D01*
X1472164Y573785D01*
X1470719Y573785D01*
X1469275Y574652D01*
X1468552Y576385D01*
G54D11*
X634914Y951003D02*
X634914Y941614D01*
X634048Y940169D01*
X632314Y939447D01*
X630581Y939447D01*
X628848Y940169D01*
X627981Y941614D01*
G54D11*
X644158Y939447D02*
X644158Y951003D01*
X638958Y943780D01*
X638958Y942336D01*
X645891Y942336D01*
G54D11*
X1519428Y858852D02*
X1528817Y858852D01*
X1530262Y857985D01*
X1530984Y856252D01*
X1530984Y854518D01*
X1530262Y852785D01*
X1528817Y851918D01*
G54D11*
X1521595Y869829D02*
X1520150Y868962D01*
X1519428Y867229D01*
X1519428Y865495D01*
X1520150Y863762D01*
X1521595Y862895D01*
X1525206Y862895D01*
X1525928Y862895D01*
X1524484Y865495D01*
X1524484Y867229D01*
X1525206Y868962D01*
X1526650Y869829D01*
X1528817Y869829D01*
X1530262Y868962D01*
X1530984Y867229D01*
X1530984Y865495D01*
X1530262Y863762D01*
X1528817Y862895D01*
X1525206Y862895D01*
G54D19*
X1089922Y210410D02*
X1099310Y210410D01*
X1100755Y209543D01*
X1101477Y207810D01*
X1101477Y206076D01*
X1100755Y204343D01*
X1099310Y203476D01*
G54D19*
X1094255Y213587D02*
X1089922Y217921D01*
X1101477Y217921D01*
G54D19*
X1101477Y228032D02*
X1101477Y221098D01*
X1100755Y221098D01*
X1099310Y221965D01*
X1094977Y227165D01*
X1093532Y228032D01*
X1092088Y228032D01*
X1090644Y227165D01*
X1089922Y225432D01*
X1089922Y223698D01*
X1090644Y221965D01*
X1092088Y221098D01*
G54D14*
X2068512Y751284D02*
X2055812Y751284D01*
X2055812Y738188D01*
G54D14*
X2055812Y130175D02*
X2055812Y117475D01*
X2068116Y117475D01*
G54D14*
X2176462Y117475D02*
X2188766Y117475D01*
X2188766Y130175D01*
G54D14*
X2175669Y751284D02*
X2186384Y751284D01*
G54D11*
X2024390Y571990D02*
X2033779Y571990D01*
X2035223Y571124D01*
X2035946Y569390D01*
X2035946Y567657D01*
X2035223Y565924D01*
X2033779Y565057D01*
G54D11*
X2028723Y576034D02*
X2024390Y580367D01*
X2035946Y580367D01*
G54D11*
X2028723Y584411D02*
X2024390Y588744D01*
X2035946Y588744D01*
G54D14*
X93266Y994966D02*
X93266Y986631D01*
G54D14*
X213122Y994966D02*
X213122Y986631D01*
G54D14*
X92869Y837009D02*
X92869Y824309D01*
X105569Y824309D01*
G54D14*
X212988Y837009D02*
X212988Y824309D01*
X200288Y824309D01*
G54D11*
X226951Y839128D02*
X236340Y839128D01*
X237784Y838261D01*
X238506Y836528D01*
X238506Y834794D01*
X237784Y833061D01*
X236340Y832194D01*
G54D11*
X231284Y843171D02*
X226951Y847505D01*
X238506Y847505D01*
G54D20*
G75*
G01X519510Y345281D02*
G03X519510Y345281I-1191J0D01*
G01*
G54D20*
G75*
G01X825104Y345281D02*
G03X825104Y345281I-1192J0D01*
G01*
G54D20*
G75*
G01X373857Y573088D02*
G03X373857Y573088I-1191J0D01*
G01*
G54D20*
G75*
G01X616744Y-126206D02*
G03X616744Y-126206I-1191J0D01*
G01*
G54D20*
G75*
G01X1706960Y192088D02*
G03X1706960Y192088I-1191J0D01*
G01*
G54D20*
G75*
G01X1691878Y563562D02*
G03X1691878Y563562I-1190J0D01*
G01*
G54D20*
G75*
G01X1430735Y696119D02*
G03X1430735Y696119I-1191J0D01*
G01*
G54D20*
G75*
G01X1075928Y617538D02*
G03X1075928Y617538I-1190J0D01*
G01*
G54D20*
G75*
G01X912416Y720725D02*
G03X912416Y720725I-1191J0D01*
G01*
G54D20*
G75*
G01X319485Y708422D02*
G03X319485Y708422I-1191J0D01*
G01*
G54D20*
G75*
G01X486172Y708422D02*
G03X486172Y708422I-1191J0D01*
G01*
G54D20*
G75*
G01X637778Y619522D02*
G03X637778Y619522I-1190J0D01*
G01*
G54D20*
G75*
G01X676672Y527844D02*
G03X676672Y527844I-1191J0D01*
G01*
G54D20*
G75*
G01X918766Y163116D02*
G03X918766Y163116I-1191J0D01*
G01*
G54D20*
G75*
G01X1072754Y163116D02*
G03X1072754Y163116I-1192J0D01*
G01*
G54D20*
G75*
G01X1588691Y-25003D02*
G03X1588691Y-25003I-1191J0D01*
G01*
G54D20*
G75*
G01X1747838Y-25003D02*
G03X1747838Y-25003I-1191J0D01*
G01*
G54D20*
G75*
G01X2032794Y-86519D02*
G03X2032794Y-86519I-1191J0D01*
G01*
G54D20*
G75*
G01X289719Y77788D02*
G03X289719Y77788I-1191J0D01*
G01*
G54D17*
X112712Y459581D02*
X125412Y459581D01*
G54D17*
X112712Y459581D02*
X112712Y446484D01*
G54D17*
X203826Y459581D02*
X191126Y459581D01*
G54D17*
X203826Y459581D02*
X203826Y446484D01*
G54D17*
X112712Y331954D02*
X125412Y331954D01*
G54D17*
X112712Y331954D02*
X112712Y345051D01*
G54D17*
X203200Y345281D02*
X190103Y332184D01*
G54D11*
X62261Y361931D02*
X71650Y361931D01*
X73094Y362798D01*
X73816Y364531D01*
X73816Y366264D01*
X73094Y367998D01*
X71650Y368864D01*
X62261Y368864D01*
G54D11*
X73816Y372908D02*
X62261Y377241D01*
X73816Y381575D01*
G54D11*
X69483Y374641D02*
X69483Y379841D01*
G54D11*
X62261Y392552D02*
X62261Y385619D01*
X67316Y385619D01*
X67316Y386486D01*
X66594Y388219D01*
X66594Y389952D01*
X67316Y391686D01*
X68761Y392552D01*
X71650Y392552D01*
X73094Y391686D01*
X73816Y389952D01*
X73816Y388219D01*
X73094Y386486D01*
X71650Y385619D01*
G54D11*
X94218Y346474D02*
X95663Y347340D01*
X96385Y349074D01*
X96385Y350807D01*
X95663Y352540D01*
X94218Y353407D01*
X92774Y353407D01*
X91330Y352540D01*
X90608Y350807D01*
X90608Y349074D01*
X89885Y347340D01*
X88441Y346474D01*
X86996Y346474D01*
X85552Y347340D01*
X84830Y349074D01*
X84830Y350807D01*
X85552Y352540D01*
X86996Y353407D01*
G54D11*
X86996Y364384D02*
X94218Y364384D01*
X95663Y363517D01*
X96385Y361784D01*
X96385Y360050D01*
X95663Y358317D01*
X94218Y357450D01*
X86996Y357450D01*
X85552Y358317D01*
X84830Y360050D01*
X84830Y361784D01*
X85552Y363517D01*
X86996Y364384D01*
G54D11*
X84830Y368428D02*
X94218Y368428D01*
X95663Y369294D01*
X96385Y371028D01*
X96385Y372761D01*
X95663Y374494D01*
X94218Y375361D01*
X84830Y375361D01*
G54D11*
X96385Y379404D02*
X84830Y379404D01*
X96385Y386338D01*
X84830Y386338D01*
G54D11*
X96385Y390382D02*
X84830Y390382D01*
X84830Y394715D01*
X85552Y396448D01*
X86996Y397315D01*
X94218Y397315D01*
X95663Y396448D01*
X96385Y394715D01*
X96385Y390382D01*
G54D20*
G75*
G01X166291Y323850D02*
G03X166291Y323850I-1191J0D01*
G01*
G54D20*
G75*
G01X1340247Y450850D02*
G03X1340247Y450850I-1191J0D01*
G01*
G54D20*
G75*
G01X1468835Y450850D02*
G03X1468835Y450850I-1191J0D01*
G01*
M02*
