%FSLAX34Y34*%
%MOMM*%
%LNSOLDERMASK_BOTTOM*%
G71*
G01*
%ADD10C,2.200*%
%ADD11C,2.300*%
%ADD12C,1.600*%
%ADD13C,2.150*%
%ADD14C,3.400*%
%ADD15C,2.100*%
%ADD16C,2.600*%
%ADD17C,2.200*%
%ADD18C,1.200*%
%ADD19R,1.500X2.000*%
%ADD20R,2.100X2.000*%
%ADD21R,6.700X6.700*%
%ADD22C,3.000*%
%LPD*%
G36*
X1142716Y102678D02*
X1164716Y102678D01*
X1164716Y80678D01*
X1142716Y80678D01*
X1142716Y102678D01*
G37*
X1306116Y91678D02*
G54D10*
D03*
X1306116Y167878D02*
G54D10*
D03*
X1153716Y167878D02*
G54D10*
D03*
G36*
X1424394Y635784D02*
X1447394Y635784D01*
X1447394Y612784D01*
X1424394Y612784D01*
X1424394Y635784D01*
G37*
X1435894Y649684D02*
G54D11*
D03*
X1461294Y624284D02*
G54D11*
D03*
X1461294Y649684D02*
G54D11*
D03*
X1486694Y624284D02*
G54D11*
D03*
X1486694Y649684D02*
G54D11*
D03*
X1512094Y624284D02*
G54D11*
D03*
X1512094Y649684D02*
G54D11*
D03*
X1537494Y624284D02*
G54D11*
D03*
X1537494Y649684D02*
G54D11*
D03*
X1562894Y624284D02*
G54D11*
D03*
X1562894Y649684D02*
G54D11*
D03*
X1588294Y624284D02*
G54D11*
D03*
X1588294Y649684D02*
G54D11*
D03*
X1613694Y624284D02*
G54D11*
D03*
X1613694Y649684D02*
G54D11*
D03*
X1639094Y624284D02*
G54D11*
D03*
X1639094Y649684D02*
G54D11*
D03*
X1664494Y624284D02*
G54D11*
D03*
X1664494Y649684D02*
G54D11*
D03*
X1403275Y904291D02*
G54D11*
D03*
X1430975Y904291D02*
G54D11*
D03*
X1458675Y904291D02*
G54D11*
D03*
X1486375Y904291D02*
G54D11*
D03*
X1514075Y904291D02*
G54D11*
D03*
X1541775Y904291D02*
G54D11*
D03*
X1569475Y904291D02*
G54D11*
D03*
X1597175Y904291D02*
G54D11*
D03*
X1624875Y904291D02*
G54D11*
D03*
G36*
X1386525Y892791D02*
X1363525Y892791D01*
X1363525Y915791D01*
X1386525Y915791D01*
X1386525Y892791D01*
G37*
X1388988Y931116D02*
G54D11*
D03*
X1416688Y931116D02*
G54D11*
D03*
X1444388Y931116D02*
G54D11*
D03*
X1472088Y931116D02*
G54D11*
D03*
X1499788Y931116D02*
G54D11*
D03*
X1527488Y931116D02*
G54D11*
D03*
X1555188Y931116D02*
G54D11*
D03*
X1582888Y931116D02*
G54D11*
D03*
X1610588Y931116D02*
G54D11*
D03*
X1096963Y704850D02*
G54D12*
D03*
G36*
X838959Y-173469D02*
X838959Y-151969D01*
X860459Y-151969D01*
X860459Y-173469D01*
X838959Y-173469D01*
G37*
X875109Y-162719D02*
G54D13*
D03*
X900509Y-162719D02*
G54D13*
D03*
X925909Y-162719D02*
G54D13*
D03*
X849709Y-10319D02*
G54D13*
D03*
X875109Y-10319D02*
G54D13*
D03*
X900509Y-10319D02*
G54D13*
D03*
X925909Y-10319D02*
G54D13*
D03*
X951309Y-162719D02*
G54D13*
D03*
X951309Y-10319D02*
G54D13*
D03*
X976709Y-162719D02*
G54D13*
D03*
X1002109Y-162719D02*
G54D13*
D03*
X976709Y-10319D02*
G54D13*
D03*
X1002109Y-10319D02*
G54D13*
D03*
X1027509Y-162719D02*
G54D13*
D03*
X1027509Y-10319D02*
G54D13*
D03*
X1052909Y-162719D02*
G54D13*
D03*
X1052909Y-10319D02*
G54D13*
D03*
X1078309Y-162719D02*
G54D13*
D03*
X1078309Y-10319D02*
G54D13*
D03*
X1103709Y-10319D02*
G54D13*
D03*
X1129109Y-10319D02*
G54D13*
D03*
X1103709Y-162719D02*
G54D13*
D03*
X1129109Y-162719D02*
G54D13*
D03*
X1154509Y-162719D02*
G54D13*
D03*
X1179909Y-162719D02*
G54D13*
D03*
X1154509Y-10319D02*
G54D13*
D03*
X1179909Y-10319D02*
G54D13*
D03*
X1205309Y-10319D02*
G54D13*
D03*
X1230709Y-10319D02*
G54D13*
D03*
X1256109Y-10319D02*
G54D13*
D03*
X1281509Y-10319D02*
G54D13*
D03*
X1306909Y-10319D02*
G54D13*
D03*
X1332309Y-10319D02*
G54D13*
D03*
X1205309Y-162719D02*
G54D13*
D03*
X1230709Y-162719D02*
G54D13*
D03*
X1256109Y-162719D02*
G54D13*
D03*
X1281509Y-162719D02*
G54D13*
D03*
X1306909Y-162719D02*
G54D13*
D03*
X1332309Y-162719D02*
G54D13*
D03*
X1357709Y-10319D02*
G54D13*
D03*
X1357709Y-162719D02*
G54D13*
D03*
X1077913Y-85725D02*
G54D12*
D03*
G36*
X1334681Y810031D02*
X1311681Y810031D01*
X1311681Y833031D01*
X1334681Y833031D01*
X1334681Y810031D01*
G37*
X1323181Y796131D02*
G54D11*
D03*
X1297781Y821531D02*
G54D11*
D03*
X1297781Y796131D02*
G54D11*
D03*
X1272381Y821531D02*
G54D11*
D03*
X1272381Y796131D02*
G54D11*
D03*
X1246981Y821531D02*
G54D11*
D03*
X1246981Y796131D02*
G54D11*
D03*
X1221581Y821531D02*
G54D11*
D03*
X1221581Y796131D02*
G54D11*
D03*
X1196181Y821531D02*
G54D11*
D03*
X1196181Y796131D02*
G54D11*
D03*
X1170781Y821531D02*
G54D11*
D03*
X1170781Y796131D02*
G54D11*
D03*
X1145381Y821531D02*
G54D11*
D03*
X1145381Y796131D02*
G54D11*
D03*
X1119981Y821531D02*
G54D11*
D03*
X1119981Y796131D02*
G54D11*
D03*
X1094581Y821531D02*
G54D11*
D03*
X1094581Y796131D02*
G54D11*
D03*
X1069181Y821531D02*
G54D11*
D03*
X1069181Y796131D02*
G54D11*
D03*
X1043781Y821531D02*
G54D11*
D03*
X1043781Y796131D02*
G54D11*
D03*
X1018381Y821531D02*
G54D11*
D03*
X1018381Y796131D02*
G54D11*
D03*
X992981Y821531D02*
G54D11*
D03*
X992981Y796131D02*
G54D11*
D03*
X967581Y821531D02*
G54D11*
D03*
X967581Y796131D02*
G54D11*
D03*
X942181Y821531D02*
G54D11*
D03*
X942181Y796131D02*
G54D11*
D03*
X916781Y821531D02*
G54D11*
D03*
X916781Y796131D02*
G54D11*
D03*
X891381Y821531D02*
G54D11*
D03*
X891381Y796131D02*
G54D11*
D03*
X865981Y821531D02*
G54D11*
D03*
X865981Y796131D02*
G54D11*
D03*
X840581Y821531D02*
G54D11*
D03*
X840581Y796131D02*
G54D11*
D03*
X815181Y821531D02*
G54D11*
D03*
X815181Y796131D02*
G54D11*
D03*
X789781Y821531D02*
G54D11*
D03*
X789781Y796131D02*
G54D11*
D03*
X764381Y821531D02*
G54D11*
D03*
X764381Y796131D02*
G54D11*
D03*
X738981Y821531D02*
G54D11*
D03*
X738981Y796131D02*
G54D11*
D03*
X713581Y821531D02*
G54D11*
D03*
X713581Y796131D02*
G54D11*
D03*
X959644Y332978D02*
G54D14*
D03*
X1001644Y332978D02*
G54D14*
D03*
X1043644Y332978D02*
G54D14*
D03*
X1085644Y332978D02*
G54D14*
D03*
X1127644Y332978D02*
G54D14*
D03*
X1169644Y332978D02*
G54D14*
D03*
X1211644Y332978D02*
G54D14*
D03*
X959644Y277978D02*
G54D14*
D03*
X1001644Y277978D02*
G54D14*
D03*
X1043644Y277978D02*
G54D14*
D03*
X1085644Y277978D02*
G54D14*
D03*
X1127644Y277978D02*
G54D14*
D03*
X1169644Y277978D02*
G54D14*
D03*
G36*
X1194644Y294978D02*
X1228644Y294978D01*
X1228644Y260978D01*
X1194644Y260978D01*
X1194644Y294978D01*
G37*
G36*
X2098460Y710588D02*
X2098460Y689588D01*
X2077460Y689588D01*
X2077460Y710588D01*
X2098460Y710588D01*
G37*
X2113359Y700088D02*
G54D15*
D03*
X2087960Y674688D02*
G54D15*
D03*
X2113359Y674688D02*
G54D15*
D03*
X2087959Y649288D02*
G54D15*
D03*
X2113360Y649288D02*
G54D15*
D03*
X2087959Y623888D02*
G54D15*
D03*
X2113360Y623888D02*
G54D15*
D03*
X2087959Y598488D02*
G54D15*
D03*
X2113360Y598488D02*
G54D15*
D03*
X2087959Y573088D02*
G54D15*
D03*
X2113360Y573088D02*
G54D15*
D03*
X2087959Y547688D02*
G54D15*
D03*
X2113360Y547688D02*
G54D15*
D03*
X2087959Y522288D02*
G54D15*
D03*
X2113360Y522288D02*
G54D15*
D03*
X2087959Y496888D02*
G54D15*
D03*
X2113360Y496888D02*
G54D15*
D03*
X2087959Y471488D02*
G54D15*
D03*
X2113360Y471488D02*
G54D15*
D03*
X2087959Y446088D02*
G54D15*
D03*
X2113360Y446088D02*
G54D15*
D03*
X2087959Y420688D02*
G54D15*
D03*
X2113360Y420688D02*
G54D15*
D03*
X2087959Y395288D02*
G54D15*
D03*
X2113360Y395288D02*
G54D15*
D03*
X2087959Y369888D02*
G54D15*
D03*
X2113360Y369888D02*
G54D15*
D03*
X2087959Y344488D02*
G54D15*
D03*
X2113360Y344488D02*
G54D15*
D03*
X2087959Y319088D02*
G54D15*
D03*
X2113360Y319088D02*
G54D15*
D03*
X2087959Y293688D02*
G54D15*
D03*
X2113360Y293688D02*
G54D15*
D03*
X2087959Y268288D02*
G54D15*
D03*
X2113360Y268288D02*
G54D15*
D03*
X2087959Y242888D02*
G54D15*
D03*
X2113360Y242888D02*
G54D15*
D03*
X2087959Y217488D02*
G54D15*
D03*
X2113360Y217488D02*
G54D15*
D03*
X2087960Y192087D02*
G54D15*
D03*
X2113359Y192087D02*
G54D15*
D03*
X2087960Y166688D02*
G54D15*
D03*
X2113359Y166688D02*
G54D15*
D03*
X157956Y116681D02*
G54D12*
D03*
X144462Y193675D02*
G54D10*
D03*
X144462Y168275D02*
G54D10*
D03*
G36*
X72312Y-83028D02*
X102312Y-83028D01*
X102312Y-113028D01*
X72312Y-113028D01*
X72312Y-83028D01*
G37*
X652462Y-222250D02*
G54D12*
D03*
G36*
X251006Y792344D02*
X251006Y771344D01*
X230006Y771344D01*
X230006Y792344D01*
X251006Y792344D01*
G37*
X265906Y781844D02*
G54D15*
D03*
X240506Y756444D02*
G54D15*
D03*
X265906Y756444D02*
G54D15*
D03*
X240506Y731044D02*
G54D15*
D03*
X265906Y731044D02*
G54D15*
D03*
X383381Y-98425D02*
G54D16*
D03*
X1895475Y895350D02*
G54D10*
D03*
X1895475Y922338D02*
G54D10*
D03*
X1830388Y895350D02*
G54D10*
D03*
X1830388Y922338D02*
G54D10*
D03*
G36*
X1756303Y785716D02*
X1777303Y785716D01*
X1777303Y764716D01*
X1756303Y764716D01*
X1756303Y785716D01*
G37*
X1766803Y800616D02*
G54D15*
D03*
X1792203Y775216D02*
G54D15*
D03*
X1792203Y800616D02*
G54D15*
D03*
X1817603Y775216D02*
G54D15*
D03*
X1817603Y800616D02*
G54D15*
D03*
X360362Y898525D02*
G54D17*
D03*
X334962Y898525D02*
G54D17*
D03*
X314325Y898526D02*
G54D17*
D03*
X295275Y898525D02*
G54D17*
D03*
X314325Y922338D02*
G54D17*
D03*
X295275Y922338D02*
G54D17*
D03*
X360362Y922338D02*
G54D17*
D03*
X341312Y922338D02*
G54D17*
D03*
G54D18*
G75*
G01X382984Y941387D02*
G03X404416Y941387I10716J0D01*
G01*
G54D18*
G75*
G01X404416Y954088D02*
G03X382984Y954088I-10716J0D01*
G01*
G54D18*
X404416Y954088D02*
X404416Y941387D01*
G54D18*
X382984Y941387D02*
X382984Y954088D01*
G54D18*
G75*
G01X249635Y941387D02*
G03X271067Y941387I10716J0D01*
G01*
G54D18*
G75*
G01X271068Y954088D02*
G03X249636Y954088I-10716J0D01*
G01*
G54D18*
X271066Y954088D02*
X271067Y941387D01*
G54D18*
X249635Y941387D02*
X249634Y954088D01*
G54D18*
G75*
G01X320676Y967978D02*
G03X320676Y946546I0J-10716D01*
G01*
G54D18*
G75*
G01X333376Y946546D02*
G03X333376Y967978I0J10716D01*
G01*
G54D18*
X333376Y946546D02*
X320676Y946546D01*
G54D18*
X320676Y967978D02*
X333376Y967978D01*
G54D18*
G75*
G01X382984Y941387D02*
G03X404416Y941387I10716J0D01*
G01*
G54D18*
G75*
G01X404416Y954088D02*
G03X382984Y954088I-10716J0D01*
G01*
G54D18*
X404416Y954088D02*
X404416Y941387D01*
G54D18*
X382984Y941387D02*
X382984Y954088D01*
G54D18*
G75*
G01X249635Y941387D02*
G03X271067Y941387I10716J0D01*
G01*
G54D18*
G75*
G01X271068Y954088D02*
G03X249636Y954088I-10716J0D01*
G01*
G54D18*
X271066Y954088D02*
X271067Y941387D01*
G54D18*
X249635Y941387D02*
X249634Y954088D01*
G54D18*
G75*
G01X320676Y967978D02*
G03X320676Y946546I0J-10716D01*
G01*
G54D18*
G75*
G01X333376Y946546D02*
G03X333376Y967978I0J10716D01*
G01*
G54D18*
X333376Y946546D02*
X320676Y946546D01*
G54D18*
X320676Y967978D02*
X333376Y967978D01*
X551100Y899319D02*
G54D17*
D03*
X525700Y899319D02*
G54D17*
D03*
X505062Y899319D02*
G54D17*
D03*
X486012Y899319D02*
G54D17*
D03*
X505062Y923131D02*
G54D17*
D03*
X486012Y923131D02*
G54D17*
D03*
X551100Y923131D02*
G54D17*
D03*
X532050Y923131D02*
G54D17*
D03*
G54D18*
G75*
G01X573722Y941387D02*
G03X595154Y941387I10716J0D01*
G01*
G54D18*
G75*
G01X595154Y954088D02*
G03X573722Y954088I-10716J0D01*
G01*
G54D18*
X595154Y954088D02*
X595154Y941387D01*
G54D18*
X573722Y941387D02*
X573722Y954088D01*
G54D18*
G75*
G01X440372Y941387D02*
G03X461804Y941387I10716J0D01*
G01*
G54D18*
G75*
G01X461805Y954088D02*
G03X440373Y954088I-10716J0D01*
G01*
G54D18*
X461804Y954088D02*
X461804Y941387D01*
G54D18*
X440372Y941387D02*
X440372Y954088D01*
G54D18*
G75*
G01X511413Y967978D02*
G03X511413Y946546I0J-10716D01*
G01*
G54D18*
G75*
G01X524114Y946546D02*
G03X524114Y967978I0J10716D01*
G01*
G54D18*
X524114Y946546D02*
X511413Y946546D01*
G54D18*
X511413Y967978D02*
X524114Y967978D01*
G54D18*
G75*
G01X573722Y941387D02*
G03X595154Y941387I10716J0D01*
G01*
G54D18*
G75*
G01X595154Y954088D02*
G03X573722Y954088I-10716J0D01*
G01*
G54D18*
X595154Y954088D02*
X595154Y941387D01*
G54D18*
X573722Y941387D02*
X573722Y954088D01*
G54D18*
G75*
G01X440372Y941387D02*
G03X461804Y941387I10716J0D01*
G01*
G54D18*
G75*
G01X461805Y954088D02*
G03X440373Y954088I-10716J0D01*
G01*
G54D18*
X461804Y954088D02*
X461804Y941387D01*
G54D18*
X440372Y941387D02*
X440372Y954088D01*
G54D18*
G75*
G01X511413Y967978D02*
G03X511413Y946546I0J-10716D01*
G01*
G54D18*
G75*
G01X524114Y946546D02*
G03X524114Y967978I0J10716D01*
G01*
G54D18*
X524114Y946546D02*
X511413Y946546D01*
G54D18*
X511413Y967978D02*
X524114Y967978D01*
X786862Y905259D02*
G54D11*
D03*
X814562Y905259D02*
G54D11*
D03*
X842262Y905259D02*
G54D11*
D03*
X869962Y905259D02*
G54D11*
D03*
X897662Y905259D02*
G54D11*
D03*
X925362Y905259D02*
G54D11*
D03*
X953062Y905259D02*
G54D11*
D03*
X980762Y905259D02*
G54D11*
D03*
X1008462Y905259D02*
G54D11*
D03*
X1036162Y905259D02*
G54D11*
D03*
X1063862Y905259D02*
G54D11*
D03*
X1091562Y905259D02*
G54D11*
D03*
G36*
X770662Y893759D02*
X747662Y893759D01*
X747662Y916759D01*
X770662Y916759D01*
X770662Y893759D01*
G37*
X772575Y932084D02*
G54D11*
D03*
X800275Y932084D02*
G54D11*
D03*
X827975Y932084D02*
G54D11*
D03*
X855675Y932084D02*
G54D11*
D03*
X883375Y932084D02*
G54D11*
D03*
X911075Y932084D02*
G54D11*
D03*
X938775Y932084D02*
G54D11*
D03*
X966475Y932084D02*
G54D11*
D03*
X994175Y932084D02*
G54D11*
D03*
X1021875Y932084D02*
G54D11*
D03*
X1049575Y932084D02*
G54D11*
D03*
X1077275Y932084D02*
G54D11*
D03*
X133350Y736600D02*
G54D12*
D03*
G54D18*
G75*
G01X1918334Y941387D02*
G03X1939766Y941387I10716J0D01*
G01*
G54D18*
G75*
G01X1939766Y954088D02*
G03X1918334Y954088I-10716J0D01*
G01*
G54D18*
X1939766Y954088D02*
X1939766Y941387D01*
G54D18*
X1918334Y941387D02*
X1918334Y954088D01*
G54D18*
G75*
G01X1784984Y941387D02*
G03X1806416Y941387I10716J0D01*
G01*
G54D18*
G75*
G01X1806417Y954088D02*
G03X1784985Y954088I-10716J0D01*
G01*
G54D18*
X1806416Y954088D02*
X1806416Y941387D01*
G54D18*
X1784984Y941387D02*
X1784984Y954088D01*
G54D18*
G75*
G01X1856025Y967978D02*
G03X1856025Y946546I0J-10716D01*
G01*
G54D18*
G75*
G01X1868726Y946546D02*
G03X1868726Y967978I0J10716D01*
G01*
G54D18*
X1868726Y946546D02*
X1856025Y946546D01*
G54D18*
X1856025Y967978D02*
X1868726Y967978D01*
X88106Y529389D02*
G54D16*
D03*
X88106Y580231D02*
G54D16*
D03*
X88106Y700881D02*
G54D16*
D03*
X88106Y751724D02*
G54D16*
D03*
X153194Y765175D02*
G54D19*
D03*
X185694Y765275D02*
G54D19*
D03*
X153194Y803275D02*
G54D19*
D03*
X185694Y803375D02*
G54D19*
D03*
X153194Y733425D02*
G54D19*
D03*
X185694Y733525D02*
G54D19*
D03*
X153194Y702469D02*
G54D19*
D03*
X185694Y702569D02*
G54D19*
D03*
X230188Y688975D02*
G54D19*
D03*
X262688Y689075D02*
G54D19*
D03*
X230188Y650875D02*
G54D19*
D03*
X262688Y650975D02*
G54D19*
D03*
X304800Y841375D02*
G54D19*
D03*
X337300Y841475D02*
G54D19*
D03*
X396081Y562769D02*
G54D19*
D03*
X428581Y562869D02*
G54D19*
D03*
X230981Y447675D02*
G54D19*
D03*
X263481Y447775D02*
G54D19*
D03*
X89694Y447675D02*
G54D19*
D03*
X122194Y447775D02*
G54D19*
D03*
X153194Y447675D02*
G54D19*
D03*
X185694Y447775D02*
G54D19*
D03*
X485775Y562769D02*
G54D19*
D03*
X518275Y562869D02*
G54D19*
D03*
X432700Y523875D02*
G54D20*
D03*
X393700Y523875D02*
G54D20*
D03*
X523981Y523875D02*
G54D20*
D03*
X484981Y523875D02*
G54D20*
D03*
X587375Y588169D02*
G54D19*
D03*
X619875Y588269D02*
G54D19*
D03*
X587375Y550069D02*
G54D19*
D03*
X619875Y550169D02*
G54D19*
D03*
X623994Y637381D02*
G54D20*
D03*
X584994Y637381D02*
G54D20*
D03*
X676275Y637381D02*
G54D19*
D03*
X708775Y637481D02*
G54D19*
D03*
X676275Y600075D02*
G54D19*
D03*
X708775Y600175D02*
G54D19*
D03*
X676275Y562769D02*
G54D19*
D03*
X708775Y562869D02*
G54D19*
D03*
X712206Y523875D02*
G54D20*
D03*
X673206Y523875D02*
G54D20*
D03*
X700194Y739775D02*
G54D20*
D03*
X661194Y739775D02*
G54D20*
D03*
X869156Y619125D02*
G54D19*
D03*
X901656Y619225D02*
G54D19*
D03*
X869156Y537369D02*
G54D19*
D03*
X901656Y537469D02*
G54D19*
D03*
X562769Y397669D02*
G54D19*
D03*
X595269Y397769D02*
G54D19*
D03*
X690562Y372269D02*
G54D19*
D03*
X723062Y372369D02*
G54D19*
D03*
X894556Y397669D02*
G54D19*
D03*
X927056Y397769D02*
G54D19*
D03*
X408781Y359569D02*
G54D19*
D03*
X441281Y359669D02*
G54D19*
D03*
X89694Y397669D02*
G54D19*
D03*
X122194Y397769D02*
G54D19*
D03*
X89694Y359569D02*
G54D19*
D03*
X122194Y359669D02*
G54D19*
D03*
X96044Y270669D02*
G54D19*
D03*
X128544Y270769D02*
G54D19*
D03*
X230981Y340519D02*
G54D19*
D03*
X263481Y340619D02*
G54D19*
D03*
X179388Y207962D02*
G54D19*
D03*
X211888Y208062D02*
G54D19*
D03*
X179388Y168275D02*
G54D19*
D03*
X211888Y168375D02*
G54D19*
D03*
X179388Y117475D02*
G54D19*
D03*
X211888Y117575D02*
G54D19*
D03*
X179388Y80962D02*
G54D19*
D03*
X211888Y81062D02*
G54D19*
D03*
X1008856Y397669D02*
G54D19*
D03*
X1041356Y397769D02*
G54D19*
D03*
X1162800Y397769D02*
G54D19*
D03*
X1195300Y397869D02*
G54D19*
D03*
X1264356Y397869D02*
G54D19*
D03*
X1296856Y397969D02*
G54D19*
D03*
X218281Y-47625D02*
G54D19*
D03*
X250781Y-47525D02*
G54D19*
D03*
X218281Y-85725D02*
G54D19*
D03*
X250781Y-85625D02*
G54D19*
D03*
X218281Y-122238D02*
G54D19*
D03*
X250781Y-122138D02*
G54D19*
D03*
X306344Y-47525D02*
G54D19*
D03*
X338844Y-47425D02*
G54D19*
D03*
X306344Y-8631D02*
G54D19*
D03*
X338844Y-8531D02*
G54D19*
D03*
X306344Y-84831D02*
G54D19*
D03*
X338844Y-84731D02*
G54D19*
D03*
X306344Y-135631D02*
G54D19*
D03*
X338844Y-135531D02*
G54D19*
D03*
X382544Y29469D02*
G54D19*
D03*
X415044Y29569D02*
G54D19*
D03*
X447631Y29469D02*
G54D19*
D03*
X480131Y29569D02*
G54D19*
D03*
X549188Y29569D02*
G54D19*
D03*
X581688Y29669D02*
G54D19*
D03*
X549188Y-34725D02*
G54D19*
D03*
X581688Y-34625D02*
G54D19*
D03*
X613438Y29669D02*
G54D19*
D03*
X645938Y29769D02*
G54D19*
D03*
X613438Y-3669D02*
G54D19*
D03*
X645938Y-3569D02*
G54D19*
D03*
X614231Y-34625D02*
G54D19*
D03*
X646731Y-34525D02*
G54D19*
D03*
X613438Y61419D02*
G54D19*
D03*
X645938Y61519D02*
G54D19*
D03*
X613438Y92375D02*
G54D19*
D03*
X645938Y92475D02*
G54D19*
D03*
X523744Y131269D02*
G54D19*
D03*
X556244Y131369D02*
G54D19*
D03*
X581688Y194769D02*
G54D19*
D03*
X614188Y194869D02*
G54D19*
D03*
X664238Y182069D02*
G54D19*
D03*
X696738Y182169D02*
G54D19*
D03*
X766631Y169369D02*
G54D19*
D03*
X799131Y169469D02*
G54D19*
D03*
X856325Y144366D02*
G54D19*
D03*
X888825Y144466D02*
G54D19*
D03*
X983281Y144862D02*
G54D19*
D03*
X1015781Y144962D02*
G54D19*
D03*
X856325Y229694D02*
G54D19*
D03*
X888825Y229794D02*
G54D19*
D03*
X922956Y229794D02*
G54D19*
D03*
X955456Y229894D02*
G54D19*
D03*
X996731Y229894D02*
G54D19*
D03*
X1029231Y229994D02*
G54D19*
D03*
X1086381Y229994D02*
G54D19*
D03*
X1118881Y230094D02*
G54D19*
D03*
X1214131Y230094D02*
G54D19*
D03*
X1246631Y230194D02*
G54D19*
D03*
X1214131Y180881D02*
G54D19*
D03*
X1246631Y180981D02*
G54D19*
D03*
X1250262Y143669D02*
G54D20*
D03*
X1211262Y143669D02*
G54D20*
D03*
X1214131Y41975D02*
G54D19*
D03*
X1246631Y42075D02*
G54D19*
D03*
X1295709Y312541D02*
G54D19*
D03*
X1328209Y312641D02*
G54D19*
D03*
X1355638Y168475D02*
G54D19*
D03*
X1388138Y168575D02*
G54D19*
D03*
X1457238Y238325D02*
G54D19*
D03*
X1489738Y238425D02*
G54D19*
D03*
X1457238Y296269D02*
G54D19*
D03*
X1489738Y296369D02*
G54D19*
D03*
X1457238Y181969D02*
G54D19*
D03*
X1489738Y182069D02*
G54D19*
D03*
X1443744Y54969D02*
G54D19*
D03*
X1476244Y55069D02*
G54D19*
D03*
X1443744Y-33138D02*
G54D19*
D03*
X1476244Y-33038D02*
G54D19*
D03*
X1317538Y-87112D02*
G54D19*
D03*
X1350038Y-87012D02*
G54D19*
D03*
X1098462Y-87112D02*
G54D19*
D03*
X1130962Y-87012D02*
G54D19*
D03*
X1406438Y-109338D02*
G54D19*
D03*
X1438938Y-109238D02*
G54D19*
D03*
X1406438Y-160931D02*
G54D19*
D03*
X1438938Y-160831D02*
G54D19*
D03*
X1022350Y708025D02*
G54D19*
D03*
X1054850Y708125D02*
G54D19*
D03*
X1118350Y708125D02*
G54D19*
D03*
X1150850Y708225D02*
G54D19*
D03*
X1124700Y626369D02*
G54D19*
D03*
X1157200Y626469D02*
G54D19*
D03*
X1188950Y626469D02*
G54D19*
D03*
X1221450Y626569D02*
G54D19*
D03*
X1124700Y512069D02*
G54D19*
D03*
X1157200Y512169D02*
G54D19*
D03*
X1236769Y511969D02*
G54D20*
D03*
X1197769Y511969D02*
G54D20*
D03*
X1347744Y530325D02*
G54D19*
D03*
X1380244Y530425D02*
G54D19*
D03*
X1469188Y523181D02*
G54D19*
D03*
X1501688Y523281D02*
G54D19*
D03*
X1531850Y523281D02*
G54D19*
D03*
X1564350Y523381D02*
G54D19*
D03*
X1673975Y486669D02*
G54D19*
D03*
X1706475Y486769D02*
G54D19*
D03*
X1838238Y486769D02*
G54D19*
D03*
X1870738Y486869D02*
G54D19*
D03*
X1545388Y409675D02*
G54D19*
D03*
X1577888Y409775D02*
G54D19*
D03*
X1545388Y372369D02*
G54D19*
D03*
X1577888Y372469D02*
G54D19*
D03*
X1545388Y337444D02*
G54D19*
D03*
X1577888Y337544D02*
G54D19*
D03*
X1616781Y337544D02*
G54D19*
D03*
X1649281Y337644D02*
G54D19*
D03*
X1735888Y626369D02*
G54D19*
D03*
X1768388Y626469D02*
G54D19*
D03*
X1735888Y664469D02*
G54D19*
D03*
X1768388Y664569D02*
G54D19*
D03*
X1685881Y334269D02*
G54D19*
D03*
X1718381Y334369D02*
G54D19*
D03*
X1685881Y296169D02*
G54D19*
D03*
X1718381Y296269D02*
G54D19*
D03*
X1750925Y334369D02*
G54D19*
D03*
X1783425Y334469D02*
G54D19*
D03*
X1750925Y296269D02*
G54D19*
D03*
X1783425Y296369D02*
G54D19*
D03*
X1915188Y334469D02*
G54D19*
D03*
X1947688Y334569D02*
G54D19*
D03*
X1915188Y296369D02*
G54D19*
D03*
X1947688Y296469D02*
G54D19*
D03*
X1915188Y220962D02*
G54D19*
D03*
X1947688Y221062D02*
G54D19*
D03*
X1839825Y374056D02*
G54D19*
D03*
X1872325Y374156D02*
G54D19*
D03*
X1839031Y258962D02*
G54D19*
D03*
X1871531Y259062D02*
G54D19*
D03*
X1839031Y145456D02*
G54D19*
D03*
X1871531Y145556D02*
G54D19*
D03*
X1915188Y120156D02*
G54D19*
D03*
X1947688Y120256D02*
G54D19*
D03*
X1839031Y24806D02*
G54D19*
D03*
X1871531Y24906D02*
G54D19*
D03*
X1595350Y193875D02*
G54D19*
D03*
X1627850Y193975D02*
G54D19*
D03*
X1632656Y-71238D02*
G54D19*
D03*
X1665156Y-71138D02*
G54D19*
D03*
X1839031Y-83144D02*
G54D19*
D03*
X1871531Y-83044D02*
G54D19*
D03*
X1685881Y169962D02*
G54D19*
D03*
X1718381Y170062D02*
G54D19*
D03*
X1749338Y170062D02*
G54D19*
D03*
X1781838Y170162D02*
G54D19*
D03*
X1685881Y131862D02*
G54D19*
D03*
X1718381Y131962D02*
G54D19*
D03*
X1749338Y131962D02*
G54D19*
D03*
X1781838Y132062D02*
G54D19*
D03*
X1685881Y94556D02*
G54D19*
D03*
X1718381Y94656D02*
G54D19*
D03*
X1749338Y94656D02*
G54D19*
D03*
X1781838Y94756D02*
G54D19*
D03*
X1685881Y56456D02*
G54D19*
D03*
X1718381Y56556D02*
G54D19*
D03*
X1749338Y56556D02*
G54D19*
D03*
X1781838Y56656D02*
G54D19*
D03*
X1685881Y17562D02*
G54D19*
D03*
X1718381Y17662D02*
G54D19*
D03*
X1749338Y17662D02*
G54D19*
D03*
X1781838Y17762D02*
G54D19*
D03*
X1663656Y-187225D02*
G54D19*
D03*
X1696156Y-187125D02*
G54D19*
D03*
X1663656Y-218181D02*
G54D19*
D03*
X1696156Y-218081D02*
G54D19*
D03*
X1736681Y-187225D02*
G54D19*
D03*
X1769181Y-187125D02*
G54D19*
D03*
X1736681Y-218181D02*
G54D19*
D03*
X1769181Y-218081D02*
G54D19*
D03*
X1816850Y-184844D02*
G54D19*
D03*
X1849350Y-184744D02*
G54D19*
D03*
X1816850Y-215800D02*
G54D19*
D03*
X1849350Y-215700D02*
G54D19*
D03*
X1899400Y-186431D02*
G54D19*
D03*
X1931900Y-186331D02*
G54D19*
D03*
X1899400Y-217388D02*
G54D19*
D03*
X1931900Y-217288D02*
G54D19*
D03*
X1583488Y-182462D02*
G54D19*
D03*
X1615988Y-182362D02*
G54D19*
D03*
X1583488Y-213419D02*
G54D19*
D03*
X1615988Y-213319D02*
G54D19*
D03*
X1499350Y-172938D02*
G54D19*
D03*
X1531850Y-172838D02*
G54D19*
D03*
X1499350Y-203894D02*
G54D19*
D03*
X1531850Y-203794D02*
G54D19*
D03*
X1632656Y-114100D02*
G54D19*
D03*
X1665156Y-114000D02*
G54D19*
D03*
X1712825Y-114100D02*
G54D19*
D03*
X1745325Y-114000D02*
G54D19*
D03*
X1556456Y-116481D02*
G54D19*
D03*
X1588956Y-116381D02*
G54D19*
D03*
X2004925Y-57744D02*
G54D19*
D03*
X2037425Y-57644D02*
G54D19*
D03*
X2004925Y-112512D02*
G54D19*
D03*
X2037425Y-112412D02*
G54D19*
D03*
X2004925Y-145850D02*
G54D19*
D03*
X2037425Y-145750D02*
G54D19*
D03*
X2082712Y-111719D02*
G54D19*
D03*
X2115213Y-111619D02*
G54D19*
D03*
X2045406Y-11706D02*
G54D19*
D03*
X2077906Y-11606D02*
G54D19*
D03*
X2117638Y-11706D02*
G54D19*
D03*
X2150138Y-11606D02*
G54D19*
D03*
X1835106Y601762D02*
G54D19*
D03*
X1867606Y601862D02*
G54D19*
D03*
X1838281Y715269D02*
G54D19*
D03*
X1870781Y715369D02*
G54D19*
D03*
X1916025Y576462D02*
G54D19*
D03*
X1948525Y576562D02*
G54D19*
D03*
X2005719Y576462D02*
G54D19*
D03*
X2038219Y576562D02*
G54D19*
D03*
X2005719Y613769D02*
G54D19*
D03*
X2038219Y613869D02*
G54D19*
D03*
X2005719Y651869D02*
G54D19*
D03*
X2038219Y651969D02*
G54D19*
D03*
X2005719Y689969D02*
G54D19*
D03*
X2038219Y690069D02*
G54D19*
D03*
X2017625Y816969D02*
G54D19*
D03*
X2050125Y817069D02*
G54D19*
D03*
X2017625Y778869D02*
G54D19*
D03*
X2050125Y778969D02*
G54D19*
D03*
X2094575Y817069D02*
G54D19*
D03*
X2127075Y817169D02*
G54D19*
D03*
X2094575Y778969D02*
G54D19*
D03*
X2127075Y779069D02*
G54D19*
D03*
X156369Y-110331D02*
G54D16*
D03*
X1698581Y727175D02*
G54D19*
D03*
X1731081Y727275D02*
G54D19*
D03*
X1698581Y766069D02*
G54D19*
D03*
X1731081Y766169D02*
G54D19*
D03*
X1621588Y727175D02*
G54D19*
D03*
X1654088Y727275D02*
G54D19*
D03*
X1621588Y766069D02*
G54D19*
D03*
X1654088Y766169D02*
G54D19*
D03*
X1621588Y803375D02*
G54D19*
D03*
X1654088Y803475D02*
G54D19*
D03*
X1621588Y854175D02*
G54D19*
D03*
X1654088Y854275D02*
G54D19*
D03*
X1531894Y854175D02*
G54D19*
D03*
X1564394Y854275D02*
G54D19*
D03*
X1531894Y816075D02*
G54D19*
D03*
X1564394Y816175D02*
G54D19*
D03*
X1531894Y777975D02*
G54D19*
D03*
X1564394Y778075D02*
G54D19*
D03*
X1468394Y816075D02*
G54D19*
D03*
X1500894Y816175D02*
G54D19*
D03*
X1468394Y854969D02*
G54D19*
D03*
X1500894Y855069D02*
G54D19*
D03*
X1404894Y816075D02*
G54D19*
D03*
X1437394Y816175D02*
G54D19*
D03*
X1404894Y854969D02*
G54D19*
D03*
X1437394Y855069D02*
G54D19*
D03*
X1404894Y771625D02*
G54D19*
D03*
X1437394Y771725D02*
G54D19*
D03*
X1854156Y801788D02*
G54D19*
D03*
X1886656Y801888D02*
G54D19*
D03*
X1788275Y840681D02*
G54D19*
D03*
X1820775Y840781D02*
G54D19*
D03*
X342962Y689075D02*
G54D20*
D03*
X303962Y689075D02*
G54D20*
D03*
X1304044Y918172D02*
G54D21*
D03*
X1692981Y918172D02*
G54D21*
D03*
X688181Y918347D02*
G54D21*
D03*
X1161256Y918347D02*
G54D21*
D03*
X177800Y869156D02*
G54D10*
D03*
X177800Y843756D02*
G54D10*
D03*
X152400Y869156D02*
G54D10*
D03*
X152400Y843756D02*
G54D10*
D03*
X127000Y869156D02*
G54D10*
D03*
X127000Y843756D02*
G54D10*
D03*
G36*
X138988Y985756D02*
X168988Y985756D01*
X168988Y955756D01*
X138988Y955756D01*
X138988Y985756D01*
G37*
X103188Y919956D02*
G54D22*
D03*
X203200Y919956D02*
G54D22*
D03*
M02*
